<svg xmlns="http://www.w3.org/2000/svg" xmlns:xlink="http://www.w3.org/1999/xlink" width="398.522" height="231.978" viewBox="0 0 398.522 231.978">
  <defs>
    <radialGradient id="radial-gradient" cx="-6.323" cy="0.107" r="7.399" gradientTransform="translate(0.099) scale(0.803 1)" gradientUnits="objectBoundingBox">
      <stop offset="0" stop-color="#01c8ef"/>
      <stop offset="0.089" stop-color="#02bee8"/>
      <stop offset="0.239" stop-color="#07a4d7"/>
      <stop offset="0.429" stop-color="#107bba"/>
      <stop offset="0.446" stop-color="#1177b8"/>
      <stop offset="1" stop-color="#112564"/>
    </radialGradient>
  </defs>
  <g id="Grupo_146474" data-name="Grupo 146474" transform="translate(-229 -426)">
    <path id="Trazado_188704" data-name="Trazado 188704" d="M1452.656,305.04a87.131,87.131,0,0,0-15.322,1.747c24.789-44.264-.626-78.935-58.281-77.968-46.946.79-100.956,24.993-134.954,57.881-8.251-5.345-19.891-8.367-34.516-8.122-42.029.708-92.066,27.679-111.751,60.245s-1.571,58.393,40.458,57.686l261.735-4.4c31.027-.517,67.967-20.433,82.5-44.477S1483.69,304.523,1452.656,305.04Z" transform="translate(-860.879 207.439)" fill="#00defc" opacity="0.15"/>
    <g id="Grupo_132220" data-name="Grupo 132220" transform="translate(77.822 384.675)">
      <g id="Grupo_132182" data-name="Grupo 132182" transform="translate(281.791 57.653)">
        <path id="Trazado_192539" data-name="Trazado 192539" d="M333.7,246.774c-7,4.041-18.35,4.041-25.352,0s-7-10.6,0-14.637,18.351-4.042,25.352,0S340.7,242.732,333.7,246.774Z" transform="translate(-299.377 -100.582)" fill="#c4d9e8" opacity="0.5"/>
        <ellipse id="Elipse_4904" data-name="Elipse 4904" cx="25.237" cy="14.571" rx="25.237" ry="14.571" transform="translate(142.376 178.968)" fill="#c4d9e8" opacity="0.5"/>
        <g id="Grupo_132181" data-name="Grupo 132181">
          <path id="Trazado_192540" data-name="Trazado 192540" d="M313.013,77.594s.467,9.64,1.2,16.119,16.336-4.976,16.336-4.976V81.361Z" transform="translate(-301.643 -65.944)" fill="#6614cf"/>
          <g id="Grupo_132180" data-name="Grupo 132180" transform="translate(0 3.492)">
            <path id="Trazado_192541" data-name="Trazado 192541" d="M323.739,231.914c.235.585,4.277,5.507,8.319,6.737a9.3,9.3,0,0,0,3.714.513,1.224,1.224,0,0,0,1-1.631,15.359,15.359,0,0,0-7.755-8.548C322.157,225.586,323.739,231.914,323.739,231.914Z" transform="translate(-304.059 -103.817)" fill="#173d7a"/>
            <path id="Trazado_192542" data-name="Trazado 192542" d="M320.363,235.53a33.465,33.465,0,0,1,1.992,6.561c.285,1.823-.714,4.19-1.538,5.76a1.682,1.682,0,0,1-2.622.454,9.726,9.726,0,0,1-3.281-6.272c-.469-5.038,0-5.917,0-5.917Z" transform="translate(-302.03 -105.543)" fill="#173d7a"/>
            <path id="Trazado_192543" data-name="Trazado 192543" d="M309.345,155.111a95.919,95.919,0,0,0,0,13.387c.528,7.03,2.415,39.91,2.767,47.82,0,0-.176,2.4,4.46,1.868S320.834,215,320.834,215s6.511-.088,6.716-3.926,6.669-45.826,6.669-60.922Z" transform="translate(-299.751 -86.024)" fill="#ffb30b"/>
            <g id="Grupo_132179" data-name="Grupo 132179" transform="translate(0 0)">
              <path id="Trazado_192544" data-name="Trazado 192544" d="M343.955,113.977l3.19,4.941,10.964,13.244a2.457,2.457,0,0,1-1.742,1.55c-1.066.251-10.288-8.547-14.271-12.408a3.058,3.058,0,0,1-.42-3.886Z" transform="translate(-308.079 -77.754)" fill="#ffc2b0"/>
              <path id="Trazado_192545" data-name="Trazado 192545" d="M336.714,87.689s5.067-.132,6.831,7.192,3.144,16.492,1.61,17.254c-4.605,2.287-7.52-.39-7.52-.39Z" transform="translate(-307.061 -71.744)" fill="#084a93"/>
              <path id="Trazado_192546" data-name="Trazado 192546" d="M330.77,88a4.148,4.148,0,0,0-2.735-.15c-4.317,1.24-20.548,6-23.223,8.29-3.091,2.642,4.635,17.487,4.524,22.353s-.66,10.6-1.09,15.9-1.012,8.192,3.315,10.441,11.717,2.353,17.247-1.861,4.528-7.1,4.3-10.158-2.114-16.292-1.95-20.048a14.219,14.219,0,0,0,3.393-3.9c1.443-2.462-1.106-6.988-2.165-9.931s.6-6.307.27-8.707A2.725,2.725,0,0,0,330.77,88Z" transform="translate(-299.601 -71.743)" fill="#084a93"/>
              <ellipse id="Elipse_4905" data-name="Elipse 4905" cx="6.148" cy="4.881" rx="6.148" ry="4.881" transform="matrix(0.992, -0.127, 0.127, 0.992, 13.164, 18.038)" fill="#fff"/>
              <path id="Trazado_192547" data-name="Trazado 192547" d="M327.108,94.069c.245,1.911-1.508,3.71-3.916,4.018s-4.557-.991-4.8-2.9,1.508-3.71,3.916-4.018S326.863,92.157,327.108,94.069Z" transform="translate(-302.867 -72.529)" fill="#ffc2b0"/>
              <path id="Trazado_192548" data-name="Trazado 192548" d="M325.246,86.353s-2.93-2.41-3.505-1.189-1.05,6.458-1.05,6.458l5.819,1.563-.883-5.306S326.791,86.891,325.246,86.353Z" transform="translate(-303.398 -71.088)" fill="#ffc2b0"/>
              <circle id="Elipse_4906" data-name="Elipse 4906" cx="8.688" cy="8.688" r="8.688" transform="translate(13.256 0.663) rotate(-2.188)" fill="#ffc2b0"/>
              <path id="Trazado_192549" data-name="Trazado 192549" d="M321.482,87.112c-.052.273-.1.567-.148.866.585,3.022,5.108,4.346,5.108,4.346l-.669-4.016s.548-.465.393-.931C324.379,86.813,322.126,86.313,321.482,87.112Z" transform="translate(-303.545 -71.517)" fill="#ea9c92"/>
              <circle id="Elipse_4907" data-name="Elipse 4907" cx="8.688" cy="8.688" r="8.688" transform="translate(13.256 0.663) rotate(-2.188)" fill="#ffc2b0"/>
              <path id="Trazado_192550" data-name="Trazado 192550" d="M299.392,126.378l.973,23.249,3.4.351,2.212-20.929Z" transform="translate(-298.529 -80.589)" fill="#ffc2b0"/>
              <path id="Trazado_192551" data-name="Trazado 192551" d="M312.6,119.137c-1.125-4.965-3.347-15.933-3.347-15.933l-.95,10.91c1.1,3.235,2.037,6.205,2,7.926-.066,2.857-.283,6.014-.537,9.2v.01S313.724,124.1,312.6,119.137Z" transform="translate(-300.566 -75.291)" fill="#8a2ae3"/>
              <path id="Trazado_192552" data-name="Trazado 192552" d="M304.133,98.026s-2.718,1.038-4.257,9.387-2.688,16.71.054,17.788,5.033,1.888,5.839-.345,1.306-12.992,1.408-16.862S307.426,98.79,304.133,98.026Z" transform="translate(-298.273 -74.107)" fill="#084a93"/>
              <path id="Trazado_192553" data-name="Trazado 192553" d="M360.9,136.224a7.292,7.292,0,0,1,2.536,1.7,16.413,16.413,0,0,1,1.733,2.326c.847,1.263,1.561,3.993,1.044,4.333s-3.469-4.57-3.945-3.428,0,2.2-.606,2.215-2.731-4.936-4.4-6.472S360.9,136.224,360.9,136.224Z" transform="translate(-311.685 -82.785)" fill="#ffc2b0"/>
            </g>
            <path id="Trazado_192554" data-name="Trazado 192554" d="M324.308,219.013a13.315,13.315,0,0,0,1.861-.193h0l1.274-51.11Z" transform="translate(-304.225 -90.039)" fill="#d8892b"/>
          </g>
          <path id="Trazado_192555" data-name="Trazado 192555" d="M300.458,155.43a52.575,52.575,0,0,0-.763,7.165c.135,1.738,1.065,4.605,1.771,4.544s.023-6.99,1.264-6.3,1.371,1.874,1.932,1.456-.98-6.34-.569-8.909S300.458,155.43,300.458,155.43Z" transform="translate(-298.595 -83.094)" fill="#ffc2b0"/>
          <path id="Trazado_192556" data-name="Trazado 192556" d="M329.613,78.339c4.358,1.547,5.207.6,5.249.553.04-.263.072-.529.088-.8a8.666,8.666,0,0,0-.29-2.775L323.352,73.79A12.324,12.324,0,0,0,329.613,78.339Z" transform="translate(-304.007 -65.075)" fill="#ea9c92"/>
          <path id="Trazado_192557" data-name="Trazado 192557" d="M332.9,66.854c-1.028-.881-4.734-5.234-11.373-4.206-4.15.642-7.648,3.473-8.423,9.93a14.844,14.844,0,0,0,4.015,11.805,3.57,3.57,0,0,0,.472-.239c1.663-1.095,1.842-1.7,1.842-1.7l.368-3.3a.922.922,0,0,0-.828-.913,1.659,1.659,0,0,1-1.217-.741,1.939,1.939,0,0,1,1.394-3.265,1.463,1.463,0,0,0,1.524-1.083.779.779,0,0,1,1.017-.53c2.17.785,7.517,2.478,10.958,1.5C337.046,72.87,333.922,67.734,332.9,66.854Z" transform="translate(-301.64 -62.492)" fill="#041e3b"/>
          <path id="Trazado_192558" data-name="Trazado 192558" d="M331.6,84.558l2.657-.73a6.412,6.412,0,0,1-3.121,2.5c-1.852.509-2.141-1.059-2.141-1.059Z" transform="translate(-305.297 -67.37)" fill="#fff"/>
        </g>
      </g>
      <g id="Grupo_132195" data-name="Grupo 132195" transform="translate(324.253 41.325)">
        <g id="Grupo_132193" data-name="Grupo 132193">
          <path id="Trazado_192559" data-name="Trazado 192559" d="M420.008,305.338l-60.159-34.3c-2.2-1.27-1.925-3.489.616-4.956l34.615-19.984c2.54-1.467,6.383-1.626,8.583-.356l60.16,34.3c2.2,1.27,1.925,3.489-.616,4.955l-34.614,19.985C426.051,306.449,422.208,306.609,420.008,305.338Z" transform="translate(-354.472 -87.861)" fill="#c4d9e8" opacity="0.5"/>
          <path id="Trazado_192560" data-name="Trazado 192560" d="M468.038,227.505h0V87.059L412.2,72.445l-10.285-5.937c-2.36-1.363-6.483-1.192-9.208.382l-9.6,5.539-29.78-.016,8.818,135.582a2.669,2.669,0,0,0,1.581,2.467L419.453,252.5c2.36,1.362,6.483,1.192,9.209-.382L465.8,230.683C467.367,229.775,468.125,228.6,468.038,227.505Z" transform="translate(-353.323 -46.871)" fill="#396caa"/>
          <path id="Trazado_192561" data-name="Trazado 192561" d="M397.645,65.6a10.628,10.628,0,0,0-4.936,1.3l-9.6,5.539-29.78-.016V213.238a2.669,2.669,0,0,0,1.581,2.468l64.537,36.8a8.329,8.329,0,0,0,4.273.913l.666-141.7Z" transform="translate(-353.321 -46.873)" fill="#d4ecff"/>
          <path id="Trazado_192562" data-name="Trazado 192562" d="M439.817,265.967a10.494,10.494,0,0,0,7.361-.084V123.21h-7.361Z" transform="translate(-373.094 -60.045)" fill="#5793ce"/>
          <path id="Trazado_192563" data-name="Trazado 192563" d="M419.45,106.181l-64.537-36.8c-2.36-1.363-2.064-3.743.661-5.316l37.133-21.439c2.725-1.574,6.848-1.744,9.208-.382l64.538,36.8c2.36,1.363,2.064,3.744-.661,5.316L428.659,105.8C425.933,107.373,421.81,107.544,419.45,106.181Z" transform="translate(-353.319 -41.325)" fill="#d4ecff"/>
          <path id="Trazado_192564" data-name="Trazado 192564" d="M465.792,88.981,428.659,110.42c-2.726,1.574-6.848,1.744-9.209.382L354.913,74a3.55,3.55,0,0,1-1.178-1.045c-.811,1.3-.444,2.721,1.178,3.656l64.537,36.8c2.36,1.362,6.483,1.192,9.209-.382l37.133-21.439c2.117-1.223,2.761-2.93,1.839-4.271A5.148,5.148,0,0,1,465.792,88.981Z" transform="translate(-353.319 -48.556)" fill="#fafdff"/>
          <g id="Grupo_132184" data-name="Grupo 132184" transform="translate(24.243 11.906)">
            <path id="Trazado_192565" data-name="Trazado 192565" d="M428.461,94.8,385.493,69.889c-1.1-.638-.966-1.752.309-2.488l17.376-10.033a4.792,4.792,0,0,1,4.309-.179L450.455,82.1c1.1.638.967,1.752-.309,2.488L432.77,94.617A4.79,4.79,0,0,1,428.461,94.8Z" transform="translate(-384.747 -56.759)" fill="#173d7a"/>
            <g id="Grupo_132183" data-name="Grupo 132183" transform="translate(17.923 10.994)">
              <path id="Trazado_192566" data-name="Trazado 192566" d="M410.575,74.266l-2.49-1.438c-.153-.088-.133-.242.043-.344l2.4-1.388a.662.662,0,0,1,.6-.025l2.49,1.437c.153.089.133.242-.042.344l-2.4,1.388A.664.664,0,0,1,410.575,74.266Z" transform="translate(-407.982 -71.012)" fill="#d4ecff"/>
              <path id="Trazado_192567" data-name="Trazado 192567" d="M421.359,80.466l-2.489-1.437c-.153-.089-.134-.242.042-.344l2.4-1.388a.664.664,0,0,1,.6-.025l2.489,1.438c.153.088.134.242-.042.344l-2.4,1.388A.661.661,0,0,1,421.359,80.466Z" transform="translate(-410.448 -72.429)" fill="#d4ecff"/>
              <path id="Trazado_192568" data-name="Trazado 192568" d="M432.142,86.667l-2.49-1.438c-.153-.088-.133-.242.042-.344l2.4-1.388a.659.659,0,0,1,.6-.025l2.49,1.437c.153.088.133.242-.043.344l-2.4,1.388A.664.664,0,0,1,432.142,86.667Z" transform="translate(-412.913 -73.847)" fill="#d4ecff"/>
              <path id="Trazado_192569" data-name="Trazado 192569" d="M442.926,92.867l-2.49-1.437c-.153-.089-.133-.242.043-.345l2.4-1.388a.664.664,0,0,1,.6-.025l2.49,1.437c.153.089.133.243-.042.345l-2.4,1.388A.662.662,0,0,1,442.926,92.867Z" transform="translate(-415.378 -75.264)" fill="#d4ecff"/>
            </g>
            <path id="Trazado_192570" data-name="Trazado 192570" d="M385.493,69.889l.051.029a2.981,2.981,0,0,1,.258-.178l17.376-10.032a4.79,4.79,0,0,1,4.309-.179L450.4,84.407c1.018-.729,1.071-1.721.051-2.31L407.487,57.189a4.79,4.79,0,0,0-4.309.179L385.8,67.4C384.527,68.137,384.388,69.251,385.493,69.889Z" transform="translate(-384.747 -56.759)" fill="#5793ce"/>
          </g>
          <g id="Grupo_132186" data-name="Grupo 132186" transform="translate(8.824 49.477)">
            <path id="Trazado_192571" data-name="Trazado 192571" d="M414.935,148.671l-47.687-27.532a5.963,5.963,0,0,1-2.489-4.756v-8.737c0-1.833,1.115-2.675,2.489-1.881L414.935,133.3a5.961,5.961,0,0,1,2.489,4.756v8.737C417.424,148.622,416.31,149.465,414.935,148.671Z" transform="translate(-364.759 -105.466)" fill="#5793ce"/>
            <g id="Grupo_132185" data-name="Grupo 132185" transform="translate(36.293 25.956)">
              <path id="Trazado_192572" data-name="Trazado 192572" d="M424.305,149.923l-2.241-1.294a1.3,1.3,0,0,1-.542-1.037V145.2c0-.4.243-.583.542-.41l2.241,1.294a1.3,1.3,0,0,1,.543,1.037v2.394C424.848,149.912,424.605,150.1,424.305,149.923Z" transform="translate(-414.029 -140.397)" fill="#173d7a"/>
              <path id="Trazado_192573" data-name="Trazado 192573" d="M414.591,144.314l-2.241-1.294a1.3,1.3,0,0,1-.542-1.037V139.59c0-.4.243-.583.542-.41l2.241,1.294a1.3,1.3,0,0,1,.543,1.037V143.9C415.134,144.3,414.891,144.487,414.591,144.314Z" transform="translate(-411.808 -139.115)" fill="#173d7a"/>
            </g>
          </g>
          <g id="Grupo_132188" data-name="Grupo 132188" transform="translate(8.824 81.043)">
            <path id="Trazado_192574" data-name="Trazado 192574" d="M414.935,189.591l-47.687-27.532a5.961,5.961,0,0,1-2.489-4.756v-8.737c0-1.833,1.115-2.676,2.489-1.882l47.687,27.532a5.963,5.963,0,0,1,2.489,4.756v8.737C417.424,189.543,416.31,190.385,414.935,189.591Z" transform="translate(-364.759 -146.386)" fill="#5793ce"/>
            <g id="Grupo_132187" data-name="Grupo 132187" transform="translate(36.293 25.956)">
              <path id="Trazado_192575" data-name="Trazado 192575" d="M424.305,190.843l-2.241-1.294a1.3,1.3,0,0,1-.542-1.037v-2.394c0-.4.243-.583.542-.41L424.305,187a1.3,1.3,0,0,1,.543,1.037v2.394C424.848,190.832,424.605,191.016,424.305,190.843Z" transform="translate(-414.029 -181.317)" fill="#173d7a"/>
              <path id="Trazado_192576" data-name="Trazado 192576" d="M414.591,185.235l-2.241-1.294a1.3,1.3,0,0,1-.542-1.037V180.51c0-.4.243-.583.542-.41l2.241,1.294a1.3,1.3,0,0,1,.543,1.037v2.394C415.134,185.224,414.891,185.408,414.591,185.235Z" transform="translate(-411.808 -180.035)" fill="#d4ecff"/>
            </g>
          </g>
          <g id="Grupo_132190" data-name="Grupo 132190" transform="translate(8.824 112.608)">
            <path id="Trazado_192577" data-name="Trazado 192577" d="M414.935,230.511,367.248,202.98a5.963,5.963,0,0,1-2.489-4.756v-8.737c0-1.833,1.115-2.675,2.489-1.881l47.687,27.532a5.961,5.961,0,0,1,2.489,4.756v8.737C417.424,230.463,416.31,231.305,414.935,230.511Z" transform="translate(-364.759 -187.307)" fill="#5793ce"/>
            <g id="Grupo_132189" data-name="Grupo 132189" transform="translate(36.293 25.956)">
              <path id="Trazado_192578" data-name="Trazado 192578" d="M424.305,231.764l-2.241-1.294a1.3,1.3,0,0,1-.542-1.037v-2.394c0-.4.243-.583.542-.41l2.241,1.294a1.3,1.3,0,0,1,.543,1.037v2.394C424.848,231.753,424.605,231.937,424.305,231.764Z" transform="translate(-414.029 -222.238)" fill="#d4ecff"/>
              <path id="Trazado_192579" data-name="Trazado 192579" d="M414.591,226.155l-2.241-1.294a1.3,1.3,0,0,1-.542-1.037v-2.394c0-.4.243-.583.542-.41l2.241,1.294a1.3,1.3,0,0,1,.543,1.037v2.394C415.134,226.144,414.891,226.328,414.591,226.155Z" transform="translate(-411.808 -220.956)" fill="#173d7a"/>
            </g>
          </g>
          <g id="Grupo_132192" data-name="Grupo 132192" transform="translate(8.824 144.173)">
            <path id="Trazado_192580" data-name="Trazado 192580" d="M414.935,271.432,367.248,243.9a5.961,5.961,0,0,1-2.489-4.756v-8.736c0-1.834,1.115-2.676,2.489-1.882l47.687,27.532a5.962,5.962,0,0,1,2.489,4.756v8.736C417.424,271.384,416.31,272.226,414.935,271.432Z" transform="translate(-364.759 -228.227)" fill="#5793ce"/>
            <g id="Grupo_132191" data-name="Grupo 132191" transform="translate(36.293 25.956)">
              <path id="Trazado_192581" data-name="Trazado 192581" d="M424.305,272.684l-2.241-1.294a1.3,1.3,0,0,1-.542-1.037V267.96c0-.4.243-.583.542-.41l2.241,1.294a1.3,1.3,0,0,1,.543,1.037v2.394C424.848,272.673,424.605,272.857,424.305,272.684Z" transform="translate(-414.029 -263.158)" fill="#d4ecff"/>
              <path id="Trazado_192582" data-name="Trazado 192582" d="M414.591,267.076l-2.241-1.294a1.3,1.3,0,0,1-.542-1.037v-2.394c0-.4.243-.583.542-.41l2.241,1.294a1.3,1.3,0,0,1,.543,1.037v2.394C415.134,267.065,414.891,267.249,414.591,267.076Z" transform="translate(-411.808 -261.876)" fill="#d4ecff"/>
            </g>
          </g>
        </g>
        <g id="Grupo_132194" data-name="Grupo 132194" transform="translate(80.1 63.022)">
          <path id="Trazado_192583" data-name="Trazado 192583" d="M459.648,152.685l24.43-13.987a5.963,5.963,0,0,0,2.489-4.756V125.2c0-1.833-1.115-2.675-2.489-1.881l-24.43,13.987a5.961,5.961,0,0,0-2.489,4.756V150.8C457.159,152.636,458.274,153.479,459.648,152.685Z" transform="translate(-457.159 -123.025)" fill="#173d7a"/>
          <path id="Trazado_192584" data-name="Trazado 192584" d="M459.648,193.605l24.43-13.988a5.962,5.962,0,0,0,2.489-4.756v-8.736c0-1.833-1.115-2.676-2.489-1.882l-24.43,13.988a5.963,5.963,0,0,0-2.489,4.756v8.737C457.159,193.557,458.274,194.4,459.648,193.605Z" transform="translate(-457.159 -132.38)" fill="#173d7a"/>
          <path id="Trazado_192585" data-name="Trazado 192585" d="M459.648,234.526l24.43-13.987a5.963,5.963,0,0,0,2.489-4.756v-8.737c0-1.833-1.115-2.675-2.489-1.881l-24.43,13.987a5.961,5.961,0,0,0-2.489,4.756v8.737C457.159,234.477,458.274,235.319,459.648,234.526Z" transform="translate(-457.159 -141.735)" fill="#173d7a"/>
          <path id="Trazado_192586" data-name="Trazado 192586" d="M459.648,275.446l24.43-13.987a5.962,5.962,0,0,0,2.489-4.756v-8.736c0-1.834-1.115-2.676-2.489-1.882l-24.43,13.988a5.961,5.961,0,0,0-2.489,4.756v8.736C457.159,275.4,458.274,276.24,459.648,275.446Z" transform="translate(-457.159 -151.09)" fill="#173d7a"/>
        </g>
      </g>
      <g id="Grupo_132203" data-name="Grupo 132203" transform="translate(226.178 178.882)">
        <path id="Trazado_192587" data-name="Trazado 192587" d="M253.462,307.271l-19.238-11.107c-1.181-.682-1.033-1.872.331-2.66l18.576-10.725a5.119,5.119,0,0,1,4.606-.191L276.976,293.7c1.18.682,1.032,1.873-.331,2.66L258.069,307.08A5.121,5.121,0,0,1,253.462,307.271Z" transform="translate(-227.835 -233.933)" fill="#c4d9e8" opacity="0.5"/>
        <g id="Grupo_132197" data-name="Grupo 132197" transform="translate(0 26.561)">
          <path id="Trazado_192588" data-name="Trazado 192588" d="M281.7,282.417h0v-8.312l-18.638-.011-6.443-3.72a6.413,6.413,0,0,0-5.768.239l-6.011,3.471-18.654-.011v8.549a1.671,1.671,0,0,0,.99,1.545l24.09,13.909a6.415,6.415,0,0,0,5.768-.239l23.261-13.43A2.284,2.284,0,0,0,281.7,282.417Z" transform="translate(-226.179 -258.075)" fill="#721bd5"/>
          <path id="Trazado_192589" data-name="Trazado 192589" d="M253.944,269.8a6.654,6.654,0,0,0-3.092.811l-6.011,3.47-18.654-.011v8.549a1.671,1.671,0,0,0,.99,1.545l24.09,13.909a5.232,5.232,0,0,0,2.677.572Z" transform="translate(-225.179 -258.077)" fill="#983be9"/>
          <path id="Trazado_192590" data-name="Trazado 192590" d="M228.3,275.343l-2.111,0v8.549a1.671,1.671,0,0,0,.99,1.545l1.121.647Z" transform="translate(-226.179 -259.342)" fill="#b45ef4"/>
          <path id="Trazado_192591" data-name="Trazado 192591" d="M259.183,303.8a6.572,6.572,0,0,0,4.611-.052v-9.706h-4.611Z" transform="translate(-233.723 -263.618)" fill="#7e23dc"/>
          <path id="Trazado_192592" data-name="Trazado 192592" d="M251.266,286.084l-24.09-13.908c-1.479-.854-1.294-2.345.414-3.33l23.26-13.43a6.41,6.41,0,0,1,5.768-.239l24.09,13.908c1.479.854,1.293,2.345-.414,3.331l-23.261,13.429A6.41,6.41,0,0,1,251.266,286.084Z" transform="translate(-226.178 -254.601)" fill="#084a93"/>
          <path id="Trazado_192593" data-name="Trazado 192593" d="M253.032,284.351,232.845,272.7c-1.24-.715-1.084-1.965.347-2.79l19.493-11.255a5.373,5.373,0,0,1,4.834-.2l20.188,11.656c1.239.715,1.084,1.965-.347,2.791L257.866,284.15A5.374,5.374,0,0,1,253.032,284.351Z" transform="translate(-227.511 -255.37)" fill="#6614cf"/>
          <g id="Grupo_132196" data-name="Grupo 132196" transform="translate(44.716 22.226)">
            <path id="Trazado_192594" data-name="Trazado 192594" d="M286.091,288.8a2.149,2.149,0,0,1-.973,1.685c-.538.311-.973.059-.973-.562a2.151,2.151,0,0,1,.973-1.685C285.656,287.923,286.091,288.174,286.091,288.8Z" transform="translate(-284.146 -284.485)" fill="#ffb30b"/>
            <path id="Trazado_192595" data-name="Trazado 192595" d="M290.15,286.452a2.15,2.15,0,0,1-.973,1.685c-.537.311-.973.059-.973-.562a2.153,2.153,0,0,1,.973-1.685C289.714,285.58,290.15,285.831,290.15,286.452Z" transform="translate(-285.074 -283.95)" fill="#ffb30b"/>
            <path id="Trazado_192596" data-name="Trazado 192596" d="M294.208,284.109a2.151,2.151,0,0,1-.973,1.685c-.538.31-.973.059-.973-.562a2.151,2.151,0,0,1,.973-1.685C293.772,283.237,294.208,283.488,294.208,284.109Z" transform="translate(-286.001 -283.414)" fill="#ffb30b"/>
          </g>
        </g>
        <g id="Grupo_132199" data-name="Grupo 132199" transform="translate(0 13.48)">
          <path id="Trazado_192597" data-name="Trazado 192597" d="M281.7,264.942h0V256.63l-18.638-.011L256.62,252.9a6.41,6.41,0,0,0-5.768.239l-6.011,3.47-18.654-.01v8.548a1.67,1.67,0,0,0,.99,1.545l24.09,13.909a6.41,6.41,0,0,0,5.768-.239l23.261-13.43A2.284,2.284,0,0,0,281.7,264.942Z" transform="translate(-226.179 -240.6)" fill="#721bd5"/>
          <path id="Trazado_192598" data-name="Trazado 192598" d="M253.944,252.329a6.654,6.654,0,0,0-3.092.811l-6.011,3.47-18.654-.01v8.548a1.67,1.67,0,0,0,.99,1.545l24.09,13.909a5.216,5.216,0,0,0,2.677.572Z" transform="translate(-225.179 -240.601)" fill="#983be9"/>
          <path id="Trazado_192599" data-name="Trazado 192599" d="M228.3,257.867h-2.111v8.548a1.67,1.67,0,0,0,.99,1.545l1.121.647Z" transform="translate(-226.179 -241.867)" fill="#b45ef4"/>
          <path id="Trazado_192600" data-name="Trazado 192600" d="M259.183,286.326a6.573,6.573,0,0,0,4.611-.053v-9.706h-4.611Z" transform="translate(-233.723 -246.142)" fill="#7e23dc"/>
          <path id="Trazado_192601" data-name="Trazado 192601" d="M251.266,268.609,227.176,254.7c-1.479-.853-1.294-2.344.414-3.33l23.26-13.43a6.413,6.413,0,0,1,5.768-.239l24.09,13.909c1.479.853,1.293,2.344-.414,3.33l-23.261,13.43A6.41,6.41,0,0,1,251.266,268.609Z" transform="translate(-226.178 -237.125)" fill="#084a93"/>
          <path id="Trazado_192602" data-name="Trazado 192602" d="M253.032,266.875,232.845,255.22c-1.24-.716-1.084-1.965.347-2.791l19.493-11.254a5.372,5.372,0,0,1,4.834-.2l20.188,11.656c1.239.716,1.084,1.965-.347,2.791l-19.493,11.255A5.374,5.374,0,0,1,253.032,266.875Z" transform="translate(-227.511 -237.895)" fill="#6614cf"/>
          <g id="Grupo_132198" data-name="Grupo 132198" transform="translate(44.716 21.894)">
            <path id="Trazado_192603" data-name="Trazado 192603" d="M286.091,271.319a2.149,2.149,0,0,1-.973,1.685c-.538.31-.973.059-.973-.562a2.149,2.149,0,0,1,.973-1.685C285.656,270.448,286.091,270.7,286.091,271.319Z" transform="translate(-284.146 -266.677)" fill="#ffb30b"/>
            <path id="Trazado_192604" data-name="Trazado 192604" d="M290.15,268.976a2.151,2.151,0,0,1-.973,1.685c-.537.31-.973.059-.973-.562a2.151,2.151,0,0,1,.973-1.685C289.714,268.1,290.15,268.356,290.15,268.976Z" transform="translate(-285.074 -266.142)" fill="#ffb30b"/>
            <ellipse id="Elipse_4908" data-name="Elipse 4908" cx="1.376" cy="0.794" rx="1.376" ry="0.794" transform="matrix(0.5, -0.866, 0.866, 0.5, 5.858, 2.383)" fill="#ffb30b"/>
          </g>
        </g>
        <g id="Grupo_132202" data-name="Grupo 132202">
          <path id="Trazado_192605" data-name="Trazado 192605" d="M281.7,247.466h0v-8.312l-18.638-.011-6.443-3.72a6.41,6.41,0,0,0-5.768.239l-6.011,3.47-18.654-.011v8.548a1.672,1.672,0,0,0,.99,1.546l24.09,13.908a6.41,6.41,0,0,0,5.768-.239L280.3,249.457A2.285,2.285,0,0,0,281.7,247.466Z" transform="translate(-225.179 -223.124)" fill="#721bd5"/>
          <path id="Trazado_192606" data-name="Trazado 192606" d="M253.944,234.854a6.653,6.653,0,0,0-3.092.811l-6.011,3.47-18.654-.011v8.548a1.672,1.672,0,0,0,.99,1.546l24.09,13.908a5.224,5.224,0,0,0,2.677.572Z" transform="translate(-225.179 -223.126)" fill="#983be9"/>
          <path id="Trazado_192607" data-name="Trazado 192607" d="M228.3,240.392l-2.111,0v8.548a1.672,1.672,0,0,0,.99,1.546l1.121.647Z" transform="translate(-226.179 -224.391)" fill="#b45ef4"/>
          <path id="Trazado_192608" data-name="Trazado 192608" d="M259.183,268.85a6.572,6.572,0,0,0,4.611-.052v-9.706h-4.611Z" transform="translate(-233.723 -228.667)" fill="#7e23dc"/>
          <path id="Trazado_192609" data-name="Trazado 192609" d="M251.266,251.133l-24.09-13.908c-1.479-.854-1.294-2.345.414-3.33l23.26-13.43a6.41,6.41,0,0,1,5.768-.239l24.09,13.908c1.479.854,1.293,2.345-.414,3.33l-23.261,13.43A6.41,6.41,0,0,1,251.266,251.133Z" transform="translate(-226.178 -219.65)" fill="#084a93"/>
          <path id="Trazado_192610" data-name="Trazado 192610" d="M280.3,240.316l-23.261,13.43a6.412,6.412,0,0,1-5.768.239l-24.09-13.909a2.223,2.223,0,0,1-.738-.654,1.549,1.549,0,0,0,.738,2.29l24.09,13.908a6.41,6.41,0,0,0,5.768-.239l23.261-13.43c1.327-.765,1.729-1.836,1.152-2.675A3.224,3.224,0,0,1,280.3,240.316Z" transform="translate(-226.178 -224.137)" fill="#b45ef4"/>
          <g id="Grupo_132200" data-name="Grupo 132200" transform="translate(44.716 22.226)">
            <path id="Trazado_192611" data-name="Trazado 192611" d="M286.091,253.844a2.149,2.149,0,0,1-.973,1.685c-.538.311-.973.059-.973-.562a2.151,2.151,0,0,1,.973-1.685C285.656,252.972,286.091,253.223,286.091,253.844Z" transform="translate(-284.146 -249.534)" fill="#ffb30b"/>
            <path id="Trazado_192612" data-name="Trazado 192612" d="M290.15,251.5a2.15,2.15,0,0,1-.973,1.685c-.537.31-.973.059-.973-.562a2.152,2.152,0,0,1,.973-1.685C289.714,250.629,290.15,250.88,290.15,251.5Z" transform="translate(-285.074 -248.998)" fill="#ffb30b"/>
            <path id="Trazado_192613" data-name="Trazado 192613" d="M294.208,249.157a2.151,2.151,0,0,1-.973,1.685c-.538.31-.973.059-.973-.562a2.151,2.151,0,0,1,.973-1.685C293.772,248.286,294.208,248.537,294.208,249.157Z" transform="translate(-286.001 -248.463)" fill="#ffb30b"/>
          </g>
          <g id="Grupo_132201" data-name="Grupo 132201" transform="translate(14.773 8.498)">
            <path id="Trazado_192614" data-name="Trazado 192614" d="M257.069,245.4,245.8,238.891c-.692-.4-.6-1.1.194-1.559l10.885-6.284a3,3,0,0,1,2.7-.112l11.273,6.509c.692.4.606,1.1-.194,1.558l-10.885,6.284A3,3,0,0,1,257.069,245.4Z" transform="translate(-245.329 -230.666)" fill="#6614cf"/>
            <path id="Trazado_192615" data-name="Trazado 192615" d="M261.466,242.1l-1.56-.9c-.1-.055-.083-.152.027-.215l1.506-.869a.416.416,0,0,1,.373-.016l1.56.9c.1.055.084.152-.026.215l-1.506.87A.418.418,0,0,1,261.466,242.1Z" transform="translate(-248.646 -232.813)" fill="#ffb30b"/>
            <path id="Trazado_192616" data-name="Trazado 192616" d="M270.424,251.356l-1.56-.9c-.1-.056-.083-.152.027-.216l1.507-.869a.413.413,0,0,1,.373-.015l1.56.9c.1.056.083.152-.027.216l-1.506.869A.415.415,0,0,1,270.424,251.356Z" transform="translate(-250.694 -234.93)" fill="#6614cf"/>
            <path id="Trazado_192617" data-name="Trazado 192617" d="M274.841,248.781l-1.56-.9c-.1-.056-.083-.152.027-.216l1.506-.869a.413.413,0,0,1,.373-.015l1.56.9c.1.056.084.152-.026.216l-1.507.869A.413.413,0,0,1,274.841,248.781Z" transform="translate(-251.704 -234.341)" fill="#6614cf"/>
            <path id="Trazado_192618" data-name="Trazado 192618" d="M279.258,246.206l-1.56-.9c-.1-.055-.084-.151.027-.215l1.506-.869a.413.413,0,0,1,.373-.015l1.56.9c.1.056.084.152-.027.216l-1.506.869A.418.418,0,0,1,279.258,246.206Z" transform="translate(-252.714 -233.753)" fill="#b45ef4"/>
            <path id="Trazado_192619" data-name="Trazado 192619" d="M245.8,238.891l.032.019a1.914,1.914,0,0,1,.162-.112l10.885-6.284a3,3,0,0,1,2.7-.112l11.241,6.49c.638-.457.671-1.078.032-1.447l-11.273-6.509a3,3,0,0,0-2.7.112l-10.885,6.284C245.191,237.793,245.1,238.491,245.8,238.891Z" transform="translate(-245.329 -230.666)" fill="#b45ef4"/>
          </g>
        </g>
        <path id="Trazado_192620" data-name="Trazado 192620" d="M246.155,277.649l-9.753-5.63a2.607,2.607,0,0,1-1.088-2.08h0c0-.8.487-1.17,1.088-.823l9.753,5.631a2.607,2.607,0,0,1,1.088,2.08h0C247.243,277.628,246.756,278,246.155,277.649Z" transform="translate(-228.266 -230.928)" fill="#6614cf"/>
        <path id="Trazado_192621" data-name="Trazado 192621" d="M247.027,277.114l-9.753-5.631a2.606,2.606,0,0,1-1.089-2.08,1.528,1.528,0,0,1,.045-.363c-.519-.189-.916.177-.916.9a2.607,2.607,0,0,0,1.088,2.08l9.753,5.63a.649.649,0,0,0,1.044-.461A1.07,1.07,0,0,1,247.027,277.114Z" transform="translate(-228.266 -230.93)" fill="#b45ef4"/>
      </g>
      <g id="Grupo_132205" data-name="Grupo 132205" transform="translate(412.245 115.209)">
        <path id="Trazado_192622" data-name="Trazado 192622" d="M530.567,302.189a4.684,4.684,0,0,1,2.642,4.682,7.891,7.891,0,0,1-.385,2.289c-.544,1.142-2.326,2.708-5.171,1.584s-9.162-7.06-9.4-10.946C517.814,292.582,526.067,300.267,530.567,302.189Z" transform="translate(-479.014 -173.608)" fill="#173d7a"/>
        <path id="Trazado_192623" data-name="Trazado 192623" d="M507.1,317.642s.683,4.162.351,4.925-2.311,2.391-5.236,2.039-11.34-3.254-13.214-8.8c-2.906-8.6,16.243.646,16.243.646Z" transform="translate(-472.262 -177.123)" fill="#173d7a"/>
        <path id="Trazado_192624" data-name="Trazado 192624" d="M501.7,231.892l-.652,64.962a4.551,4.551,0,0,0,3.539,4.5c.246.042.509.076.791.1a4.045,4.045,0,0,0,3.859-1.6,4.761,4.761,0,0,0,.869-2.623l.829-27.731,4.141-24.8L520.8,288.6a3.8,3.8,0,0,0,1.574,2.89,4.4,4.4,0,0,0,2.611.708,4.8,4.8,0,0,0,3.473-1.71,3.479,3.479,0,0,0,.829-2.35l-2.271-26.4-.845-33.679Z" transform="translate(-474.085 -157.898)" fill="#ffb30b"/>
        <path id="Trazado_192625" data-name="Trazado 192625" d="M533.3,198.889a2.413,2.413,0,0,1-.357-.027l-10.376-1.608a2.334,2.334,0,1,1,.714-4.614l7.161,1.109-2.444-14a2.334,2.334,0,0,1,4.6-.8l3,17.2a2.332,2.332,0,0,1-2.3,2.735Z" transform="translate(-479.553 -146.231)" fill="#ffc2b0"/>
        <path id="Trazado_192626" data-name="Trazado 192626" d="M524.789,162.337s3.468-.2,7.938,9-1.652,12.116-1.652,12.116Z" transform="translate(-480.512 -142.874)" fill="#084a93"/>
        <path id="Trazado_192627" data-name="Trazado 192627" d="M509.2,164.67c.156-.063,9.567-6.123,13.046.218,5.672,10.34,5.338,43.626,3.548,47.938-1.658,3.99-5.8,6.932-8.7,8.589a17.373,17.373,0,0,1-8.441,2.4c-2.941.023-8.58-2.591-8.376-6.436.941-17.683-.622-32.589-2.066-47.051C498.209,170.33,500.013,168.387,509.2,164.67Z" transform="translate(-474.435 -142.797)" fill="#084a93"/>
        <g id="Grupo_132204" data-name="Grupo 132204" transform="translate(3.388 36.03)">
          <path id="Trazado_192628" data-name="Trazado 192628" d="M488.306,205.768a2.012,2.012,0,0,0,.784-.2,2.445,2.445,0,0,0,1.3-1.866l4.475-13.046c.2-1.348-2.152-6.6-3.352-6.825s-4.243,2.161-4.442,3.508L485.972,199l-11.045-5.434c-1.146-.6-2.1-1.831-2.772-.7a2.668,2.668,0,0,0,.6,3.433l14.234,9.055A2.032,2.032,0,0,0,488.306,205.768Z" transform="translate(-471.781 -183.815)" fill="#ffc2b0"/>
        </g>
        <path id="Trazado_192629" data-name="Trazado 192629" d="M473.064,194.066l-.7-1.7a4.509,4.509,0,0,0-1.115-1.605l-2.914-2.686a.566.566,0,0,0-.837.077h0a.565.565,0,0,0,.036.722l1.216,1.323a.788.788,0,0,1,.162.8l-.464,1.3a1.307,1.307,0,0,0,.223,1.274l2.921,3.54Z" transform="translate(-467.389 -148.725)" fill="#ffc2b0"/>
        <path id="Trazado_192630" data-name="Trazado 192630" d="M496.061,172.8s-6.283,4.843-7.248,19.583c0,0-.136,1.635,3.5,2.615a6.369,6.369,0,0,0,6.112-1.827A23.243,23.243,0,0,0,496.061,172.8Z" transform="translate(-472.287 -145.266)" fill="#084a93"/>
        <path id="Trazado_192631" data-name="Trazado 192631" d="M512.04,158.075l1.027,5.92a2.712,2.712,0,0,1-2.217,2.58c-2.255.559-2.952-.9-2.952-.9l-1.02-6.666Z" transform="translate(-476.417 -141.9)" fill="#ffc2b0"/>
        <ellipse id="Elipse_4909" data-name="Elipse 4909" cx="8.573" cy="9.629" rx="8.573" ry="9.629" transform="matrix(0.894, -0.447, 0.447, 0.894, 19.07, 7.666)" fill="#ffc2b0"/>
        <path id="Trazado_192632" data-name="Trazado 192632" d="M502.713,152.99a1.1,1.1,0,0,1-.967-.308c-.441-.449-.622-2.831-1.773-3.031-1.8-.313-5.458,2.5-6.942-3.542-.771-3.141.631-4.253.324-5.994,0,0,.017.9,8.1-1.057s12,4.854,12.791,8.282.1,9.406-5.363,11.151c-.9.289-5.339-2.171-5.309-2.6s1.5-.658,1.085-1.817A1.561,1.561,0,0,0,502.713,152.99Z" transform="translate(-473.198 -137.474)" fill="#041e3b"/>
        <path id="Trazado_192633" data-name="Trazado 192633" d="M519.234,249.65l5.728,43.884a3.793,3.793,0,0,0,1.574,2.89,4.277,4.277,0,0,0,.489.276c-1.189-.892-4.661-37.726-5.3-41.824S519.234,249.65,519.234,249.65Z" transform="translate(-479.242 -162.836)" fill="#d8892b"/>
      </g>
      <path id="Trazado_192634" data-name="Trazado 192634" d="M500.6,198.82l0,.146a221.26,221.26,0,0,1,.222,26.053,4.888,4.888,0,0,0,1.984,3.9,219.815,219.815,0,0,0,0-33.51A5.606,5.606,0,0,1,500.6,198.82Z" transform="translate(-62.737 -35.226)" fill="#6614cf"/>
      <g id="Grupo_132219" data-name="Grupo 132219" transform="translate(302.816 118.45)">
        <ellipse id="Elipse_4910" data-name="Elipse 4910" cx="23.63" cy="13.643" rx="23.63" ry="13.643" transform="translate(5.41 127.566)" fill="#c4d9e8" opacity="0.5"/>
        <g id="Grupo_132213" data-name="Grupo 132213" transform="translate(4.179 65.812)">
          <g id="Grupo_132206" data-name="Grupo 132206" transform="translate(10.939 64.665)">
            <path id="Trazado_192635" data-name="Trazado 192635" d="M368.635,314.1a14.911,14.911,0,0,0-1.893-.9l.019,0-3.643-1.615.275.636a23.509,23.509,0,0,0-8.541-.091l.17-.707-4.284,1.9.025,0a14.546,14.546,0,0,0-1.6.781c-5.377,3.1-5.377,8.139,0,11.244s14.1,3.1,19.474,0S374.013,317.209,368.635,314.1Z" transform="translate(-345.129 -310.676)" fill="#983be9"/>
            <path id="Trazado_192636" data-name="Trazado 192636" d="M365.63,316.815a10.086,10.086,0,0,1-9.125,0c-2.52-1.456-2.52-3.815,0-5.269a10.083,10.083,0,0,1,9.125,0C368.15,313,368.15,315.36,365.63,316.815Z" transform="translate(-347.297 -310.455)" fill="#084a93"/>
          </g>
          <g id="Grupo_132207" data-name="Grupo 132207" transform="translate(22.43 38.271)">
            <path id="Trazado_192637" data-name="Trazado 192637" d="M362.33,307.718h0a2.193,2.193,0,0,1-2.194-2.193v-27.73h4.387v27.73A2.193,2.193,0,0,1,362.33,307.718Z" transform="translate(-360.051 -276.594)" fill="#084a93"/>
            <path id="Trazado_192638" data-name="Trazado 192638" d="M363.847,278.445a3.5,3.5,0,0,1-3.167,0,.965.965,0,0,1,0-1.828,3.5,3.5,0,0,1,3.167,0A.965.965,0,0,1,363.847,278.445Z" transform="translate(-360.025 -276.239)" fill="#983be9"/>
          </g>
          <path id="Trazado_192639" data-name="Trazado 192639" d="M362.453,270.776h0A1.779,1.779,0,0,1,360.674,269V242.931h3.557V269A1.778,1.778,0,0,1,362.453,270.776Z" transform="translate(-337.744 -230.353)" fill="#8a2ae3"/>
          <g id="Grupo_132209" data-name="Grupo 132209" transform="translate(36.625 22.613)">
            <path id="Trazado_192640" data-name="Trazado 192640" d="M396.126,259.869v-1.021l1.442-.208,1.614-1.208a1.086,1.086,0,0,1,1.064-.04l1.191.688,1.181-.171v1.034h0a.393.393,0,0,1-.272.312l-3.76,1.675a1.182,1.182,0,0,1-.985-.036l-1.252-.723a.365.365,0,0,1-.213-.3Z" transform="translate(-382.474 -256.244)" fill="#b45ef4"/>
            <path id="Trazado_192641" data-name="Trazado 192641" d="M396.282,258.269l2.9-2.171a1.086,1.086,0,0,1,1.064-.039l2.164,1.25c.3.174.271.463-.068.614l-3.76,1.675a1.181,1.181,0,0,1-.985-.036l-1.252-.724C396.079,258.684,396.052,258.441,396.282,258.269Z" transform="translate(-382.474 -255.939)" fill="#084a93"/>
            <g id="Grupo_132208" data-name="Grupo 132208" transform="translate(0 1.657)">
              <path id="Trazado_192642" data-name="Trazado 192642" d="M387.341,263.685a2.366,2.366,0,0,0,1.162-.286l4.508-2.6a.52.52,0,0,0-.521-.9l-4.507,2.6a1.493,1.493,0,0,1-1.282,0l-7.492-4.34a.52.52,0,1,0-.52.9l7.492,4.34A2.352,2.352,0,0,0,387.341,263.685Z" transform="translate(-378.428 -258.087)" fill="#b45ef4"/>
            </g>
          </g>
          <g id="Grupo_132212" data-name="Grupo 132212">
            <path id="Trazado_192643" data-name="Trazado 192643" d="M333.71,251.191l7.238-4.208-4.055-1.831-3.47,2.46Z" transform="translate(-331.514 -230.861)" fill="url(#radial-gradient)"/>
            <path id="Trazado_192644" data-name="Trazado 192644" d="M380.422,240.71a9.431,9.431,0,0,1-1.218-.758l-15.425-11.3c-2.784-2.041-5.652-2.567-7.869-1.442-.058.029-.107.069-.164.1l-.016,0-21.3,12.359,1.914.637,7.46,3.383,10.149,7.2,8.01,4.25.363.077c1.867-1.573,3.959-2.923,5.106-5.216,1.982-3.47,7.5-4.464,10.752-7.277.327.208.655.4.982.572A7.289,7.289,0,0,0,380.422,240.71Z" transform="translate(-331.744 -226.625)" fill="#8a2ae3"/>
            <path id="Trazado_192645" data-name="Trazado 192645" d="M395.455,238.276a1.42,1.42,0,0,0-.874.3l0,0-20.847,12.067.762,3.117.781-.373c-1.193,1.862-3.025,3.087-4.683,4.484l2.357.5,20.416-11.879c.094-.041.191-.076.283-.122a5.154,5.154,0,0,0,.786-.5l.035-.021h-.013a7.2,7.2,0,0,0,2.432-5.9v-.245A1.433,1.433,0,0,0,395.455,238.276Z" transform="translate(-340.011 -229.289)" fill="#084a93"/>
            <g id="Grupo_132210" data-name="Grupo 132210" transform="translate(2.684 0.005)">
              <path id="Trazado_192646" data-name="Trazado 192646" d="M365.816,226.631a8.729,8.729,0,0,1,4.093,1.324A8.729,8.729,0,0,0,365.816,226.631Z" transform="translate(-341.604 -226.631)" fill="#eaeaea"/>
              <path id="Trazado_192647" data-name="Trazado 192647" d="M368.134,250.276v-.245a1.433,1.433,0,0,0-2.866,0v.245c0,1.915-.609,3.322-1.671,3.861-1.2.607-3.024.16-4.879-1.2l-15.425-11.3c-2.374-1.739-4.8-2.367-6.844-1.822l12.739-7.391-14.76,8.564,1.914.637,7.46,3.383,10.149,7.2,8.01,4.25.363.077c1.867-1.573,3.959-2.923,5.105-5.216a6.053,6.053,0,0,1,.7-.961C368.13,250.329,368.134,250.3,368.134,250.276Z" transform="translate(-334.428 -227.955)" fill="#b45ef4"/>
            </g>
            <g id="Grupo_132211" data-name="Grupo 132211" transform="translate(0 12.125)">
              <path id="Trazado_192648" data-name="Trazado 192648" d="M361.158,260a9.294,9.294,0,0,1-5.369-2.022l-15.425-11.3c-1.854-1.358-3.678-1.807-4.88-1.2-1.062.538-1.671,1.945-1.671,3.86a1.433,1.433,0,1,1-2.866,0c0-3.033,1.182-5.371,3.241-6.416,2.215-1.122,5.084-.6,7.868,1.444l15.425,11.3c1.855,1.359,3.68,1.806,4.88,1.2,1.062-.538,1.671-1.945,1.671-3.86v-.245a1.432,1.432,0,1,1,2.865,0v.245c0,3.033-1.181,5.371-3.241,6.416A5.483,5.483,0,0,1,361.158,260Z" transform="translate(-330.948 -242.344)" fill="#983be9"/>
            </g>
          </g>
        </g>
        <g id="Grupo_132218" data-name="Grupo 132218" transform="translate(0)">
          <g id="Grupo_132215" data-name="Grupo 132215" transform="translate(2.188)">
            <path id="Trazado_192649" data-name="Trazado 192649" d="M351.7,297.853s-2.905-1.465-4.689.717-4.334,7.331-4.413,10.811,2.754,3.244,4.438,2.421,6.6-7.959,6.9-9.358a4.853,4.853,0,0,0-.825-3.658C352.636,298.417,351.7,297.853,351.7,297.853Z" transform="translate(-331.619 -176.987)" fill="#173d7a"/>
            <path id="Trazado_192650" data-name="Trazado 192650" d="M353.588,296.883l.134,3.009a1.707,1.707,0,0,1-.85,1.566,3.353,3.353,0,0,1-2.241.349c-2.188-.352-2.384-.977-2.54-3.986S353.588,296.883,353.588,296.883Z" transform="translate(-332.875 -176.716)" fill="#e8a200"/>
            <g id="Grupo_132214" data-name="Grupo 132214" transform="translate(0 53.397)">
              <path id="Trazado_192651" data-name="Trazado 192651" d="M337.913,290.351s-2.905-1.465-4.689.717-4.334,7.331-4.414,10.811,2.754,3.244,4.438,2.421,6.6-7.959,6.9-9.358a4.853,4.853,0,0,0-.825-3.659C338.851,290.914,337.913,290.351,337.913,290.351Z" transform="translate(-328.467 -228.669)" fill="#173d7a"/>
              <path id="Trazado_192652" data-name="Trazado 192652" d="M339.8,289.38l.135,3.01a1.706,1.706,0,0,1-.851,1.566,3.353,3.353,0,0,1-2.241.349c-2.188-.352-2.384-.977-2.54-3.987S339.8,289.38,339.8,289.38Z" transform="translate(-329.723 -228.398)" fill="#e8a200"/>
              <path id="Trazado_192653" data-name="Trazado 192653" d="M364.367,216.256c-.86-13.99-15.151,2.058-15.151,2.058l-9.781,9.588-8.808,9.675a8.68,8.68,0,0,0-2.188,6.975L332,271.682A2.666,2.666,0,0,0,334.677,274a9.108,9.108,0,0,0,1.32-.116,3.315,3.315,0,0,0,2.944-3.518l-.651-25.375,18.5-11.15S365.227,230.247,364.367,216.256Z" transform="translate(-327.366 -210.531)" fill="#ffb30b"/>
            </g>
            <path id="Trazado_192654" data-name="Trazado 192654" d="M378.152,223.166c-.859-13.99-15.151,2.059-15.151,2.059l-9.781,9.587-8.808,9.675a8.683,8.683,0,0,0-2.188,6.975l3.563,27.13a2.666,2.666,0,0,0,2.674,2.317,9.085,9.085,0,0,0,1.32-.116,3.315,3.315,0,0,0,2.944-3.518l-.652-25.375,18.5-11.15S379.012,237.157,378.152,223.166Z" transform="translate(-330.517 -158.713)" fill="#ffb30b"/>
            <path id="Trazado_192655" data-name="Trazado 192655" d="M371.667,166.184c10.835,4.492,10.617,10.9,10.617,10.9s-2.122,23.48-1.4,39.161c.3,6.555-34.829,7.056-29.59-10.433,6.178-20.621,3.862-37.314,6.754-39.832S368.865,165.022,371.667,166.184Z" transform="translate(-333.486 -146.639)" fill="#084a93"/>
            <ellipse id="Elipse_4911" data-name="Elipse 4911" cx="4.113" cy="5.588" rx="4.113" ry="5.588" transform="translate(29.817 26.419) rotate(-75.556)" fill="#ffc2b0"/>
            <path id="Trazado_192656" data-name="Trazado 192656" d="M374.4,175.536a7.951,7.951,0,0,1-1.979-.255c-3.261-.84-5.4-3.535-4.758-6.008s3.809-3.8,7.069-2.962,5.394,3.535,4.758,6.008h0a4.143,4.143,0,0,1-2.619,2.759A6.632,6.632,0,0,1,374.4,175.536Zm-1.652-8.444c-2.011,0-3.693.936-4.081,2.439-.494,1.92,1.307,4.05,4.014,4.746a6.165,6.165,0,0,0,3.8-.16,3.137,3.137,0,0,0,2-2.057h0c.494-1.92-1.307-4.049-4.013-4.746A6.929,6.929,0,0,0,372.751,167.092Z" transform="translate(-337.325 -146.967)" fill="#fff"/>
            <path id="Trazado_192657" data-name="Trazado 192657" d="M372.2,165.372a26.75,26.75,0,0,1-.094,3.868c-.059,1.079,3.72,2.088,4.7,1.111s.586-1.993.821-5.667S372.2,165.372,372.2,165.372Z" transform="translate(-338.366 -146.316)" fill="#ffc2b0"/>
            <path id="Trazado_192658" data-name="Trazado 192658" d="M377.626,165.12s-.93,3.406-5.518,4.712l.069-3.1Z" transform="translate(-338.366 -146.752)" fill="#ea9c92"/>
            <circle id="Elipse_4912" data-name="Elipse 4912" cx="8.34" cy="8.34" r="8.34" transform="matrix(0.842, -0.539, 0.539, 0.842, 22.573, 9.27)" fill="#ffc2b0"/>
            <path id="Trazado_192659" data-name="Trazado 192659" d="M371.989,156.408s-4.592,1.967-7.772,1.989-2.478-2.64-2.478-2.64l9.438-1.364Z" transform="translate(-335.98 -144.3)" fill="#ea9c92"/>
            <path id="Trazado_192660" data-name="Trazado 192660" d="M362.2,153.935s4-1.7,7.509-.99a3.673,3.673,0,0,1,2.121,1.26,1.248,1.248,0,0,0,.642.464c.622.141,1.641-2.441,2.85-2.5s2.016.8,1.025,2.385-.657,3.364-.2,3.619,5.3-3.452,1.027-11.909-15.113-3.9-16.8-2.188c0,0-1.776,1.548-3.221.17C357.147,144.248,355.527,156.381,362.2,153.935Z" transform="translate(-334.906 -141.308)" fill="#041e3b"/>
            <path id="Trazado_192661" data-name="Trazado 192661" d="M379.634,201.939v6.344a2.586,2.586,0,0,1-.843,1.911l-13.034,11.882,1.481,2.265,17.214-11.53a3.5,3.5,0,0,0,1.426-2.466l1.161-12.018Z" transform="translate(-336.914 -154.344)" fill="#ffc2b0"/>
            <path id="Trazado_192662" data-name="Trazado 192662" d="M388.626,176.658s3.954,5.947,5.427,21.6c0,0-6.754,2.185-10.588.944S388.626,176.658,388.626,176.658Z" transform="translate(-340.745 -149.39)" fill="#084a93"/>
            <path id="Trazado_192663" data-name="Trazado 192663" d="M382.326,186.406a110.27,110.27,0,0,0-1.636,12.178,2.486,2.486,0,0,0,1.636,2.4h0Z" transform="translate(-340.328 -151.618)" fill="#6614cf"/>
          </g>
          <g id="Grupo_132216" data-name="Grupo 132216" transform="translate(2.083 62.996)">
            <path id="Trazado_192664" data-name="Trazado 192664" d="M366.952,236.447l-2.88-.38L345.476,225.33a2.586,2.586,0,0,0-2.326.1l-13.177,7.6-1.742-.23v1.734h0a.678.678,0,0,0,.4.61l21.074,12.167a2.586,2.586,0,0,0,2.326-.1l14.35-8.282a.937.937,0,0,0,.569-.782h0Z" transform="translate(-328.231 -223.46)" fill="#173d7a"/>
            <path id="Trazado_192665" data-name="Trazado 192665" d="M352.98,230.789l-1.321-.762H337.135l-7.161,4.131-1.742-.23v1.734h0a.678.678,0,0,0,.4.61l21.074,12.167a2.181,2.181,0,0,0,1.2.225Z" transform="translate(-328.231 -224.586)" fill="#396caa"/>
            <path id="Trazado_192666" data-name="Trazado 192666" d="M329,235.187l-.773-.1v1.734h0a.678.678,0,0,0,.4.61l.372.214Z" transform="translate(-328.231 -225.743)" fill="#5793ce"/>
            <path id="Trazado_192667" data-name="Trazado 192667" d="M356.347,253.114a2.7,2.7,0,0,0,1.976-.123v-2.951h-1.976Z" transform="translate(-334.659 -229.162)" fill="#274f89"/>
            <path id="Trazado_192668" data-name="Trazado 192668" d="M349.707,245.094l-21.074-12.166c-.6-.345-.521-.946.167-1.343l14.35-8.282a2.586,2.586,0,0,1,2.326-.1l21.073,12.167c.6.344.521.946-.167,1.343L352.033,245A2.581,2.581,0,0,1,349.707,245.094Z" transform="translate(-328.231 -222.974)" fill="#fff"/>
            <path id="Trazado_192669" data-name="Trazado 192669" d="M350.318,244.568l-17.523-10.117c-.5-.286-.434-.786.139-1.117l7.689-4.324a2.152,2.152,0,0,1,1.935-.081l17.523,10.117c.5.286.434.786-.139,1.116l-7.69,4.324A2.15,2.15,0,0,1,350.318,244.568Z" transform="translate(-329.198 -224.292)" fill="#d4ecff"/>
          </g>
          <path id="Trazado_192670" data-name="Trazado 192670" d="M348.528,222.665l-.218,1.454a10.757,10.757,0,0,0,.095,3.729l.26,1.281a1.8,1.8,0,0,0,1.443,1.415h0a1,1,0,0,0,1.166-.868l.348-3.108s.8,1.041,1.179,1.041-.43-3.113-1.3-4.874S348.528,222.665,348.528,222.665Z" transform="translate(-330.711 -159.741)" fill="#ffc2b0"/>
          <path id="Trazado_192671" data-name="Trazado 192671" d="M355.365,191.623,353.1,196.1a8.79,8.79,0,0,0-.926,3.4L351.2,214.8l-2.974-.071-1.351-17.191a6.3,6.3,0,0,1,.077-1.589l1.543-8.717Z" transform="translate(-330.405 -151.808)" fill="#ffc2b0"/>
          <g id="Grupo_132217" data-name="Grupo 132217" transform="translate(0 53.88)">
            <path id="Trazado_192672" data-name="Trazado 192672" d="M348.485,243.561l-1.767-2.306L328.136,230.5a2.582,2.582,0,0,1-1.077-2.064l.015-15.213-1.068-1.395,1-.582v0a.68.68,0,0,1,.729.042L348.8,223.479a2.586,2.586,0,0,1,1.077,2.063l-.018,16.569a.938.938,0,0,1-.394.883h0Z" transform="translate(-325.639 -211.157)" fill="#173d7a"/>
            <path id="Trazado_192673" data-name="Trazado 192673" d="M335.634,234.838l-1.321-.764-7.246-12.587.007-8.267-1.068-1.395,1-.582v0a.68.68,0,0,1,.729.042L348.8,223.479a2.179,2.179,0,0,1,.794.928Z" transform="translate(-325.639 -211.157)" fill="#396caa"/>
            <path id="Trazado_192674" data-name="Trazado 192674" d="M326.48,212.443l-.474-.619,1-.582v0a.68.68,0,0,1,.729.042l.371.215Z" transform="translate(-325.639 -211.157)" fill="#5793ce"/>
            <path id="Trazado_192675" data-name="Trazado 192675" d="M355.161,227.3a2.7,2.7,0,0,1,.88,1.774l-2.058,1.188L353,228.555Z" transform="translate(-331.809 -214.849)" fill="#274f89"/>
            <path id="Trazado_192676" data-name="Trazado 192676" d="M347.687,224.232l-21.059-12.193c-.6-.345-1.08.02-1.081.815l-.018,16.568a2.586,2.586,0,0,0,1.077,2.064l21.059,12.192c.6.345,1.08-.02,1.081-.815l.018-16.569A2.586,2.586,0,0,0,347.687,224.232Z" transform="translate(-325.53 -211.329)" fill="#fff"/>
          </g>
          <path id="Trazado_192677" data-name="Trazado 192677" d="M365.619,231.38l-.337.7a4.684,4.684,0,0,1-1.76,1.951l-2.092,1.29a2.082,2.082,0,0,1-2.135.049l-.071-.043a1.258,1.258,0,0,1-.178-1.933l2.186-2.247s-1.228.941-1.572.562c-.252-.278,1.19-1.633,2.3-1.677a4.373,4.373,0,0,0,2.18-.915Z" transform="translate(-333.108 -161.382)" fill="#ffc2b0"/>
          <path id="Trazado_192678" data-name="Trazado 192678" d="M357.159,166.334s-8.014,8.719-11.246,16.718a16.357,16.357,0,0,0,9.448,6.874C362.068,191.863,357.159,166.334,357.159,166.334Z" transform="translate(-330.19 -147.03)" fill="#084a93"/>
          <path id="Trazado_192679" data-name="Trazado 192679" d="M355.683,192.529l1.3-12.547-3.06,11.755A17.3,17.3,0,0,0,355.683,192.529Z" transform="translate(-332.021 -150.15)" fill="#6614cf"/>
          <path id="Trazado_192680" data-name="Trazado 192680" d="M367.635,163.878l-2.154-.592a5.2,5.2,0,0,0,2.529,2.03c1.5.412,1.734-.859,1.734-.859Z" transform="translate(-334.663 -146.333)" fill="#fff"/>
        </g>
      </g>
    </g>
  </g>
</svg>
