<svg xmlns="http://www.w3.org/2000/svg" width="272.975" height="241.993" viewBox="0 0 272.975 241.993">
  <g id="Grupo_146493" data-name="Grupo 146493" transform="translate(-1031 -447.544)">
    <g id="interfaces" transform="translate(1023.18 426.084)">
      <rect id="Rectángulo_296800" data-name="Rectángulo 296800" width="249.012" height="171.61" rx="13.665" transform="translate(19.802 23.164)" fill="#cecece"/>
      <path id="Trazado_203718" data-name="Trazado 203718" d="M29.727,179.049V38.479A15.537,15.537,0,0,1,45.246,22.96H33.889A15.537,15.537,0,0,0,18.37,38.479v140.57a15.537,15.537,0,0,0,15.519,15.519H45.246a15.537,15.537,0,0,1-15.519-15.519Z" transform="translate(1.432 0.204)" fill="#afafaf"/>
      <path id="Trazado_203719" data-name="Trazado 203719" d="M229.484,179.049V38.479A15.537,15.537,0,0,0,213.965,22.96h11.357a15.537,15.537,0,0,1,15.519,15.519v140.57a15.537,15.537,0,0,1-15.519,15.519H213.965a15.537,15.537,0,0,0,15.519-15.519Z" transform="translate(27.972 0.204)" fill="#e2e2e2"/>
      <rect id="Rectángulo_296801" data-name="Rectángulo 296801" width="229.911" height="138.881" rx="5.256" transform="translate(29.398 32.817)" fill="#00defc"/>
      <path id="Trazado_203720" data-name="Trazado 203720" d="M38.136,164.28V37.337a5.986,5.986,0,0,1,5.969-5.969H32.748a5.986,5.986,0,0,0-5.969,5.969V164.28a5.986,5.986,0,0,0,5.969,5.969H44.105a5.986,5.986,0,0,1-5.969-5.969Z" transform="translate(2.573 1.344)" fill="#2ca7b8"/>
      <path id="Trazado_203721" data-name="Trazado 203721" d="M219.934,164.28V37.337a5.986,5.986,0,0,0-5.969-5.969h11.357a5.986,5.986,0,0,1,5.969,5.969V164.28a5.986,5.986,0,0,1-5.969,5.969H213.965A5.986,5.986,0,0,0,219.934,164.28Z" transform="translate(27.972 1.344)" fill="#88eefc"/>
      <path id="Trazado_203722" data-name="Trazado 203722" d="M89.809,196.224h86.747v10.445H89.809Z" transform="translate(11.125 23.714)" fill="#9e9e9e"/>
      <path id="Trazado_203723" data-name="Trazado 203723" d="M89.809,196.224h11.357v10.445H89.809Z" transform="translate(11.125 23.714)" fill="#707070"/>
      <path id="Trazado_203724" data-name="Trazado 203724" d="M100.67,174.066h62.076v25.165H100.67Z" transform="translate(12.599 20.707)" fill="#cecece"/>
      <path id="Trazado_203725" data-name="Trazado 203725" d="M100.67,174.066h11.357v25.165H100.67Z" transform="translate(12.599 20.707)" fill="#afafaf"/>
      <circle id="Elipse_4931" data-name="Elipse 4931" cx="5.111" cy="5.111" r="5.111" transform="translate(139.197 178.073)" fill="#9e9e9e"/>
      <rect id="Rectángulo_296802" data-name="Rectángulo 296802" width="98.299" height="33.519" rx="4.919" transform="translate(170.514 182.25)" fill="#9e9e9e"/>
      <rect id="Rectángulo_296803" data-name="Rectángulo 296803" width="98.299" height="33.519" rx="4.919" transform="translate(170.514 215.769)" fill="#9e9e9e"/>
      <rect id="Rectángulo_296804" data-name="Rectángulo 296804" width="98.299" height="33.519" rx="4.919" transform="translate(170.514 148.732)" fill="#9e9e9e"/>
      <path id="Trazado_203726" data-name="Trazado 203726" d="M234.068,133.526H222.711a5.586,5.586,0,0,1,5.586,5.585v22.347a5.586,5.586,0,0,1-5.586,5.586h11.357a5.586,5.586,0,0,0,5.586-5.586V139.111a5.586,5.586,0,0,0-5.585-5.585Z" transform="translate(29.159 15.206)" fill="#cecece"/>
      <path id="Trazado_203727" data-name="Trazado 203727" d="M234.068,163.04H222.711a5.586,5.586,0,0,1,5.586,5.585v22.347a5.586,5.586,0,0,1-5.586,5.586h11.357a5.586,5.586,0,0,0,5.586-5.586V168.625a5.586,5.586,0,0,0-5.585-5.585Z" transform="translate(29.159 19.211)" fill="#cecece"/>
      <path id="Trazado_203728" data-name="Trazado 203728" d="M234.068,192.553H222.711a5.586,5.586,0,0,1,5.586,5.585v22.347a5.586,5.586,0,0,1-5.586,5.586h11.357a5.586,5.586,0,0,0,5.586-5.586V198.139A5.586,5.586,0,0,0,234.068,192.553Z" transform="translate(29.159 23.216)" fill="#cecece"/>
      <rect id="Rectángulo_296805" data-name="Rectángulo 296805" width="52.135" height="7.218" rx="2.415" transform="translate(180.678 161.881)" fill="#ffb30b"/>
      <rect id="Rectángulo_296806" data-name="Rectángulo 296806" width="52.135" height="7.218" rx="2.415" transform="translate(180.678 195.4)" fill="#ffb30b"/>
      <rect id="Rectángulo_296807" data-name="Rectángulo 296807" width="52.135" height="7.218" rx="2.415" transform="translate(180.678 228.919)" fill="#ffb30b"/>
      <rect id="Rectángulo_296808" data-name="Rectángulo 296808" width="7.218" height="7.218" rx="2.415" transform="translate(248.186 161.881)" fill="#ffb30b"/>
      <rect id="Rectángulo_296809" data-name="Rectángulo 296809" width="7.218" height="7.218" rx="2.415" transform="translate(248.186 195.4)" fill="#ffb30b"/>
      <rect id="Rectángulo_296810" data-name="Rectángulo 296810" width="7.218" height="7.218" rx="2.415" transform="translate(248.186 228.919)" fill="#ffb30b"/>
      <g id="Grupo_146421" data-name="Grupo 146421" transform="translate(7.82 21.46)">
        <path id="Trazado_203733" data-name="Trazado 203733" d="M128.814,171.489A6.814,6.814,0,1,0,122,164.675,6.814,6.814,0,0,0,128.814,171.489Zm0-10.221a3.407,3.407,0,1,1-3.407,3.407A3.407,3.407,0,0,1,128.814,161.268Z" transform="translate(7.673 -2.952)"/>
        <path id="Trazado_203734" data-name="Trazado 203734" d="M29.969,231.54H9.527a1.7,1.7,0,0,0,0,3.407H29.969a1.7,1.7,0,1,0,0-3.407Z" transform="translate(-7.82 7.046)"/>
        <path id="Trazado_203735" data-name="Trazado 203735" d="M249.326,231.54H228.884a1.7,1.7,0,0,0,0,3.407h20.442a1.7,1.7,0,1,0,0-3.407Z" transform="translate(21.945 7.046)"/>
        <path id="Trazado_203736" data-name="Trazado 203736" d="M243.237,231.54H37.725a1.7,1.7,0,1,0,0,3.407H243.237a1.7,1.7,0,1,0,0-3.407Z" transform="translate(-3.993 7.046)"/>
        <path id="Trazado_203737" data-name="Trazado 203737" d="M9.524,250.991H279.091a1.7,1.7,0,1,0,0-3.407h-9.706a7.237,7.237,0,0,0,1.136-3.882V221.355a7.275,7.275,0,0,0-2.612-5.586,7.275,7.275,0,0,0,2.612-5.586V38.683A17.242,17.242,0,0,0,253.294,21.46H35.321A17.242,17.242,0,0,0,18.1,38.683v140.57a17.242,17.242,0,0,0,17.223,17.223h76.245v21.758H100.934a1.7,1.7,0,0,0-1.7,1.7v10.448a1.7,1.7,0,0,0,1.7,1.7h67.878V243.7a7.237,7.237,0,0,0,1.136,3.882H9.524a1.7,1.7,0,0,0,0,3.407Zm162.694-40.809V187.836a3.887,3.887,0,0,1,3.889-3.882h87.126a3.887,3.887,0,0,1,3.883,3.882v22.346a3.888,3.888,0,0,1-3.883,3.883H176.107a3.887,3.887,0,0,1-3.889-3.883Zm85.341-63.155H176.107a7.3,7.3,0,0,0-7.29,7.29V169.89H35.321a4.27,4.27,0,0,1-4.266-4.266V38.683a4.27,4.27,0,0,1,4.266-4.266H253.294a4.27,4.27,0,0,1,4.266,4.266Zm-85.341,29.642V154.318a3.887,3.887,0,0,1,3.889-3.883h87.126a3.888,3.888,0,0,1,3.883,3.883v22.346a3.888,3.888,0,0,1-3.883,3.883H176.107a3.887,3.887,0,0,1-3.889-3.882ZM21.505,179.253V38.683A13.83,13.83,0,0,1,35.321,24.867H253.294a13.83,13.83,0,0,1,13.816,13.816V148.163a7.238,7.238,0,0,0-3.883-1.136h-2.26V38.683a7.682,7.682,0,0,0-7.673-7.673H35.321a7.682,7.682,0,0,0-7.673,7.673V165.625a7.682,7.682,0,0,0,7.673,7.673h133.49v3.366a7.275,7.275,0,0,0,2.612,5.586,7.274,7.274,0,0,0-2.612,5.585v5.233H35.321a13.832,13.832,0,0,1-13.816-13.816Zm93.467,17.223h53.839v13.706a7.275,7.275,0,0,0,2.612,5.586,7.328,7.328,0,0,0-1.9,2.466H114.972Zm-12.335,32.2v-7.041h66.174v7.041ZM172.219,243.7V221.355a3.887,3.887,0,0,1,3.887-3.883h87.126a3.887,3.887,0,0,1,3.883,3.883V243.7a3.887,3.887,0,0,1-3.883,3.882H176.107a3.887,3.887,0,0,1-3.889-3.882Z" transform="translate(-7.82 -21.46)"/>
        <path id="Trazado_203738" data-name="Trazado 203738" d="M209.621,143.6h-46.65a4.452,4.452,0,0,0-4.446,4.446v1.733a4.451,4.451,0,0,0,4.446,4.446h46.65a4.451,4.451,0,0,0,4.446-4.446v-1.727A4.451,4.451,0,0,0,209.621,143.6Zm1.039,6.179a1.053,1.053,0,0,1-1.039,1.039h-46.65a1.053,1.053,0,0,1-1.039-1.039v-1.727a1.053,1.053,0,0,1,1.039-1.039h46.65a1.053,1.053,0,0,1,1.039,1.039Z" transform="translate(12.629 -4.887)"/>
        <path id="Trazado_203739" data-name="Trazado 203739" d="M209.621,173.118h-46.65a4.452,4.452,0,0,0-4.446,4.446V179.3a4.452,4.452,0,0,0,4.446,4.446h46.65a4.451,4.451,0,0,0,4.446-4.446v-1.733A4.451,4.451,0,0,0,209.621,173.118Zm1.039,6.179a1.053,1.053,0,0,1-1.039,1.039h-46.65a1.053,1.053,0,0,1-1.039-1.039v-1.733a1.053,1.053,0,0,1,1.039-1.039h46.65a1.053,1.053,0,0,1,1.039,1.039Z" transform="translate(12.629 -0.881)"/>
        <path id="Trazado_203740" data-name="Trazado 203740" d="M209.621,202.632h-46.65a4.451,4.451,0,0,0-4.446,4.446v1.733a4.452,4.452,0,0,0,4.446,4.446h46.65a4.451,4.451,0,0,0,4.446-4.446v-1.733a4.451,4.451,0,0,0-4.446-4.446Zm1.039,6.179a1.053,1.053,0,0,1-1.039,1.039h-46.65a1.053,1.053,0,0,1-1.039-1.039v-1.733a1.053,1.053,0,0,1,1.039-1.039h46.65a1.053,1.053,0,0,1,1.039,1.039Z" transform="translate(12.629 3.123)"/>
        <path id="Trazado_203741" data-name="Trazado 203741" d="M224.146,143.6h-1.733a4.452,4.452,0,0,0-4.446,4.446v1.733a4.451,4.451,0,0,0,4.446,4.446h1.733a4.451,4.451,0,0,0,4.446-4.446v-1.727A4.452,4.452,0,0,0,224.146,143.6Zm1.039,6.179a1.053,1.053,0,0,1-1.039,1.039h-1.733a1.053,1.053,0,0,1-1.039-1.039v-1.727a1.053,1.053,0,0,1,1.039-1.039h1.733a1.053,1.053,0,0,1,1.039,1.039Z" transform="translate(20.695 -4.887)"/>
        <path id="Trazado_203742" data-name="Trazado 203742" d="M224.146,173.118h-1.733a4.452,4.452,0,0,0-4.446,4.446V179.3a4.452,4.452,0,0,0,4.446,4.446h1.733a4.452,4.452,0,0,0,4.446-4.446v-1.733A4.452,4.452,0,0,0,224.146,173.118Zm1.039,6.179a1.053,1.053,0,0,1-1.039,1.039h-1.733a1.053,1.053,0,0,1-1.039-1.039v-1.733a1.053,1.053,0,0,1,1.039-1.039h1.733a1.053,1.053,0,0,1,1.039,1.039Z" transform="translate(20.695 -0.881)"/>
        <path id="Trazado_203743" data-name="Trazado 203743" d="M224.146,202.632h-1.733a4.451,4.451,0,0,0-4.446,4.446v1.733a4.452,4.452,0,0,0,4.446,4.446h1.733a4.452,4.452,0,0,0,4.446-4.446v-1.733a4.451,4.451,0,0,0-4.446-4.446Zm1.039,6.179a1.053,1.053,0,0,1-1.039,1.039h-1.733a1.053,1.053,0,0,1-1.039-1.039v-1.733a1.053,1.053,0,0,1,1.039-1.039h1.733a1.053,1.053,0,0,1,1.039,1.039Z" transform="translate(20.695 3.123)"/>
      </g>
      <g id="MongoDB_Logo_RGB_Logo_Forest-Green" transform="translate(118.947 46.554)">
        <path id="Trazado_192907" data-name="Trazado 192907" d="M156.7,132.488c-4.641-5.477-8.64-11.078-9.452-12.227a.183.183,0,0,0-.3,0c-.812,1.149-4.81,6.751-9.451,12.227-39.778,50.675,6.278,84.865,6.278,84.865l.373.259c.349,5.29,1.217,12.892,1.217,12.892h3.466s.864-7.569,1.215-12.858l.376-.294S196.479,183.164,156.7,132.488Zm-9.6,84.122h0a19.652,19.652,0,0,1-2.622-2.644l-.005-.095,2.5-55.171a.13.13,0,0,1,.26,0l2.5,55.171,0,.095A19.646,19.646,0,0,1,147.1,216.61Z" transform="translate(-121.312 -120.182)" fill="#084a93"/>
      </g>
    </g>
  </g>
</svg>
