<svg xmlns="http://www.w3.org/2000/svg" width="84.771" height="135.634" viewBox="0 0 84.771 135.634">
  <g id="Grupo_146475" data-name="Grupo 146475" transform="translate(-180 -749)">
    <g id="base-de-datos" transform="translate(168 749)">
      <g id="Grupo_132360" data-name="Grupo 132360" transform="translate(14.119 2.119)">
        <g id="Grupo_132353" data-name="Grupo 132353">
          <path id="Trazado_193452" data-name="Trazado 193452" d="M91.778,24.677,69.856,2.755A7.366,7.366,0,0,0,65.982,1h-44.5A8.5,8.5,0,0,0,13,9.477v93.248a8.5,8.5,0,0,0,8.477,8.477H85.055a8.477,8.477,0,0,0,8.477-8.477V28.551a7.366,7.366,0,0,0-1.755-3.874Z" transform="translate(-13 -1)" fill="#e8e8e8"/>
        </g>
        <g id="Grupo_132354" data-name="Grupo 132354" transform="translate(19.073 36.028)">
          <path id="Trazado_193453" data-name="Trazado 193453" d="M43.193,18C31.488,18,22,21.8,22,26.477V58.266c0,4.681,9.488,8.477,21.193,8.477s21.193-3.8,21.193-8.477V26.477C64.386,21.8,54.9,18,43.193,18Z" transform="translate(-22 -18)" fill="#084a93"/>
        </g>
        <g id="Grupo_132355" data-name="Grupo 132355" transform="translate(33.772 118.884)">
          <ellipse id="Elipse_4924" data-name="Elipse 4924" cx="6.665" cy="6.153" rx="6.665" ry="6.153" transform="translate(0 0)" fill="#ffb30b"/>
        </g>
        <g id="Grupo_132356" data-name="Grupo 132356" transform="translate(52.982)">
          <path id="Trazado_193454" data-name="Trazado 193454" d="M63.8,24.677,41.874,2.755A7.366,7.366,0,0,0,38,1V20.073a8.5,8.5,0,0,0,8.477,8.477H65.551A7.366,7.366,0,0,0,63.8,24.677Z" transform="translate(-38 -1)" fill="#ffb30b"/>
        </g>
        <g id="Grupo_132359" data-name="Grupo 132359" transform="translate(19.073 35.823)">
          <g id="Grupo_132357" data-name="Grupo 132357" transform="translate(0 19.279)">
            <path id="Trazado_193455" data-name="Trazado 193455" d="M43.193,35.477C31.488,35.477,22,31.681,22,27V37.6c0,4.681,9.488,8.477,21.193,8.477s21.193-3.8,21.193-8.477V27C64.386,31.681,54.9,35.477,43.193,35.477Z" transform="translate(-22 -27)" fill="#00defc"/>
          </g>
          <g id="Grupo_132358" data-name="Grupo 132358" transform="translate(1.368 0)">
            <ellipse id="Elipse_4925" data-name="Elipse 4925" cx="20.509" cy="8.716" rx="20.509" ry="8.716" fill="#00defc"/>
          </g>
        </g>
      </g>
      <g id="Grupo_132361" data-name="Grupo 132361" transform="translate(12 0)">
        <path id="Trazado_193456" data-name="Trazado 193456" d="M86.175,114.441a10.608,10.608,0,0,0,10.6-10.6V29.67a2.237,2.237,0,0,0-.013-.239A9.4,9.4,0,0,0,94.4,24.3L72.474,2.376A9.359,9.359,0,0,0,67.341.015,1.794,1.794,0,0,0,67.1,0H22.6A10.608,10.608,0,0,0,12,10.6v93.248a10.608,10.608,0,0,0,10.6,10.6h29.67v4.539a8.466,8.466,0,0,0-6.057,6.057H16.239a2.119,2.119,0,0,0,0,4.239H46.209a8.436,8.436,0,0,0,16.352,0H92.532a2.119,2.119,0,0,0,0-4.239H62.562A8.466,8.466,0,0,0,56.5,118.98v-4.539ZM58.624,127.157a4.239,4.239,0,1,1-4.239-4.239A4.243,4.243,0,0,1,58.624,127.157ZM91.4,27.294a2.612,2.612,0,0,1,.193.256H75.578a6.366,6.366,0,0,1-6.358-6.358V5.18a2.614,2.614,0,0,1,.256.193Zm-75.16,76.55V10.6A6.366,6.366,0,0,1,22.6,4.239H64.982V21.193a10.608,10.608,0,0,0,10.6,10.6H92.532v72.055a6.366,6.366,0,0,1-6.358,6.358H22.6A6.366,6.366,0,0,1,16.239,103.844Z" transform="translate(-12 0)"/>
        <path id="Trazado_193457" data-name="Trazado 193457" d="M67.624,59.386V27.6c0-6.883-12.012-10.6-23.312-10.6S21,20.713,21,27.6V59.386c0,6.883,12.01,10.6,23.312,10.6S67.624,66.269,67.624,59.386ZM63.386,38.193c0,2.594-7.43,6.358-19.073,6.358s-19.073-3.764-19.073-6.358V33.865c4.5,2.838,11.921,4.328,19.073,4.328s14.576-1.49,19.073-4.328ZM25.239,44.462c4.5,2.838,11.921,4.328,19.073,4.328s14.576-1.49,19.073-4.328v4.328c0,2.594-7.43,6.358-19.073,6.358s-19.073-3.764-19.073-6.358ZM44.312,21.239c11.643,0,19.073,3.764,19.073,6.358s-7.43,6.358-19.073,6.358S25.239,30.19,25.239,27.6,32.669,21.239,44.312,21.239ZM25.239,59.386V55.058c4.5,2.838,11.921,4.328,19.073,4.328s14.576-1.49,19.073-4.328v4.328c0,2.594-7.43,6.358-19.073,6.358S25.239,61.979,25.239,59.386Z" transform="translate(-1.927 19.028)"/>
      </g>
    </g>
  </g>
</svg>
