<svg xmlns="http://www.w3.org/2000/svg" width="135.667" height="144.721" viewBox="0 0 135.667 144.721">
  <g id="Grupo_146480" data-name="Grupo 146480" transform="translate(-1149.333 -3964.76)">
    <g id="Grupo_132221" data-name="Grupo 132221" transform="translate(862.704 3684.946)">
      <path id="Trazado_192681" data-name="Trazado 192681" d="M316.589,424.535a4.4,4.4,0,0,0-.612-.288,8.92,8.92,0,0,1-6.693-8.893c-.029-8.007-.009-16.014-.009-24.021q0-16.815,0-33.63c0-6.278,3.618-9.9,9.91-9.917,5.982-.013,11.964.038,17.945-.019a10.019,10.019,0,0,1,7.929,3.32c1.333,1.459,2.736,2.863,4.206,4.183a23.186,23.186,0,0,0,2.944,1.9c.067-.916.127-1.355.127-1.8.008-3.815-.028-7.63.028-11.445a1.955,1.955,0,0,0-1.095-1.865,9.015,9.015,0,0,1-2.546-2.542,2.009,2.009,0,0,0-1.988-1.112c-12.152.028-24.3-.1-36.454.071-5.321.073-8.136-3.555-7.821-7.836.137-1.867.023-3.754.023-5.826h-1.607c-3.25,0-6.5.024-9.749-.009a4.3,4.3,0,0,1-4.478-4.442q-.035-18.016,0-36.032a4.339,4.339,0,0,1,4.445-4.5c5.888-.034,11.775-.041,17.662.026a3.373,3.373,0,0,1,2.111.863q5.472,5.315,10.786,10.793a3.546,3.546,0,0,1,.885,2.237c.06,8.807.05,17.615.031,26.423-.007,2.893-1.778,4.615-4.7,4.631-3.156.017-6.312,0-9.467,0h-1.657c0,2.492-.078,4.835.031,7.171a2.193,2.193,0,0,0,2.2,2.163c.468.041.941.034,1.411.034q18.086,0,36.173.018a2.158,2.158,0,0,0,2.229-1.187,7.971,7.971,0,0,1,2.575-2.508,1.748,1.748,0,0,0,.986-1.772c-.057-1.253-.015-2.512-.015-3.919-3.248,0-6.307-.15-9.346.033-5.615.337-6.629-2.34-6.577-6.559.137-11.02.044-22.042.047-33.063,0-3.8,1.606-5.4,5.416-5.4,5.463,0,10.928-.052,16.389.05A4.4,4.4,0,0,1,360.977,281c3.473,3.318,6.811,6.776,10.237,10.143a3.892,3.892,0,0,1,1.262,3c-.03,8.525-.009,17.05-.019,25.576,0,3.446-1.676,5.1-5.121,5.1q-4.592.006-9.185,0h-1.558c0,1.649-.032,3.143.028,4.633.011.283.357.579.6.821,1.07,1.082,2.139,2.165,3.249,3.2a2.13,2.13,0,0,0,1.192.681q18.934.051,37.868.014a2.358,2.358,0,0,0,2.653-2.474c.06-2.21.015-4.422.015-6.809-.553-.025-1.048-.067-1.543-.068-3.2-.007-6.406.01-9.608-.008-2.909-.016-4.684-1.75-4.687-4.641q-.023-17.8,0-35.608c0-2.964,1.79-4.726,4.762-4.733,5.7-.013,11.4-.05,17.1.046a4.181,4.181,0,0,1,2.575,1.093q5.3,5.087,10.388,10.391a4.151,4.151,0,0,1,1.064,2.589c.078,8.666.053,17.332.044,26,0,3.128-1.758,4.858-4.915,4.867-3.572.01-7.143,0-10.93,0,0,2.342.027,4.581-.007,6.821a6.569,6.569,0,0,1-4.858,6.515,11.055,11.055,0,0,1-2.8.263q-18.228.024-36.455-.013a2.246,2.246,0,0,0-2.205,1.237,17.7,17.7,0,0,1-2.67,2.626c-.328.325-.823.73-.825,1.1-.046,7.3-.031,14.6-.02,21.9a2.453,2.453,0,0,0,.156.573h38.517a4.428,4.428,0,0,0-3.74-4.634,13.405,13.405,0,0,0-1.972-.1q-12.434-.009-24.869-.01a6.944,6.944,0,0,1-1.818-.155,2.068,2.068,0,0,1,.107-3.962,7.6,7.6,0,0,1,1.685-.112q12.293-.009,24.586,0c6.354,0,9.291,2.46,10.416,8.712a1.728,1.728,0,0,0,.211.361c3.83,0,7.732-.012,11.635.01a8.316,8.316,0,0,1,2.371.239c2.4.742,3.517,3.212,2.652,5.837-1.884,5.714-3.81,11.413-5.714,17.12-3.049,9.141-6.2,18.25-9.094,27.44-1.279,4.064-3.462,6.918-7.7,7.952Zm96.086-54.359h-1.554q-37.867,0-75.734,0c-3.354,0-4.644.932-5.706,4.12q-7.115,21.34-14.22,42.683c-.7,2.1-.206,2.91,2.042,3.256a11.176,11.176,0,0,0,1.692.056q36.172,0,72.343,0c3.482,0,4.759-.938,5.876-4.289q5.755-17.262,11.512-34.523C410.157,377.789,411.376,374.091,412.674,370.176Zm-99.161,38.339.221.053c.191-.5.4-1,.57-1.515q5.732-17.193,11.461-34.387c1.529-4.575,4.481-6.707,9.282-6.726,4.569-.019,9.138,0,13.707,0,3.847,0,3.871,0,3.545-3.895a1.47,1.47,0,0,0-.92-1.03,9.548,9.548,0,0,1-5.248-2.836c-1.317-1.348-2.721-2.615-3.978-4.014a6.34,6.34,0,0,0-5.13-2.162c-5.935.063-11.87.017-17.805.024-3.969,0-5.7,1.734-5.7,5.667q0,24.73,0,49.459ZM340.8,284.132V320.48h27.315v-25.1c-2.079,0-4.053,0-6.027,0-3.552,0-5.19-1.618-5.206-5.148-.009-2.014,0-4.028,0-6.1Zm-49.835,0v36.35h27.264v-25.1c-2.121,0-4.138,0-6.155,0-3.318-.007-5.05-1.726-5.063-5.029-.007-2.055,0-4.11,0-6.224Zm127,36.368V295.383c-2.048,0-4.015,0-5.983,0-3.635,0-5.249-1.611-5.253-5.236q0-3.006,0-6.011H390.668V320.5Zm-61.128,15.83a2.378,2.378,0,1,0-4.754.051,2.377,2.377,0,0,0,4.754-.051Zm-45.51-48.951v3.637h3.409Zm103.172,3.71-3.445-3.53v3.53Zm-53.223-3.458v3.435h3.613Z"/>
      <path id="Trazado_192682" data-name="Trazado 192682" d="M431.675,430.343c-1.3,3.915-2.517,7.613-3.748,11.307q-5.753,17.262-11.512,34.523c-1.118,3.352-2.395,4.289-5.876,4.289q-36.172,0-72.343,0a11.175,11.175,0,0,1-1.692-.056c-2.248-.346-2.743-1.152-2.042-3.256q7.107-21.342,14.22-42.683c1.063-3.188,2.353-4.12,5.706-4.12q37.867,0,75.734,0Zm-27.616,29.749c-2.5,0-4.993-.01-7.489,0-1.618.008-2.486.718-2.527,2.019-.043,1.361.871,2.2,2.511,2.21q7.488.027,14.977,0c1.6-.005,2.608-.906,2.565-2.194-.041-1.252-.988-2.025-2.548-2.034C409.051,460.082,406.555,460.092,404.059,460.092Zm-4.454,13.295c2.449,0,4.9.013,7.347,0,1.624-.011,2.626-.852,2.616-2.142s-.992-2.086-2.644-2.089q-7.418-.012-14.836,0c-1.677,0-2.589.77-2.58,2.118.008,1.328.942,2.1,2.609,2.114C394.613,473.4,397.109,473.387,399.605,473.387Z" transform="translate(-19.001 -60.167)" fill="#ffb30b" opacity="0.35"/>
      <path id="Trazado_192683" data-name="Trazado 192683" d="M331.414,456.579v-1.364q0-24.729,0-49.459c0-3.934,1.735-5.663,5.7-5.667,5.935-.007,11.871.039,17.805-.024a6.34,6.34,0,0,1,5.13,2.162c1.258,1.4,2.661,2.667,3.978,4.014a9.548,9.548,0,0,0,5.248,2.836,1.47,1.47,0,0,1,.92,1.03c.326,3.892.3,3.895-3.545,3.895-4.569,0-9.138-.014-13.707,0-4.8.019-7.753,2.151-9.282,6.726q-5.744,17.188-11.461,34.387c-.17.511-.379,1.01-.57,1.515Z" transform="translate(-17.901 -48.064)" fill="#ffb30b" opacity="0.35"/>
      <path id="Trazado_192684" data-name="Trazado 192684" d="M376.87,287.007h16.08c0,2.075-.008,4.089,0,6.1.017,3.529,1.654,5.145,5.206,5.148,1.974,0,3.948,0,6.027,0v25.1H376.87Zm12.572,20.306c1.741,0,3.482.013,5.223,0,1.562-.016,2.47-.789,2.486-2.073a2.159,2.159,0,0,0-2.436-2.153q-5.293-.038-10.587,0c-1.53.009-2.478.846-2.492,2.1-.014,1.286.9,2.1,2.441,2.122C385.866,307.329,387.654,307.313,389.442,307.313Zm-.025,9.058c1.741,0,3.482.012,5.223,0,1.582-.014,2.479-.759,2.509-2.043a2.147,2.147,0,0,0-2.408-2.181q-5.364-.045-10.729,0a2.138,2.138,0,0,0-2.369,2.219c.053,1.233.93,1.984,2.41,2C385.84,316.387,387.628,316.37,389.417,316.371Z" transform="translate(-36.07 -2.875)" fill="#ffb30b"/>
      <path id="Trazado_192685" data-name="Trazado 192685" d="M293.852,287H309.9c0,2.114-.006,4.168,0,6.224.013,3.3,1.745,5.022,5.063,5.029,2.017,0,4.034,0,6.155,0v25.1H293.852Zm12.34,20.308c1.884,0,3.767.023,5.651-.007a2.11,2.11,0,1,0,.07-4.21c-3.672-.044-7.345-.04-11.018,0a2.12,2.12,0,1,0,.071,4.216C302.708,307.329,304.45,307.31,306.192,307.31Zm0,9.058c1.883,0,3.767.023,5.649-.008a2.108,2.108,0,1,0,.071-4.207c-3.671-.049-7.345-.044-11.016-.005a2.119,2.119,0,1,0,.07,4.214C302.708,316.387,304.45,316.368,306.192,316.368Z" transform="translate(-2.887 -2.873)" fill="#ffb30b"/>
      <path id="Trazado_192686" data-name="Trazado 192686" d="M487.24,323.375h-27.3V287.014H476q0,3,0,6.011c0,3.625,1.617,5.233,5.253,5.236,1.968,0,3.935,0,5.983,0Zm-14.764-16.059c1.742,0,3.484.012,5.226,0,1.542-.014,2.5-.809,2.525-2.057a2.189,2.189,0,0,0-2.44-2.168q-5.367-.041-10.735,0a2.116,2.116,0,0,0-2.357,2.08c-.025,1.3.875,2.124,2.413,2.142C468.9,307.332,470.686,307.316,472.476,307.316Zm-.119,9.057c1.836,0,3.672.02,5.508-.007a2.119,2.119,0,1,0,.04-4.214q-5.438-.059-10.876,0a2.106,2.106,0,0,0-2.335,2.1,2.061,2.061,0,0,0,2.295,2.112C468.778,316.4,470.567,316.373,472.357,316.373Z" transform="translate(-69.274 -2.878)" fill="#ffb30b"/>
      <path id="Trazado_192687" data-name="Trazado 192687" d="M327.773,292.412l3.408,3.637h-3.408Z" transform="translate(-16.445 -5.035)" fill="#ffb30b"/>
      <path id="Trazado_192688" data-name="Trazado 192688" d="M497.348,296.242H493.9v-3.53Z" transform="translate(-82.849 -5.155)" fill="#ffb30b"/>
      <path id="Trazado_192689" data-name="Trazado 192689" d="M410.98,292.833l3.613,3.435H410.98Z" transform="translate(-49.704 -5.204)" fill="#ffb30b"/>
      <path id="Trazado_192690" data-name="Trazado 192690" d="M443.927,479.9c2.5,0,4.992-.01,7.489,0,1.56.008,2.507.782,2.548,2.034.043,1.288-.968,2.189-2.565,2.194q-7.488.026-14.977,0c-1.64-.006-2.554-.848-2.511-2.21.041-1.3.909-2.01,2.527-2.019C438.934,479.888,441.43,479.9,443.927,479.9Z" transform="translate(-58.869 -79.973)"/>
      <path id="Trazado_192691" data-name="Trazado 192691" d="M436.455,499.222c-2.5,0-4.993.011-7.489,0-1.667-.01-2.6-.785-2.609-2.114-.008-1.348.9-2.115,2.58-2.118q7.419-.013,14.836,0c1.652,0,2.635.795,2.644,2.089s-.992,2.131-2.616,2.142C441.353,499.235,438.9,499.222,436.455,499.222Z" transform="translate(-55.85 -86.003)"/>
      <path id="Trazado_192692" data-name="Trazado 192692" d="M392.616,318.006c-1.788,0-3.576.016-5.364,0-1.537-.017-2.456-.836-2.441-2.122.014-1.258.962-2.1,2.492-2.1q5.294-.032,10.587,0a2.159,2.159,0,0,1,2.436,2.153c-.016,1.284-.924,2.058-2.486,2.073C396.1,318.019,394.356,318.006,392.616,318.006Z" transform="translate(-39.243 -13.567)"/>
      <path id="Trazado_192693" data-name="Trazado 192693" d="M392.593,333.092c-1.788,0-3.577.016-5.364,0-1.48-.018-2.357-.769-2.41-2a2.138,2.138,0,0,1,2.369-2.219q5.364-.05,10.729,0a2.147,2.147,0,0,1,2.408,2.181c-.031,1.284-.927,2.029-2.509,2.043C396.075,333.1,394.334,333.093,392.593,333.092Z" transform="translate(-39.246 -19.597)"/>
      <path id="Trazado_192694" data-name="Trazado 192694" d="M309.347,318c-1.742,0-3.484.019-5.226-.005a2.12,2.12,0,1,1-.071-4.216c3.673-.035,7.346-.04,11.018,0A2.11,2.11,0,1,1,315,318C313.114,318.025,311.23,318,309.347,318Z" transform="translate(-6.042 -13.565)"/>
      <path id="Trazado_192695" data-name="Trazado 192695" d="M309.347,333.091c-1.741,0-3.484.019-5.226-.006a2.119,2.119,0,1,1-.07-4.214c3.671-.039,7.345-.044,11.016.005a2.108,2.108,0,1,1-.071,4.207C313.114,333.114,311.23,333.091,309.347,333.091Z" transform="translate(-6.042 -19.596)"/>
      <path id="Trazado_192696" data-name="Trazado 192696" d="M475.64,318c-1.789,0-3.579.016-5.368-.005-1.537-.018-2.438-.839-2.413-2.142a2.116,2.116,0,0,1,2.357-2.08q5.367-.045,10.735,0a2.189,2.189,0,0,1,2.44,2.168c-.027,1.249-.983,2.043-2.525,2.057C479.124,318.017,477.382,318,475.64,318Z" transform="translate(-72.439 -13.566)"/>
      <path id="Trazado_192697" data-name="Trazado 192697" d="M475.521,333.091c-1.789,0-3.578.023-5.367-.007a2.061,2.061,0,0,1-2.295-2.112,2.106,2.106,0,0,1,2.335-2.1q5.438-.052,10.876,0a2.119,2.119,0,1,1-.04,4.214C479.193,333.111,477.357,333.091,475.521,333.091Z" transform="translate(-72.438 -19.596)"/>
    </g>
  </g>
</svg>
