<svg xmlns="http://www.w3.org/2000/svg" xmlns:xlink="http://www.w3.org/1999/xlink" width="323.882" height="357.04" viewBox="0 0 323.882 357.04">
  <defs>
    <radialGradient id="radial-gradient" cx="0.513" cy="0.452" r="1.097" gradientTransform="translate(0.211) scale(0.577 1)" gradientUnits="objectBoundingBox">
      <stop offset="0" stop-color="#42e8e0"/>
      <stop offset="0.106" stop-color="#36b5bf"/>
      <stop offset="0.22" stop-color="#2c87a0"/>
      <stop offset="0.338" stop-color="#235f86"/>
      <stop offset="0.459" stop-color="#1b3e71"/>
      <stop offset="0.582" stop-color="#162560"/>
      <stop offset="0.711" stop-color="#121355"/>
      <stop offset="0.846" stop-color="#0f084e"/>
      <stop offset="1" stop-color="#0f054c"/>
    </radialGradient>
    <linearGradient id="linear-gradient" x1="0.981" y1="0.5" x2="-0.019" y2="0.5" gradientUnits="objectBoundingBox">
      <stop offset="0" stop-color="#5761d7"/>
      <stop offset="0.178" stop-color="#5b65d8"/>
      <stop offset="0.388" stop-color="#6a72de"/>
      <stop offset="0.613" stop-color="#8188e8"/>
      <stop offset="0.849" stop-color="#a2a6f5"/>
      <stop offset="1" stop-color="#bcbeff"/>
    </linearGradient>
    <linearGradient id="linear-gradient-2" x1="-0.222" y1="0.5" x2="0.778" y2="0.5" gradientUnits="objectBoundingBox">
      <stop offset="0" stop-color="#c0bff6"/>
      <stop offset="0.294" stop-color="#c4c3f6"/>
      <stop offset="0.64" stop-color="#d2d2f9"/>
      <stop offset="1" stop-color="#e9e9fd"/>
    </linearGradient>
    <linearGradient id="linear-gradient-3" x1="-6.119" y1="0.5" x2="-5.119" y2="0.5" xlink:href="#linear-gradient"/>
    <linearGradient id="linear-gradient-4" x1="0.324" y1="0.5" x2="1.324" y2="0.5" xlink:href="#linear-gradient"/>
    <linearGradient id="linear-gradient-5" x1="0.66" y1="0.5" x2="1.66" y2="0.5" xlink:href="#linear-gradient-2"/>
    <clipPath id="clip-path">
      <path id="Trazado_192443" data-name="Trazado 192443" d="M260.548,424.717,439.731,528.169a7.366,7.366,0,0,0,6.627.274L553.283,466.71c1.7-.981,1.486-2.693-.476-3.826L373.624,359.433a7.367,7.367,0,0,0-6.626-.275L260.073,420.892C258.374,421.872,258.587,423.585,260.548,424.717Z" opacity="0.5" fill="url(#radial-gradient)" style="mix-blend-mode: lighten;isolation: isolate"/>
    </clipPath>
    <linearGradient id="linear-gradient-6" x1="0.099" y1="-0.384" x2="0.893" y2="0.768" gradientUnits="objectBoundingBox">
      <stop offset="0" stop-color="#bcbeff"/>
      <stop offset="0.227" stop-color="#aaadf7"/>
      <stop offset="0.68" stop-color="#7b82e5"/>
      <stop offset="1" stop-color="#5761d7"/>
    </linearGradient>
    <linearGradient id="linear-gradient-7" x1="0.113" y1="0.194" x2="0.87" y2="1.433" gradientUnits="objectBoundingBox">
      <stop offset="0.242" stop-color="#5761d7"/>
      <stop offset="0.392" stop-color="#7a81e5"/>
      <stop offset="0.546" stop-color="#979bf0"/>
      <stop offset="0.7" stop-color="#abaef8"/>
      <stop offset="0.852" stop-color="#b7bafd"/>
      <stop offset="1" stop-color="#bcbeff"/>
    </linearGradient>
    <linearGradient id="linear-gradient-8" y1="0.5" x2="1" y2="0.5" gradientUnits="objectBoundingBox">
      <stop offset="0" stop-color="#e9e9fd"/>
      <stop offset="0.36" stop-color="#d2d2f9"/>
      <stop offset="0.706" stop-color="#c4c3f6"/>
      <stop offset="1" stop-color="#c0bff6"/>
    </linearGradient>
    <linearGradient id="linear-gradient-19" x1="0" y1="0.5" x2="1" y2="0.5" gradientTransform="matrix(1, 0, 0, 1, 0, 0)" xlink:href="#radial-gradient"/>
    <clipPath id="clip-path-2">
      <path id="Trazado_192491" data-name="Trazado 192491" d="M577.4,329.1,395.524,224.138,372.673,360,554.43,464.891Z" fill="none"/>
    </clipPath>
    <linearGradient id="linear-gradient-20" x1="-0.445" y1="0.5" x2="0.555" y2="0.5" xlink:href="#linear-gradient"/>
    <linearGradient id="linear-gradient-21" x1="-0.108" y1="0.5" x2="0.892" y2="0.5" xlink:href="#linear-gradient-2"/>
    <linearGradient id="linear-gradient-48" x1="0.5" y1="1" x2="0.5" y2="0" gradientTransform="matrix(1, 0, 0, 1, 0, 0)" xlink:href="#radial-gradient"/>
  </defs>
  <g id="Grupo_146474" data-name="Grupo 146474" transform="translate(-924.292 -144)">
    <path id="Trazado_192390" data-name="Trazado 192390" d="M443.481,576.642a8.02,8.02,0,0,1-3.9-.97L260.4,472.22a3.026,3.026,0,0,1-1.774-2.429,2.27,2.27,0,0,1,1.3-1.925l106.926-61.733a7.72,7.72,0,0,1,6.93.274L552.959,509.859a3.027,3.027,0,0,1,1.775,2.427,2.272,2.272,0,0,1-1.3,1.927L446.51,575.946A6.171,6.171,0,0,1,443.481,576.642ZM260.7,471.692,439.883,575.144a7.035,7.035,0,0,0,6.323.274L553.13,513.685a1.7,1.7,0,0,0,.995-1.4,2.46,2.46,0,0,0-1.47-1.9L373.472,406.935a7.049,7.049,0,0,0-6.322-.274L260.225,468.394a1.693,1.693,0,0,0-.995,1.4A2.466,2.466,0,0,0,260.7,471.692Z" transform="translate(665.789 -75.602)" fill="#00defc"/>
    <g id="Grupo_132084" data-name="Grupo 132084" transform="translate(665.789 -75.602)">
      <path id="Trazado_192391" data-name="Trazado 192391" d="M554.43,494.4l-9.868-1.419L373.624,394.29a7.361,7.361,0,0,0-6.626-.275L265.192,452.793l-6.266-.9v8.317l.019,0a2.717,2.717,0,0,0,1.6,2.14L439.731,565.8a7.366,7.366,0,0,0,6.627.274l106.925-61.733a1.938,1.938,0,0,0,1.128-1.691l.019,0Z" fill="url(#linear-gradient)"/>
      <path id="Trazado_192392" data-name="Trazado 192392" d="M260.548,454.083,439.731,557.535a7.366,7.366,0,0,0,6.627.274l106.925-61.733c1.7-.981,1.486-2.693-.476-3.826L373.624,388.8a7.367,7.367,0,0,0-6.626-.275L260.073,450.258C258.374,451.238,258.587,452.951,260.548,454.083Z" fill="#ffb30b"/>
      <path id="Trazado_192393" data-name="Trazado 192393" d="M276.065,456.11l160.157,92.466a6.582,6.582,0,0,0,5.923.246l95.571-55.179c1.518-.876,1.328-2.407-.425-3.419L377.134,397.757a6.582,6.582,0,0,0-5.923-.245L275.639,452.69C274.121,453.567,274.312,455.1,276.065,456.11Z" fill="#24126a" opacity="0.3"/>
      <path id="Trazado_192394" data-name="Trazado 192394" d="M553.283,495.177,446.358,556.91a7.363,7.363,0,0,1-6.627-.275L260.548,453.184a3.078,3.078,0,0,1-1.536-1.715c-.271.874.245,1.869,1.536,2.614L439.731,557.535a7.366,7.366,0,0,0,6.627.274l106.925-61.733a1.817,1.817,0,0,0,1.061-2.111A2.179,2.179,0,0,1,553.283,495.177Z" fill="#fff"/>
    </g>
    <g id="Grupo_132148" data-name="Grupo 132148" transform="translate(665.789 -75.602)">
      <g id="Grupo_132146" data-name="Grupo 132146">
        <g id="Grupo_132145" data-name="Grupo 132145">
          <g id="Grupo_132115" data-name="Grupo 132115">
            <g id="Grupo_132086" data-name="Grupo 132086">
              <path id="Trazado_192395" data-name="Trazado 192395" d="M373.3,356.546l22.651-134.382-1.822-.767,2.737-1.569,0,.016a1.97,1.97,0,0,1,2.109.146L580,324.5a5.11,5.11,0,0,1,2.351,4.6L559.516,464.553a1.7,1.7,0,0,1-.953,1.378h0l-2.678,1.547-.46-2.5.153.046L375.653,361.145A5.112,5.112,0,0,1,373.3,356.546Z" fill="url(#linear-gradient-2)"/>
              <path id="Trazado_192396" data-name="Trazado 192396" d="M578.988,328.179l2.976-1.317a4.091,4.091,0,0,1,.383,2.24L559.516,464.553a1.7,1.7,0,0,1-.953,1.378h0l-2.678,1.547-.46-2.5.153.046-9.105-5.257Z" fill="url(#linear-gradient-3)"/>
              <path id="Trazado_192397" data-name="Trazado 192397" d="M372.813,362.774,553.836,467.288c1.4.807,2.6.341,2.84-1.106l22.831-135.451a5.11,5.11,0,0,0-2.351-4.6L396.133,221.619c-1.4-.807-2.6-.341-2.84,1.106L370.462,358.176A5.111,5.111,0,0,0,372.813,362.774Z" fill="#002490"/>
              <g id="Grupo_132085" data-name="Grupo 132085" opacity="0.51">
                <path id="Trazado_192398" data-name="Trazado 192398" d="M395.524,224.138,577.4,329.1l-22.969,135.8L372.673,360Z" fill="#084a93"/>
              </g>
            </g>
            <g id="Grupo_132114" data-name="Grupo 132114">
              <path id="Trazado_192399" data-name="Trazado 192399" d="M259.021,426.9l9.879,5.159,99.06-57.193a7.186,7.186,0,0,1,6.466.268l170.852,98.641c1.635-.914,9.089-4.5,9.089-4.5l-3.616,5.878-.014-.012a2.156,2.156,0,0,1-1.011,1.122L445.395,536.5a7.186,7.186,0,0,1-6.466-.268L264.094,435.292a3.131,3.131,0,0,1-1.467-1.559l-.013.009Z" fill="url(#linear-gradient-4)"/>
              <path id="Trazado_192400" data-name="Trazado 192400" d="M260.548,428.526,439.731,531.977a7.369,7.369,0,0,0,6.627.275l106.925-61.734c1.7-.98,1.486-2.693-.476-3.826L373.624,363.241a7.367,7.367,0,0,0-6.626-.275L260.073,424.7C258.374,425.68,258.587,427.393,260.548,428.526Z" fill="url(#linear-gradient-5)"/>
              <path id="Trazado_192401" data-name="Trazado 192401" d="M260.548,428.526,439.731,531.977a7.369,7.369,0,0,0,6.627.275l106.925-61.734c1.7-.98,1.486-2.693-.476-3.826L373.624,363.241a7.367,7.367,0,0,0-6.626-.275L260.073,424.7C258.374,425.68,258.587,427.393,260.548,428.526Z" fill="#24126a"/>
              <path id="Trazado_192402" data-name="Trazado 192402" d="M260.548,428.526,439.731,531.977a7.369,7.369,0,0,0,6.627.275l106.925-61.734c1.7-.98,1.486-2.693-.476-3.826L373.624,363.241a7.367,7.367,0,0,0-6.626-.275L260.073,424.7C258.374,425.68,258.587,427.393,260.548,428.526Z" fill="#002490"/>
              <g id="Grupo_132113" data-name="Grupo 132113" opacity="0.3">
                <path id="Trazado_192403" data-name="Trazado 192403" d="M260.548,424.717,439.731,528.169a7.366,7.366,0,0,0,6.627.274L553.283,466.71c1.7-.981,1.486-2.693-.476-3.826L373.624,359.433a7.367,7.367,0,0,0-6.626-.275L260.073,420.892C258.374,421.872,258.587,423.585,260.548,424.717Z" opacity="0.5" fill="url(#radial-gradient)" style="mix-blend-mode: lighten;isolation: isolate"/>
                <g id="Grupo_132112" data-name="Grupo 132112" clip-path="url(#clip-path)">
                  <g id="Grupo_132111" data-name="Grupo 132111">
                    <g id="Grupo_132110" data-name="Grupo 132110">
                      <g id="Grupo_132091" data-name="Grupo 132091">
                        <g id="Grupo_132090" data-name="Grupo 132090">
                          <path id="Trazado_192404" data-name="Trazado 192404" d="M479.065,532.223V520.572l-3.222-1.793c-.91,5.5-7.383,9.123-12.793,9.876L426.2,550.2l-16.081,5.808-51.332-26.49,1.186-.685c-4.387-2.05-6.75-6.738-9.123-11.014l-3.456,2.061-2.053.577v11.949h0c0,2.284,1.506,4.567,4.516,6.3l51.427,29.691c6.021,3.476,15.819,3.477,21.84,0l51.425-29.69c2.962-1.71,4.467-3.948,4.515-6.194,0-.1,0-.2-.006-.3Z" fill="url(#linear-gradient-6)"/>
                          <path id="Trazado_192405" data-name="Trazado 192405" d="M463.05,528.655,426.2,550.2l-14,5.055v15.754a22.327,22.327,0,0,0,10.921-2.607l51.425-29.69c2.962-1.71,4.467-3.948,4.515-6.194,0-.1,0-.2-.006-.3l.007,0V520.572l-2.945-1.638h-.308C474.807,524.346,468.409,527.909,463.05,528.655Z" fill="#0f054c" opacity="0.3"/>
                          <path id="Trazado_192406" data-name="Trazado 192406" d="M359.973,528.836,408.706,500.7a7.74,7.74,0,0,1,6.993,0l47.881,27.644-.53.311c5.41-.753,11.883-4.377,12.793-9.876l-53.738-29.887-15.634-4.132-12.732,7.483L350.85,517.822C353.223,522.1,355.586,526.786,359.973,528.836Z" fill="url(#linear-gradient-7)"/>
                          <path id="Trazado_192407" data-name="Trazado 192407" d="M412.2,486.275l-5.732-1.515-12.732,7.483L350.85,517.822c2.373,4.276,4.736,8.964,9.123,11.014L408.706,500.7a7.148,7.148,0,0,1,3.5-.835Z" fill="#0f054c" opacity="0.3"/>
                          <g id="Grupo_132087" data-name="Grupo 132087">
                            <path id="Trazado_192408" data-name="Trazado 192408" d="M401.284,556.567l-51.427-29.691c-6.021-3.477-6.021-9.133,0-12.61l51.425-29.69c6.021-3.476,15.819-3.476,21.84,0l51.427,29.692c6.021,3.476,6.022,9.132,0,12.609l-51.425,29.69C417.1,560.044,407.3,560.044,401.284,556.567ZM415.7,488.862a7.74,7.74,0,0,0-6.993,0l-51.425,29.69c-1.929,1.113-1.928,2.925,0,4.038l51.427,29.691a7.74,7.74,0,0,0,6.993,0l51.425-29.69c1.928-1.113,1.928-2.924,0-4.037Z" fill="#5351af"/>
                          </g>
                          <g id="Grupo_132088" data-name="Grupo 132088">
                            <path id="Trazado_192409" data-name="Trazado 192409" d="M467.126,518.553,415.7,488.862a7.74,7.74,0,0,0-6.993,0l-51.425,29.69c-1.287.743-1.71,1.8-1.28,2.745a2.981,2.981,0,0,1,1.28-1.293l51.425-29.69a7.74,7.74,0,0,1,6.993,0l51.427,29.691A2.973,2.973,0,0,1,468.4,521.3C468.835,520.349,468.412,519.3,467.126,518.553Z" fill="#fff"/>
                            <path id="Trazado_192410" data-name="Trazado 192410" d="M474.549,526.877l-51.425,29.69c-6.021,3.477-15.819,3.477-21.84,0l-51.427-29.691c-2.691-1.554-4.176-3.543-4.461-5.579-.354,2.519,1.131,5.108,4.461,7.031l51.427,29.691c6.021,3.476,15.819,3.476,21.84,0l51.425-29.69c3.33-1.923,4.815-4.512,4.462-7.031C478.725,523.334,477.241,525.323,474.549,526.877Z" fill="#fff"/>
                          </g>
                          <g id="Grupo_132089" data-name="Grupo 132089">
                            <path id="Trazado_192411" data-name="Trazado 192411" d="M402.737,555.729,351.31,526.037c-5.221-3.014-5.221-7.918,0-10.932l51.426-29.69c5.22-3.014,13.714-3.014,18.935,0L473.1,515.106c5.22,3.014,5.22,7.918,0,10.932l-51.425,29.691C416.451,558.743,407.957,558.743,402.737,555.729Zm14.414-67.705a10.955,10.955,0,0,0-9.9,0l-51.425,29.691c-2.729,1.575-2.729,4.139,0,5.715l51.427,29.691a10.958,10.958,0,0,0,9.9,0l51.425-29.691c2.729-1.575,2.729-4.138,0-5.714Z" fill="url(#linear-gradient-8)"/>
                          </g>
                        </g>
                        <path id="Trazado_192412" data-name="Trazado 192412" d="M415.7,488.862a7.74,7.74,0,0,0-6.993,0l-51.425,29.69c-1.929,1.113-1.928,2.925,0,4.038l51.427,29.691a7.74,7.74,0,0,0,6.993,0l51.425-29.69c1.928-1.113,1.928-2.924,0-4.037Z" fill="#00defc" opacity="0.4"/>
                      </g>
                      <g id="Grupo_132097" data-name="Grupo 132097">
                        <path id="Trazado_192413" data-name="Trazado 192413" d="M479.065,521.837v-17.61l-3.222-1.792c-.91,5.5-7.383,9.122-12.793,9.875L426.2,533.859l-16.081,5.807-51.332-26.49,1.186-.685c-4.387-2.049-6.75-6.737-9.123-11.014l-3.456,2.061-2.053.577v17.908h0c0,2.284,1.506,4.567,4.516,6.3l51.427,29.691c6.021,3.476,15.819,3.476,21.84,0l51.425-29.69c2.962-1.71,4.467-3.948,4.515-6.194,0-.1,0-.2-.006-.3Z" fill="#00defc" opacity="0.4"/>
                        <g id="Grupo_132096" data-name="Grupo 132096">
                          <g id="Grupo_132095" data-name="Grupo 132095">
                            <path id="Trazado_192414" data-name="Trazado 192414" d="M479.065,506.184V494.532l-3.222-1.792c-.91,5.5-7.383,9.122-12.793,9.875L426.2,524.164l-16.081,5.807-51.332-26.49,1.186-.685c-4.387-2.049-6.75-6.737-9.123-11.014l-3.456,2.061-2.053.577v11.95h0c0,2.283,1.506,4.566,4.516,6.3l51.427,29.692c6.021,3.476,15.819,3.476,21.84,0l51.425-29.691c2.962-1.71,4.467-3.947,4.515-6.193,0-.1,0-.2-.006-.3Z" fill="url(#linear-gradient-6)"/>
                            <path id="Trazado_192415" data-name="Trazado 192415" d="M463.05,502.615,426.2,524.164l-14,5.055v15.754a22.338,22.338,0,0,0,10.921-2.607l51.425-29.691c2.962-1.71,4.467-3.947,4.515-6.193,0-.1,0-.2-.006-.3l.007,0V494.532l-2.945-1.638h-.308C474.807,498.306,468.409,501.869,463.05,502.615Z" fill="#0f054c" opacity="0.3"/>
                            <path id="Trazado_192416" data-name="Trazado 192416" d="M359.973,502.8l48.733-28.136a7.737,7.737,0,0,1,6.993,0L463.58,502.3l-.53.31c5.41-.753,11.883-4.376,12.793-9.875l-53.738-29.887-15.634-4.132L393.739,466.2,350.85,491.782C353.223,496.059,355.586,500.747,359.973,502.8Z" fill="url(#linear-gradient-7)"/>
                            <path id="Trazado_192417" data-name="Trazado 192417" d="M412.2,460.236l-5.732-1.515L393.739,466.2,350.85,491.782c2.373,4.277,4.736,8.965,9.123,11.014l48.733-28.136a7.159,7.159,0,0,1,3.5-.834Z" fill="#0f054c" opacity="0.3"/>
                            <g id="Grupo_132092" data-name="Grupo 132092">
                              <path id="Trazado_192418" data-name="Trazado 192418" d="M401.284,530.528l-51.427-29.692c-6.021-3.476-6.021-9.133,0-12.609l51.425-29.69c6.021-3.477,15.819-3.477,21.84,0l51.427,29.691c6.021,3.477,6.022,9.133,0,12.609l-51.425,29.691C417.1,534,407.3,534,401.284,530.528ZM415.7,462.823a7.737,7.737,0,0,0-6.993,0l-51.425,29.69c-1.929,1.113-1.928,2.925,0,4.038l51.427,29.691a7.74,7.74,0,0,0,6.993,0l51.425-29.691c1.928-1.113,1.928-2.924,0-4.037Z" fill="#5351af"/>
                            </g>
                            <g id="Grupo_132093" data-name="Grupo 132093">
                              <path id="Trazado_192419" data-name="Trazado 192419" d="M467.126,492.514,415.7,462.823a7.737,7.737,0,0,0-6.993,0l-51.425,29.69c-1.287.742-1.71,1.8-1.28,2.745a2.976,2.976,0,0,1,1.28-1.293l51.425-29.691a7.737,7.737,0,0,1,6.993,0l51.427,29.691a2.968,2.968,0,0,1,1.279,1.293C468.835,494.309,468.412,493.257,467.126,492.514Z" fill="#fff"/>
                              <path id="Trazado_192420" data-name="Trazado 192420" d="M474.549,500.837l-51.425,29.691c-6.021,3.476-15.819,3.476-21.84,0l-51.427-29.692c-2.691-1.553-4.176-3.543-4.461-5.578-.354,2.518,1.131,5.108,4.461,7.03l51.427,29.692c6.021,3.476,15.819,3.476,21.84,0l51.425-29.691c3.33-1.922,4.815-4.512,4.462-7.03C478.725,497.294,477.241,499.284,474.549,500.837Z" fill="#fff"/>
                            </g>
                            <g id="Grupo_132094" data-name="Grupo 132094">
                              <path id="Trazado_192421" data-name="Trazado 192421" d="M402.737,529.689,351.31,500c-5.221-3.014-5.221-7.918,0-10.933l51.426-29.69c5.22-3.014,13.714-3.014,18.935,0L473.1,489.067c5.22,3.014,5.22,7.918,0,10.932l-51.425,29.69C416.451,532.7,407.957,532.7,402.737,529.689Zm14.414-67.705a10.955,10.955,0,0,0-9.9,0l-51.425,29.69c-2.729,1.576-2.729,4.14,0,5.715l51.427,29.692a10.955,10.955,0,0,0,9.9,0l51.425-29.69c2.729-1.576,2.729-4.139,0-5.714Z" fill="url(#linear-gradient-8)"/>
                            </g>
                          </g>
                          <path id="Trazado_192422" data-name="Trazado 192422" d="M415.7,462.823a7.737,7.737,0,0,0-6.993,0l-51.425,29.69c-1.929,1.113-1.928,2.925,0,4.038l51.427,29.691a7.74,7.74,0,0,0,6.993,0l51.425-29.691c1.928-1.113,1.928-2.924,0-4.037Z" fill="#00defc" opacity="0.4"/>
                        </g>
                      </g>
                      <g id="Grupo_132103" data-name="Grupo 132103">
                        <path id="Trazado_192423" data-name="Trazado 192423" d="M479.065,495.8v-17.61l-3.222-1.793c-.91,5.5-7.383,9.123-12.793,9.876L426.2,507.82l-16.081,5.807-51.332-26.49,1.186-.685c-4.387-2.049-6.75-6.738-9.123-11.014l-3.456,2.061-2.053.577v17.908h0c0,2.283,1.506,4.566,4.516,6.3l51.427,29.692c6.021,3.476,15.819,3.476,21.84,0l51.425-29.691c2.962-1.71,4.467-3.947,4.515-6.193,0-.1,0-.2-.006-.3Z" fill="#00defc" opacity="0.4"/>
                        <g id="Grupo_132102" data-name="Grupo 132102">
                          <g id="Grupo_132101" data-name="Grupo 132101">
                            <path id="Trazado_192424" data-name="Trazado 192424" d="M479.065,480.145V468.493l-3.222-1.792c-.91,5.5-7.383,9.122-12.793,9.875L426.2,498.125l-16.081,5.807-51.332-26.49,1.186-.685c-4.387-2.049-6.75-6.737-9.123-11.014l-3.456,2.061-2.053.577v11.95h0c0,2.283,1.506,4.566,4.516,6.3l51.427,29.691c6.021,3.477,15.819,3.477,21.84,0l51.425-29.69c2.962-1.71,4.467-3.947,4.515-6.193,0-.1,0-.2-.006-.3Z" fill="url(#linear-gradient-6)"/>
                            <path id="Trazado_192425" data-name="Trazado 192425" d="M463.05,476.576,426.2,498.125l-14,5.054v15.755a22.327,22.327,0,0,0,10.921-2.608l51.425-29.69c2.962-1.71,4.467-3.947,4.515-6.193,0-.1,0-.2-.006-.3l.007,0V468.493l-2.945-1.638h-.308C474.807,472.267,468.409,475.83,463.05,476.576Z" fill="#0f054c" opacity="0.3"/>
                            <path id="Trazado_192426" data-name="Trazado 192426" d="M359.973,476.757l48.733-28.136a7.74,7.74,0,0,1,6.993,0l47.881,27.645-.53.31c5.41-.753,11.883-4.376,12.793-9.875l-53.738-29.887-15.634-4.133-12.732,7.483L350.85,465.743C353.223,470.02,355.586,474.708,359.973,476.757Z" fill="url(#linear-gradient-7)"/>
                            <path id="Trazado_192427" data-name="Trazado 192427" d="M412.2,434.2l-5.732-1.515-12.732,7.483L350.85,465.743c2.373,4.277,4.736,8.965,9.123,11.014l48.733-28.136a7.148,7.148,0,0,1,3.5-.835Z" fill="#0f054c" opacity="0.3"/>
                            <g id="Grupo_132098" data-name="Grupo 132098">
                              <path id="Trazado_192428" data-name="Trazado 192428" d="M401.284,504.488,349.857,474.8c-6.021-3.476-6.021-9.133,0-12.609L401.282,432.5c6.021-3.476,15.819-3.476,21.84,0l51.427,29.691c6.021,3.476,6.022,9.133,0,12.609l-51.425,29.69C417.1,507.965,407.3,507.965,401.284,504.488ZM415.7,436.783a7.74,7.74,0,0,0-6.993,0l-51.425,29.691c-1.929,1.113-1.928,2.924,0,4.037L408.708,500.2a7.737,7.737,0,0,0,6.993,0l51.425-29.69c1.928-1.113,1.928-2.924,0-4.037Z" fill="#5351af"/>
                            </g>
                            <g id="Grupo_132099" data-name="Grupo 132099">
                              <path id="Trazado_192429" data-name="Trazado 192429" d="M467.126,466.475,415.7,436.783a7.74,7.74,0,0,0-6.993,0l-51.425,29.691c-1.287.742-1.71,1.8-1.28,2.744a2.986,2.986,0,0,1,1.28-1.293l51.425-29.69a7.74,7.74,0,0,1,6.993,0l51.427,29.692a2.971,2.971,0,0,1,1.279,1.292C468.835,468.27,468.412,467.217,467.126,466.475Z" fill="#fff"/>
                              <path id="Trazado_192430" data-name="Trazado 192430" d="M474.549,474.8l-51.425,29.69c-6.021,3.477-15.819,3.477-21.84,0L349.857,474.8c-2.691-1.554-4.176-3.543-4.461-5.579-.354,2.519,1.131,5.108,4.461,7.031l51.427,29.691c6.021,3.477,15.819,3.477,21.84,0l51.425-29.69c3.33-1.923,4.815-4.512,4.462-7.031C478.725,471.255,477.241,473.244,474.549,474.8Z" fill="#fff"/>
                            </g>
                            <g id="Grupo_132100" data-name="Grupo 132100">
                              <path id="Trazado_192431" data-name="Trazado 192431" d="M402.737,503.65,351.31,473.959c-5.221-3.015-5.221-7.919,0-10.933l51.426-29.69c5.22-3.014,13.714-3.014,18.935,0L473.1,463.027c5.22,3.014,5.22,7.919,0,10.932L421.672,503.65C416.451,506.664,407.957,506.664,402.737,503.65Zm14.414-67.7a10.952,10.952,0,0,0-9.9,0l-51.425,29.69c-2.729,1.576-2.729,4.139,0,5.715l51.427,29.691a10.952,10.952,0,0,0,9.9,0l51.425-29.69c2.729-1.576,2.729-4.139,0-5.715Z" fill="url(#linear-gradient-8)"/>
                            </g>
                          </g>
                          <path id="Trazado_192432" data-name="Trazado 192432" d="M415.7,436.783a7.74,7.74,0,0,0-6.993,0l-51.425,29.691c-1.929,1.113-1.928,2.924,0,4.037L408.708,500.2a7.737,7.737,0,0,0,6.993,0l51.425-29.69c1.928-1.113,1.928-2.924,0-4.037Z" fill="#00defc" opacity="0.4"/>
                        </g>
                      </g>
                      <g id="Grupo_132109" data-name="Grupo 132109">
                        <path id="Trazado_192433" data-name="Trazado 192433" d="M479.065,469.759V452.148l-3.222-1.792c-.91,5.5-7.383,9.122-12.793,9.875L426.2,481.78l-16.081,5.807L358.787,461.1l1.186-.685c-4.387-2.049-6.75-6.737-9.123-11.013l-3.456,2.061-2.053.577v17.908h0c0,2.283,1.506,4.566,4.516,6.3l51.427,29.691c6.021,3.477,15.819,3.477,21.84,0l51.425-29.69c2.962-1.71,4.467-3.947,4.515-6.193,0-.1,0-.2-.006-.3Z" fill="#00defc" opacity="0.4"/>
                        <g id="Grupo_132108" data-name="Grupo 132108">
                          <g id="Grupo_132107" data-name="Grupo 132107">
                            <path id="Trazado_192434" data-name="Trazado 192434" d="M479.065,454.105V442.454l-3.222-1.793c-.91,5.5-7.383,9.122-12.793,9.876L426.2,472.085l-16.081,5.807L358.787,451.4l1.186-.684c-4.387-2.05-6.75-6.738-9.123-11.014l-3.456,2.061-2.053.577v11.949h0c0,2.283,1.506,4.567,4.516,6.305l51.427,29.691c6.021,3.476,15.819,3.476,21.84,0l51.425-29.69c2.962-1.71,4.467-3.948,4.515-6.194,0-.1,0-.2-.006-.3Z" fill="url(#linear-gradient-6)"/>
                            <path id="Trazado_192435" data-name="Trazado 192435" d="M463.05,450.537,426.2,472.085l-14,5.055v15.754a22.337,22.337,0,0,0,10.921-2.607l51.425-29.69c2.962-1.71,4.467-3.948,4.515-6.194,0-.1,0-.2-.006-.3l.007,0V442.454l-2.945-1.639h-.308C474.807,446.227,468.409,449.791,463.05,450.537Z" fill="#0f054c" opacity="0.3"/>
                            <path id="Trazado_192436" data-name="Trazado 192436" d="M359.973,450.718l48.733-28.136a7.74,7.74,0,0,1,6.993,0l47.881,27.644-.53.311c5.41-.754,11.883-4.377,12.793-9.876l-53.738-29.887-15.634-4.132-12.732,7.483L350.85,439.7C353.223,443.98,355.586,448.668,359.973,450.718Z" fill="url(#linear-gradient-7)"/>
                            <path id="Trazado_192437" data-name="Trazado 192437" d="M412.2,408.157l-5.732-1.515-12.732,7.483L350.85,439.7c2.373,4.276,4.736,8.964,9.123,11.014l48.733-28.136a7.148,7.148,0,0,1,3.5-.835Z" fill="#0f054c" opacity="0.3"/>
                            <g id="Grupo_132104" data-name="Grupo 132104">
                              <path id="Trazado_192438" data-name="Trazado 192438" d="M401.284,478.449l-51.427-29.691c-6.021-3.477-6.021-9.133,0-12.61l51.425-29.69c6.021-3.476,15.819-3.476,21.84,0l51.427,29.691c6.021,3.477,6.022,9.133,0,12.61l-51.425,29.69C417.1,481.926,407.3,481.925,401.284,478.449ZM415.7,410.744a7.74,7.74,0,0,0-6.993,0l-51.425,29.69c-1.929,1.113-1.928,2.925,0,4.038l51.427,29.691a7.74,7.74,0,0,0,6.993,0l51.425-29.69c1.928-1.113,1.928-2.925,0-4.038Z" fill="url(#linear-gradient-8)"/>
                            </g>
                            <g id="Grupo_132105" data-name="Grupo 132105">
                              <path id="Trazado_192439" data-name="Trazado 192439" d="M467.126,440.435,415.7,410.744a7.74,7.74,0,0,0-6.993,0l-51.425,29.69c-1.287.743-1.71,1.8-1.28,2.745a2.981,2.981,0,0,1,1.28-1.293l51.425-29.69a7.74,7.74,0,0,1,6.993,0l51.427,29.691a2.973,2.973,0,0,1,1.279,1.293C468.835,442.231,468.412,441.178,467.126,440.435Z" fill="#fff"/>
                              <path id="Trazado_192440" data-name="Trazado 192440" d="M474.549,448.759l-51.425,29.69c-6.021,3.477-15.819,3.476-21.84,0l-51.427-29.691c-2.691-1.554-4.176-3.544-4.461-5.579-.354,2.519,1.131,5.108,4.461,7.031L401.284,479.9c6.021,3.476,15.819,3.476,21.84,0l51.425-29.69c3.33-1.923,4.815-4.512,4.462-7.031C478.725,445.216,477.241,447.2,474.549,448.759Z" fill="#fff"/>
                            </g>
                            <g id="Grupo_132106" data-name="Grupo 132106">
                              <path id="Trazado_192441" data-name="Trazado 192441" d="M402.737,477.611,351.31,447.919c-5.221-3.014-5.221-7.918,0-10.932L402.735,407.3c5.22-3.013,13.714-3.013,18.935,0L473.1,436.988c5.22,3.014,5.22,7.918,0,10.932l-51.425,29.691C416.451,480.625,407.957,480.624,402.737,477.611Zm14.414-67.7a10.955,10.955,0,0,0-9.9,0L355.828,439.6c-2.729,1.575-2.729,4.139,0,5.715L407.255,475a10.958,10.958,0,0,0,9.9,0l51.425-29.691c2.729-1.575,2.729-4.139,0-5.714Z" fill="url(#linear-gradient-8)"/>
                            </g>
                          </g>
                          <path id="Trazado_192442" data-name="Trazado 192442" d="M415.7,410.744a7.74,7.74,0,0,0-6.993,0l-51.425,29.69c-1.929,1.113-1.928,2.925,0,4.038l51.427,29.691a7.74,7.74,0,0,0,6.993,0l51.425-29.69c1.928-1.113,1.928-2.925,0-4.038Z" fill="#00defc" opacity="0.4"/>
                        </g>
                      </g>
                    </g>
                  </g>
                </g>
              </g>
              <path id="Trazado_192444" data-name="Trazado 192444" d="M443.474,529.535a8.11,8.11,0,0,1-3.954-1L260.337,425.084a3.14,3.14,0,0,1-1.834-2.531,2.381,2.381,0,0,1,1.358-2.027l106.925-61.734a7.727,7.727,0,0,1,7.049.275l179.184,103.45a3.142,3.142,0,0,1,1.834,2.531,2.384,2.384,0,0,1-1.359,2.029L446.569,528.81A6.3,6.3,0,0,1,443.474,529.535ZM260.76,424.351,439.942,527.8a6.917,6.917,0,0,0,6.205.275l106.924-61.733a1.607,1.607,0,0,0,.936-1.3c0-.625-.514-1.28-1.411-1.8L373.413,359.8a6.9,6.9,0,0,0-6.2-.275L260.284,421.259a1.6,1.6,0,0,0-.935,1.294c0,.625.514,1.28,1.411,1.8Z" opacity="0.8" fill="url(#linear-gradient-19)" style="mix-blend-mode: lighten;isolation: isolate"/>
              <path id="Trazado_192445" data-name="Trazado 192445" d="M260.548,427.723,439.731,531.174a7.363,7.363,0,0,0,6.627.275l106.925-61.733a2.156,2.156,0,0,0,1.077-1.253,1.828,1.828,0,0,1-1.077,2.055L446.358,532.252a7.369,7.369,0,0,1-6.627-.275L260.548,428.526c-1.271-.734-1.794-1.71-1.553-2.574A3.035,3.035,0,0,0,260.548,427.723Z" fill="#fff"/>
            </g>
          </g>
          <g id="Grupo_132144" data-name="Grupo 132144" opacity="0.15">
            <g id="Grupo_132143" data-name="Grupo 132143" clip-path="url(#clip-path-2)">
              <g id="Grupo_132117" data-name="Grupo 132117">
                <g id="Grupo_132116" data-name="Grupo 132116">
                  <path id="Trazado_192446" data-name="Trazado 192446" d="M372.591,361.9l9.879,5.159,99.06-57.193a7.192,7.192,0,0,1,6.466.268l170.852,98.642c1.635-.915,9.089-4.5,9.089-4.5l-3.616,5.878-.014-.011a2.158,2.158,0,0,1-1.011,1.121L558.965,471.5a7.186,7.186,0,0,1-6.466-.268L377.664,370.292a3.127,3.127,0,0,1-1.467-1.559l-.013.009Z" fill="url(#linear-gradient-20)"/>
                  <path id="Trazado_192447" data-name="Trazado 192447" d="M374.118,363.526,553.3,466.977a7.366,7.366,0,0,0,6.627.275l106.925-61.733c1.7-.981,1.485-2.694-.476-3.826L487.194,298.241a7.364,7.364,0,0,0-6.626-.274L373.643,359.7C371.944,360.681,372.157,362.394,374.118,363.526Z" fill="url(#linear-gradient-21)"/>
                  <path id="Trazado_192448" data-name="Trazado 192448" d="M374.118,363.526,553.3,466.977a7.366,7.366,0,0,0,6.627.275l106.925-61.733c1.7-.981,1.485-2.694-.476-3.826L487.194,298.241a7.364,7.364,0,0,0-6.626-.274L373.643,359.7C371.944,360.681,372.157,362.394,374.118,363.526Z" fill="#24126a"/>
                  <path id="Trazado_192449" data-name="Trazado 192449" d="M374.118,363.526,553.3,466.977a7.366,7.366,0,0,0,6.627.275l106.925-61.733c1.7-.981,1.485-2.694-.476-3.826L487.194,298.241a7.364,7.364,0,0,0-6.626-.274L373.643,359.7C371.944,360.681,372.157,362.394,374.118,363.526Z" fill="#453c9e" opacity="0.51"/>
                  <path id="Trazado_192450" data-name="Trazado 192450" d="M666.377,401.693,487.194,298.241a7.819,7.819,0,0,0-4.427-.9,7.484,7.484,0,0,1,3.107.9L665.057,401.693c1.961,1.132,2.174,2.845.476,3.826L558.608,467.252a5.421,5.421,0,0,1-2.2.626,6.28,6.28,0,0,0,3.519-.626l106.925-61.733C668.551,404.538,668.339,402.825,666.377,401.693Z" fill="#fff"/>
                </g>
              </g>
              <path id="Trazado_192451" data-name="Trazado 192451" d="M506.171,422.091,454.744,392.4c-5.22-3.015-5.22-7.919,0-10.933l51.425-29.69c5.221-3.014,13.715-3.014,18.936,0l51.426,29.691c5.221,3.014,5.221,7.919,0,10.932l-51.426,29.691C519.886,425.105,511.392,425.105,506.171,422.091Z" fill="#24126a" opacity="0.4"/>
              <g id="Grupo_132142" data-name="Grupo 132142">
                <g id="Grupo_132141" data-name="Grupo 132141">
                  <g id="Grupo_132122" data-name="Grupo 132122">
                    <g id="Grupo_132121" data-name="Grupo 132121">
                      <path id="Trazado_192452" data-name="Trazado 192452" d="M582.383,378.573V366.921l-3.222-1.792c-.91,5.5-7.382,9.122-12.793,9.875l-36.85,21.549-16.081,5.807-51.332-26.49,1.186-.685c-4.387-2.049-6.75-6.737-9.123-11.014l-3.456,2.061-2.053.578v11.949h0c0,2.283,1.506,4.566,4.517,6.3L504.6,414.755c6.021,3.476,15.819,3.476,21.84,0l51.426-29.691c2.961-1.71,4.466-3.947,4.514-6.193,0-.1,0-.2-.006-.3Z" fill="url(#linear-gradient-6)"/>
                      <path id="Trazado_192453" data-name="Trazado 192453" d="M566.368,375l-36.85,21.549-14,5.054v15.755a22.337,22.337,0,0,0,10.921-2.607l51.426-29.691c2.961-1.71,4.466-3.947,4.514-6.193,0-.1,0-.2-.006-.3l.007,0V366.921l-2.945-1.638h-.308C578.125,370.7,571.727,374.258,566.368,375Z" fill="#0f054c" opacity="0.3"/>
                      <path id="Trazado_192454" data-name="Trazado 192454" d="M463.291,375.185l48.733-28.136a7.737,7.737,0,0,1,6.993,0L566.9,374.694l-.531.31c5.411-.753,11.883-4.376,12.793-9.875l-53.737-29.887-15.635-4.132-12.732,7.482-42.889,25.579C456.541,368.448,458.9,373.136,463.291,375.185Z" fill="url(#linear-gradient-7)"/>
                      <path id="Trazado_192455" data-name="Trazado 192455" d="M515.521,332.625l-5.732-1.515-12.732,7.482-42.889,25.579c2.373,4.277,4.736,8.965,9.123,11.014l48.733-28.136a7.148,7.148,0,0,1,3.5-.834Z" fill="#0f054c" opacity="0.3"/>
                      <g id="Grupo_132118" data-name="Grupo 132118">
                        <path id="Trazado_192456" data-name="Trazado 192456" d="M504.6,402.917l-51.426-29.691c-6.022-3.477-6.022-9.134,0-12.61L504.6,330.925c6.022-3.476,15.819-3.476,21.841,0l51.426,29.691c6.022,3.477,6.022,9.133,0,12.609l-51.426,29.691C520.421,406.393,510.623,406.393,504.6,402.917Zm14.415-67.7a7.737,7.737,0,0,0-6.993,0L460.6,364.9c-1.928,1.113-1.928,2.924,0,4.038l51.427,29.691a7.74,7.74,0,0,0,6.993,0l51.425-29.691c1.928-1.113,1.928-2.924,0-4.037Z" fill="#5351af"/>
                      </g>
                      <g id="Grupo_132119" data-name="Grupo 132119">
                        <path id="Trazado_192457" data-name="Trazado 192457" d="M570.444,364.9l-51.427-29.691a7.737,7.737,0,0,0-6.993,0L460.6,364.9c-1.286.743-1.71,1.795-1.28,2.745a2.976,2.976,0,0,1,1.28-1.293l51.425-29.691a7.737,7.737,0,0,1,6.993,0l51.427,29.691a2.976,2.976,0,0,1,1.28,1.293C572.154,366.7,571.73,365.646,570.444,364.9Z" fill="#fff"/>
                        <path id="Trazado_192458" data-name="Trazado 192458" d="M577.868,373.226l-51.426,29.691c-6.021,3.476-15.819,3.476-21.84,0l-51.426-29.691c-2.692-1.554-4.177-3.544-4.462-5.58-.353,2.519,1.131,5.109,4.462,7.031L504.6,404.369c6.021,3.476,15.819,3.476,21.84,0l51.426-29.691c3.33-1.922,4.814-4.512,4.461-7.03C582.043,369.683,580.559,371.673,577.868,373.226Z" fill="#fff"/>
                      </g>
                      <g id="Grupo_132120" data-name="Grupo 132120">
                        <path id="Trazado_192459" data-name="Trazado 192459" d="M506.055,402.078l-51.427-29.691c-5.221-3.014-5.221-7.919,0-10.932l51.425-29.691c5.22-3.014,13.715-3.014,18.935,0l51.427,29.692c5.22,3.014,5.22,7.918,0,10.932l-51.425,29.69C519.769,405.092,511.275,405.092,506.055,402.078Zm14.415-67.705a10.955,10.955,0,0,0-9.9,0l-51.426,29.69c-2.729,1.576-2.728,4.14,0,5.715l51.427,29.691a10.952,10.952,0,0,0,9.9,0l51.426-29.69c2.728-1.576,2.728-4.139,0-5.715Z" fill="url(#linear-gradient-8)"/>
                      </g>
                    </g>
                    <path id="Trazado_192460" data-name="Trazado 192460" d="M519.017,335.212a7.737,7.737,0,0,0-6.993,0L460.6,364.9c-1.928,1.113-1.928,2.924,0,4.038l51.427,29.691a7.74,7.74,0,0,0,6.993,0l51.425-29.691c1.928-1.113,1.928-2.924,0-4.037Z" fill="#00defc" opacity="0.4"/>
                  </g>
                  <g id="Grupo_132128" data-name="Grupo 132128">
                    <path id="Trazado_192461" data-name="Trazado 192461" d="M582.383,368.187v-17.61l-3.222-1.793c-.91,5.5-7.382,9.123-12.793,9.876l-36.85,21.548-16.081,5.808-51.332-26.49,1.186-.685c-4.387-2.049-6.75-6.738-9.123-11.014l-3.456,2.061-2.053.577v17.908h0c0,2.283,1.506,4.566,4.517,6.3L504.6,404.369c6.021,3.476,15.819,3.476,21.84,0l51.426-29.691c2.961-1.71,4.466-3.947,4.514-6.193,0-.1,0-.2-.006-.3Z" fill="#00defc" opacity="0.4"/>
                    <g id="Grupo_132127" data-name="Grupo 132127">
                      <g id="Grupo_132126" data-name="Grupo 132126">
                        <path id="Trazado_192462" data-name="Trazado 192462" d="M582.383,352.533V340.882l-3.222-1.792c-.91,5.5-7.382,9.122-12.793,9.875l-36.85,21.549-16.081,5.807-51.332-26.49,1.186-.685c-4.387-2.049-6.75-6.737-9.123-11.014l-3.456,2.061-2.053.577v11.95h0c0,2.283,1.506,4.566,4.517,6.3L504.6,388.715c6.021,3.477,15.819,3.477,21.84,0l51.426-29.69c2.961-1.71,4.466-3.948,4.514-6.194,0-.1,0-.2-.006-.3Z" fill="url(#linear-gradient-6)"/>
                        <path id="Trazado_192463" data-name="Trazado 192463" d="M566.368,348.965l-36.85,21.549-14,5.054v15.754a22.315,22.315,0,0,0,10.921-2.607l51.426-29.69c2.961-1.71,4.466-3.948,4.514-6.194,0-.1,0-.2-.006-.3l.007,0V340.882l-2.945-1.638h-.308C578.125,344.656,571.727,348.219,566.368,348.965Z" fill="#0f054c" opacity="0.3"/>
                        <path id="Trazado_192464" data-name="Trazado 192464" d="M463.291,349.146l48.733-28.136a7.74,7.74,0,0,1,6.993,0L566.9,348.654l-.531.311c5.411-.753,11.883-4.376,12.793-9.875L525.424,309.2l-15.635-4.132-12.732,7.483-42.889,25.579C456.541,342.409,458.9,347.1,463.291,349.146Z" fill="url(#linear-gradient-7)"/>
                        <path id="Trazado_192465" data-name="Trazado 192465" d="M515.521,306.586l-5.732-1.516-12.732,7.483-42.889,25.579c2.373,4.277,4.736,8.965,9.123,11.014l48.733-28.136a7.148,7.148,0,0,1,3.5-.835Z" fill="#0f054c" opacity="0.3"/>
                        <g id="Grupo_132123" data-name="Grupo 132123">
                          <path id="Trazado_192466" data-name="Trazado 192466" d="M504.6,376.877l-51.426-29.691c-6.022-3.476-6.022-9.133,0-12.609L504.6,304.886c6.022-3.476,15.819-3.476,21.841,0l51.426,29.691c6.022,3.476,6.022,9.133,0,12.609l-51.426,29.69C520.421,380.354,510.623,380.354,504.6,376.877Zm14.415-67.705a7.74,7.74,0,0,0-6.993,0L460.6,338.863c-1.928,1.113-1.928,2.924,0,4.037l51.427,29.692a7.737,7.737,0,0,0,6.993,0l51.425-29.69c1.928-1.113,1.928-2.924,0-4.037Z" fill="#5351af"/>
                        </g>
                        <g id="Grupo_132124" data-name="Grupo 132124">
                          <path id="Trazado_192467" data-name="Trazado 192467" d="M570.444,338.864l-51.427-29.692a7.74,7.74,0,0,0-6.993,0L460.6,338.863c-1.286.742-1.71,1.795-1.28,2.744a2.981,2.981,0,0,1,1.28-1.293l51.425-29.69a7.74,7.74,0,0,1,6.993,0l51.427,29.691a2.981,2.981,0,0,1,1.28,1.293C572.154,340.659,571.73,339.606,570.444,338.864Z" fill="#fff"/>
                          <path id="Trazado_192468" data-name="Trazado 192468" d="M577.868,347.187l-51.426,29.69c-6.021,3.477-15.819,3.477-21.84,0l-51.426-29.691c-2.692-1.554-4.177-3.543-4.462-5.579-.353,2.519,1.131,5.108,4.462,7.031L504.6,378.329c6.021,3.477,15.819,3.477,21.84,0l51.426-29.69c3.33-1.923,4.814-4.512,4.461-7.03C582.043,343.644,580.559,345.633,577.868,347.187Z" fill="#fff"/>
                        </g>
                        <g id="Grupo_132125" data-name="Grupo 132125">
                          <path id="Trazado_192469" data-name="Trazado 192469" d="M506.055,376.039l-51.427-29.691c-5.221-3.014-5.221-7.919,0-10.933l51.425-29.69c5.22-3.014,13.715-3.014,18.935,0l51.427,29.691c5.22,3.014,5.22,7.919,0,10.932L524.99,376.039C519.769,379.053,511.275,379.053,506.055,376.039Zm14.415-67.7a10.951,10.951,0,0,0-9.9,0l-51.426,29.69c-2.729,1.576-2.728,4.139,0,5.715l51.427,29.691a10.952,10.952,0,0,0,9.9,0L571.9,343.74c2.728-1.576,2.728-4.139,0-5.715Z" fill="url(#linear-gradient-8)"/>
                        </g>
                      </g>
                      <path id="Trazado_192470" data-name="Trazado 192470" d="M519.017,309.172a7.74,7.74,0,0,0-6.993,0L460.6,338.863c-1.928,1.113-1.928,2.924,0,4.037l51.427,29.692a7.737,7.737,0,0,0,6.993,0l51.425-29.69c1.928-1.113,1.928-2.924,0-4.037Z" fill="#00defc" opacity="0.4"/>
                    </g>
                  </g>
                  <g id="Grupo_132134" data-name="Grupo 132134">
                    <path id="Trazado_192471" data-name="Trazado 192471" d="M582.383,342.147v-17.61l-3.222-1.792c-.91,5.5-7.382,9.122-12.793,9.875l-36.85,21.549-16.081,5.807-51.332-26.49,1.186-.685c-4.387-2.049-6.75-6.737-9.123-11.014l-3.456,2.061-2.053.578v17.908h0c0,2.283,1.506,4.566,4.517,6.3L504.6,378.329c6.021,3.477,15.819,3.477,21.84,0l51.426-29.69c2.961-1.71,4.466-3.948,4.514-6.194,0-.1,0-.2-.006-.3Z" fill="#00defc" opacity="0.4"/>
                    <g id="Grupo_132133" data-name="Grupo 132133">
                      <g id="Grupo_132132" data-name="Grupo 132132">
                        <path id="Trazado_192472" data-name="Trazado 192472" d="M582.383,326.494V314.842l-3.222-1.792c-.91,5.5-7.382,9.122-12.793,9.876l-36.85,21.548-16.081,5.808-51.332-26.491,1.186-.685c-4.387-2.049-6.75-6.737-9.123-11.013l-3.456,2.061-2.053.577V326.68h0c0,2.283,1.506,4.566,4.517,6.3L504.6,362.676c6.021,3.476,15.819,3.476,21.84,0l51.426-29.691c2.961-1.709,4.466-3.947,4.514-6.193,0-.1,0-.2-.006-.3Z" fill="url(#linear-gradient-6)"/>
                        <path id="Trazado_192473" data-name="Trazado 192473" d="M566.368,322.926l-36.85,21.548-14,5.055v15.754a22.337,22.337,0,0,0,10.921-2.607l51.426-29.691c2.961-1.709,4.466-3.947,4.514-6.193,0-.1,0-.2-.006-.3l.007,0V314.842l-2.945-1.638h-.308C578.125,318.616,571.727,322.179,566.368,322.926Z" fill="#0f054c" opacity="0.3"/>
                        <path id="Trazado_192474" data-name="Trazado 192474" d="M463.291,323.106l48.733-28.135a7.737,7.737,0,0,1,6.993,0L566.9,322.615l-.531.311c5.411-.754,11.883-4.377,12.793-9.876l-53.737-29.887-15.635-4.132-12.732,7.482-42.889,25.58C456.541,316.369,458.9,321.057,463.291,323.106Z" fill="url(#linear-gradient-7)"/>
                        <path id="Trazado_192475" data-name="Trazado 192475" d="M515.521,280.546l-5.732-1.515-12.732,7.482-42.889,25.58c2.373,4.276,4.736,8.964,9.123,11.013l48.733-28.135a7.148,7.148,0,0,1,3.5-.835Z" fill="#0f054c" opacity="0.3"/>
                        <g id="Grupo_132129" data-name="Grupo 132129">
                          <path id="Trazado_192476" data-name="Trazado 192476" d="M504.6,350.838l-51.426-29.691c-6.022-3.477-6.022-9.133,0-12.61l51.425-29.69c6.022-3.476,15.819-3.476,21.841,0l51.426,29.691c6.022,3.477,6.022,9.133,0,12.61l-51.426,29.69C520.421,354.314,510.623,354.314,504.6,350.838Zm14.415-67.705a7.74,7.74,0,0,0-6.993,0L460.6,312.823c-1.928,1.113-1.928,2.925,0,4.038l51.427,29.691a7.74,7.74,0,0,0,6.993,0l51.425-29.69c1.928-1.113,1.928-2.924,0-4.038Z" fill="#5351af"/>
                        </g>
                        <g id="Grupo_132130" data-name="Grupo 132130">
                          <path id="Trazado_192477" data-name="Trazado 192477" d="M570.444,312.824l-51.427-29.691a7.74,7.74,0,0,0-6.993,0L460.6,312.823c-1.286.743-1.71,1.8-1.28,2.745a2.981,2.981,0,0,1,1.28-1.293l51.425-29.69a7.737,7.737,0,0,1,6.993,0l51.427,29.691a2.981,2.981,0,0,1,1.28,1.293C572.154,314.62,571.73,313.567,570.444,312.824Z" fill="#fff"/>
                          <path id="Trazado_192478" data-name="Trazado 192478" d="M577.868,321.148l-51.426,29.69c-6.021,3.476-15.819,3.476-21.84,0l-51.426-29.691c-2.692-1.554-4.177-3.544-4.462-5.579-.353,2.518,1.131,5.108,4.462,7.031L504.6,352.29c6.021,3.476,15.819,3.476,21.84,0L577.868,322.6c3.33-1.922,4.814-4.511,4.461-7.03C582.043,317.605,580.559,319.594,577.868,321.148Z" fill="#fff"/>
                        </g>
                        <g id="Grupo_132131" data-name="Grupo 132131">
                          <path id="Trazado_192479" data-name="Trazado 192479" d="M506.055,350l-51.427-29.691c-5.221-3.014-5.221-7.918,0-10.932l51.425-29.691c5.22-3.014,13.715-3.013,18.935,0l51.427,29.691c5.22,3.014,5.22,7.918,0,10.932L524.99,350C519.769,353.014,511.275,353.013,506.055,350Zm14.415-67.7a10.958,10.958,0,0,0-9.9,0l-51.426,29.691c-2.729,1.575-2.728,4.139,0,5.714l51.427,29.692a10.958,10.958,0,0,0,9.9,0L571.9,317.7c2.728-1.575,2.728-4.139,0-5.714Z" fill="url(#linear-gradient-8)"/>
                        </g>
                      </g>
                      <path id="Trazado_192480" data-name="Trazado 192480" d="M519.017,283.133a7.74,7.74,0,0,0-6.993,0L460.6,312.823c-1.928,1.113-1.928,2.925,0,4.038l51.427,29.691a7.74,7.74,0,0,0,6.993,0l51.425-29.69c1.928-1.113,1.928-2.924,0-4.038Z" fill="#00defc" opacity="0.4"/>
                    </g>
                  </g>
                  <g id="Grupo_132140" data-name="Grupo 132140">
                    <path id="Trazado_192481" data-name="Trazado 192481" d="M582.383,316.108V298.5l-3.222-1.792c-.91,5.5-7.382,9.122-12.793,9.875l-36.85,21.549-16.081,5.807-51.332-26.49,1.186-.685c-4.387-2.049-6.75-6.737-9.123-11.014l-3.456,2.061-2.053.577v17.908h0c0,2.283,1.506,4.566,4.517,6.3L504.6,352.29c6.021,3.476,15.819,3.476,21.84,0L577.868,322.6c2.961-1.709,4.466-3.947,4.514-6.193,0-.1,0-.2-.006-.3Z" fill="#00defc" opacity="0.4"/>
                    <g id="Grupo_132139" data-name="Grupo 132139">
                      <g id="Grupo_132138" data-name="Grupo 132138">
                        <path id="Trazado_192482" data-name="Trazado 192482" d="M582.383,300.455V288.8l-3.222-1.792c-.91,5.5-7.382,9.122-12.793,9.875l-36.85,21.549-16.081,5.807-51.332-26.49,1.186-.685c-4.387-2.049-6.75-6.737-9.123-11.014l-3.456,2.061-2.053.577v11.95h0c0,2.283,1.506,4.566,4.517,6.3L504.6,336.637c6.021,3.476,15.819,3.476,21.84,0l51.426-29.691c2.961-1.71,4.466-3.947,4.514-6.193,0-.1,0-.2-.006-.3Z" fill="url(#linear-gradient-6)"/>
                        <path id="Trazado_192483" data-name="Trazado 192483" d="M566.368,296.886l-36.85,21.549-14,5.054v15.755a22.337,22.337,0,0,0,10.921-2.607l51.426-29.691c2.961-1.71,4.466-3.947,4.514-6.193,0-.1,0-.2-.006-.3l.007,0V288.8l-2.945-1.638h-.308C578.125,292.577,571.727,296.14,566.368,296.886Z" fill="#0f054c" opacity="0.3"/>
                        <path id="Trazado_192484" data-name="Trazado 192484" d="M463.291,297.067l48.733-28.136a7.74,7.74,0,0,1,6.993,0L566.9,296.576l-.531.31c5.411-.753,11.883-4.376,12.793-9.875l-53.737-29.887-15.635-4.132-12.732,7.482-42.889,25.579C456.541,290.33,458.9,295.018,463.291,297.067Z" fill="url(#linear-gradient-7)"/>
                        <path id="Trazado_192485" data-name="Trazado 192485" d="M515.521,254.507l-5.732-1.515-12.732,7.482-42.889,25.579c2.373,4.277,4.736,8.965,9.123,11.014l48.733-28.136a7.148,7.148,0,0,1,3.5-.834Z" fill="#0f054c" opacity="0.3"/>
                        <g id="Grupo_132135" data-name="Grupo 132135">
                          <path id="Trazado_192486" data-name="Trazado 192486" d="M504.6,324.8l-51.426-29.692c-6.022-3.476-6.022-9.133,0-12.609L504.6,252.807c6.022-3.476,15.819-3.476,21.841,0L577.867,282.5c6.022,3.476,6.022,9.133,0,12.609L526.442,324.8C520.421,328.275,510.623,328.275,504.6,324.8Zm14.415-67.705a7.737,7.737,0,0,0-6.993,0L460.6,286.784c-1.928,1.113-1.928,2.924,0,4.037l51.427,29.692a7.74,7.74,0,0,0,6.993,0l51.425-29.691c1.928-1.113,1.928-2.924,0-4.037Z" fill="url(#linear-gradient-8)"/>
                        </g>
                        <g id="Grupo_132136" data-name="Grupo 132136">
                          <path id="Trazado_192487" data-name="Trazado 192487" d="M570.444,286.785l-51.427-29.691a7.737,7.737,0,0,0-6.993,0L460.6,286.784c-1.286.742-1.71,1.8-1.28,2.745a2.976,2.976,0,0,1,1.28-1.293l51.425-29.691a7.74,7.74,0,0,1,6.993,0l51.427,29.692a2.976,2.976,0,0,1,1.28,1.293C572.154,288.58,571.73,287.528,570.444,286.785Z" fill="#fff"/>
                          <path id="Trazado_192488" data-name="Trazado 192488" d="M577.868,295.108,526.442,324.8c-6.021,3.476-15.819,3.476-21.84,0l-51.426-29.692c-2.692-1.554-4.177-3.543-4.462-5.579-.353,2.519,1.131,5.108,4.462,7.031L504.6,326.25c6.021,3.477,15.819,3.477,21.84,0l51.426-29.69c3.33-1.923,4.814-4.512,4.461-7.03C582.043,291.565,580.559,293.555,577.868,295.108Z" fill="#fff"/>
                        </g>
                        <g id="Grupo_132137" data-name="Grupo 132137">
                          <path id="Trazado_192489" data-name="Trazado 192489" d="M506.055,323.96l-51.427-29.691c-5.221-3.014-5.221-7.919,0-10.933l51.425-29.69c5.22-3.014,13.715-3.014,18.935,0l51.427,29.692c5.22,3.013,5.22,7.918,0,10.932L524.99,323.96C519.769,326.974,511.275,326.974,506.055,323.96Zm14.415-67.7a10.952,10.952,0,0,0-9.9,0l-51.426,29.69c-2.729,1.576-2.728,4.139,0,5.715l51.427,29.691a10.952,10.952,0,0,0,9.9,0l51.426-29.69c2.728-1.576,2.728-4.139,0-5.715Z" fill="url(#linear-gradient-8)"/>
                        </g>
                      </g>
                      <path id="Trazado_192490" data-name="Trazado 192490" d="M519.017,257.094a7.737,7.737,0,0,0-6.993,0L460.6,286.784c-1.928,1.113-1.928,2.924,0,4.037l51.427,29.692a7.74,7.74,0,0,0,6.993,0l51.425-29.691c1.928-1.113,1.928-2.924,0-4.037Z" fill="#00defc" opacity="0.4"/>
                    </g>
                  </g>
                </g>
              </g>
            </g>
          </g>
        </g>
      </g>
      <g id="Grupo_132147" data-name="Grupo 132147">
        <path id="Trazado_192492" data-name="Trazado 192492" d="M546.687,335.69a2.672,2.672,0,0,1-1.325-.381,3.877,3.877,0,0,1-1.857-3.919,1.961,1.961,0,0,1,1.114-1.416,2.35,2.35,0,0,1,2.107.224,3.876,3.876,0,0,1,1.857,3.917h0a1.9,1.9,0,0,1-1.9,1.575Zm-1.286-5.264a1.289,1.289,0,0,0-1.3,1.1,3.233,3.233,0,0,0,1.568,3.253,1.757,1.757,0,0,0,1.56.192,1.366,1.366,0,0,0,.764-.993v0a3.232,3.232,0,0,0-1.569-3.252A2.057,2.057,0,0,0,545.4,330.426Z" fill="#00defc"/>
        <path id="Trazado_192493" data-name="Trazado 192493" d="M553.93,339.872a2.672,2.672,0,0,1-1.325-.381,3.878,3.878,0,0,1-1.857-3.92,1.962,1.962,0,0,1,1.113-1.415,2.356,2.356,0,0,1,2.108.224,3.877,3.877,0,0,1,1.857,3.917v0a1.962,1.962,0,0,1-1.115,1.415A1.94,1.94,0,0,1,553.93,339.872Zm-1.286-5.264a1.289,1.289,0,0,0-1.3,1.1,3.233,3.233,0,0,0,1.569,3.254,1.748,1.748,0,0,0,1.559.191,1.368,1.368,0,0,0,.764-.994,3.233,3.233,0,0,0-1.569-3.252A2.058,2.058,0,0,0,552.644,334.608Z" fill="#00defc"/>
        <path id="Trazado_192494" data-name="Trazado 192494" d="M562.772,342.411a1.731,1.731,0,0,1-2.772,1,3.555,3.555,0,0,1-1.713-3.586,1.733,1.733,0,0,1,2.773-1A3.552,3.552,0,0,1,562.772,342.411Z" fill="#00defc"/>
      </g>
      <path id="Trazado_192495" data-name="Trazado 192495" d="M423.895,262.491l-3.874-2.237.3-1.791L424.2,260.7Z" fill="#00defc"/>
      <path id="Trazado_192496" data-name="Trazado 192496" d="M429.526,265.742l-3.874-2.237.3-1.791,3.874,2.237Z" fill="#00defc"/>
      <path id="Trazado_192497" data-name="Trazado 192497" d="M418.322,259.273l-8.5-4.9.3-1.791,8.5,4.9Z" fill="#00defc"/>
    </g>
    <g id="Grupo_132173" data-name="Grupo 132173" transform="translate(665.789 -75.602)">
      <g id="Grupo_132172" data-name="Grupo 132172">
        <g id="Grupo_132153" data-name="Grupo 132153">
          <g id="Grupo_132152" data-name="Grupo 132152">
            <path id="Trazado_192499" data-name="Trazado 192499" d="M479.065,436V424.351l-3.222-1.792c-.91,5.5-7.383,9.122-12.793,9.876L426.2,453.983l-16.081,5.807L358.787,433.3l1.186-.685c-4.387-2.049-6.75-6.737-9.123-11.013l-3.456,2.061-2.053.577v11.949h0c0,2.283,1.506,4.566,4.516,6.3l51.427,29.691c6.021,3.476,15.819,3.476,21.84,0l51.425-29.691c2.962-1.71,4.467-3.947,4.515-6.193,0-.1,0-.2-.006-.3Z" fill="url(#linear-gradient-6)"/>
            <path id="Trazado_192500" data-name="Trazado 192500" d="M463.05,432.435,426.2,453.983l-14,5.055v15.754a22.337,22.337,0,0,0,10.921-2.607l51.425-29.691c2.962-1.71,4.467-3.947,4.515-6.193,0-.1,0-.2-.006-.3l.007,0V424.351l-2.945-1.638h-.308C474.807,428.125,468.409,431.688,463.05,432.435Z" fill="#0f054c" opacity="0.3"/>
            <path id="Trazado_192501" data-name="Trazado 192501" d="M359.973,432.615l48.733-28.135a7.737,7.737,0,0,1,6.993,0l47.881,27.644-.53.311c5.41-.754,11.883-4.377,12.793-9.876l-53.738-29.887-15.634-4.132-12.732,7.482L350.85,421.6C353.223,425.878,355.586,430.566,359.973,432.615Z" fill="url(#linear-gradient-7)"/>
            <path id="Trazado_192502" data-name="Trazado 192502" d="M412.2,390.055l-5.732-1.515-12.732,7.482L350.85,421.6c2.373,4.276,4.736,8.964,9.123,11.013l48.733-28.135a7.148,7.148,0,0,1,3.5-.835Z" fill="#0f054c" opacity="0.3"/>
            <g id="Grupo_132149" data-name="Grupo 132149">
              <path id="Trazado_192503" data-name="Trazado 192503" d="M401.284,460.347l-51.427-29.691c-6.021-3.477-6.021-9.134,0-12.61l51.425-29.69c6.021-3.477,15.819-3.476,21.84,0l51.427,29.691c6.021,3.477,6.022,9.133,0,12.609l-51.425,29.691C417.1,463.823,407.3,463.823,401.284,460.347Zm14.415-67.7a7.737,7.737,0,0,0-6.993,0l-51.425,29.69c-1.929,1.113-1.928,2.925,0,4.038l51.427,29.691a7.74,7.74,0,0,0,6.993,0l51.425-29.691c1.928-1.113,1.928-2.924,0-4.037Z" fill="#ffb30b"/>
            </g>
            <g id="Grupo_132150" data-name="Grupo 132150">
              <path id="Trazado_192504" data-name="Trazado 192504" d="M467.126,422.333,415.7,392.642a7.737,7.737,0,0,0-6.993,0l-51.425,29.69c-1.287.743-1.71,1.8-1.28,2.745a2.976,2.976,0,0,1,1.28-1.293l51.425-29.69a7.737,7.737,0,0,1,6.993,0l51.427,29.691a2.968,2.968,0,0,1,1.279,1.293C468.835,424.128,468.412,423.076,467.126,422.333Z" fill="#fff"/>
              <path id="Trazado_192505" data-name="Trazado 192505" d="M474.549,430.656l-51.425,29.691c-6.021,3.476-15.819,3.476-21.84,0l-51.427-29.691c-2.691-1.554-4.176-3.544-4.461-5.579-.354,2.518,1.131,5.108,4.461,7.03L401.284,461.8c6.021,3.476,15.819,3.476,21.84,0l51.425-29.691c3.33-1.922,4.815-4.511,4.462-7.03C478.725,427.113,477.241,429.1,474.549,430.656Z" fill="#fff"/>
            </g>
            <g id="Grupo_132151" data-name="Grupo 132151">
              <path id="Trazado_192506" data-name="Trazado 192506" d="M402.737,459.508,351.31,429.817c-5.221-3.014-5.221-7.918,0-10.932l51.426-29.691c5.22-3.014,13.714-3.014,18.935,0L473.1,418.886c5.22,3.014,5.22,7.918,0,10.932l-51.425,29.69C416.451,462.522,407.957,462.522,402.737,459.508Zm14.414-67.7a10.958,10.958,0,0,0-9.9,0l-51.425,29.691c-2.729,1.575-2.729,4.139,0,5.714L407.255,456.9a10.958,10.958,0,0,0,9.9,0l51.425-29.691c2.729-1.575,2.729-4.139,0-5.714Z" fill="url(#linear-gradient-8)"/>
            </g>
          </g>
          <path id="Trazado_192507" data-name="Trazado 192507" d="M415.7,392.642a7.737,7.737,0,0,0-6.993,0l-51.425,29.69c-1.929,1.113-1.928,2.925,0,4.038l51.427,29.691a7.74,7.74,0,0,0,6.993,0l51.425-29.691c1.928-1.113,1.928-2.924,0-4.037Z" fill="#00defc" opacity="0.4"/>
        </g>
        <g id="Grupo_132159" data-name="Grupo 132159">
          <path id="Trazado_192508" data-name="Trazado 192508" d="M479.065,425.617v-17.61l-3.222-1.792c-.91,5.5-7.383,9.122-12.793,9.875L426.2,437.638l-16.081,5.808-51.332-26.49,1.186-.685c-4.387-2.049-6.75-6.737-9.123-11.014l-3.456,2.061-2.053.577V425.8h0c0,2.283,1.506,4.566,4.516,6.3L401.284,461.8c6.021,3.476,15.819,3.476,21.84,0l51.425-29.691c2.962-1.71,4.467-3.947,4.515-6.193,0-.1,0-.2-.006-.3Z" fill="#42e8e0" opacity="0.4"/>
          <g id="Grupo_132158" data-name="Grupo 132158">
            <g id="Grupo_132157" data-name="Grupo 132157">
              <path id="Trazado_192509" data-name="Trazado 192509" d="M479.065,409.964V398.312l-3.222-1.792c-.91,5.5-7.383,9.122-12.793,9.875L426.2,427.944l-16.081,5.807-51.332-26.49,1.186-.685c-4.387-2.049-6.75-6.737-9.123-11.014l-3.456,2.061-2.053.577v11.95h0c0,2.283,1.506,4.566,4.516,6.3l51.427,29.691c6.021,3.477,15.819,3.477,21.84,0l51.425-29.69c2.962-1.71,4.467-3.947,4.515-6.193,0-.1,0-.2-.006-.3Z" fill="url(#linear-gradient-6)"/>
              <path id="Trazado_192510" data-name="Trazado 192510" d="M463.05,406.395,426.2,427.944,412.2,433v15.755a22.327,22.327,0,0,0,10.921-2.608l51.425-29.69c2.962-1.71,4.467-3.947,4.515-6.193,0-.1,0-.2-.006-.3l.007,0V398.312l-2.945-1.638h-.308C474.807,402.086,468.409,405.649,463.05,406.395Z" fill="#0f054c" opacity="0.3"/>
              <path id="Trazado_192511" data-name="Trazado 192511" d="M359.973,406.576l48.733-28.136a7.74,7.74,0,0,1,6.993,0l47.881,27.645-.53.31c5.41-.753,11.883-4.376,12.793-9.875l-53.738-29.887L406.471,362.5l-12.732,7.482L350.85,395.562C353.223,399.839,355.586,404.527,359.973,406.576Z" fill="url(#linear-gradient-7)"/>
              <path id="Trazado_192512" data-name="Trazado 192512" d="M412.2,364.016l-5.732-1.515-12.732,7.482L350.85,395.562c2.373,4.277,4.736,8.965,9.123,11.014l48.733-28.136a7.159,7.159,0,0,1,3.5-.835Z" fill="#0f054c" opacity="0.3"/>
              <g id="Grupo_132154" data-name="Grupo 132154">
                <path id="Trazado_192513" data-name="Trazado 192513" d="M401.284,434.308l-51.427-29.692c-6.021-3.476-6.021-9.133,0-12.609l51.425-29.691c6.021-3.476,15.819-3.476,21.84,0l51.427,29.691c6.021,3.476,6.022,9.133,0,12.609l-51.425,29.691C417.1,437.784,407.3,437.784,401.284,434.308ZM415.7,366.6a7.74,7.74,0,0,0-6.993,0l-51.425,29.691c-1.929,1.113-1.928,2.924,0,4.037l51.427,29.692a7.74,7.74,0,0,0,6.993,0l51.425-29.691c1.928-1.113,1.928-2.924,0-4.037Z" fill="#ffb30b"/>
              </g>
              <g id="Grupo_132155" data-name="Grupo 132155">
                <path id="Trazado_192514" data-name="Trazado 192514" d="M467.126,396.294,415.7,366.6a7.74,7.74,0,0,0-6.993,0l-51.425,29.691c-1.287.742-1.71,1.8-1.28,2.744a2.986,2.986,0,0,1,1.28-1.293l51.425-29.69a7.74,7.74,0,0,1,6.993,0l51.427,29.692a2.971,2.971,0,0,1,1.279,1.292C468.835,398.089,468.412,397.036,467.126,396.294Z" fill="#fff"/>
                <path id="Trazado_192515" data-name="Trazado 192515" d="M474.549,404.617l-51.425,29.691c-6.021,3.476-15.819,3.476-21.84,0l-51.427-29.692c-2.691-1.554-4.176-3.543-4.461-5.579-.354,2.519,1.131,5.108,4.461,7.031l51.427,29.691c6.021,3.477,15.819,3.477,21.84,0l51.425-29.69c3.33-1.923,4.815-4.512,4.462-7.03C478.725,401.074,477.241,403.063,474.549,404.617Z" fill="#fff"/>
              </g>
              <g id="Grupo_132156" data-name="Grupo 132156">
                <path id="Trazado_192516" data-name="Trazado 192516" d="M402.737,433.469,351.31,403.778c-5.221-3.014-5.221-7.919,0-10.933l51.426-29.69c5.22-3.014,13.714-3.014,18.935,0L473.1,392.847c5.22,3.013,5.22,7.918,0,10.932l-51.425,29.69C416.451,436.483,407.957,436.483,402.737,433.469Zm14.414-67.7a10.952,10.952,0,0,0-9.9,0l-51.425,29.69c-2.729,1.576-2.729,4.139,0,5.715l51.427,29.691a10.952,10.952,0,0,0,9.9,0l51.425-29.69c2.729-1.576,2.729-4.139,0-5.715Z" fill="url(#linear-gradient-8)"/>
              </g>
            </g>
            <path id="Trazado_192517" data-name="Trazado 192517" d="M415.7,366.6a7.74,7.74,0,0,0-6.993,0l-51.425,29.691c-1.929,1.113-1.928,2.924,0,4.037l51.427,29.692a7.74,7.74,0,0,0,6.993,0l51.425-29.691c1.928-1.113,1.928-2.924,0-4.037Z" fill="#00defc" opacity="0.4"/>
          </g>
        </g>
        <g id="Grupo_132165" data-name="Grupo 132165">
          <path id="Trazado_192518" data-name="Trazado 192518" d="M479.065,399.578V381.967l-3.222-1.792c-.91,5.5-7.383,9.122-12.793,9.876L426.2,411.6l-16.081,5.807-51.332-26.49,1.186-.685c-4.387-2.049-6.75-6.737-9.123-11.013l-3.456,2.061-2.053.577v17.908h0c0,2.283,1.506,4.566,4.516,6.3l51.427,29.691c6.021,3.477,15.819,3.477,21.84,0l51.425-29.69c2.962-1.71,4.467-3.947,4.515-6.193,0-.1,0-.2-.006-.3Z" fill="#42e8e0" opacity="0.4"/>
          <g id="Grupo_132164" data-name="Grupo 132164">
            <g id="Grupo_132163" data-name="Grupo 132163">
              <path id="Trazado_192519" data-name="Trazado 192519" d="M479.065,383.924V372.273l-3.222-1.793c-.91,5.5-7.383,9.122-12.793,9.876L426.2,401.9l-16.081,5.808-51.332-26.49,1.186-.685c-4.387-2.05-6.75-6.738-9.123-11.014l-3.456,2.061-2.053.577V384.11h0c0,2.284,1.506,4.567,4.516,6.305l51.427,29.691c6.021,3.476,15.819,3.476,21.84,0l51.425-29.69c2.962-1.71,4.467-3.948,4.515-6.194,0-.1,0-.2-.006-.3Z" fill="url(#linear-gradient-6)"/>
              <path id="Trazado_192520" data-name="Trazado 192520" d="M463.05,380.356,426.2,401.9l-14,5.055v15.754a22.337,22.337,0,0,0,10.921-2.607l51.425-29.69c2.962-1.71,4.467-3.948,4.515-6.194,0-.1,0-.2-.006-.3l.007,0V372.273l-2.945-1.638h-.308C474.807,376.047,468.409,379.61,463.05,380.356Z" fill="#0f054c" opacity="0.3"/>
              <path id="Trazado_192521" data-name="Trazado 192521" d="M359.973,380.537,408.706,352.4a7.74,7.74,0,0,1,6.993,0l47.881,27.644-.53.311c5.41-.754,11.883-4.377,12.793-9.876l-53.738-29.887-15.634-4.132-12.732,7.483L350.85,369.523C353.223,373.8,355.586,378.487,359.973,380.537Z" fill="url(#linear-gradient-7)"/>
              <path id="Trazado_192522" data-name="Trazado 192522" d="M412.2,337.976l-5.732-1.515-12.732,7.483L350.85,369.523c2.373,4.276,4.736,8.964,9.123,11.014L408.706,352.4a7.148,7.148,0,0,1,3.5-.835Z" fill="#0f054c" opacity="0.3"/>
              <g id="Grupo_132160" data-name="Grupo 132160">
                <path id="Trazado_192523" data-name="Trazado 192523" d="M401.284,408.268l-51.427-29.691c-6.021-3.477-6.021-9.133,0-12.61l51.425-29.69c6.021-3.476,15.819-3.476,21.84,0l51.427,29.692c6.021,3.476,6.022,9.133,0,12.609l-51.425,29.69C417.1,411.745,407.3,411.744,401.284,408.268ZM415.7,340.563a7.74,7.74,0,0,0-6.993,0l-51.425,29.69c-1.929,1.113-1.928,2.925,0,4.038l51.427,29.691a7.74,7.74,0,0,0,6.993,0l51.425-29.69c1.928-1.113,1.928-2.924,0-4.038Z" fill="#ffb30b"/>
              </g>
              <g id="Grupo_132161" data-name="Grupo 132161">
                <path id="Trazado_192524" data-name="Trazado 192524" d="M467.126,370.254,415.7,340.563a7.74,7.74,0,0,0-6.993,0l-51.425,29.69c-1.287.743-1.71,1.8-1.28,2.745a2.981,2.981,0,0,1,1.28-1.293l51.425-29.69a7.74,7.74,0,0,1,6.993,0l51.427,29.691A2.973,2.973,0,0,1,468.4,373C468.835,372.05,468.412,371,467.126,370.254Z" fill="#fff"/>
                <path id="Trazado_192525" data-name="Trazado 192525" d="M474.549,378.578l-51.425,29.69c-6.021,3.477-15.819,3.476-21.84,0l-51.427-29.691c-2.691-1.554-4.176-3.544-4.461-5.579-.354,2.519,1.131,5.108,4.461,7.031l51.427,29.691c6.021,3.476,15.819,3.476,21.84,0l51.425-29.69c3.33-1.923,4.815-4.512,4.462-7.031C478.725,375.035,477.241,377.024,474.549,378.578Z" fill="#fff"/>
              </g>
              <g id="Grupo_132162" data-name="Grupo 132162">
                <path id="Trazado_192526" data-name="Trazado 192526" d="M402.737,407.43,351.31,377.738c-5.221-3.014-5.221-7.918,0-10.932l51.426-29.691c5.22-3.013,13.714-3.013,18.935,0L473.1,366.807c5.22,3.014,5.22,7.918,0,10.932L421.672,407.43C416.451,410.444,407.957,410.444,402.737,407.43Zm14.414-67.7a10.955,10.955,0,0,0-9.9,0l-51.425,29.691c-2.729,1.575-2.729,4.139,0,5.714l51.427,29.692a10.958,10.958,0,0,0,9.9,0l51.425-29.691c2.729-1.575,2.729-4.138,0-5.714Z" fill="url(#linear-gradient-8)"/>
              </g>
            </g>
            <path id="Trazado_192527" data-name="Trazado 192527" d="M415.7,340.563a7.74,7.74,0,0,0-6.993,0l-51.425,29.69c-1.929,1.113-1.928,2.925,0,4.038l51.427,29.691a7.74,7.74,0,0,0,6.993,0l51.425-29.69c1.928-1.113,1.928-2.924,0-4.038Z" fill="#00defc" opacity="0.4"/>
          </g>
        </g>
        <g id="Grupo_132171" data-name="Grupo 132171">
          <path id="Trazado_192528" data-name="Trazado 192528" d="M479.065,373.538v-17.61l-3.222-1.792c-.91,5.5-7.383,9.122-12.793,9.875L426.2,385.56l-16.081,5.807-51.332-26.49,1.186-.685c-4.387-2.049-6.75-6.737-9.123-11.014l-3.456,2.061-2.053.577v17.908h0c0,2.284,1.506,4.567,4.516,6.3l51.427,29.691c6.021,3.476,15.819,3.476,21.84,0l51.425-29.69c2.962-1.71,4.467-3.948,4.515-6.194,0-.1,0-.2-.006-.3Z" fill="#42e8e0" opacity="0.4"/>
          <g id="Grupo_132170" data-name="Grupo 132170">
            <g id="Grupo_132169" data-name="Grupo 132169">
              <path id="Trazado_192529" data-name="Trazado 192529" d="M479.065,357.885V346.233l-3.222-1.792c-.91,5.5-7.383,9.122-12.793,9.875L426.2,375.865l-16.081,5.807-51.332-26.49,1.186-.685c-4.387-2.049-6.75-6.737-9.123-11.014l-3.456,2.062-2.053.576v11.95h0c0,2.283,1.506,4.566,4.516,6.3l51.427,29.692c6.021,3.476,15.819,3.476,21.84,0l51.425-29.691c2.962-1.71,4.467-3.947,4.515-6.193,0-.1,0-.2-.006-.3Z" fill="url(#linear-gradient-6)"/>
              <path id="Trazado_192530" data-name="Trazado 192530" d="M463.05,354.316,426.2,375.865l-14,5.054v15.755a22.337,22.337,0,0,0,10.921-2.607l51.425-29.691c2.962-1.71,4.467-3.947,4.515-6.193,0-.1,0-.2-.006-.3l.007,0V346.233L476.12,344.6h-.308C474.807,350.007,468.409,353.57,463.05,354.316Z" fill="#0f054c" opacity="0.3"/>
              <path id="Trazado_192531" data-name="Trazado 192531" d="M359.973,354.5l48.733-28.136a7.737,7.737,0,0,1,6.993,0l47.881,27.644-.53.31c5.41-.753,11.883-4.376,12.793-9.875l-53.738-29.887-15.634-4.132L393.739,317.9,350.85,343.483C353.223,347.76,355.586,352.448,359.973,354.5Z" fill="url(#linear-gradient-7)"/>
              <path id="Trazado_192532" data-name="Trazado 192532" d="M412.2,311.937l-5.732-1.515L393.739,317.9,350.85,343.483c2.373,4.277,4.736,8.965,9.123,11.014l48.733-28.136a7.148,7.148,0,0,1,3.5-.834Z" fill="#0f054c" opacity="0.3"/>
              <g id="Grupo_132166" data-name="Grupo 132166">
                <path id="Trazado_192533" data-name="Trazado 192533" d="M401.284,382.229l-51.427-29.692c-6.021-3.476-6.021-9.133,0-12.609l51.425-29.69c6.021-3.477,15.819-3.477,21.84,0l51.427,29.691c6.021,3.476,6.022,9.133,0,12.609l-51.425,29.691C417.1,385.7,407.3,385.7,401.284,382.229ZM415.7,314.524a7.737,7.737,0,0,0-6.993,0l-51.425,29.69c-1.929,1.113-1.928,2.924,0,4.038l51.427,29.691a7.74,7.74,0,0,0,6.993,0l51.425-29.691c1.928-1.113,1.928-2.924,0-4.037Z" fill="url(#linear-gradient-8)"/>
              </g>
              <g id="Grupo_132167" data-name="Grupo 132167">
                <path id="Trazado_192534" data-name="Trazado 192534" d="M467.126,344.215,415.7,314.524a7.737,7.737,0,0,0-6.993,0l-51.425,29.69c-1.287.742-1.71,1.8-1.28,2.745a2.976,2.976,0,0,1,1.28-1.293l51.425-29.691a7.737,7.737,0,0,1,6.993,0l51.427,29.691a2.968,2.968,0,0,1,1.279,1.293C468.835,346.01,468.412,344.958,467.126,344.215Z" fill="#fff"/>
                <path id="Trazado_192535" data-name="Trazado 192535" d="M474.549,352.538l-51.425,29.691c-6.021,3.476-15.819,3.476-21.84,0l-51.427-29.692c-2.691-1.553-4.176-3.543-4.461-5.579-.354,2.519,1.131,5.109,4.461,7.031l51.427,29.692c6.021,3.476,15.819,3.476,21.84,0l51.425-29.691c3.33-1.922,4.815-4.512,4.462-7.03C478.725,348.995,477.241,350.985,474.549,352.538Z" fill="#fff"/>
              </g>
              <g id="Grupo_132168" data-name="Grupo 132168">
                <path id="Trazado_192536" data-name="Trazado 192536" d="M402.737,381.39,351.31,351.7c-5.221-3.014-5.221-7.918,0-10.932l51.426-29.691c5.22-3.014,13.714-3.014,18.935,0L473.1,340.768c5.22,3.014,5.22,7.918,0,10.932l-51.425,29.69C416.451,384.4,407.957,384.4,402.737,381.39Zm14.414-67.705a10.955,10.955,0,0,0-9.9,0l-51.425,29.69c-2.729,1.576-2.729,4.14,0,5.715l51.427,29.691a10.952,10.952,0,0,0,9.9,0l51.425-29.69c2.729-1.576,2.729-4.139,0-5.714Z" fill="url(#linear-gradient-8)"/>
              </g>
            </g>
            <path id="Trazado_192537" data-name="Trazado 192537" d="M415.7,314.524a7.737,7.737,0,0,0-6.993,0l-51.425,29.69c-1.929,1.113-1.928,2.924,0,4.038l51.427,29.691a7.74,7.74,0,0,0,6.993,0l51.425-29.691c1.928-1.113,1.928-2.924,0-4.037Z" fill="#00defc" opacity="0.4"/>
          </g>
        </g>
        <path id="Trazado_192538" data-name="Trazado 192538" d="M468.572,249.817H355.839v96.365h0a2.422,2.422,0,0,0,1.442,2.07l51.427,29.691a7.74,7.74,0,0,0,6.993,0l51.425-29.691a2.455,2.455,0,0,0,1.446-2.019h0Z" opacity="0.5" fill="url(#linear-gradient-48)" style="mix-blend-mode: lighten;isolation: isolate"/>
      </g>
    </g>
  </g>
</svg>
