<svg xmlns="http://www.w3.org/2000/svg" xmlns:xlink="http://www.w3.org/1999/xlink" width="464.623" height="512.19" viewBox="0 0 464.623 512.19">
  <defs>
    <radialGradient id="radial-gradient" cx="0.513" cy="0.452" r="1.097" gradientTransform="translate(0.211) scale(0.577 1)" gradientUnits="objectBoundingBox">
      <stop offset="0" stop-color="#42e8e0"/>
      <stop offset="0.106" stop-color="#36b5bf"/>
      <stop offset="0.22" stop-color="#2c87a0"/>
      <stop offset="0.338" stop-color="#235f86"/>
      <stop offset="0.459" stop-color="#1b3e71"/>
      <stop offset="0.582" stop-color="#162560"/>
      <stop offset="0.711" stop-color="#121355"/>
      <stop offset="0.846" stop-color="#0f084e"/>
      <stop offset="1" stop-color="#0f054c"/>
    </radialGradient>
    <linearGradient id="linear-gradient" x1="0.981" y1="0.5" x2="-0.019" y2="0.5" gradientUnits="objectBoundingBox">
      <stop offset="0" stop-color="#5761d7"/>
      <stop offset="0.178" stop-color="#5b65d8"/>
      <stop offset="0.388" stop-color="#6a72de"/>
      <stop offset="0.613" stop-color="#8188e8"/>
      <stop offset="0.849" stop-color="#a2a6f5"/>
      <stop offset="1" stop-color="#bcbeff"/>
    </linearGradient>
    <linearGradient id="linear-gradient-2" x1="-0.222" y1="0.5" x2="0.778" y2="0.5" gradientUnits="objectBoundingBox">
      <stop offset="0" stop-color="#c0bff6"/>
      <stop offset="0.294" stop-color="#c4c3f6"/>
      <stop offset="0.64" stop-color="#d2d2f9"/>
      <stop offset="1" stop-color="#e9e9fd"/>
    </linearGradient>
    <linearGradient id="linear-gradient-3" x1="-6.119" y1="0.5" x2="-5.119" y2="0.5" xlink:href="#linear-gradient"/>
    <linearGradient id="linear-gradient-4" x1="0.324" y1="0.5" x2="1.324" y2="0.5" xlink:href="#linear-gradient"/>
    <linearGradient id="linear-gradient-5" x1="0.66" y1="0.5" x2="1.66" y2="0.5" xlink:href="#linear-gradient-2"/>
    <clipPath id="clip-path">
      <path id="Trazado_192443" data-name="Trazado 192443" d="M261.253,453.493,518.3,601.9c2.813,1.624,7.069,1.8,9.507.393l153.389-88.559c2.436-1.407,2.132-3.863-.683-5.489L423.466,359.84c-2.813-1.624-7.069-1.8-9.505-.395l-153.389,88.56C258.134,449.412,258.44,451.869,261.253,453.493Z" transform="translate(-258.926 -358.496)" opacity="0.5" fill="url(#radial-gradient)" style="mix-blend-mode: lighten;isolation: isolate"/>
    </clipPath>
    <linearGradient id="linear-gradient-6" x1="0.099" y1="-0.384" x2="0.893" y2="0.768" gradientUnits="objectBoundingBox">
      <stop offset="0" stop-color="#bcbeff"/>
      <stop offset="0.227" stop-color="#aaadf7"/>
      <stop offset="0.68" stop-color="#7b82e5"/>
      <stop offset="1" stop-color="#5761d7"/>
    </linearGradient>
    <linearGradient id="linear-gradient-7" x1="0.113" y1="0.194" x2="0.87" y2="1.433" gradientUnits="objectBoundingBox">
      <stop offset="0.242" stop-color="#5761d7"/>
      <stop offset="0.392" stop-color="#7a81e5"/>
      <stop offset="0.546" stop-color="#979bf0"/>
      <stop offset="0.7" stop-color="#abaef8"/>
      <stop offset="0.852" stop-color="#b7bafd"/>
      <stop offset="1" stop-color="#bcbeff"/>
    </linearGradient>
    <linearGradient id="linear-gradient-8" y1="0.5" x2="1" y2="0.5" gradientUnits="objectBoundingBox">
      <stop offset="0" stop-color="#e9e9fd"/>
      <stop offset="0.36" stop-color="#d2d2f9"/>
      <stop offset="0.706" stop-color="#c4c3f6"/>
      <stop offset="1" stop-color="#c0bff6"/>
    </linearGradient>
    <linearGradient id="linear-gradient-19" x1="0" y1="0.5" x2="1" y2="0.5" gradientTransform="matrix(1, 0, 0, 1, 0, 0)" xlink:href="#radial-gradient"/>
    <clipPath id="clip-path-2">
      <path id="Trazado_192491" data-name="Trazado 192491" d="M666.361,374.7,405.454,224.138l-32.781,194.9L633.411,569.509Z" transform="translate(-372.673 -224.138)" fill="none"/>
    </clipPath>
    <linearGradient id="linear-gradient-20" x1="-0.445" y1="0.5" x2="0.555" y2="0.5" xlink:href="#linear-gradient"/>
    <linearGradient id="linear-gradient-21" x1="-0.108" y1="0.5" x2="0.892" y2="0.5" xlink:href="#linear-gradient-2"/>
    <linearGradient id="linear-gradient-48" x1="0.5" y1="1" x2="0.5" y2="0" gradientTransform="matrix(1, 0, 0, 1, 0, 0)" xlink:href="#radial-gradient"/>
  </defs>
  <g id="Grupo_146475" data-name="Grupo 146475" transform="translate(-596.648 -924)">
    <path id="Trazado_192390" data-name="Trazado 192390" d="M523.811,651.038a11.505,11.505,0,0,1-5.6-1.391L261.167,501.24c-1.618-.935-2.546-2.2-2.545-3.485a3.257,3.257,0,0,1,1.862-2.762l153.39-88.559c2.552-1.472,7.012-1.3,9.941.393L680.862,555.235c1.618.934,2.546,2.2,2.546,3.482a3.259,3.259,0,0,1-1.864,2.764L528.156,650.04A8.853,8.853,0,0,1,523.811,651.038ZM261.6,500.483,518.649,648.889c2.69,1.554,6.76,1.73,9.071.393l153.387-88.559a2.432,2.432,0,0,0,1.427-2.007c0-.958-.769-1.951-2.109-2.724L423.38,407.586c-2.687-1.551-6.755-1.726-9.069-.393L260.922,495.752a2.429,2.429,0,0,0-1.427,2C259.494,498.714,260.265,499.708,261.6,500.483Z" transform="translate(338.197 785.152)" fill="#00defc"/>
    <g id="Grupo_132084" data-name="Grupo 132084" transform="translate(597.254 1165.377)">
      <path id="Trazado_192391" data-name="Trazado 192391" d="M682.84,538.31l-14.156-2.036L423.466,394.7c-2.813-1.625-7.069-1.8-9.505-.395l-146.045,84.32-8.989-1.294V489.26l.027,0c.016,1.069.777,2.189,2.3,3.07L518.3,640.739c2.813,1.624,7.069,1.8,9.507.393l153.389-88.559a2.78,2.78,0,0,0,1.618-2.426l.027,0Z" transform="translate(-258.926 -385.477)" fill="url(#linear-gradient)"/>
      <path id="Trazado_192392" data-name="Trazado 192392" d="M261.253,482.859,518.3,631.265c2.813,1.624,7.069,1.8,9.507.393L681.195,543.1c2.436-1.407,2.132-3.863-.683-5.489L423.466,389.206c-2.813-1.624-7.069-1.8-9.505-.395l-153.389,88.56C258.134,478.778,258.44,481.235,261.253,482.859Z" transform="translate(-258.926 -387.862)" fill="#ffb30b"/>
      <path id="Trazado_192393" data-name="Trazado 192393" d="M276.7,481.831,506.448,614.478c2.515,1.453,6.318,1.61,8.5.353l137.1-79.157c2.178-1.257,1.905-3.453-.61-4.9L421.683,398.121c-2.515-1.452-6.319-1.609-8.5-.351l-137.1,79.155C273.907,478.183,274.181,480.379,276.7,481.831Z" transform="translate(-252.108 -383.927)" fill="#24126a" opacity="0.3"/>
      <path id="Trazado_192394" data-name="Trazado 192394" d="M681.188,514.17,527.8,602.729c-2.437,1.407-6.694,1.231-9.507-.394L261.246,453.929a4.415,4.415,0,0,1-2.2-2.46c-.389,1.254.351,2.681,2.2,3.75L518.292,603.625c2.813,1.624,7.069,1.8,9.507.393L681.188,515.46a2.607,2.607,0,0,0,1.522-3.028A3.126,3.126,0,0,1,681.188,514.17Z" transform="translate(-258.919 -360.222)" fill="#fff"/>
    </g>
    <g id="Grupo_132148" data-name="Grupo 132148" transform="translate(596.648 924)">
      <g id="Grupo_132146" data-name="Grupo 132146">
        <g id="Grupo_132145" data-name="Grupo 132145">
          <g id="Grupo_132115" data-name="Grupo 132115">
            <g id="Grupo_132086" data-name="Grupo 132086" transform="translate(160.556)">
              <path id="Trazado_192395" data-name="Trazado 192395" d="M373.318,416.054l32.494-192.777-2.614-1.1,3.926-2.251-.006.023a2.825,2.825,0,0,1,3.025.209l259.686,149.93c2.133,1.231,3.747,4.388,3.373,6.6L640.451,571a2.432,2.432,0,0,1-1.367,1.977h0l-3.842,2.219-.66-3.585.22.066L376.691,422.652C374.558,421.42,372.944,418.262,373.318,416.054Z" transform="translate(-369.19 -219.602)" fill="url(#linear-gradient-2)"/>
              <path id="Trazado_192396" data-name="Trazado 192396" d="M593.116,328.751l4.269-1.889a5.869,5.869,0,0,1,.549,3.213L565.183,524.386a2.432,2.432,0,0,1-1.367,1.977h0l-3.842,2.219-.66-3.585.22.066-13.062-7.541Z" transform="translate(-293.922 -172.993)" fill="url(#linear-gradient-3)"/>
              <path id="Trazado_192397" data-name="Trazado 192397" d="M373.851,424.283l259.686,149.93c2.005,1.158,3.723.489,4.074-1.587l32.752-194.311c.374-2.208-1.24-5.365-3.373-6.6L407.3,221.79c-2.005-1.158-3.723-.489-4.074,1.587L370.478,417.687C370.1,419.894,371.718,423.052,373.851,424.283Z" transform="translate(-370.424 -218.897)" fill="#002490"/>
              <g id="Grupo_132085" data-name="Grupo 132085" transform="translate(3.226 6.507)" opacity="0.51">
                <path id="Trazado_192398" data-name="Trazado 192398" d="M405.454,224.138,666.361,374.7l-32.949,194.8L372.673,419.04Z" transform="translate(-372.673 -224.138)" fill="#084a93"/>
              </g>
            </g>
            <g id="Grupo_132114" data-name="Grupo 132114" transform="translate(0 198.635)">
              <path id="Trazado_192399" data-name="Trazado 192399" d="M259.021,449.794l14.172,7.4L415.3,375.149c2.379-1.373,6.532-1.2,9.276.384l245.1,141.505c2.345-1.311,13.039-6.454,13.039-6.454l-5.187,8.432L677.5,519a3.093,3.093,0,0,1-1.45,1.61l-149.668,86.41c-2.377,1.373-6.53,1.2-9.276-.384L266.3,461.83a4.491,4.491,0,0,1-2.1-2.236l-.019.013Z" transform="translate(-258.278 -351.048)" fill="url(#linear-gradient-4)"/>
              <path id="Trazado_192400" data-name="Trazado 192400" d="M261.253,457.3,518.3,605.708c2.813,1.624,7.069,1.8,9.507.395l153.389-88.56c2.436-1.406,2.132-3.863-.683-5.489L423.466,363.648c-2.813-1.624-7.069-1.8-9.505-.394l-153.389,88.56C258.134,453.22,258.44,455.677,261.253,457.3Z" transform="translate(-258.319 -356.227)" fill="url(#linear-gradient-5)"/>
              <path id="Trazado_192401" data-name="Trazado 192401" d="M261.253,457.3,518.3,605.708c2.813,1.624,7.069,1.8,9.507.395l153.389-88.56c2.436-1.406,2.132-3.863-.683-5.489L423.466,363.648c-2.813-1.624-7.069-1.8-9.505-.394l-153.389,88.56C258.134,453.22,258.44,455.677,261.253,457.3Z" transform="translate(-258.319 -356.227)" fill="#24126a"/>
              <path id="Trazado_192402" data-name="Trazado 192402" d="M261.253,457.3,518.3,605.708c2.813,1.624,7.069,1.8,9.507.395l153.389-88.56c2.436-1.406,2.132-3.863-.683-5.489L423.466,363.648c-2.813-1.624-7.069-1.8-9.505-.394l-153.389,88.56C258.134,453.22,258.44,455.677,261.253,457.3Z" transform="translate(-258.319 -356.227)" fill="#002490"/>
              <g id="Grupo_132113" data-name="Grupo 132113" transform="translate(0.607 0.615)" opacity="0.3">
                <path id="Trazado_192403" data-name="Trazado 192403" d="M261.253,453.493,518.3,601.9c2.813,1.624,7.069,1.8,9.507.393l153.389-88.559c2.436-1.407,2.132-3.863-.683-5.489L423.466,359.84c-2.813-1.624-7.069-1.8-9.505-.395l-153.389,88.56C258.134,449.412,258.44,451.869,261.253,453.493Z" transform="translate(-258.926 -358.496)" opacity="0.5" fill="url(#radial-gradient)" style="mix-blend-mode: lighten;isolation: isolate"/>
                <g id="Grupo_132112" data-name="Grupo 132112" clip-path="url(#clip-path)">
                  <g id="Grupo_132111" data-name="Grupo 132111" transform="translate(123.966 65.063)">
                    <g id="Grupo_132110" data-name="Grupo 132110">
                      <g id="Grupo_132091" data-name="Grupo 132091" transform="translate(0 112.064)">
                        <g id="Grupo_132090" data-name="Grupo 132090">
                          <path id="Trazado_192404" data-name="Trazado 192404" d="M537.174,538.481V521.767l-4.622-2.572c-1.305,7.889-10.591,13.087-18.352,14.168l-52.863,30.912-23.069,8.332-73.638-38,1.7-.983c-6.293-2.941-9.683-9.666-13.087-15.8l-4.958,2.957-2.945.828v17.141h0c0,3.276,2.16,6.552,6.478,9.045l73.774,42.593c8.637,4.986,22.693,4.988,31.331,0L530.7,547.794c4.249-2.453,6.408-5.664,6.477-8.886,0-.143,0-.287-.009-.43Z" transform="translate(-345.341 -466.389)" fill="url(#linear-gradient-6)"/>
                          <path id="Trazado_192405" data-name="Trazado 192405" d="M485.145,532.879l-52.863,30.912L412.2,571.042v22.6a32.029,32.029,0,0,0,15.667-3.74l73.772-42.592c4.249-2.453,6.408-5.664,6.477-8.886,0-.143,0-.287-.009-.43l.01,0V521.284l-4.225-2.35h-.442C502.011,526.7,492.833,531.809,485.145,532.879Z" transform="translate(-316.286 -465.906)" fill="#0f054c" opacity="0.3"/>
                          <path id="Trazado_192406" data-name="Trazado 192406" d="M363.937,547.989l69.91-40.362a11.1,11.1,0,0,1,10.032,0l68.687,39.657-.76.446c7.761-1.08,17.047-6.279,18.352-14.168l-77.09-42.874-22.428-5.928-18.265,10.735L350.85,532.189C354.254,538.323,357.644,545.048,363.937,547.989Z" transform="translate(-342.947 -480.756)" fill="url(#linear-gradient-7)"/>
                          <path id="Trazado_192407" data-name="Trazado 192407" d="M438.864,486.933l-8.223-2.173-18.265,10.735L350.85,532.189c3.4,6.134,6.794,12.859,13.087,15.8l69.91-40.362a10.256,10.256,0,0,1,5.017-1.2Z" transform="translate(-342.947 -480.756)" fill="#0f054c" opacity="0.3"/>
                          <g id="Grupo_132087" data-name="Grupo 132087" transform="translate(0)">
                            <path id="Trazado_192408" data-name="Trazado 192408" d="M425.594,588.983,351.819,546.39c-8.637-4.988-8.637-13.1,0-18.09l73.772-42.592c8.637-4.986,22.693-4.986,31.331,0L530.7,528.3c8.637,4.987,8.639,13.1,0,18.088l-73.772,42.592C448.287,593.971,434.231,593.971,425.594,588.983Zm20.679-97.126a11.1,11.1,0,0,0-10.032,0l-73.772,42.592c-2.767,1.6-2.766,4.2,0,5.793l73.774,42.593a11.1,11.1,0,0,0,10.032,0l73.772-42.592c2.766-1.6,2.766-4.195,0-5.791Z" transform="translate(-345.341 -481.969)" fill="#5351af"/>
                          </g>
                          <g id="Grupo_132088" data-name="Grupo 132088" transform="translate(0.006 8.691)">
                            <path id="Trazado_192409" data-name="Trazado 192409" d="M515.486,531.818l-73.774-42.593a11.1,11.1,0,0,0-10.032,0l-73.772,42.592c-1.846,1.066-2.453,2.577-1.836,3.938a4.276,4.276,0,0,1,1.836-1.855l73.772-42.592a11.1,11.1,0,0,1,10.032,0L515.486,533.9a4.264,4.264,0,0,1,1.835,1.855C517.937,534.394,517.33,532.884,515.486,531.818Z" transform="translate(-340.785 -488.027)" fill="#fff"/>
                            <path id="Trazado_192410" data-name="Trazado 192410" d="M530.694,529.3l-73.772,42.592c-8.637,4.988-22.693,4.988-31.331,0L351.818,529.3c-3.86-2.229-5.991-5.083-6.4-8-.508,3.614,1.622,7.328,6.4,10.086l73.774,42.593c8.637,4.987,22.693,4.987,31.331,0l73.772-42.592c4.777-2.759,6.907-6.473,6.4-10.086C536.685,524.219,534.556,527.072,530.694,529.3Z" transform="translate(-345.345 -473.57)" fill="#fff"/>
                          </g>
                          <g id="Grupo_132089" data-name="Grupo 132089" transform="translate(2.945 1.701)">
                            <path id="Trazado_192411" data-name="Trazado 192411" d="M426.786,587.266l-73.774-42.595c-7.49-4.324-7.49-11.359,0-15.682L426.783,486.4c7.488-4.324,19.673-4.324,27.163,0l73.774,42.593c7.488,4.324,7.488,11.359,0,15.682l-73.771,42.593C446.459,591.59,434.274,591.59,426.786,587.266Zm20.678-97.126a15.715,15.715,0,0,0-14.2,0l-73.772,42.593c-3.915,2.259-3.915,5.938,0,8.2l73.774,42.593a15.719,15.719,0,0,0,14.2,0l73.771-42.593c3.915-2.259,3.915-5.936,0-8.2Z" transform="translate(-347.394 -483.154)" fill="url(#linear-gradient-8)"/>
                          </g>
                        </g>
                        <path id="Trazado_192412" data-name="Trazado 192412" d="M441.713,489.225a11.1,11.1,0,0,0-10.032,0l-73.772,42.592c-2.767,1.6-2.766,4.2,0,5.793L431.684,580.2a11.1,11.1,0,0,0,10.032,0l73.772-42.592c2.766-1.6,2.766-4.195,0-5.791Z" transform="translate(-340.781 -479.336)" fill="#00defc" opacity="0.4"/>
                      </g>
                      <g id="Grupo_132097" data-name="Grupo 132097" transform="translate(0 74.709)">
                        <path id="Trazado_192413" data-name="Trazado 192413" d="M537.174,530.684V505.422l-4.622-2.571c-1.305,7.889-10.591,13.086-18.352,14.166L461.337,547.93l-23.069,8.33-73.638-38,1.7-.983c-6.293-2.939-9.683-9.665-13.087-15.8l-4.958,2.957-2.945.828v25.69h0c0,3.276,2.16,6.552,6.478,9.045l73.774,42.593c8.637,4.987,22.693,4.987,31.331,0L530.7,540c4.249-2.453,6.408-5.664,6.477-8.886,0-.143,0-.287-.009-.432Z" transform="translate(-345.341 -436.137)" fill="#00defc" opacity="0.4"/>
                        <g id="Grupo_132096" data-name="Grupo 132096">
                          <g id="Grupo_132095" data-name="Grupo 132095">
                            <path id="Trazado_192414" data-name="Trazado 192414" d="M537.174,512.442V495.727l-4.622-2.571c-1.305,7.889-10.591,13.086-18.352,14.166l-52.863,30.913-23.069,8.33-73.638-38,1.7-.983c-6.293-2.939-9.683-9.665-13.087-15.8l-4.958,2.957-2.945.828v17.143h0c0,3.275,2.16,6.55,6.478,9.043l73.774,42.595c8.637,4.986,22.693,4.986,31.331,0L530.7,521.754c4.249-2.453,6.408-5.662,6.477-8.884,0-.143,0-.288-.009-.432Z" transform="translate(-345.341 -440.349)" fill="url(#linear-gradient-6)"/>
                            <path id="Trazado_192415" data-name="Trazado 192415" d="M485.145,506.839l-52.863,30.913L412.2,545v22.6a32.044,32.044,0,0,0,15.667-3.74l73.772-42.593c4.249-2.453,6.408-5.662,6.477-8.884,0-.143,0-.288-.009-.432l.01,0V495.244l-4.225-2.35h-.442C502.011,500.658,492.833,505.769,485.145,506.839Z" transform="translate(-316.286 -439.866)" fill="#0f054c" opacity="0.3"/>
                            <path id="Trazado_192416" data-name="Trazado 192416" d="M363.937,521.949l69.91-40.362a11.1,11.1,0,0,1,10.032,0l68.687,39.656-.76.445c7.761-1.08,17.047-6.278,18.352-14.166l-77.09-42.874-22.428-5.928-18.265,10.733L350.85,506.148C354.254,512.284,357.644,519.009,363.937,521.949Z" transform="translate(-342.947 -454.716)" fill="url(#linear-gradient-7)"/>
                            <path id="Trazado_192417" data-name="Trazado 192417" d="M438.864,460.894l-8.223-2.173-18.265,10.733L350.85,506.148c3.4,6.136,6.794,12.861,13.087,15.8l69.91-40.362a10.27,10.27,0,0,1,5.017-1.2Z" transform="translate(-342.947 -454.716)" fill="#0f054c" opacity="0.3"/>
                            <g id="Grupo_132092" data-name="Grupo 132092" transform="translate(0)">
                              <path id="Trazado_192418" data-name="Trazado 192418" d="M425.594,562.945,351.819,520.35c-8.637-4.987-8.637-13.1,0-18.088l73.772-42.592c8.637-4.988,22.693-4.988,31.331,0L530.7,502.263c8.637,4.988,8.639,13.1,0,18.088l-73.772,42.593C448.287,567.931,434.231,567.931,425.594,562.945Zm20.679-97.126a11.1,11.1,0,0,0-10.032,0L362.469,508.41c-2.767,1.6-2.766,4.2,0,5.793L436.244,556.8a11.1,11.1,0,0,0,10.032,0L520.047,514.2c2.766-1.6,2.766-4.195,0-5.791Z" transform="translate(-345.341 -455.929)" fill="#5351af"/>
                            </g>
                            <g id="Grupo_132093" data-name="Grupo 132093" transform="translate(0.006 8.691)">
                              <path id="Trazado_192419" data-name="Trazado 192419" d="M515.486,505.779l-73.774-42.593a11.1,11.1,0,0,0-10.032,0l-73.772,42.592c-1.846,1.065-2.453,2.575-1.836,3.938a4.27,4.27,0,0,1,1.836-1.855l73.772-42.593a11.1,11.1,0,0,1,10.032,0l73.774,42.593a4.257,4.257,0,0,1,1.835,1.855C517.937,508.354,517.33,506.845,515.486,505.779Z" transform="translate(-340.785 -461.988)" fill="#fff"/>
                              <path id="Trazado_192420" data-name="Trazado 192420" d="M530.694,503.261l-73.772,42.593c-8.637,4.987-22.693,4.987-31.331,0L351.818,503.26c-3.86-2.228-5.991-5.083-6.4-8-.508,3.612,1.622,7.328,6.4,10.085l73.774,42.595c8.637,4.987,22.693,4.987,31.331,0l73.772-42.593c4.777-2.757,6.907-6.473,6.4-10.085C536.685,498.179,534.556,501.033,530.694,503.261Z" transform="translate(-345.345 -447.53)" fill="#fff"/>
                            </g>
                            <g id="Grupo_132094" data-name="Grupo 132094" transform="translate(2.945 1.7)">
                              <path id="Trazado_192421" data-name="Trazado 192421" d="M426.786,561.226l-73.774-42.593c-7.49-4.324-7.49-11.359,0-15.684l73.773-42.592c7.488-4.324,19.673-4.324,27.163,0l73.774,42.595c7.488,4.324,7.488,11.359,0,15.682l-73.771,42.592C446.459,565.55,434.274,565.55,426.786,561.226ZM447.464,464.1a15.715,15.715,0,0,0-14.2,0l-73.772,42.592c-3.915,2.261-3.915,5.939,0,8.2l73.774,42.595a15.715,15.715,0,0,0,14.2,0l73.771-42.592c3.915-2.261,3.915-5.938,0-8.2Z" transform="translate(-347.394 -457.114)" fill="url(#linear-gradient-8)"/>
                            </g>
                          </g>
                          <path id="Trazado_192422" data-name="Trazado 192422" d="M441.713,463.186a11.1,11.1,0,0,0-10.032,0l-73.772,42.592c-2.767,1.6-2.766,4.2,0,5.793l73.774,42.593a11.1,11.1,0,0,0,10.032,0l73.772-42.593c2.766-1.6,2.766-4.195,0-5.791Z" transform="translate(-340.781 -453.297)" fill="#00defc" opacity="0.4"/>
                        </g>
                      </g>
                      <g id="Grupo_132103" data-name="Grupo 132103" transform="translate(0 37.354)">
                        <path id="Trazado_192423" data-name="Trazado 192423" d="M537.174,504.645V479.383l-4.622-2.572c-1.305,7.889-10.591,13.087-18.352,14.168l-52.863,30.913-23.069,8.33-73.638-38,1.7-.983c-6.293-2.939-9.683-9.666-13.087-15.8l-4.958,2.957-2.945.828v25.69h0c0,3.275,2.16,6.55,6.478,9.043l73.774,42.595c8.637,4.987,22.693,4.987,31.331,0L530.7,513.957c4.249-2.453,6.408-5.662,6.477-8.884,0-.143,0-.288-.009-.432Z" transform="translate(-345.341 -410.097)" fill="#00defc" opacity="0.4"/>
                        <g id="Grupo_132102" data-name="Grupo 132102">
                          <g id="Grupo_132101" data-name="Grupo 132101">
                            <path id="Trazado_192424" data-name="Trazado 192424" d="M537.174,486.4V469.688l-4.622-2.571c-1.305,7.889-10.591,13.086-18.352,14.166L461.337,512.2l-23.069,8.331-73.638-38,1.7-.983c-6.293-2.939-9.683-9.665-13.087-15.8l-4.958,2.957-2.945.828V486.67h0c0,3.275,2.16,6.55,6.478,9.043l73.774,42.593c8.637,4.988,22.693,4.988,31.331,0L530.7,495.715c4.249-2.453,6.408-5.662,6.477-8.884,0-.145,0-.288-.009-.432Z" transform="translate(-345.341 -414.31)" fill="url(#linear-gradient-6)"/>
                            <path id="Trazado_192425" data-name="Trazado 192425" d="M485.145,480.8l-52.863,30.913-20.079,7.25v22.6a32.028,32.028,0,0,0,15.667-3.741l73.772-42.592c4.249-2.453,6.408-5.662,6.477-8.884,0-.145,0-.288-.009-.432l.01,0V469.2l-4.225-2.35h-.442C502.011,474.619,492.833,479.73,485.145,480.8Z" transform="translate(-316.286 -413.827)" fill="#0f054c" opacity="0.3"/>
                            <path id="Trazado_192426" data-name="Trazado 192426" d="M363.937,495.91l69.91-40.362a11.1,11.1,0,0,1,10.032,0l68.687,39.658-.76.445c7.761-1.08,17.047-6.278,18.352-14.166l-77.09-42.874-22.428-5.929-18.265,10.735L350.85,480.11C354.254,486.245,357.644,492.971,363.937,495.91Z" transform="translate(-342.947 -428.677)" fill="url(#linear-gradient-7)"/>
                            <path id="Trazado_192427" data-name="Trazado 192427" d="M438.864,434.854l-8.223-2.173-18.265,10.735L350.85,480.11c3.4,6.135,6.794,12.861,13.087,15.8l69.91-40.362a10.254,10.254,0,0,1,5.017-1.2Z" transform="translate(-342.947 -428.677)" fill="#0f054c" opacity="0.3"/>
                            <g id="Grupo_132098" data-name="Grupo 132098" transform="translate(0)">
                              <path id="Trazado_192428" data-name="Trazado 192428" d="M425.594,536.9l-73.774-42.593c-8.637-4.986-8.637-13.1,0-18.088l73.772-42.593c8.637-4.986,22.693-4.986,31.331,0L530.7,476.224c8.637,4.987,8.639,13.1,0,18.088L456.924,536.9C448.287,541.892,434.231,541.892,425.594,536.9Zm20.679-97.126a11.1,11.1,0,0,0-10.032,0l-73.772,42.593c-2.767,1.6-2.766,4.195,0,5.791l73.774,42.595a11.1,11.1,0,0,0,10.032,0l73.772-42.592c2.766-1.6,2.766-4.195,0-5.791Z" transform="translate(-345.341 -429.89)" fill="#5351af"/>
                            </g>
                            <g id="Grupo_132099" data-name="Grupo 132099" transform="translate(0.006 8.691)">
                              <path id="Trazado_192429" data-name="Trazado 192429" d="M515.486,479.74l-73.774-42.595a11.1,11.1,0,0,0-10.032,0l-73.772,42.593c-1.846,1.064-2.453,2.575-1.836,3.936a4.285,4.285,0,0,1,1.836-1.855l73.772-42.592a11.1,11.1,0,0,1,10.032,0l73.774,42.595a4.263,4.263,0,0,1,1.835,1.853C517.937,482.315,517.33,480.8,515.486,479.74Z" transform="translate(-340.785 -435.948)" fill="#fff"/>
                              <path id="Trazado_192430" data-name="Trazado 192430" d="M530.694,477.223l-73.772,42.592c-8.637,4.988-22.693,4.988-31.331,0l-73.774-42.593c-3.86-2.229-5.991-5.083-6.4-8-.508,3.614,1.622,7.328,6.4,10.086L425.592,521.9c8.637,4.988,22.693,4.988,31.331,0l73.772-42.592c4.777-2.759,6.907-6.473,6.4-10.086C536.685,472.14,534.556,474.993,530.694,477.223Z" transform="translate(-345.345 -421.491)" fill="#fff"/>
                            </g>
                            <g id="Grupo_132100" data-name="Grupo 132100" transform="translate(2.945 1.7)">
                              <path id="Trazado_192431" data-name="Trazado 192431" d="M426.786,535.187l-73.774-42.593c-7.49-4.325-7.49-11.36,0-15.684l73.773-42.592c7.488-4.324,19.673-4.324,27.163,0l73.774,42.593c7.488,4.324,7.488,11.36,0,15.682l-73.771,42.593C446.459,539.511,434.274,539.511,426.786,535.187Zm20.678-97.126a15.71,15.71,0,0,0-14.2,0l-73.772,42.592c-3.915,2.261-3.915,5.938,0,8.2l73.774,42.593a15.71,15.71,0,0,0,14.2,0l73.771-42.592c3.915-2.261,3.915-5.938,0-8.2Z" transform="translate(-347.394 -431.075)" fill="url(#linear-gradient-8)"/>
                            </g>
                          </g>
                          <path id="Trazado_192432" data-name="Trazado 192432" d="M441.713,437.146a11.1,11.1,0,0,0-10.032,0l-73.772,42.593c-2.767,1.6-2.766,4.195,0,5.791l73.774,42.595a11.1,11.1,0,0,0,10.032,0l73.772-42.592c2.766-1.6,2.766-4.195,0-5.791Z" transform="translate(-340.781 -427.258)" fill="#00defc" opacity="0.4"/>
                        </g>
                      </g>
                      <g id="Grupo_132109" data-name="Grupo 132109">
                        <path id="Trazado_192433" data-name="Trazado 192433" d="M537.174,478.606V453.342l-4.622-2.571c-1.305,7.889-10.591,13.086-18.352,14.166l-52.863,30.913-23.069,8.33-73.638-38,1.7-.983c-6.293-2.939-9.683-9.665-13.087-15.8l-4.958,2.957-2.945.828v25.69h0c0,3.275,2.16,6.55,6.478,9.043l73.774,42.593c8.637,4.988,22.693,4.988,31.331,0L530.7,487.918c4.249-2.453,6.408-5.662,6.477-8.884,0-.145,0-.288-.009-.432Z" transform="translate(-345.341 -384.058)" fill="#00defc" opacity="0.4"/>
                        <g id="Grupo_132108" data-name="Grupo 132108">
                          <g id="Grupo_132107" data-name="Grupo 132107">
                            <path id="Trazado_192434" data-name="Trazado 192434" d="M537.174,460.363V443.649l-4.622-2.572c-1.305,7.889-10.591,13.086-18.352,14.168l-52.863,30.912-23.069,8.33-73.638-38,1.7-.981c-6.293-2.941-9.683-9.666-13.087-15.8l-4.958,2.957-2.945.828V460.63h0c0,3.275,2.16,6.552,6.478,9.045l73.774,42.593c8.637,4.987,22.693,4.987,31.331,0L530.7,469.676c4.249-2.453,6.408-5.664,6.477-8.886,0-.143,0-.287-.009-.432Z" transform="translate(-345.341 -388.271)" fill="url(#linear-gradient-6)"/>
                            <path id="Trazado_192435" data-name="Trazado 192435" d="M485.145,454.762l-52.863,30.912L412.2,492.925v22.6a32.044,32.044,0,0,0,15.667-3.74l73.772-42.592c4.249-2.453,6.408-5.664,6.477-8.886,0-.143,0-.287-.009-.432l.01,0V443.166l-4.225-2.351h-.442C502.011,448.579,492.833,453.691,485.145,454.762Z" transform="translate(-316.286 -387.788)" fill="#0f054c" opacity="0.3"/>
                            <path id="Trazado_192436" data-name="Trazado 192436" d="M363.937,469.871l69.91-40.362a11.1,11.1,0,0,1,10.032,0l68.687,39.657-.76.446c7.761-1.082,17.047-6.279,18.352-14.168l-77.09-42.874-22.428-5.928-18.265,10.735L350.85,454.071C354.254,460.205,357.644,466.93,363.937,469.871Z" transform="translate(-342.947 -402.638)" fill="url(#linear-gradient-7)"/>
                            <path id="Trazado_192437" data-name="Trazado 192437" d="M438.864,408.815l-8.223-2.173-18.265,10.735L350.85,454.071c3.4,6.134,6.794,12.859,13.087,15.8l69.91-40.362a10.254,10.254,0,0,1,5.017-1.2Z" transform="translate(-342.947 -402.638)" fill="#0f054c" opacity="0.3"/>
                            <g id="Grupo_132104" data-name="Grupo 132104" transform="translate(0)">
                              <path id="Trazado_192438" data-name="Trazado 192438" d="M425.594,510.865l-73.774-42.593c-8.637-4.988-8.637-13.1,0-18.09l73.772-42.592c8.637-4.986,22.693-4.986,31.331,0L530.7,450.184c8.637,4.988,8.639,13.1,0,18.09l-73.772,42.592C448.287,515.853,434.231,515.852,425.594,510.865Zm20.679-97.126a11.1,11.1,0,0,0-10.032,0l-73.772,42.592c-2.767,1.6-2.766,4.2,0,5.793l73.774,42.593a11.1,11.1,0,0,0,10.032,0l73.772-42.592c2.766-1.6,2.766-4.2,0-5.793Z" transform="translate(-345.341 -403.851)" fill="url(#linear-gradient-8)"/>
                            </g>
                            <g id="Grupo_132105" data-name="Grupo 132105" transform="translate(0.006 8.691)">
                              <path id="Trazado_192439" data-name="Trazado 192439" d="M515.486,453.7l-73.774-42.593a11.1,11.1,0,0,0-10.032,0L357.908,453.7c-1.846,1.066-2.453,2.577-1.836,3.938a4.277,4.277,0,0,1,1.836-1.855l73.772-42.592a11.1,11.1,0,0,1,10.032,0l73.774,42.593a4.265,4.265,0,0,1,1.835,1.855C517.937,456.276,517.33,454.766,515.486,453.7Z" transform="translate(-340.785 -409.909)" fill="#fff"/>
                              <path id="Trazado_192440" data-name="Trazado 192440" d="M530.694,451.184l-73.772,42.592c-8.637,4.988-22.693,4.986-31.331,0l-73.774-42.593c-3.86-2.229-5.991-5.084-6.4-8-.508,3.614,1.622,7.328,6.4,10.086l73.774,42.593c8.637,4.987,22.693,4.987,31.331,0l73.772-42.592c4.777-2.759,6.907-6.473,6.4-10.086C536.685,446.1,534.556,448.954,530.694,451.184Z" transform="translate(-345.345 -395.452)" fill="#fff"/>
                            </g>
                            <g id="Grupo_132106" data-name="Grupo 132106" transform="translate(2.945 1.7)">
                              <path id="Trazado_192441" data-name="Trazado 192441" d="M426.786,509.148l-73.774-42.595c-7.49-4.324-7.49-11.359,0-15.682l73.773-42.593c7.488-4.322,19.673-4.322,27.163,0l73.774,42.593c7.488,4.324,7.488,11.359,0,15.682l-73.771,42.593C446.459,513.472,434.274,513.47,426.786,509.148Zm20.678-97.126a15.715,15.715,0,0,0-14.2,0l-73.772,42.593c-3.915,2.259-3.915,5.938,0,8.2l73.774,42.593a15.72,15.72,0,0,0,14.2,0l73.771-42.593c3.915-2.259,3.915-5.938,0-8.2Z" transform="translate(-347.394 -405.036)" fill="url(#linear-gradient-8)"/>
                            </g>
                          </g>
                          <path id="Trazado_192442" data-name="Trazado 192442" d="M441.713,411.107a11.1,11.1,0,0,0-10.032,0L357.909,453.7c-2.767,1.6-2.766,4.2,0,5.793l73.774,42.593a11.1,11.1,0,0,0,10.032,0l73.772-42.592c2.766-1.6,2.766-4.2,0-5.793Z" transform="translate(-340.781 -401.218)" fill="#00defc" opacity="0.4"/>
                        </g>
                      </g>
                    </g>
                  </g>
                </g>
              </g>
              <path id="Trazado_192444" data-name="Trazado 192444" d="M523.852,604.045a11.634,11.634,0,0,1-5.672-1.435L261.134,454.206c-1.673-.967-2.631-2.29-2.631-3.631a3.415,3.415,0,0,1,1.948-2.908l153.389-88.56c2.644-1.525,7.087-1.353,10.112.395L681,507.9c1.671.967,2.631,2.29,2.631,3.631a3.42,3.42,0,0,1-1.95,2.911L528.292,603.005A9.033,9.033,0,0,1,523.852,604.045ZM261.741,453.154,518.786,601.559c2.641,1.525,6.635,1.7,8.9.395L681.074,513.4a2.3,2.3,0,0,0,1.343-1.859c0-.9-.737-1.836-2.024-2.579l-257.046-148.4c-2.642-1.528-6.633-1.7-8.9-.395l-153.389,88.56a2.3,2.3,0,0,0-1.341,1.856c0,.9.737,1.836,2.024,2.579Z" transform="translate(-258.503 -358.068)" opacity="0.8" fill="url(#linear-gradient-19)" style="mix-blend-mode: lighten;isolation: isolate"/>
              <path id="Trazado_192445" data-name="Trazado 192445" d="M261.248,428.493,518.294,576.9c2.813,1.625,7.069,1.8,9.507.395L681.19,488.733a3.093,3.093,0,0,0,1.545-1.8,2.622,2.622,0,0,1-1.545,2.948L527.8,578.444c-2.437,1.406-6.694,1.229-9.507-.395L261.248,429.645c-1.823-1.053-2.574-2.453-2.228-3.693A4.354,4.354,0,0,0,261.248,428.493Z" transform="translate(-258.314 -328.569)" fill="#fff"/>
            </g>
          </g>
          <g id="Grupo_132144" data-name="Grupo 132144" transform="translate(163.782 6.507)" opacity="0.15">
            <g id="Grupo_132143" data-name="Grupo 132143" clip-path="url(#clip-path-2)">
              <g id="Grupo_132117" data-name="Grupo 132117" transform="translate(-0.254 104.96)">
                <g id="Grupo_132116" data-name="Grupo 132116">
                  <path id="Trazado_192446" data-name="Trazado 192446" d="M372.591,384.794l14.172,7.4,142.106-82.046c2.378-1.371,6.532-1.2,9.276.384l245.1,141.507c2.345-1.313,13.039-6.456,13.039-6.456l-5.187,8.432-.02-.016a3.1,3.1,0,0,1-1.45,1.608l-149.668,86.41c-2.377,1.373-6.53,1.2-9.276-.385l-250.809-144.8a4.485,4.485,0,0,1-2.1-2.236l-.019.013Z" transform="translate(-372.455 -292.126)" fill="url(#linear-gradient-20)"/>
                  <path id="Trazado_192447" data-name="Trazado 192447" d="M374.823,392.3,631.869,540.707c2.813,1.624,7.069,1.8,9.507.395l153.389-88.559c2.436-1.407,2.13-3.865-.683-5.489L537.036,298.648c-2.813-1.624-7.069-1.8-9.505-.393L374.141,386.814C371.7,388.221,372.01,390.678,374.823,392.3Z" transform="translate(-372.496 -297.305)" fill="url(#linear-gradient-21)"/>
                  <path id="Trazado_192448" data-name="Trazado 192448" d="M374.823,392.3,631.869,540.707c2.813,1.624,7.069,1.8,9.507.395l153.389-88.559c2.436-1.407,2.13-3.865-.683-5.489L537.036,298.648c-2.813-1.624-7.069-1.8-9.505-.393L374.141,386.814C371.7,388.221,372.01,390.678,374.823,392.3Z" transform="translate(-372.496 -297.305)" fill="#24126a"/>
                  <path id="Trazado_192449" data-name="Trazado 192449" d="M374.823,392.3,631.869,540.707c2.813,1.624,7.069,1.8,9.507.395l153.389-88.559c2.436-1.407,2.13-3.865-.683-5.489L537.036,298.648c-2.813-1.624-7.069-1.8-9.505-.393L374.141,386.814C371.7,388.221,372.01,390.678,374.823,392.3Z" transform="translate(-372.496 -297.305)" fill="#453c9e" opacity="0.51"/>
                  <path id="Trazado_192450" data-name="Trazado 192450" d="M746.164,447.052,489.118,298.645a11.216,11.216,0,0,0-6.351-1.291,10.737,10.737,0,0,1,4.457,1.291L744.27,447.052c2.813,1.624,3.119,4.081.683,5.489L591.564,541.1a7.776,7.776,0,0,1-3.155.9,9.007,9.007,0,0,0,5.048-.9l153.389-88.559C749.283,451.133,748.979,448.676,746.164,447.052Z" transform="translate(-324.578 -297.302)" fill="#fff"/>
                </g>
              </g>
              <path id="Trazado_192451" data-name="Trazado 192451" d="M530.22,453.628l-73.774-42.593c-7.488-4.325-7.488-11.36,0-15.684l73.772-42.592c7.49-4.324,19.675-4.324,27.165,0l73.773,42.593c7.49,4.324,7.49,11.36,0,15.682l-73.773,42.593C549.894,457.952,537.709,457.952,530.22,453.628Z" transform="translate(-338.711 -169.656)" fill="#24126a" opacity="0.4"/>
              <g id="Grupo_132142" data-name="Grupo 132142" transform="translate(109.005 37.387)">
                <g id="Grupo_132141" data-name="Grupo 132141">
                  <g id="Grupo_132122" data-name="Grupo 132122" transform="translate(0 112.064)">
                    <g id="Grupo_132121" data-name="Grupo 132121">
                      <path id="Trazado_192452" data-name="Trazado 192452" d="M640.492,384.831V368.116l-4.622-2.571c-1.305,7.889-10.59,13.086-18.352,14.166l-52.863,30.913-23.069,8.33-73.638-38,1.7-.983c-6.293-2.939-9.683-9.665-13.087-15.8l-4.958,2.957-2.945.829V385.1h0c0,3.275,2.16,6.55,6.48,9.043l73.773,42.595c8.637,4.986,22.693,4.986,31.331,0l73.773-42.593c4.248-2.453,6.407-5.662,6.476-8.884,0-.143,0-.288-.009-.432Z" transform="translate(-448.659 -312.738)" fill="url(#linear-gradient-6)"/>
                      <path id="Trazado_192453" data-name="Trazado 192453" d="M588.463,379.228,535.6,410.141l-20.079,7.25v22.6a32.045,32.045,0,0,0,15.667-3.74l73.773-42.593c4.248-2.453,6.407-5.662,6.476-8.884,0-.143,0-.288-.009-.432l.01,0V367.633l-4.225-2.35h-.442C605.329,373.047,596.151,378.158,588.463,379.228Z" transform="translate(-419.604 -312.255)" fill="#0f054c" opacity="0.3"/>
                      <path id="Trazado_192454" data-name="Trazado 192454" d="M467.255,394.338l69.91-40.362a11.1,11.1,0,0,1,10.032,0l68.689,39.657-.762.445c7.762-1.08,17.047-6.278,18.352-14.166l-77.088-42.874-22.429-5.928-18.265,10.733-61.526,36.694C457.572,384.673,460.962,391.4,467.255,394.338Z" transform="translate(-446.265 -327.105)" fill="url(#linear-gradient-7)"/>
                      <path id="Trazado_192455" data-name="Trazado 192455" d="M542.182,333.283l-8.223-2.173-18.265,10.733-61.526,36.694c3.4,6.136,6.794,12.861,13.087,15.8l69.91-40.362a10.254,10.254,0,0,1,5.017-1.2Z" transform="translate(-446.265 -327.105)" fill="#0f054c" opacity="0.3"/>
                      <g id="Grupo_132118" data-name="Grupo 132118" transform="translate(0.001)">
                        <path id="Trazado_192456" data-name="Trazado 192456" d="M528.912,435.334l-73.773-42.593c-8.639-4.988-8.639-13.1,0-18.09l73.772-42.593c8.639-4.986,22.693-4.986,31.332,0l73.773,42.593c8.639,4.988,8.639,13.1,0,18.088l-73.773,42.593C551.6,440.32,537.549,440.32,528.912,435.334Zm20.679-97.126a11.1,11.1,0,0,0-10.032,0L465.787,380.8c-2.766,1.6-2.766,4.195,0,5.793l73.774,42.593a11.1,11.1,0,0,0,10.032,0l73.771-42.593c2.766-1.6,2.766-4.195,0-5.791Z" transform="translate(-448.659 -328.318)" fill="#5351af"/>
                      </g>
                      <g id="Grupo_132119" data-name="Grupo 132119" transform="translate(0.006 8.692)">
                        <path id="Trazado_192457" data-name="Trazado 192457" d="M618.8,378.168l-73.774-42.593a11.1,11.1,0,0,0-10.032,0l-73.771,42.592c-1.845,1.066-2.453,2.575-1.836,3.938a4.27,4.27,0,0,1,1.836-1.855L535,337.656a11.1,11.1,0,0,1,10.032,0L618.8,380.251a4.27,4.27,0,0,1,1.836,1.855C621.256,380.743,620.648,379.234,618.8,378.168Z" transform="translate(-444.103 -334.377)" fill="#fff"/>
                        <path id="Trazado_192458" data-name="Trazado 192458" d="M634.013,375.651,560.24,418.244c-8.637,4.986-22.693,4.986-31.33,0l-73.773-42.593c-3.862-2.229-5.992-5.084-6.4-8-.506,3.614,1.622,7.329,6.4,10.086l73.773,42.594c8.637,4.987,22.693,4.987,31.33,0l73.773-42.593c4.777-2.757,6.906-6.473,6.4-10.085C640,370.568,637.874,373.423,634.013,375.651Z" transform="translate(-448.663 -319.92)" fill="#fff"/>
                      </g>
                      <g id="Grupo_132120" data-name="Grupo 132120" transform="translate(2.945 1.701)">
                        <path id="Trazado_192459" data-name="Trazado 192459" d="M530.1,433.615,456.33,391.022c-7.49-4.324-7.49-11.36,0-15.683L530.1,332.746c7.488-4.324,19.675-4.324,27.163,0l73.774,42.595c7.488,4.324,7.488,11.359,0,15.682l-73.772,42.592C549.777,437.939,537.592,437.939,530.1,433.615Zm20.679-97.126a15.715,15.715,0,0,0-14.2,0l-73.773,42.592c-3.915,2.261-3.913,5.939,0,8.2l73.774,42.593a15.71,15.71,0,0,0,14.2,0l73.773-42.592c3.913-2.261,3.913-5.938,0-8.2Z" transform="translate(-450.712 -329.503)" fill="url(#linear-gradient-8)"/>
                      </g>
                    </g>
                    <path id="Trazado_192460" data-name="Trazado 192460" d="M545.031,335.575a11.1,11.1,0,0,0-10.032,0l-73.772,42.592c-2.766,1.6-2.766,4.195,0,5.793L535,426.552a11.1,11.1,0,0,0,10.032,0L618.8,383.959c2.766-1.6,2.766-4.195,0-5.791Z" transform="translate(-444.099 -325.685)" fill="#00defc" opacity="0.4"/>
                  </g>
                  <g id="Grupo_132128" data-name="Grupo 132128" transform="translate(0 74.71)">
                    <path id="Trazado_192461" data-name="Trazado 192461" d="M640.492,377.034V351.772L635.87,349.2c-1.305,7.89-10.59,13.087-18.352,14.168l-52.863,30.912-23.069,8.332-73.638-38,1.7-.983c-6.293-2.939-9.683-9.666-13.087-15.8l-4.958,2.957-2.945.828V377.3h0c0,3.275,2.16,6.55,6.48,9.043l73.773,42.594c8.637,4.987,22.693,4.987,31.331,0l73.773-42.593c4.248-2.453,6.407-5.662,6.476-8.884,0-.143,0-.288-.009-.432Z" transform="translate(-448.659 -282.486)" fill="#00defc" opacity="0.4"/>
                    <g id="Grupo_132127" data-name="Grupo 132127">
                      <g id="Grupo_132126" data-name="Grupo 132126">
                        <path id="Trazado_192462" data-name="Trazado 192462" d="M640.492,358.791V342.077l-4.622-2.571c-1.305,7.889-10.59,13.086-18.352,14.166l-52.863,30.913-23.069,8.33-73.638-38,1.7-.983c-6.293-2.939-9.683-9.665-13.087-15.8l-4.958,2.957-2.945.828v17.143h0c0,3.275,2.16,6.55,6.48,9.043L528.912,410.7c8.637,4.988,22.693,4.988,31.331,0L634.015,368.1c4.248-2.453,6.407-5.664,6.476-8.886,0-.143,0-.287-.009-.43Z" transform="translate(-448.659 -286.699)" fill="url(#linear-gradient-6)"/>
                        <path id="Trazado_192463" data-name="Trazado 192463" d="M588.463,353.189,535.6,384.1l-20.079,7.25v22.6a32.012,32.012,0,0,0,15.667-3.74l73.773-42.592c4.248-2.453,6.407-5.664,6.476-8.886,0-.143,0-.287-.009-.43l.01,0V341.594l-4.225-2.35h-.442C605.329,347.008,596.151,352.119,588.463,353.189Z" transform="translate(-419.604 -286.216)" fill="#0f054c" opacity="0.3"/>
                        <path id="Trazado_192464" data-name="Trazado 192464" d="M467.255,368.3l69.91-40.362a11.1,11.1,0,0,1,10.032,0l68.689,39.657-.762.446c7.762-1.08,17.047-6.278,18.352-14.166L556.388,311l-22.429-5.928L515.694,315.8,454.168,352.5C457.572,358.635,460.962,365.36,467.255,368.3Z" transform="translate(-446.265 -301.066)" fill="url(#linear-gradient-7)"/>
                        <path id="Trazado_192465" data-name="Trazado 192465" d="M542.182,307.245l-8.223-2.175L515.694,315.8,454.168,352.5c3.4,6.136,6.794,12.861,13.087,15.8l69.91-40.362a10.254,10.254,0,0,1,5.017-1.2Z" transform="translate(-446.265 -301.066)" fill="#0f054c" opacity="0.3"/>
                        <g id="Grupo_132123" data-name="Grupo 132123" transform="translate(0.001)">
                          <path id="Trazado_192466" data-name="Trazado 192466" d="M528.912,409.293,455.139,366.7c-8.639-4.986-8.639-13.1,0-18.088l73.772-42.593c8.639-4.986,22.693-4.986,31.332,0l73.773,42.593c8.639,4.986,8.639,13.1,0,18.088l-73.773,42.592C551.6,414.281,537.549,414.281,528.912,409.293Zm20.679-97.126a11.1,11.1,0,0,0-10.032,0L465.787,354.76c-2.766,1.6-2.766,4.195,0,5.791l73.774,42.595a11.1,11.1,0,0,0,10.032,0l73.771-42.592c2.766-1.6,2.766-4.195,0-5.791Z" transform="translate(-448.659 -302.279)" fill="#5351af"/>
                        </g>
                        <g id="Grupo_132124" data-name="Grupo 132124" transform="translate(0.006 8.691)">
                          <path id="Trazado_192467" data-name="Trazado 192467" d="M618.8,352.129l-73.774-42.595a11.1,11.1,0,0,0-10.032,0l-73.771,42.593c-1.845,1.064-2.453,2.575-1.836,3.936a4.277,4.277,0,0,1,1.836-1.855L535,311.618a11.1,11.1,0,0,1,10.032,0L618.8,354.211a4.277,4.277,0,0,1,1.836,1.855C621.256,354.7,620.648,353.194,618.8,352.129Z" transform="translate(-444.103 -308.337)" fill="#fff"/>
                          <path id="Trazado_192468" data-name="Trazado 192468" d="M634.013,349.612,560.24,392.2c-8.637,4.988-22.693,4.988-31.33,0L455.137,349.61c-3.862-2.229-5.992-5.083-6.4-8-.506,3.614,1.622,7.328,6.4,10.086l73.773,42.593c8.637,4.988,22.693,4.988,31.33,0l73.773-42.592c4.777-2.759,6.906-6.473,6.4-10.085C640,344.529,637.874,347.382,634.013,349.612Z" transform="translate(-448.663 -293.88)" fill="#fff"/>
                        </g>
                        <g id="Grupo_132125" data-name="Grupo 132125" transform="translate(2.945 1.701)">
                          <path id="Trazado_192469" data-name="Trazado 192469" d="M530.1,407.576,456.33,364.983c-7.49-4.324-7.49-11.36,0-15.684L530.1,306.707c7.488-4.324,19.675-4.324,27.163,0L631.039,349.3c7.488,4.324,7.488,11.36,0,15.682l-73.772,42.593C549.777,411.9,537.592,411.9,530.1,407.576Zm20.679-97.126a15.71,15.71,0,0,0-14.2,0l-73.773,42.592c-3.915,2.261-3.913,5.938,0,8.2l73.774,42.593a15.711,15.711,0,0,0,14.2,0l73.773-42.592c3.913-2.261,3.913-5.938,0-8.2Z" transform="translate(-450.712 -303.464)" fill="url(#linear-gradient-8)"/>
                        </g>
                      </g>
                      <path id="Trazado_192470" data-name="Trazado 192470" d="M545.031,309.535a11.1,11.1,0,0,0-10.032,0l-73.772,42.593c-2.766,1.6-2.766,4.195,0,5.791L535,400.514a11.1,11.1,0,0,0,10.032,0L618.8,357.921c2.766-1.6,2.766-4.195,0-5.791Z" transform="translate(-444.099 -299.646)" fill="#00defc" opacity="0.4"/>
                    </g>
                  </g>
                  <g id="Grupo_132134" data-name="Grupo 132134" transform="translate(0 37.355)">
                    <path id="Trazado_192471" data-name="Trazado 192471" d="M640.492,350.994V325.732l-4.622-2.571c-1.305,7.889-10.59,13.086-18.352,14.166L564.655,368.24l-23.069,8.33-73.638-38,1.7-.983c-6.293-2.939-9.683-9.665-13.087-15.8l-4.958,2.957-2.945.829v25.69h0c0,3.275,2.16,6.55,6.48,9.043L528.912,402.9c8.637,4.988,22.693,4.988,31.331,0l73.773-42.592c4.248-2.453,6.407-5.664,6.476-8.886,0-.143,0-.287-.009-.43Z" transform="translate(-448.659 -256.448)" fill="#00defc" opacity="0.4"/>
                    <g id="Grupo_132133" data-name="Grupo 132133">
                      <g id="Grupo_132132" data-name="Grupo 132132">
                        <path id="Trazado_192472" data-name="Trazado 192472" d="M640.492,332.752V316.037l-4.622-2.571c-1.305,7.889-10.59,13.086-18.352,14.168l-52.863,30.912-23.069,8.332-73.638-38,1.7-.983c-6.293-2.939-9.683-9.665-13.087-15.8L451.6,315.05l-2.945.828v17.141h0c0,3.275,2.16,6.55,6.48,9.045l73.773,42.593c8.637,4.986,22.693,4.986,31.331,0l73.773-42.593c4.248-2.452,6.407-5.662,6.476-8.884,0-.143,0-.287-.009-.432Z" transform="translate(-448.659 -260.66)" fill="url(#linear-gradient-6)"/>
                        <path id="Trazado_192473" data-name="Trazado 192473" d="M588.463,327.151,535.6,358.062l-20.079,7.252v22.6a32.044,32.044,0,0,0,15.667-3.74l73.773-42.593c4.248-2.452,6.407-5.662,6.476-8.884,0-.143,0-.287-.009-.432l.01,0V315.554l-4.225-2.35h-.442C605.329,320.968,596.151,326.079,588.463,327.151Z" transform="translate(-419.604 -260.177)" fill="#0f054c" opacity="0.3"/>
                        <path id="Trazado_192474" data-name="Trazado 192474" d="M467.255,342.259l69.91-40.361a11.1,11.1,0,0,1,10.032,0l68.689,39.657-.762.446c7.762-1.082,17.047-6.279,18.352-14.168l-77.088-42.874-22.429-5.928-18.265,10.733-61.526,36.7C457.572,332.594,460.962,339.319,467.255,342.259Z" transform="translate(-446.265 -275.027)" fill="url(#linear-gradient-7)"/>
                        <path id="Trazado_192475" data-name="Trazado 192475" d="M542.182,281.2l-8.223-2.173-18.265,10.733-61.526,36.7c3.4,6.134,6.794,12.859,13.087,15.8l69.91-40.361a10.254,10.254,0,0,1,5.017-1.2Z" transform="translate(-446.265 -275.027)" fill="#0f054c" opacity="0.3"/>
                        <g id="Grupo_132129" data-name="Grupo 132129" transform="translate(0.001)">
                          <path id="Trazado_192476" data-name="Trazado 192476" d="M528.912,383.254l-73.773-42.593c-8.639-4.988-8.639-13.1,0-18.09l73.772-42.592c8.639-4.986,22.693-4.986,31.332,0l73.773,42.593c8.639,4.988,8.639,13.1,0,18.09l-73.773,42.592C551.6,388.241,537.549,388.241,528.912,383.254Zm20.679-97.126a11.1,11.1,0,0,0-10.032,0L465.787,328.72c-2.766,1.6-2.766,4.2,0,5.793l73.774,42.593a11.1,11.1,0,0,0,10.032,0l73.771-42.592c2.766-1.6,2.766-4.195,0-5.793Z" transform="translate(-448.659 -276.24)" fill="#5351af"/>
                        </g>
                        <g id="Grupo_132130" data-name="Grupo 132130" transform="translate(0.006 8.691)">
                          <path id="Trazado_192477" data-name="Trazado 192477" d="M618.8,326.089,545.029,283.5a11.1,11.1,0,0,0-10.032,0l-73.771,42.592c-1.845,1.066-2.453,2.575-1.836,3.938a4.277,4.277,0,0,1,1.836-1.855L535,285.579a11.1,11.1,0,0,1,10.032,0L618.8,328.172a4.277,4.277,0,0,1,1.836,1.855C621.256,328.665,620.648,327.155,618.8,326.089Z" transform="translate(-444.103 -282.298)" fill="#fff"/>
                          <path id="Trazado_192478" data-name="Trazado 192478" d="M634.013,323.573,560.24,366.164c-8.637,4.986-22.693,4.986-31.33,0l-73.773-42.593c-3.862-2.229-5.992-5.084-6.4-8-.506,3.612,1.622,7.328,6.4,10.086l73.773,42.593c8.637,4.986,22.693,4.986,31.33,0l73.773-42.593c4.777-2.757,6.906-6.471,6.4-10.085C640,318.49,637.874,321.343,634.013,323.573Z" transform="translate(-448.663 -267.841)" fill="#fff"/>
                        </g>
                        <g id="Grupo_132131" data-name="Grupo 132131" transform="translate(2.945 1.7)">
                          <path id="Trazado_192479" data-name="Trazado 192479" d="M530.1,381.536,456.33,338.943c-7.49-4.324-7.49-11.359,0-15.682L530.1,280.667c7.488-4.324,19.675-4.322,27.163,0l73.774,42.593c7.488,4.324,7.488,11.359,0,15.682l-73.772,42.592C549.777,385.861,537.592,385.859,530.1,381.536Zm20.679-97.126a15.719,15.719,0,0,0-14.2,0L462.811,327c-3.915,2.259-3.913,5.938,0,8.2l73.774,42.595a15.719,15.719,0,0,0,14.2,0L624.557,335.2c3.913-2.259,3.913-5.938,0-8.2Z" transform="translate(-450.712 -277.425)" fill="url(#linear-gradient-8)"/>
                        </g>
                      </g>
                      <path id="Trazado_192480" data-name="Trazado 192480" d="M545.031,283.5a11.1,11.1,0,0,0-10.032,0l-73.772,42.592c-2.766,1.6-2.766,4.2,0,5.793L535,374.473a11.1,11.1,0,0,0,10.032,0L618.8,331.882c2.766-1.6,2.766-4.195,0-5.793Z" transform="translate(-444.099 -273.607)" fill="#00defc" opacity="0.4"/>
                    </g>
                  </g>
                  <g id="Grupo_132140" data-name="Grupo 132140">
                    <path id="Trazado_192481" data-name="Trazado 192481" d="M640.492,324.955V299.693l-4.622-2.571c-1.305,7.889-10.59,13.086-18.352,14.166L564.655,342.2l-23.069,8.33-73.638-38,1.7-.983c-6.293-2.939-9.683-9.665-13.087-15.8L451.6,298.7l-2.945.828v25.69h0c0,3.275,2.16,6.55,6.48,9.045l73.773,42.593c8.637,4.986,22.693,4.986,31.331,0l73.773-42.593c4.248-2.452,6.407-5.662,6.476-8.884,0-.143,0-.287-.009-.432Z" transform="translate(-448.659 -230.407)" fill="#00defc" opacity="0.4"/>
                    <g id="Grupo_132139" data-name="Grupo 132139">
                      <g id="Grupo_132138" data-name="Grupo 132138">
                        <path id="Trazado_192482" data-name="Trazado 192482" d="M640.492,306.713V290l-4.622-2.571c-1.305,7.889-10.59,13.086-18.352,14.166l-52.863,30.913-23.069,8.33-73.638-38,1.7-.983c-6.293-2.939-9.683-9.665-13.087-15.8L451.6,289.01l-2.945.828V306.98h0c0,3.275,2.16,6.55,6.48,9.043l73.773,42.595c8.637,4.986,22.693,4.986,31.331,0l73.773-42.593c4.248-2.453,6.407-5.662,6.476-8.884,0-.143,0-.288-.009-.432Z" transform="translate(-448.659 -234.62)" fill="url(#linear-gradient-6)"/>
                        <path id="Trazado_192483" data-name="Trazado 192483" d="M588.463,301.11,535.6,332.023l-20.079,7.25v22.6a32.044,32.044,0,0,0,15.667-3.74l73.773-42.593c4.248-2.453,6.407-5.662,6.476-8.884,0-.143,0-.288-.009-.432l.01,0V289.515l-4.225-2.35h-.442C605.329,294.929,596.151,300.04,588.463,301.11Z" transform="translate(-419.604 -234.137)" fill="#0f054c" opacity="0.3"/>
                        <path id="Trazado_192484" data-name="Trazado 192484" d="M467.255,316.22l69.91-40.362a11.1,11.1,0,0,1,10.032,0l68.689,39.658-.762.445c7.762-1.08,17.047-6.278,18.352-14.166l-77.088-42.874-22.429-5.928-18.265,10.733-61.526,36.694C457.572,306.555,460.962,313.28,467.255,316.22Z" transform="translate(-446.265 -248.987)" fill="url(#linear-gradient-7)"/>
                        <path id="Trazado_192485" data-name="Trazado 192485" d="M542.182,255.165l-8.223-2.173-18.265,10.733-61.526,36.694c3.4,6.136,6.794,12.861,13.087,15.8l69.91-40.362a10.253,10.253,0,0,1,5.017-1.2Z" transform="translate(-446.265 -248.987)" fill="#0f054c" opacity="0.3"/>
                        <g id="Grupo_132135" data-name="Grupo 132135" transform="translate(0.001)">
                          <path id="Trazado_192486" data-name="Trazado 192486" d="M528.912,357.216l-73.773-42.595c-8.639-4.986-8.639-13.1,0-18.088l73.772-42.593c8.639-4.987,22.693-4.987,31.332,0l73.773,42.593c8.639,4.986,8.639,13.1,0,18.088l-73.773,42.593C551.6,362.2,537.549,362.2,528.912,357.216Zm20.679-97.126a11.1,11.1,0,0,0-10.032,0l-73.772,42.593c-2.766,1.6-2.766,4.195,0,5.791l73.774,42.595a11.1,11.1,0,0,0,10.032,0l73.771-42.593c2.766-1.6,2.766-4.195,0-5.791Z" transform="translate(-448.659 -250.2)" fill="url(#linear-gradient-8)"/>
                        </g>
                        <g id="Grupo_132136" data-name="Grupo 132136" transform="translate(0.006 8.691)">
                          <path id="Trazado_192487" data-name="Trazado 192487" d="M618.8,300.05l-73.774-42.593a11.1,11.1,0,0,0-10.032,0l-73.771,42.593c-1.845,1.064-2.453,2.575-1.836,3.938a4.27,4.27,0,0,1,1.836-1.855L535,259.539a11.1,11.1,0,0,1,10.032,0L618.8,302.133a4.27,4.27,0,0,1,1.836,1.855C621.256,302.625,620.648,301.116,618.8,300.05Z" transform="translate(-444.103 -256.258)" fill="#fff"/>
                          <path id="Trazado_192488" data-name="Trazado 192488" d="M634.013,297.533,560.24,340.126c-8.637,4.986-22.693,4.986-31.33,0l-73.773-42.595c-3.862-2.229-5.992-5.083-6.4-8-.506,3.614,1.622,7.328,6.4,10.086l73.773,42.593c8.637,4.988,22.693,4.988,31.33,0l73.773-42.592c4.777-2.759,6.906-6.473,6.4-10.085C640,292.45,637.874,295.3,634.013,297.533Z" transform="translate(-448.663 -241.801)" fill="#fff"/>
                        </g>
                        <g id="Grupo_132137" data-name="Grupo 132137" transform="translate(2.945 1.7)">
                          <path id="Trazado_192489" data-name="Trazado 192489" d="M530.1,355.5,456.33,312.9c-7.49-4.324-7.49-11.36,0-15.684L530.1,254.628c7.488-4.324,19.675-4.324,27.163,0l73.774,42.595c7.488,4.322,7.488,11.359,0,15.682L557.267,355.5C549.777,359.821,537.592,359.821,530.1,355.5Zm20.679-97.126a15.71,15.71,0,0,0-14.2,0l-73.773,42.592c-3.915,2.261-3.913,5.938,0,8.2l73.774,42.593a15.711,15.711,0,0,0,14.2,0l73.773-42.592c3.913-2.261,3.913-5.938,0-8.2Z" transform="translate(-450.712 -251.385)" fill="url(#linear-gradient-8)"/>
                        </g>
                      </g>
                      <path id="Trazado_192490" data-name="Trazado 192490" d="M545.031,257.457a11.1,11.1,0,0,0-10.032,0l-73.772,42.593c-2.766,1.6-2.766,4.195,0,5.791L535,348.435a11.1,11.1,0,0,0,10.032,0L618.8,305.841c2.766-1.6,2.766-4.195,0-5.791Z" transform="translate(-444.099 -247.567)" fill="#00defc" opacity="0.4"/>
                    </g>
                  </g>
                </g>
              </g>
            </g>
          </g>
        </g>
      </g>
      <g id="Grupo_132147" data-name="Grupo 132147" transform="translate(408.75 158.108)">
        <path id="Trazado_192492" data-name="Trazado 192492" d="M548.1,338.242a3.833,3.833,0,0,1-1.9-.547,5.562,5.562,0,0,1-2.664-5.622,2.813,2.813,0,0,1,1.6-2.031,3.372,3.372,0,0,1,3.023.321,5.56,5.56,0,0,1,2.664,5.619h0a2.728,2.728,0,0,1-2.72,2.259Zm-1.845-7.551a1.85,1.85,0,0,0-1.869,1.581,4.637,4.637,0,0,0,2.249,4.667,2.52,2.52,0,0,0,2.238.275,1.96,1.96,0,0,0,1.1-1.424v0a4.637,4.637,0,0,0-2.251-4.665A2.951,2.951,0,0,0,546.255,330.691Z" transform="translate(-543.436 -329.817)" fill="#00defc"/>
        <path id="Trazado_192493" data-name="Trazado 192493" d="M555.343,342.424a3.834,3.834,0,0,1-1.9-.547,5.563,5.563,0,0,1-2.664-5.623,2.815,2.815,0,0,1,1.6-2.03,3.38,3.38,0,0,1,3.024.321,5.562,5.562,0,0,1,2.664,5.619v0a2.815,2.815,0,0,1-1.6,2.03A2.782,2.782,0,0,1,555.343,342.424Zm-1.845-7.551a1.85,1.85,0,0,0-1.869,1.579,4.637,4.637,0,0,0,2.251,4.668,2.508,2.508,0,0,0,2.237.274,1.963,1.963,0,0,0,1.1-1.426,4.638,4.638,0,0,0-2.251-4.665A2.952,2.952,0,0,0,553.5,334.873Z" transform="translate(-540.289 -327.999)" fill="#00defc"/>
        <path id="Trazado_192494" data-name="Trazado 192494" d="M564.748,344.117c-.419,1.816-2.2,2.456-3.977,1.43a5.1,5.1,0,0,1-2.457-5.144c.42-1.816,2.2-2.456,3.978-1.43A5.1,5.1,0,0,1,564.748,344.117Z" transform="translate(-537.01 -326.05)" fill="#00defc"/>
      </g>
      <path id="Trazado_192495" data-name="Trazado 192495" d="M425.578,264.241l-5.557-3.208.431-2.569,5.557,3.208Z" transform="translate(-188.316 -202.715)" fill="#00defc"/>
      <path id="Trazado_192496" data-name="Trazado 192496" d="M431.21,267.492l-5.557-3.208.431-2.569,5.557,3.209Z" transform="translate(-185.869 -201.303)" fill="#00defc"/>
      <path id="Trazado_192497" data-name="Trazado 192497" d="M422.014,262.183l-12.187-7.036.431-2.569,12.187,7.036Z" transform="translate(-192.746 -205.273)" fill="#00defc"/>
    </g>
    <g id="Grupo_132173" data-name="Grupo 132173" transform="translate(721.221 967.344)">
      <g id="Grupo_132172" data-name="Grupo 132172">
        <g id="Grupo_132153" data-name="Grupo 132153" transform="translate(0 195)">
          <g id="Grupo_132152" data-name="Grupo 132152">
            <path id="Trazado_192499" data-name="Trazado 192499" d="M537.174,442.261V425.546l-4.622-2.571c-1.305,7.889-10.591,13.086-18.352,14.168l-52.863,30.912-23.069,8.33-73.638-38,1.7-.983c-6.293-2.939-9.683-9.665-13.087-15.8l-4.958,2.957-2.945.828v17.141h0c0,3.275,2.16,6.55,6.478,9.045l73.774,42.593c8.637,4.987,22.693,4.987,31.331,0L530.7,451.572c4.249-2.453,6.408-5.662,6.477-8.884,0-.143,0-.288-.009-.432Z" transform="translate(-345.341 -370.169)" fill="url(#linear-gradient-6)"/>
            <path id="Trazado_192500" data-name="Trazado 192500" d="M485.145,436.66l-52.863,30.912L412.2,474.823v22.6a32.044,32.044,0,0,0,15.667-3.74l73.772-42.593c4.249-2.453,6.408-5.662,6.477-8.884,0-.143,0-.288-.009-.432l.01,0V425.063l-4.225-2.35h-.442C502.011,430.477,492.833,435.588,485.145,436.66Z" transform="translate(-316.286 -369.686)" fill="#0f054c" opacity="0.3"/>
            <path id="Trazado_192501" data-name="Trazado 192501" d="M363.937,451.768l69.91-40.361a11.1,11.1,0,0,1,10.032,0l68.687,39.657-.76.446c7.761-1.082,17.047-6.279,18.352-14.168l-77.09-42.874-22.428-5.928-18.265,10.733-61.526,36.7C354.254,442.1,357.644,448.828,363.937,451.768Z" transform="translate(-342.947 -384.536)" fill="url(#linear-gradient-7)"/>
            <path id="Trazado_192502" data-name="Trazado 192502" d="M438.864,390.713l-8.223-2.173-18.265,10.733-61.526,36.7c3.4,6.134,6.794,12.859,13.087,15.8l69.91-40.361a10.255,10.255,0,0,1,5.017-1.2Z" transform="translate(-342.947 -384.536)" fill="#0f054c" opacity="0.3"/>
            <g id="Grupo_132149" data-name="Grupo 132149" transform="translate(0)">
              <path id="Trazado_192503" data-name="Trazado 192503" d="M425.594,492.763,351.819,450.17c-8.637-4.988-8.637-13.1,0-18.09l73.772-42.592c8.637-4.988,22.693-4.986,31.331,0L530.7,432.082c8.637,4.988,8.639,13.1,0,18.088l-73.772,42.593C448.287,497.75,434.231,497.75,425.594,492.763Zm20.679-97.126a11.1,11.1,0,0,0-10.032,0l-73.772,42.592c-2.767,1.6-2.766,4.2,0,5.793l73.774,42.593a11.1,11.1,0,0,0,10.032,0l73.772-42.593c2.766-1.6,2.766-4.195,0-5.791Z" transform="translate(-345.341 -385.749)" fill="#ffb30b"/>
            </g>
            <g id="Grupo_132150" data-name="Grupo 132150" transform="translate(0.006 8.691)">
              <path id="Trazado_192504" data-name="Trazado 192504" d="M515.486,435.6,441.711,393a11.1,11.1,0,0,0-10.032,0L357.908,435.6c-1.846,1.066-2.453,2.575-1.836,3.938a4.269,4.269,0,0,1,1.836-1.855l73.772-42.592a11.1,11.1,0,0,1,10.032,0l73.774,42.593a4.257,4.257,0,0,1,1.835,1.855C517.937,438.173,517.33,436.664,515.486,435.6Z" transform="translate(-340.785 -391.807)" fill="#fff"/>
              <path id="Trazado_192505" data-name="Trazado 192505" d="M530.694,433.08l-73.772,42.593c-8.637,4.987-22.693,4.987-31.331,0L351.818,433.08c-3.86-2.229-5.991-5.084-6.4-8-.508,3.612,1.622,7.328,6.4,10.085l73.774,42.595c8.637,4.986,22.693,4.986,31.331,0l73.772-42.593c4.777-2.757,6.907-6.471,6.4-10.085C536.685,428,534.556,430.852,530.694,433.08Z" transform="translate(-345.345 -377.349)" fill="#fff"/>
            </g>
            <g id="Grupo_132151" data-name="Grupo 132151" transform="translate(2.945 1.7)">
              <path id="Trazado_192506" data-name="Trazado 192506" d="M426.786,491.045l-73.774-42.593c-7.49-4.324-7.49-11.359,0-15.682l73.773-42.593c7.488-4.324,19.673-4.324,27.163,0l73.774,42.593c7.488,4.324,7.488,11.359,0,15.682l-73.771,42.592C446.459,495.369,434.274,495.369,426.786,491.045Zm20.678-97.126a15.719,15.719,0,0,0-14.2,0l-73.772,42.593c-3.915,2.259-3.915,5.938,0,8.2L433.267,487.3a15.72,15.72,0,0,0,14.2,0l73.771-42.593c3.915-2.259,3.915-5.938,0-8.2Z" transform="translate(-347.394 -386.934)" fill="url(#linear-gradient-8)"/>
            </g>
          </g>
          <path id="Trazado_192507" data-name="Trazado 192507" d="M441.713,393a11.1,11.1,0,0,0-10.032,0L357.909,435.6c-2.767,1.6-2.766,4.2,0,5.793l73.774,42.593a11.1,11.1,0,0,0,10.032,0l73.772-42.593c2.766-1.6,2.766-4.195,0-5.791Z" transform="translate(-340.781 -383.116)" fill="#00defc" opacity="0.4"/>
        </g>
        <g id="Grupo_132159" data-name="Grupo 132159" transform="translate(0 157.645)">
          <path id="Trazado_192508" data-name="Trazado 192508" d="M537.174,434.464V409.2l-4.622-2.571c-1.305,7.889-10.591,13.086-18.352,14.166l-52.863,30.912-23.069,8.332-73.638-38,1.7-.983c-6.293-2.939-9.683-9.664-13.087-15.8l-4.958,2.957-2.945.828v25.69h0c0,3.275,2.16,6.55,6.478,9.043l73.774,42.595c8.637,4.986,22.693,4.986,31.331,0L530.7,443.776c4.249-2.453,6.408-5.662,6.477-8.884,0-.143,0-.288-.009-.432Z" transform="translate(-345.341 -339.916)" fill="#42e8e0" opacity="0.4"/>
          <g id="Grupo_132158" data-name="Grupo 132158">
            <g id="Grupo_132157" data-name="Grupo 132157">
              <path id="Trazado_192509" data-name="Trazado 192509" d="M537.174,416.222V399.507l-4.622-2.571c-1.305,7.889-10.591,13.086-18.352,14.166l-52.863,30.913-23.069,8.33-73.638-38,1.7-.983c-6.293-2.939-9.683-9.665-13.087-15.8l-4.958,2.957-2.945.828v17.143h0c0,3.275,2.16,6.55,6.478,9.043l73.774,42.593c8.637,4.988,22.693,4.988,31.331,0L530.7,425.534c4.249-2.453,6.408-5.662,6.477-8.884,0-.145,0-.288-.009-.432Z" transform="translate(-345.341 -344.129)" fill="url(#linear-gradient-6)"/>
              <path id="Trazado_192510" data-name="Trazado 192510" d="M485.145,410.619l-52.863,30.913-20.079,7.25v22.6a32.029,32.029,0,0,0,15.667-3.741l73.772-42.592c4.249-2.453,6.408-5.662,6.477-8.884,0-.145,0-.288-.009-.432l.01,0V399.024l-4.225-2.35h-.442C502.011,404.438,492.833,409.549,485.145,410.619Z" transform="translate(-316.286 -343.646)" fill="#0f054c" opacity="0.3"/>
              <path id="Trazado_192511" data-name="Trazado 192511" d="M363.937,425.729l69.91-40.362a11.1,11.1,0,0,1,10.032,0l68.687,39.658-.76.445c7.761-1.08,17.047-6.278,18.352-14.166l-77.09-42.874L430.641,362.5l-18.265,10.733L350.85,409.929C354.254,416.064,357.644,422.789,363.937,425.729Z" transform="translate(-342.947 -358.496)" fill="url(#linear-gradient-7)"/>
              <path id="Trazado_192512" data-name="Trazado 192512" d="M438.864,364.674l-8.223-2.173-18.265,10.733L350.85,409.929c3.4,6.135,6.794,12.861,13.087,15.8l69.91-40.362a10.271,10.271,0,0,1,5.017-1.2Z" transform="translate(-342.947 -358.496)" fill="#0f054c" opacity="0.3"/>
              <g id="Grupo_132154" data-name="Grupo 132154" transform="translate(0)">
                <path id="Trazado_192513" data-name="Trazado 192513" d="M425.594,466.725,351.819,424.13c-8.637-4.986-8.637-13.1,0-18.088l73.772-42.593c8.637-4.986,22.693-4.986,31.331,0L530.7,406.043c8.637,4.986,8.639,13.1,0,18.088l-73.772,42.593C448.287,471.711,434.231,471.711,425.594,466.725ZM446.273,369.6a11.1,11.1,0,0,0-10.032,0L362.469,412.19c-2.767,1.6-2.766,4.195,0,5.791l73.774,42.595a11.1,11.1,0,0,0,10.032,0l73.772-42.593c2.766-1.6,2.766-4.195,0-5.791Z" transform="translate(-345.341 -359.709)" fill="#ffb30b"/>
              </g>
              <g id="Grupo_132155" data-name="Grupo 132155" transform="translate(0.006 8.691)">
                <path id="Trazado_192514" data-name="Trazado 192514" d="M515.486,409.559l-73.774-42.595a11.1,11.1,0,0,0-10.032,0l-73.772,42.593c-1.846,1.064-2.453,2.575-1.836,3.936a4.285,4.285,0,0,1,1.836-1.855l73.772-42.592a11.1,11.1,0,0,1,10.032,0l73.774,42.595a4.262,4.262,0,0,1,1.835,1.853C517.937,412.134,517.33,410.624,515.486,409.559Z" transform="translate(-340.785 -365.767)" fill="#fff"/>
                <path id="Trazado_192515" data-name="Trazado 192515" d="M530.694,407.042l-73.772,42.593c-8.637,4.986-22.693,4.986-31.331,0L351.818,407.04c-3.86-2.229-5.991-5.083-6.4-8-.508,3.614,1.622,7.328,6.4,10.086l73.774,42.593c8.637,4.988,22.693,4.988,31.331,0l73.772-42.592c4.777-2.759,6.907-6.473,6.4-10.085C536.685,401.959,534.556,404.812,530.694,407.042Z" transform="translate(-345.345 -351.31)" fill="#fff"/>
              </g>
              <g id="Grupo_132156" data-name="Grupo 132156" transform="translate(2.945 1.701)">
                <path id="Trazado_192516" data-name="Trazado 192516" d="M426.786,465.006l-73.774-42.593c-7.49-4.324-7.49-11.36,0-15.684l73.773-42.592c7.488-4.324,19.673-4.324,27.163,0l73.774,42.595c7.488,4.322,7.488,11.359,0,15.682l-73.771,42.592C446.459,469.33,434.274,469.33,426.786,465.006Zm20.678-97.126a15.711,15.711,0,0,0-14.2,0l-73.772,42.592c-3.915,2.261-3.915,5.938,0,8.2l73.774,42.593a15.71,15.71,0,0,0,14.2,0l73.771-42.592c3.915-2.261,3.915-5.938,0-8.2Z" transform="translate(-347.394 -360.894)" fill="url(#linear-gradient-8)"/>
              </g>
            </g>
            <path id="Trazado_192517" data-name="Trazado 192517" d="M441.713,366.965a11.1,11.1,0,0,0-10.032,0l-73.772,42.593c-2.767,1.6-2.766,4.195,0,5.791l73.774,42.595a11.1,11.1,0,0,0,10.032,0l73.772-42.593c2.766-1.6,2.766-4.195,0-5.791Z" transform="translate(-340.781 -357.076)" fill="#00defc" opacity="0.4"/>
          </g>
        </g>
        <g id="Grupo_132165" data-name="Grupo 132165" transform="translate(0 120.291)">
          <path id="Trazado_192518" data-name="Trazado 192518" d="M537.174,408.425V383.161l-4.622-2.571c-1.305,7.889-10.591,13.086-18.352,14.168L461.337,425.67,438.268,434,364.63,396l1.7-.983c-6.293-2.939-9.683-9.665-13.087-15.8l-4.958,2.957-2.945.828v25.69h0c0,3.275,2.16,6.55,6.478,9.043l73.774,42.593c8.637,4.988,22.693,4.988,31.331,0L530.7,417.737c4.249-2.453,6.408-5.662,6.477-8.884,0-.145,0-.288-.009-.432Z" transform="translate(-345.341 -313.877)" fill="#42e8e0" opacity="0.4"/>
          <g id="Grupo_132164" data-name="Grupo 132164">
            <g id="Grupo_132163" data-name="Grupo 132163">
              <path id="Trazado_192519" data-name="Trazado 192519" d="M537.174,390.182V373.468l-4.622-2.572c-1.305,7.889-10.591,13.086-18.352,14.168l-52.863,30.912-23.069,8.332-73.638-38,1.7-.983c-6.293-2.941-9.683-9.666-13.087-15.8l-4.958,2.957-2.945.828v17.141h0c0,3.277,2.16,6.552,6.478,9.045l73.774,42.593c8.637,4.986,22.693,4.986,31.331,0L530.7,399.495c4.249-2.453,6.408-5.664,6.477-8.886,0-.143,0-.287-.009-.432Z" transform="translate(-345.341 -318.09)" fill="url(#linear-gradient-6)"/>
              <path id="Trazado_192520" data-name="Trazado 192520" d="M485.145,384.58l-52.863,30.912L412.2,422.743v22.6a32.043,32.043,0,0,0,15.667-3.74l73.772-42.592c4.249-2.453,6.408-5.664,6.477-8.886,0-.143,0-.287-.009-.432l.01,0V372.985l-4.225-2.35h-.442C502.011,378.4,492.833,383.51,485.145,384.58Z" transform="translate(-316.286 -317.607)" fill="#0f054c" opacity="0.3"/>
              <path id="Trazado_192521" data-name="Trazado 192521" d="M363.937,399.69l69.91-40.362a11.1,11.1,0,0,1,10.032,0l68.687,39.657-.76.446c7.761-1.082,17.047-6.279,18.352-14.168l-77.09-42.874-22.428-5.928L412.376,347.2,350.85,383.89C354.254,390.024,357.644,396.749,363.937,399.69Z" transform="translate(-342.947 -332.457)" fill="url(#linear-gradient-7)"/>
              <path id="Trazado_192522" data-name="Trazado 192522" d="M438.864,338.634l-8.223-2.173L412.376,347.2,350.85,383.89c3.4,6.134,6.794,12.859,13.087,15.8l69.91-40.362a10.255,10.255,0,0,1,5.017-1.2Z" transform="translate(-342.947 -332.457)" fill="#0f054c" opacity="0.3"/>
              <g id="Grupo_132160" data-name="Grupo 132160" transform="translate(0)">
                <path id="Trazado_192523" data-name="Trazado 192523" d="M425.594,440.684l-73.774-42.593c-8.637-4.988-8.637-13.1,0-18.09l73.772-42.592c8.637-4.987,22.693-4.987,31.331,0L530.7,380c8.637,4.986,8.639,13.1,0,18.088l-73.772,42.592C448.287,445.672,434.231,445.671,425.594,440.684Zm20.679-97.126a11.1,11.1,0,0,0-10.032,0L362.469,386.15c-2.767,1.6-2.766,4.2,0,5.793l73.774,42.593a11.1,11.1,0,0,0,10.032,0l73.772-42.592c2.766-1.6,2.766-4.195,0-5.793Z" transform="translate(-345.341 -333.67)" fill="#ffb30b"/>
              </g>
              <g id="Grupo_132161" data-name="Grupo 132161" transform="translate(0.006 8.691)">
                <path id="Trazado_192524" data-name="Trazado 192524" d="M515.486,383.519l-73.774-42.593a11.1,11.1,0,0,0-10.032,0l-73.772,42.592c-1.846,1.066-2.453,2.576-1.836,3.938a4.277,4.277,0,0,1,1.836-1.855l73.772-42.592a11.1,11.1,0,0,1,10.032,0L515.486,385.6a4.265,4.265,0,0,1,1.835,1.855C517.937,386.1,517.33,384.585,515.486,383.519Z" transform="translate(-340.785 -339.728)" fill="#fff"/>
                <path id="Trazado_192525" data-name="Trazado 192525" d="M530.694,381l-73.772,42.592c-8.637,4.988-22.693,4.986-31.331,0L351.818,381c-3.86-2.229-5.991-5.084-6.4-8-.508,3.614,1.622,7.328,6.4,10.086l73.774,42.593c8.637,4.986,22.693,4.986,31.331,0l73.772-42.592c4.777-2.759,6.907-6.473,6.4-10.086C536.685,375.92,534.556,378.773,530.694,381Z" transform="translate(-345.345 -325.271)" fill="#fff"/>
              </g>
              <g id="Grupo_132162" data-name="Grupo 132162" transform="translate(2.945 1.701)">
                <path id="Trazado_192526" data-name="Trazado 192526" d="M426.786,438.967l-73.774-42.594c-7.49-4.324-7.49-11.359,0-15.682L426.783,338.1c7.488-4.322,19.673-4.322,27.163,0l73.774,42.593c7.488,4.324,7.488,11.359,0,15.682l-73.771,42.593C446.459,443.291,434.274,443.291,426.786,438.967Zm20.678-97.126a15.715,15.715,0,0,0-14.2,0l-73.772,42.593c-3.915,2.259-3.915,5.938,0,8.2l73.774,42.595a15.72,15.72,0,0,0,14.2,0l73.771-42.593c3.915-2.259,3.915-5.936,0-8.2Z" transform="translate(-347.394 -334.855)" fill="url(#linear-gradient-8)"/>
              </g>
            </g>
            <path id="Trazado_192527" data-name="Trazado 192527" d="M441.713,340.926a11.1,11.1,0,0,0-10.032,0l-73.772,42.592c-2.767,1.6-2.766,4.2,0,5.793L431.684,431.9a11.1,11.1,0,0,0,10.032,0l73.772-42.592c2.766-1.6,2.766-4.195,0-5.793Z" transform="translate(-340.781 -331.037)" fill="#00defc" opacity="0.4"/>
          </g>
        </g>
        <g id="Grupo_132171" data-name="Grupo 132171" transform="translate(0 82.936)">
          <path id="Trazado_192528" data-name="Trazado 192528" d="M537.174,382.385V357.123l-4.622-2.571c-1.305,7.889-10.591,13.086-18.352,14.166l-52.863,30.913-23.069,8.33-73.638-38,1.7-.983c-6.293-2.939-9.683-9.665-13.087-15.8l-4.958,2.957-2.945.828v25.69h0c0,3.276,2.16,6.552,6.478,9.045l73.774,42.593c8.637,4.987,22.693,4.987,31.331,0L530.7,391.7c4.249-2.453,6.408-5.664,6.477-8.886,0-.143,0-.287-.009-.432Z" transform="translate(-345.341 -287.838)" fill="#42e8e0" opacity="0.4"/>
          <g id="Grupo_132170" data-name="Grupo 132170">
            <g id="Grupo_132169" data-name="Grupo 132169">
              <path id="Trazado_192529" data-name="Trazado 192529" d="M537.174,364.143V347.428l-4.622-2.571c-1.305,7.889-10.591,13.086-18.352,14.166l-52.863,30.913-23.069,8.33-73.638-38,1.7-.983c-6.293-2.939-9.683-9.665-13.087-15.8l-4.958,2.958-2.945.826V364.41h0c0,3.275,2.16,6.55,6.478,9.043l73.774,42.594c8.637,4.987,22.693,4.987,31.331,0L530.7,373.455c4.249-2.453,6.408-5.662,6.477-8.884,0-.143,0-.288-.009-.432Z" transform="translate(-345.341 -292.051)" fill="url(#linear-gradient-6)"/>
              <path id="Trazado_192530" data-name="Trazado 192530" d="M485.145,358.54l-52.863,30.913L412.2,396.7v22.6a32.043,32.043,0,0,0,15.667-3.74l73.772-42.593c4.249-2.453,6.408-5.662,6.477-8.884,0-.143,0-.288-.009-.432l.01,0V346.945l-4.225-2.35h-.442C502.011,352.359,492.833,357.47,485.145,358.54Z" transform="translate(-316.286 -291.567)" fill="#0f054c" opacity="0.3"/>
              <path id="Trazado_192531" data-name="Trazado 192531" d="M363.937,373.65l69.91-40.362a11.1,11.1,0,0,1,10.032,0l68.687,39.657-.76.445c7.761-1.08,17.047-6.278,18.352-14.166l-77.09-42.874-22.428-5.928-18.265,10.733L350.85,357.85C354.254,363.985,357.644,370.71,363.937,373.65Z" transform="translate(-342.947 -306.417)" fill="url(#linear-gradient-7)"/>
              <path id="Trazado_192532" data-name="Trazado 192532" d="M438.864,312.6l-8.223-2.173-18.265,10.733L350.85,357.85c3.4,6.136,6.794,12.861,13.087,15.8l69.91-40.362a10.254,10.254,0,0,1,5.017-1.2Z" transform="translate(-342.947 -306.417)" fill="#0f054c" opacity="0.3"/>
              <g id="Grupo_132166" data-name="Grupo 132166" transform="translate(0)">
                <path id="Trazado_192533" data-name="Trazado 192533" d="M425.594,414.646l-73.774-42.595c-8.637-4.986-8.637-13.1,0-18.088l73.772-42.592c8.637-4.988,22.693-4.988,31.331,0L530.7,353.964c8.637,4.986,8.639,13.1,0,18.088l-73.772,42.593C448.287,419.632,434.231,419.632,425.594,414.646Zm20.679-97.126a11.1,11.1,0,0,0-10.032,0l-73.772,42.592c-2.767,1.6-2.766,4.195,0,5.793L436.244,408.5a11.1,11.1,0,0,0,10.032,0L520.047,365.9c2.766-1.6,2.766-4.195,0-5.791Z" transform="translate(-345.341 -307.63)" fill="url(#linear-gradient-8)"/>
              </g>
              <g id="Grupo_132167" data-name="Grupo 132167" transform="translate(0.006 8.691)">
                <path id="Trazado_192534" data-name="Trazado 192534" d="M515.486,357.48l-73.774-42.593a11.1,11.1,0,0,0-10.032,0l-73.772,42.592c-1.846,1.064-2.453,2.575-1.836,3.938a4.27,4.27,0,0,1,1.836-1.855l73.772-42.593a11.1,11.1,0,0,1,10.032,0l73.774,42.593a4.257,4.257,0,0,1,1.835,1.855C517.937,360.055,517.33,358.546,515.486,357.48Z" transform="translate(-340.785 -313.689)" fill="#fff"/>
                <path id="Trazado_192535" data-name="Trazado 192535" d="M530.694,354.963l-73.772,42.593c-8.637,4.986-22.693,4.986-31.331,0l-73.774-42.595c-3.86-2.228-5.991-5.083-6.4-8-.508,3.614,1.622,7.329,6.4,10.086l73.774,42.595c8.637,4.986,22.693,4.986,31.331,0l73.772-42.593c4.777-2.757,6.907-6.473,6.4-10.085C536.685,349.88,534.556,352.735,530.694,354.963Z" transform="translate(-345.345 -299.232)" fill="#fff"/>
              </g>
              <g id="Grupo_132168" data-name="Grupo 132168" transform="translate(2.945 1.7)">
                <path id="Trazado_192536" data-name="Trazado 192536" d="M426.786,412.927l-73.774-42.593c-7.49-4.324-7.49-11.359,0-15.682l73.773-42.593c7.488-4.324,19.673-4.324,27.163,0l73.774,42.595c7.488,4.324,7.488,11.359,0,15.682l-73.771,42.592C446.459,417.251,434.274,417.251,426.786,412.927ZM447.464,315.8a15.715,15.715,0,0,0-14.2,0l-73.772,42.592c-3.915,2.261-3.915,5.939,0,8.2l73.774,42.593a15.71,15.71,0,0,0,14.2,0l73.771-42.592c3.915-2.261,3.915-5.938,0-8.2Z" transform="translate(-347.394 -308.815)" fill="url(#linear-gradient-8)"/>
              </g>
            </g>
            <path id="Trazado_192537" data-name="Trazado 192537" d="M441.713,314.887a11.1,11.1,0,0,0-10.032,0l-73.772,42.592c-2.767,1.6-2.766,4.195,0,5.793l73.774,42.593a11.1,11.1,0,0,0,10.032,0l73.772-42.593c2.766-1.6,2.766-4.195,0-5.791Z" transform="translate(-340.781 -304.997)" fill="#00defc" opacity="0.4"/>
          </g>
        </g>
        <path id="Trazado_192538" data-name="Trazado 192538" d="M517.56,249.817H355.839v138.24h0a3.475,3.475,0,0,0,2.069,2.97l73.774,42.593a11.1,11.1,0,0,0,10.032,0l73.772-42.593a3.522,3.522,0,0,0,2.074-2.9h0Z" transform="translate(-340.779 -249.817)" opacity="0.5" fill="url(#linear-gradient-48)" style="mix-blend-mode: lighten;isolation: isolate"/>
      </g>
    </g>
  </g>
</svg>
