<svg xmlns="http://www.w3.org/2000/svg" xmlns:xlink="http://www.w3.org/1999/xlink" width="76.004" height="94.994" viewBox="0 0 76.004 94.994">
  <defs>
    <linearGradient id="linear-gradient" x1="0.099" y1="-0.384" x2="0.893" y2="0.768" gradientUnits="objectBoundingBox">
      <stop offset="0" stop-color="#bcbeff"/>
      <stop offset="0.227" stop-color="#aaadf7"/>
      <stop offset="0.68" stop-color="#7b82e5"/>
      <stop offset="1" stop-color="#5761d7"/>
    </linearGradient>
    <linearGradient id="linear-gradient-2" y1="0.5" x2="1" y2="0.5" gradientUnits="objectBoundingBox">
      <stop offset="0" stop-color="#e9e9fd"/>
      <stop offset="0.36" stop-color="#d2d2f9"/>
      <stop offset="0.706" stop-color="#c4c3f6"/>
      <stop offset="1" stop-color="#c0bff6"/>
    </linearGradient>
  </defs>
  <g id="Grupo_146478" data-name="Grupo 146478" transform="translate(-1265.996 -360.253)">
    <g id="Grupo_132060" data-name="Grupo 132060" transform="translate(665.789 -75.602)">
      <g id="Grupo_132052" data-name="Grupo 132052" opacity="0.3">
        <path id="Trazado_192355" data-name="Trazado 192355" d="M676.21,508.8v-6.622l-1.831-1.019c-.517,3.126-4.2,5.185-7.271,5.613l-20.944,12.247-9.14,3.3-29.175-15.056.674-.389c-2.493-1.165-3.836-3.829-5.185-6.26l-1.964,1.171-1.167.328v6.792h0c0,1.3.856,2.6,2.567,3.583L632,529.367a13.737,13.737,0,0,0,12.413,0l29.228-16.874c1.683-.972,2.539-2.244,2.566-3.52,0-.057,0-.114,0-.171Z" fill="url(#linear-gradient)"/>
        <path id="Trazado_192356" data-name="Trazado 192356" d="M667.108,506.775l-20.944,12.247-7.955,2.873v8.954a12.681,12.681,0,0,0,6.207-1.482l29.228-16.874c1.683-.972,2.539-2.244,2.566-3.52,0-.057,0-.114,0-.171h0v-6.622l-1.674-.931h-.175C673.79,504.326,670.154,506.351,667.108,506.775Z" fill="#0f054c" opacity="0.3"/>
        <g id="Grupo_132050" data-name="Grupo 132050">
          <path id="Trazado_192357" data-name="Trazado 192357" d="M632,522.639l-29.229-16.875c-3.422-1.976-3.422-5.191,0-7.167L632,481.723a13.737,13.737,0,0,1,12.413,0L673.644,498.6c3.422,1.976,3.422,5.191,0,7.167l-29.228,16.874A13.737,13.737,0,0,1,632,522.639Z" fill="url(#linear-gradient-2)"/>
        </g>
        <g id="Grupo_132051" data-name="Grupo 132051" opacity="0.3">
          <path id="Trazado_192358" data-name="Trazado 192358" d="M632,522.639l-29.229-16.875c-3.422-1.976-3.422-5.191,0-7.167L632,481.723a13.737,13.737,0,0,1,12.413,0L673.644,498.6c3.422,1.976,3.422,5.191,0,7.167l-29.228,16.874A13.737,13.737,0,0,1,632,522.639Z" fill="#0f054c"/>
        </g>
      </g>
      <g id="Grupo_132059" data-name="Grupo 132059">
        <g id="Grupo_132058" data-name="Grupo 132058">
          <path id="Trazado_192359" data-name="Trazado 192359" d="M638.209,501.309a11.269,11.269,0,0,1-5.508-1.314L603.472,483.12a3.531,3.531,0,0,1,0-6.658L632.7,459.588a12.187,12.187,0,0,1,11.018,0l29.228,16.874a3.531,3.531,0,0,1,0,6.658l-29.228,16.875A11.276,11.276,0,0,1,638.209,501.309Zm0-42.532a10.731,10.731,0,0,0-5.253,1.255l-29.229,16.875a3.032,3.032,0,0,0,0,5.769l29.229,16.874a11.619,11.619,0,0,0,10.507,0l29.228-16.874a3.033,3.033,0,0,0,0-5.769l-29.229-16.875A10.736,10.736,0,0,0,638.209,458.777Z" fill="#00defc"/>
          <g id="Grupo_132057" data-name="Grupo 132057">
            <path id="Trazado_192360" data-name="Trazado 192360" d="M676.21,473.314V463.3l-1.831-1.018c-.517,3.125-4.2,5.184-7.271,5.612l-20.944,12.248-9.14,3.3-29.175-15.055.674-.39c-2.493-1.164-3.836-3.829-5.185-6.26l-1.964,1.172-1.167.328V473.42h0c0,1.3.856,2.6,2.567,3.583L632,493.878a13.737,13.737,0,0,0,12.413,0L673.644,477c1.683-.972,2.539-2.244,2.566-3.52,0-.057,0-.114,0-.171Z" fill="#00defc" opacity="0.4"/>
            <g id="Grupo_132056" data-name="Grupo 132056">
              <g id="Grupo_132055" data-name="Grupo 132055">
                <path id="Trazado_192361" data-name="Trazado 192361" d="M676.21,464.418V457.8l-1.831-1.018c-.517,3.125-4.2,5.184-7.271,5.612l-20.944,12.248-9.14,3.3-29.175-15.056.674-.389c-2.493-1.164-3.836-3.829-5.185-6.26l-1.964,1.172-1.167.328v6.791h0c0,1.3.856,2.6,2.567,3.584L632,484.982a13.737,13.737,0,0,0,12.413,0l29.228-16.875c1.683-.972,2.539-2.244,2.566-3.52,0-.057,0-.114,0-.171Z" fill="url(#linear-gradient)"/>
                <path id="Trazado_192362" data-name="Trazado 192362" d="M667.108,462.389l-20.944,12.248-7.955,2.872v8.955a12.692,12.692,0,0,0,6.207-1.482l29.228-16.875c1.683-.972,2.539-2.244,2.566-3.52,0-.057,0-.114,0-.171l0,0V457.8l-1.674-.931h-.175C673.79,459.94,670.154,461.965,667.108,462.389Z" fill="#0f054c" opacity="0.3"/>
                <g id="Grupo_132053" data-name="Grupo 132053">
                  <path id="Trazado_192363" data-name="Trazado 192363" d="M632,478.254l-29.229-16.876c-3.422-1.976-3.422-5.191,0-7.166L632,437.337a13.737,13.737,0,0,1,12.413,0l29.229,16.875c3.422,1.976,3.422,5.191,0,7.167l-29.228,16.875A13.743,13.743,0,0,1,632,478.254Z" fill="url(#linear-gradient-2)"/>
                </g>
                <g id="Grupo_132054" data-name="Grupo 132054">
                  <path id="Trazado_192364" data-name="Trazado 192364" d="M673.644,461.379l-29.228,16.875a13.743,13.743,0,0,1-12.413,0l-29.229-16.876a4.611,4.611,0,0,1-2.536-3.17c-.2,1.431.643,2.9,2.536,3.995L632,479.079a13.737,13.737,0,0,0,12.413,0L673.644,462.2c1.893-1.093,2.736-2.564,2.535-4A4.611,4.611,0,0,1,673.644,461.379Z" fill="#ffb30b"/>
                </g>
              </g>
            </g>
          </g>
        </g>
      </g>
    </g>
  </g>
</svg>
