<svg xmlns="http://www.w3.org/2000/svg" xmlns:xlink="http://www.w3.org/1999/xlink" width="76.003" height="94.937" viewBox="0 0 76.003 94.937">
  <defs>
    <linearGradient id="linear-gradient" x1="0.099" y1="-0.384" x2="0.893" y2="0.768" gradientUnits="objectBoundingBox">
      <stop offset="0" stop-color="#bcbeff"/>
      <stop offset="0.227" stop-color="#aaadf7"/>
      <stop offset="0.68" stop-color="#7b82e5"/>
      <stop offset="1" stop-color="#5761d7"/>
    </linearGradient>
    <linearGradient id="linear-gradient-2" y1="0.5" x2="1" y2="0.5" gradientUnits="objectBoundingBox">
      <stop offset="0" stop-color="#e9e9fd"/>
      <stop offset="0.36" stop-color="#d2d2f9"/>
      <stop offset="0.706" stop-color="#c4c3f6"/>
      <stop offset="1" stop-color="#c0bff6"/>
    </linearGradient>
  </defs>
  <g id="Grupo_146477" data-name="Grupo 146477" transform="translate(-894.44 -232.286)">
    <g id="Grupo_132075" data-name="Grupo 132075" transform="translate(665.789 -75.602)" opacity="0.3">
      <path id="Trazado_192379" data-name="Trazado 192379" d="M304.654,380.779v-6.622l-1.832-1.019c-.517,3.126-4.195,5.185-7.271,5.613L274.608,391l-9.14,3.3-29.175-15.056.674-.389c-2.494-1.165-3.837-3.829-5.185-6.26l-1.965,1.171-1.166.328v6.792h0c0,1.3.855,2.6,2.567,3.583l29.228,16.876a13.743,13.743,0,0,0,12.413,0l29.228-16.875c1.684-.972,2.539-2.244,2.566-3.52,0-.057,0-.114,0-.171Z" fill="url(#linear-gradient)"/>
      <path id="Trazado_192380" data-name="Trazado 192380" d="M295.551,378.751,274.608,391l-7.956,2.873v8.954a12.7,12.7,0,0,0,6.207-1.481l29.228-16.875c1.684-.972,2.539-2.244,2.566-3.52,0-.057,0-.114,0-.171h0v-6.622l-1.674-.931H302.8C302.234,376.3,298.6,378.327,295.551,378.751Z" fill="#0f054c" opacity="0.3"/>
      <g id="Grupo_132073" data-name="Grupo 132073">
        <path id="Trazado_192381" data-name="Trazado 192381" d="M260.446,394.615,231.218,377.74c-3.423-1.976-3.423-5.191,0-7.167L260.445,353.7a13.737,13.737,0,0,1,12.413,0l29.229,16.875c3.422,1.976,3.423,5.191,0,7.167l-29.228,16.874A13.737,13.737,0,0,1,260.446,394.615Z" fill="url(#linear-gradient-2)"/>
      </g>
      <g id="Grupo_132074" data-name="Grupo 132074" opacity="0.3">
        <path id="Trazado_192382" data-name="Trazado 192382" d="M260.446,394.615,231.218,377.74c-3.423-1.976-3.423-5.191,0-7.167L260.445,353.7a13.737,13.737,0,0,1,12.413,0l29.229,16.875c3.422,1.976,3.423,5.191,0,7.167l-29.228,16.874A13.737,13.737,0,0,1,260.446,394.615Z" fill="#0f054c"/>
      </g>
    </g>
    <g id="Grupo_132083" data-name="Grupo 132083" transform="translate(665.789 -75.602)">
      <g id="Grupo_132082" data-name="Grupo 132082">
        <path id="Trazado_192383" data-name="Trazado 192383" d="M266.653,373.342a11.287,11.287,0,0,1-5.509-1.314l-29.229-16.875a3.531,3.531,0,0,1,0-6.658l29.228-16.876a12.2,12.2,0,0,1,11.018,0l29.228,16.874a3.531,3.531,0,0,1,0,6.658l-29.227,16.875A11.287,11.287,0,0,1,266.653,373.342Zm-5.254-1.759a11.621,11.621,0,0,0,10.508,0l29.227-16.874a3.032,3.032,0,0,0,0-5.769L271.9,332.065a11.619,11.619,0,0,0-10.507,0L232.17,348.94a3.033,3.033,0,0,0,0,5.769Z" fill="#00defc"/>
        <g id="Grupo_132081" data-name="Grupo 132081">
          <path id="Trazado_192384" data-name="Trazado 192384" d="M304.654,345.347V335.338l-1.832-1.019c-.517,3.126-4.195,5.185-7.271,5.613l-20.943,12.247-9.14,3.3-29.175-15.056.674-.389c-2.494-1.165-3.837-3.829-5.185-6.26l-1.965,1.171-1.166.328v10.179h0c0,1.3.855,2.6,2.567,3.583l29.228,16.875a13.737,13.737,0,0,0,12.413,0l29.228-16.875c1.684-.972,2.539-2.243,2.566-3.52,0-.057,0-.114,0-.171Z" fill="#00defc" opacity="0.4"/>
          <g id="Grupo_132080" data-name="Grupo 132080">
            <g id="Grupo_132079" data-name="Grupo 132079">
              <path id="Trazado_192385" data-name="Trazado 192385" d="M304.654,336.45v-6.622l-1.832-1.019c-.517,3.126-4.195,5.185-7.271,5.613l-20.943,12.247-9.14,3.3-29.175-15.056.674-.389c-2.494-1.165-3.837-3.829-5.185-6.26l-1.965,1.171-1.166.328v6.792h0c0,1.3.855,2.6,2.567,3.583l29.228,16.875a13.737,13.737,0,0,0,12.413,0l29.228-16.874c1.684-.972,2.539-2.244,2.566-3.52,0-.057,0-.115,0-.171Z" fill="url(#linear-gradient)"/>
              <path id="Trazado_192386" data-name="Trazado 192386" d="M295.551,334.422l-20.943,12.247-7.956,2.873V358.5a12.692,12.692,0,0,0,6.207-1.482l29.228-16.874c1.684-.972,2.539-2.244,2.566-3.52,0-.057,0-.115,0-.171h0v-6.622l-1.674-.931H302.8C302.234,331.973,298.6,334,295.551,334.422Z" fill="#0f054c" opacity="0.3"/>
              <g id="Grupo_132076" data-name="Grupo 132076">
                <path id="Trazado_192387" data-name="Trazado 192387" d="M260.446,350.286l-29.228-16.875c-3.423-1.976-3.423-5.191,0-7.167l29.228-16.875a13.74,13.74,0,0,1,12.413,0l29.229,16.875c3.422,1.976,3.423,5.191,0,7.166l-29.228,16.875A13.737,13.737,0,0,1,260.446,350.286Z" fill="url(#linear-gradient-2)"/>
              </g>
              <g id="Grupo_132077" data-name="Grupo 132077">
                <path id="Trazado_192388" data-name="Trazado 192388" d="M266.653,347.221a10.178,10.178,0,0,1-4.977-1.188L238.841,332.85a3.208,3.208,0,0,1,0-6.045l22.837-13.183a11.011,11.011,0,0,1,9.953,0l22.835,13.185a3.206,3.206,0,0,1,0,6.043l-22.835,13.183A10.174,10.174,0,0,1,266.653,347.221Zm0-34.283a9.656,9.656,0,0,0-4.72,1.128L239.1,327.25a2.708,2.708,0,0,0,0,5.155l22.835,13.184a10.449,10.449,0,0,0,9.442,0L294.209,332.4a2.707,2.707,0,0,0,0-5.154l-22.835-13.185A9.66,9.66,0,0,0,266.652,312.938Z" fill="#ffb30b"/>
              </g>
              <g id="Grupo_132078" data-name="Grupo 132078">
                <path id="Trazado_192389" data-name="Trazado 192389" d="M302.087,333.411l-29.228,16.875a13.737,13.737,0,0,1-12.413,0l-29.228-16.875a4.61,4.61,0,0,1-2.536-3.171c-.2,1.432.643,2.9,2.536,4l29.228,16.875a13.737,13.737,0,0,0,12.413,0l29.228-16.874c1.893-1.093,2.737-2.565,2.536-4A4.609,4.609,0,0,1,302.087,333.411Z" fill="#ffb30b"/>
              </g>
            </g>
          </g>
        </g>
      </g>
    </g>
  </g>
</svg>
