<svg xmlns="http://www.w3.org/2000/svg" xmlns:xlink="http://www.w3.org/1999/xlink" width="176.813" height="106.202" viewBox="0 0 176.813 106.202">
  <defs>
    <linearGradient id="linear-gradient" x1="0.099" y1="-0.384" x2="0.893" y2="0.768" gradientUnits="objectBoundingBox">
      <stop offset="0" stop-color="#bcbeff"/>
      <stop offset="0.227" stop-color="#aaadf7"/>
      <stop offset="0.68" stop-color="#7b82e5"/>
      <stop offset="1" stop-color="#5761d7"/>
    </linearGradient>
    <linearGradient id="linear-gradient-2" y1="0.5" x2="1" y2="0.5" gradientUnits="objectBoundingBox">
      <stop offset="0" stop-color="#e9e9fd"/>
      <stop offset="0.36" stop-color="#d2d2f9"/>
      <stop offset="0.706" stop-color="#c4c3f6"/>
      <stop offset="1" stop-color="#c0bff6"/>
    </linearGradient>
  </defs>
  <g id="Grupo_146476" data-name="Grupo 146476" transform="translate(-790 -395.659)">
    <g id="Grupo_132072" data-name="Grupo 132072" transform="translate(665.789 -75.602)">
      <g id="Grupo_132063" data-name="Grupo 132063" opacity="0.3">
        <path id="Trazado_192365" data-name="Trazado 192365" d="M250.619,547.43v-6.622l-1.832-1.019c-.517,3.126-4.2,5.185-7.271,5.613l-20.944,12.247-9.14,3.3-29.175-15.056.675-.389c-2.494-1.165-3.837-3.829-5.186-6.26l-1.964,1.172-1.167.328v6.791h0c0,1.3.856,2.595,2.567,3.583l29.229,16.876a13.744,13.744,0,0,0,12.413,0l29.228-16.875c1.683-.972,2.539-2.244,2.566-3.52,0-.057,0-.114,0-.171Z" fill="url(#linear-gradient)"/>
        <path id="Trazado_192366" data-name="Trazado 192366" d="M241.516,545.4l-20.944,12.247-7.955,2.873v8.955a12.692,12.692,0,0,0,6.207-1.482l29.228-16.875c1.683-.972,2.539-2.244,2.566-3.52,0-.057,0-.114,0-.171h0v-6.622l-1.674-.931h-.175C248.2,542.953,244.562,544.978,241.516,545.4Z" fill="#0f054c" opacity="0.3"/>
        <g id="Grupo_132061" data-name="Grupo 132061">
          <path id="Trazado_192367" data-name="Trazado 192367" d="M206.411,561.266l-29.229-16.875c-3.422-1.976-3.422-5.191,0-7.167L206.41,520.35a13.737,13.737,0,0,1,12.413,0l29.229,16.875c3.422,1.976,3.422,5.191,0,7.167l-29.228,16.874A13.737,13.737,0,0,1,206.411,561.266Z" fill="url(#linear-gradient-2)"/>
        </g>
        <g id="Grupo_132062" data-name="Grupo 132062" opacity="0.3">
          <path id="Trazado_192368" data-name="Trazado 192368" d="M206.411,561.266l-29.229-16.875c-3.422-1.976-3.422-5.191,0-7.167L206.41,520.35a13.737,13.737,0,0,1,12.413,0l29.229,16.875c3.422,1.976,3.422,5.191,0,7.167l-29.228,16.874A13.737,13.737,0,0,1,206.411,561.266Z" fill="#0f054c"/>
        </g>
      </g>
      <path id="Trazado_192369" data-name="Trazado 192369" d="M212.618,566.657c-17.825,0-35.65-3.917-49.22-11.751-13.2-7.619-20.463-17.765-20.463-28.568s7.267-20.945,20.462-28.562c27.138-15.667,71.3-15.67,98.439,0,13.2,7.619,20.463,17.764,20.463,28.567s-7.267,20.945-20.462,28.563l-.127-.223.127.223C248.268,562.74,230.443,566.657,212.618,566.657Zm0-80.128c-17.732,0-35.465,3.9-48.964,11.691-13.029,7.522-20.2,17.508-20.2,28.118s7.176,20.6,20.207,28.123c27,15.587,70.93,15.587,97.928,0,13.029-7.522,20.2-17.508,20.2-28.118s-7.176-20.6-20.207-28.123C248.08,490.426,230.348,486.529,212.616,486.529Z" fill="#00defc" opacity="0.4"/>
      <path id="Trazado_192370" data-name="Trazado 192370" d="M212.62,577.463c-22.623,0-45.24-4.97-62.461-14.914-16.733-9.661-25.948-22.519-25.948-36.209s9.214-26.55,25.946-36.21c34.44-19.884,90.48-19.883,124.918,0,16.733,9.661,25.949,22.519,25.949,36.209s-9.215,26.55-25.946,36.21C257.86,572.491,235.237,577.463,212.62,577.463Zm-.006-101.74c-22.527,0-45.052,4.95-62.2,14.852-16.566,9.564-25.689,22.266-25.689,35.765s9.124,26.2,25.691,35.765c34.3,19.8,90.108,19.806,124.408,0,16.566-9.564,25.689-22.265,25.689-35.765s-9.124-26.2-25.691-35.765C257.67,480.674,235.142,475.723,212.614,475.723Z" fill="#00defc" opacity="0.2"/>
      <path id="Trazado_192371" data-name="Trazado 192371" d="M212.618,558.145c-14.047,0-28.1-3.086-38.789-9.261-10.41-6.01-16.143-14.016-16.143-22.544s5.732-16.533,16.142-22.543c21.386-12.346,56.189-12.346,77.578,0,10.41,6.01,16.142,14.016,16.143,22.544s-5.733,16.533-16.143,22.543C240.713,555.059,226.665,558.145,212.618,558.145Zm0-63.1c-13.955,0-27.91,3.066-38.533,9.2C163.839,510.155,158.2,518,158.2,526.34s5.642,16.186,15.886,22.1c21.249,12.268,55.82,12.268,77.067,0,10.244-5.914,15.885-13.762,15.885-22.1s-5.642-16.186-15.886-22.1C240.526,498.107,226.571,495.041,212.616,495.041Z" fill="#00defc"/>
      <g id="Grupo_132071" data-name="Grupo 132071">
        <g id="Grupo_132070" data-name="Grupo 132070">
          <path id="Trazado_192372" data-name="Trazado 192372" d="M212.618,536.717a11.259,11.259,0,0,1-5.51-1.317L177.88,518.526a3.531,3.531,0,0,1,0-6.658l29.228-16.875a12.212,12.212,0,0,1,11.018,0l29.229,16.875a3.531,3.531,0,0,1,0,6.658L218.126,535.4A11.249,11.249,0,0,1,212.618,536.717Zm0-42.533a10.737,10.737,0,0,0-5.254,1.254l-29.228,16.874a3.032,3.032,0,0,0,0,5.769l29.229,16.875a11.615,11.615,0,0,0,10.5,0L247.1,518.081a3.032,3.032,0,0,0,0-5.769L217.87,495.438A10.733,10.733,0,0,0,212.617,494.184Z" fill="#00defc"/>
          <g id="Grupo_132069" data-name="Grupo 132069">
            <path id="Trazado_192373" data-name="Trazado 192373" d="M250.619,508.72V498.711l-1.832-1.018c-.517,3.125-4.2,5.184-7.271,5.612l-20.944,12.248-9.14,3.3L182.257,503.8l.675-.39c-2.494-1.164-3.837-3.829-5.186-6.26l-1.964,1.172-1.167.328v10.178h0c0,1.3.856,2.6,2.567,3.583l29.229,16.875a13.737,13.737,0,0,0,12.413,0l29.228-16.874c1.683-.972,2.539-2.244,2.566-3.521,0-.056,0-.113,0-.17Z" fill="#00defc" opacity="0.4"/>
            <g id="Grupo_132068" data-name="Grupo 132068">
              <g id="Grupo_132067" data-name="Grupo 132067">
                <path id="Trazado_192374" data-name="Trazado 192374" d="M250.619,499.823V493.2l-1.832-1.018c-.517,3.125-4.2,5.184-7.271,5.612l-20.944,12.248-9.14,3.3-29.175-15.056.675-.389c-2.494-1.165-3.837-3.829-5.186-6.26l-1.964,1.172-1.167.328v6.791h0c0,1.3.856,2.6,2.567,3.583l29.229,16.876a13.74,13.74,0,0,0,12.413,0l29.228-16.875c1.683-.972,2.539-2.244,2.566-3.52,0-.057,0-.114,0-.171Z" fill="url(#linear-gradient)"/>
                <path id="Trazado_192375" data-name="Trazado 192375" d="M241.516,497.8l-20.944,12.248-7.955,2.872v8.955a12.692,12.692,0,0,0,6.207-1.482l29.228-16.875c1.683-.972,2.539-2.244,2.566-3.52,0-.057,0-.114,0-.171h0V493.2l-1.674-.931h-.175C248.2,495.346,244.562,497.371,241.516,497.8Z" fill="#0f054c" opacity="0.3"/>
                <g id="Grupo_132064" data-name="Grupo 132064">
                  <path id="Trazado_192376" data-name="Trazado 192376" d="M206.411,513.66l-29.229-16.876c-3.422-1.976-3.422-5.191,0-7.166l29.228-16.875a13.737,13.737,0,0,1,12.413,0l29.229,16.875c3.422,1.976,3.422,5.191,0,7.167L218.824,513.66A13.743,13.743,0,0,1,206.411,513.66Z" fill="url(#linear-gradient-2)"/>
                </g>
                <g id="Grupo_132065" data-name="Grupo 132065">
                  <path id="Trazado_192377" data-name="Trazado 192377" d="M212.618,510.6a10.2,10.2,0,0,1-4.977-1.187L184.8,496.223a3.207,3.207,0,0,1,0-6.044l22.835-13.184a11.016,11.016,0,0,1,9.954,0l22.835,13.183a3.207,3.207,0,0,1,0,6.044l-22.835,13.185A10.2,10.2,0,0,1,212.618,510.6Zm-4.722-1.632a10.439,10.439,0,0,0,9.443,0l22.834-13.185a2.707,2.707,0,0,0,0-5.154l-22.835-13.183a10.453,10.453,0,0,0-9.442,0l-22.835,13.185a2.707,2.707,0,0,0,0,5.154Z" fill="#ffb30b"/>
                </g>
                <g id="Grupo_132066" data-name="Grupo 132066">
                  <path id="Trazado_192378" data-name="Trazado 192378" d="M248.052,496.785,218.824,513.66a13.743,13.743,0,0,1-12.413,0l-29.229-16.876a4.616,4.616,0,0,1-2.536-3.171c-.2,1.432.644,2.9,2.536,4l29.229,16.876a13.74,13.74,0,0,0,12.413,0l29.228-16.875c1.893-1.093,2.736-2.564,2.536-4A4.613,4.613,0,0,1,248.052,496.785Z" fill="#ffb30b"/>
                </g>
              </g>
            </g>
          </g>
        </g>
      </g>
    </g>
  </g>
</svg>
