<svg xmlns="http://www.w3.org/2000/svg" width="85" height="84.979" viewBox="0 0 85 84.979">
  <g id="dato" transform="translate(0 -0.059)">
    <path id="Trazado_192916" data-name="Trazado 192916" d="M33.494,95.218c14.079,0,25.494-4.438,25.494-9.914V64.059c0,5.476-11.414,9.914-25.494,9.914S8,69.535,8,64.059V85.3C8,90.779,19.414,95.218,33.494,95.218Zm0,0" transform="translate(-6.584 -52.67)" fill="#b9ddfc"/>
    <path id="Trazado_192917" data-name="Trazado 192917" d="M33.494,193.973C19.414,193.973,8,189.535,8,184.059v19.828c0,5.476,11.414,9.914,25.494,9.914s25.494-4.438,25.494-9.914V184.059c0,5.476-11.414,9.914-25.494,9.914Zm0,0" transform="translate(-6.584 -151.425)" fill="#00defc"/>
    <path id="Trazado_192918" data-name="Trazado 192918" d="M33.494,305.973C19.414,305.973,8,301.535,8,296.059V317.3c0,5.476,11.414,9.914,25.494,9.914s25.494-4.438,25.494-9.914V296.059C58.987,301.535,47.573,305.973,33.494,305.973Zm0,0" transform="translate(-6.584 -243.597)" fill="#084a93"/>
    <path id="Trazado_192919" data-name="Trazado 192919" d="M58.987,17.973c0-5.475-11.414-9.914-25.494-9.914S8,12.5,8,17.973s11.414,9.914,25.494,9.914S58.987,23.449,58.987,17.973Zm0,0" transform="translate(-6.584 -6.583)" fill="#b9ddfc"/>
    <path id="Trazado_192920" data-name="Trazado 192920" d="M58.987,57.475c0,5.481-11.416,9.914-25.494,9.914S8,62.956,8,57.475a3.807,3.807,0,0,1,.269-1.416c1.742,4.8,12.379,8.5,25.224,8.5s23.483-3.7,25.224-8.5a3.807,3.807,0,0,1,.269,1.416Zm0,0" transform="translate(-6.584 -46.085)" fill="#00defc"/>
    <g id="Grupo_132328" data-name="Grupo 132328" transform="translate(75.064 2.892)">
      <path id="Trazado_192921" data-name="Trazado 192921" d="M432.5,220.308a4.249,4.249,0,1,1-4.249-4.249,4.249,4.249,0,0,1,4.249,4.249Zm0,0" transform="translate(-424 -180.651)" fill="#ffb30b"/>
      <path id="Trazado_192922" data-name="Trazado 192922" d="M432.5,428.308a4.249,4.249,0,1,1-4.249-4.249A4.249,4.249,0,0,1,432.5,428.308Zm0,0" transform="translate(-424 -351.827)" fill="#ffb30b"/>
      <path id="Trazado_192923" data-name="Trazado 192923" d="M432.5,20.308a4.249,4.249,0,1,1-4.249-4.249A4.249,4.249,0,0,1,432.5,20.308Zm0,0" transform="translate(-424 -16.059)" fill="#ffb30b"/>
    </g>
    <path id="Trazado_192924" data-name="Trazado 192924" d="M58.987,168.059v2.833c0,5.481-11.416,9.914-25.494,9.914S8,176.373,8,170.892v-2.833c0,5.481,11.416,9.914,25.494,9.914S58.987,173.54,58.987,168.059Zm0,0" transform="translate(-6.584 -138.257)" fill="#00defc"/>
    <path id="Trazado_192925" data-name="Trazado 192925" d="M58.987,280.059v2.833c0,5.481-11.416,9.914-25.494,9.914S8,288.373,8,282.892v-2.833c0,5.481,11.416,9.914,25.494,9.914S58.987,285.54,58.987,280.059Zm0,0" transform="translate(-6.584 -230.429)" fill="#084a93"/>
    <path id="Trazado_192926" data-name="Trazado 192926" d="M58.987,400.059v2.833c0,5.481-11.416,9.914-25.494,9.914S8,408.373,8,402.892v-2.833c0,5.481,11.416,9.914,25.494,9.914S58.987,405.54,58.987,400.059Zm0,0" transform="translate(-6.584 -329.185)" fill="#052c57"/>
    <path id="Trazado_192927" data-name="Trazado 192927" d="M53.82,43.965h20.03a5.665,5.665,0,1,0,0-2.833H53.82V26.969H60.9A4.249,4.249,0,0,0,65.15,22.72V9.973a1.416,1.416,0,0,1,1.416-1.416h7.283a5.665,5.665,0,1,0,0-2.833H66.566a4.249,4.249,0,0,0-4.249,4.249V22.72A1.416,1.416,0,0,1,60.9,24.136H53.82V11.389C53.82,4.93,42.251.059,26.91.059S0,4.93,0,11.389V73.707c0,6.46,11.568,11.33,26.91,11.33s26.91-4.871,26.91-11.33V66.626H60.9a1.416,1.416,0,0,1,1.416,1.416v8.5a4.249,4.249,0,0,0,4.249,4.249h7.283a5.665,5.665,0,1,0,0-2.833H66.566A1.416,1.416,0,0,1,65.15,76.54v-8.5A4.249,4.249,0,0,0,60.9,63.793H53.82Zm25.494-4.249a2.833,2.833,0,1,1-2.833,2.833,2.833,2.833,0,0,1,2.833-2.833Zm0-35.408a2.833,2.833,0,1,1-2.833,2.833A2.833,2.833,0,0,1,79.313,4.308Zm0,72.232a2.833,2.833,0,1,1-2.833,2.833A2.833,2.833,0,0,1,79.313,76.54ZM26.91,2.892c14.19,0,24.077,4.479,24.077,8.5s-9.887,8.5-24.077,8.5S2.833,15.41,2.833,11.389,12.72,2.892,26.91,2.892ZM2.833,16.593c4.33,3.7,13.254,6.127,24.077,6.127s19.747-2.43,24.077-6.127V32.634c0,4.02-9.887,8.5-24.077,8.5s-24.077-4.478-24.077-8.5ZM26.91,82.2c-14.19,0-24.077-4.478-24.077-8.5V57.666c4.33,3.7,13.254,6.127,24.077,6.127s19.747-2.43,24.077-6.127V73.707C50.987,77.727,41.1,82.2,26.91,82.2Zm0-21.245c-14.19,0-24.077-4.478-24.077-8.5V37.838c4.33,3.7,13.254,6.127,24.077,6.127s19.747-2.43,24.077-6.127V52.462C50.987,56.482,41.1,60.96,26.91,60.96Zm0,0"/>
    <path id="Trazado_192928" data-name="Trazado 192928" d="M440,32.059h2.833v2.833H440Zm0,0" transform="translate(-362.103 -26.334)"/>
    <path id="Trazado_192929" data-name="Trazado 192929" d="M440,232.059h2.833v2.833H440Zm0,0" transform="translate(-362.103 -190.927)"/>
    <path id="Trazado_192930" data-name="Trazado 192930" d="M440,440.059h2.833v2.833H440Zm0,0" transform="translate(-362.103 -362.103)"/>
  </g>
</svg>
