<svg xmlns="http://www.w3.org/2000/svg" xmlns:xlink="http://www.w3.org/1999/xlink" width="295" height="233.175" viewBox="0 0 295 233.175">
  <defs>
    <linearGradient id="linear-gradient" x1="1.061" y1="1.13" x2="0.324" y2="0.337" gradientUnits="objectBoundingBox">
      <stop offset="0" stop-color="#dae3fe"/>
      <stop offset="1" stop-color="#e9effd"/>
    </linearGradient>
    <linearGradient id="linear-gradient-2" y1="0.5" x2="1" y2="0.5" gradientUnits="objectBoundingBox">
      <stop offset="0" stop-color="#4f52ff"/>
      <stop offset="1" stop-color="#4042e2"/>
    </linearGradient>
    <linearGradient id="linear-gradient-3" x1="0.772" y1="-6.694" x2="0.499" y2="0.843" gradientUnits="objectBoundingBox">
      <stop offset="0" stop-color="#09005d"/>
      <stop offset="1" stop-color="#1a0f91"/>
    </linearGradient>
    <linearGradient id="linear-gradient-4" y1="0.5" x2="1" y2="0.5" gradientUnits="objectBoundingBox">
      <stop offset="0" stop-color="#febbba"/>
      <stop offset="1" stop-color="#ff928e"/>
    </linearGradient>
    <linearGradient id="linear-gradient-6" x1="0.734" y1="-1.867" x2="0.424" y2="1.1" xlink:href="#linear-gradient-3"/>
    <linearGradient id="linear-gradient-7" x1="1.044" y1="0.055" x2="-0.045" y2="0.92" xlink:href="#linear-gradient-3"/>
    <linearGradient id="linear-gradient-8" x1="0" y1="0.5" x2="1" y2="0.5" xlink:href="#linear-gradient-4"/>
    <linearGradient id="linear-gradient-9" x1="0.961" y1="-0.52" x2="0.791" y2="-0.148" xlink:href="#linear-gradient-3"/>
    <linearGradient id="linear-gradient-10" x1="0.367" y1="0.85" x2="0.601" y2="0.282" xlink:href="#linear-gradient-4"/>
    <linearGradient id="linear-gradient-11" x1="0.687" y1="-2.514" x2="0.592" y2="-0.785" gradientUnits="objectBoundingBox">
      <stop offset="0" stop-color="#ff928e"/>
      <stop offset="1" stop-color="#fe7062"/>
    </linearGradient>
    <linearGradient id="linear-gradient-12" y1="0.5" x2="1" y2="0.5" gradientUnits="objectBoundingBox">
      <stop offset="0" stop-color="#e1473d"/>
      <stop offset="1" stop-color="#e9605a"/>
    </linearGradient>
    <linearGradient id="linear-gradient-13" x1="0" y1="0.5" x2="1" y2="0.5" xlink:href="#linear-gradient-4"/>
    <linearGradient id="linear-gradient-14" x1="124.866" y1="32.585" x2="123.826" y2="33.335" xlink:href="#linear-gradient-4"/>
    <linearGradient id="linear-gradient-15" x1="101.587" y1="25.344" x2="102.356" y2="26.238" xlink:href="#linear-gradient-3"/>
    <linearGradient id="linear-gradient-16" x1="512.596" y1="111.122" x2="508.318" y2="113.731" xlink:href="#linear-gradient-4"/>
    <linearGradient id="linear-gradient-17" x1="-108.332" y1="-874.356" x2="-109.561" y2="-860.023" xlink:href="#linear-gradient-3"/>
    <linearGradient id="linear-gradient-18" x1="-326.6" y1="-25.343" x2="-329.225" y2="-24.044" xlink:href="#linear-gradient-3"/>
  </defs>
  <g id="Grupo_146475" data-name="Grupo 146475" transform="translate(-390 -1427)">
    <g id="Grupo_132329" data-name="Grupo 132329">
      <g id="Grupo_132320" data-name="Grupo 132320" transform="translate(421 1427)">
        <path id="Trazado_192842" data-name="Trazado 192842" d="M1931.464,614c-23.5,54.93-85.535,78.523-134.14,74.5-13.271-1.1-39.973-3.308-60.822-23.024-40.038-37.864-33.872-117.009,4.456-163.606,4.936-6,39.1-46.2,92.343-45.666,38.98.394,66.34,22.414,69.667,25.157a107.3,107.3,0,0,1,21.826,24.764C1944.424,536.821,1946.15,579.673,1931.464,614Z" transform="translate(-1707.857 -456.198)" fill="url(#linear-gradient)"/>
        <g id="Grupo_132291" data-name="Grupo 132291" transform="translate(83.718 40.89)">
          <rect id="Rectángulo_293912" data-name="Rectángulo 293912" width="131.975" height="110.589" transform="translate(8.571 14.348)" fill="#c78b05"/>
          <g id="Grupo_132284" data-name="Grupo 132284" transform="translate(0.407)">
            <path id="Trazado_192843" data-name="Trazado 192843" d="M1958.574,507.895l-141.217.889a3.354,3.354,0,0,0-3.5,3.13v21.07A3.2,3.2,0,0,0,1817.2,536l141.379.89c2.1.013,3.863-1.409,3.863-3.176V511.071C1962.438,509.3,1960.671,507.882,1958.574,507.895Z" transform="translate(-1813.858 -507.895)" fill="#ffb30b"/>
            <g id="Grupo_132283" data-name="Grupo 132283">
              <path id="Trazado_192844" data-name="Trazado 192844" d="M1958.509,507.895l-141.315.89a3.2,3.2,0,0,0-3.337,3.014l148.451-.728C1962.308,509.3,1960.605,507.882,1958.509,507.895Z" transform="translate(-1813.857 -507.895)" fill="#ffcf66"/>
              <path id="Trazado_192845" data-name="Trazado 192845" d="M1817.194,542.629l141.315.89c2.1.013,3.8-1.409,3.8-3.176l-148.451-.729A3.2,3.2,0,0,0,1817.194,542.629Z" transform="translate(-1813.857 -514.526)" fill="#ffcf66"/>
            </g>
          </g>
          <g id="Grupo_132286" data-name="Grupo 132286" transform="translate(0 34.841)">
            <path id="Trazado_192846" data-name="Trazado 192846" d="M1958.581,552.237l-141.326-.293a3.462,3.462,0,0,0-3.631,3.2l-.271,21.748a3.272,3.272,0,0,0,3.411,3.127l141.811,1.239a3.5,3.5,0,0,0,3.757-3.174V555.438A3.537,3.537,0,0,0,1958.581,552.237Z" transform="translate(-1813.345 -551.944)" fill="#ffb30b"/>
            <g id="Grupo_132285" data-name="Grupo 132285">
              <path id="Trazado_192847" data-name="Trazado 192847" d="M1958.585,552.237l-141.426-.293a3.318,3.318,0,0,0-3.482,3.077l148.594.417A3.475,3.475,0,0,0,1958.585,552.237Z" transform="translate(-1813.413 -551.944)" fill="#ffcf66"/>
              <path id="Trazado_192848" data-name="Trazado 192848" d="M1816.757,586.607l141.749,1.24a3.441,3.441,0,0,0,3.695-3.174l-148.858-1.192A3.275,3.275,0,0,0,1816.757,586.607Z" transform="translate(-1813.343 -558.536)" fill="#ffcf66"/>
            </g>
          </g>
          <g id="Grupo_132288" data-name="Grupo 132288" transform="translate(0.407 70.346)">
            <path id="Trazado_192849" data-name="Trazado 192849" d="M1958.748,596.832H1817.555a3.536,3.536,0,0,0-3.694,3.341v22.519a3.334,3.334,0,0,0,3.558,3.124h141.33c1.966,0,3.69-1.357,3.69-3.124V600.05A3.531,3.531,0,0,0,1958.748,596.832Z" transform="translate(-1813.858 -596.832)" fill="#ffb30b"/>
            <g id="Grupo_132287" data-name="Grupo 132287">
              <path id="Trazado_192850" data-name="Trazado 192850" d="M1958.747,596.832h-141.33a3.367,3.367,0,0,0-3.561,3.1h148.451A3.367,3.367,0,0,0,1958.747,596.832Z" transform="translate(-1813.857 -596.832)" fill="#ffcf66"/>
              <path id="Trazado_192851" data-name="Trazado 192851" d="M1817.418,632.658h141.33a3.367,3.367,0,0,0,3.561-3.1H1813.857A3.367,3.367,0,0,0,1817.418,632.658Z" transform="translate(-1813.857 -603.674)" fill="#ffcf66"/>
            </g>
          </g>
          <g id="Grupo_132290" data-name="Grupo 132290" transform="translate(0.407 105.574)">
            <path id="Trazado_192852" data-name="Trazado 192852" d="M1958.9,641.924l-141.272-.553a3.548,3.548,0,0,0-3.765,3.309V667.2a3.432,3.432,0,0,0,3.623,3.2l141.336.054a3.344,3.344,0,0,0,3.507-3.139l.062-22.234A3.34,3.34,0,0,0,1958.9,641.924Z" transform="translate(-1813.858 -641.37)" fill="#ffb30b"/>
            <g id="Grupo_132289" data-name="Grupo 132289">
              <path id="Trazado_192853" data-name="Trazado 192853" d="M1958.9,641.924l-141.414-.554a3.419,3.419,0,0,0-3.626,3.188l148.531.523A3.341,3.341,0,0,0,1958.9,641.924Z" transform="translate(-1813.857 -641.37)" fill="#ffcf66"/>
              <path id="Trazado_192854" data-name="Trazado 192854" d="M1817.482,677.225l141.337.054a3.344,3.344,0,0,0,3.507-3.139l-148.469-.115A3.433,3.433,0,0,0,1817.482,677.225Z" transform="translate(-1813.857 -648.196)" fill="#ffcf66"/>
            </g>
          </g>
        </g>
        <g id="Grupo_132302" data-name="Grupo 132302" transform="translate(119.842 7.289)">
          <g id="Grupo_132296" data-name="Grupo 132296" transform="translate(36.165)">
            <g id="Grupo_132292" data-name="Grupo 132292" opacity="0.3">
              <path id="Trazado_192855" data-name="Trazado 192855" d="M1905.527,501.933a.954.954,0,0,1-.788-1c.072-1.075.191-2.163.356-3.232a.954.954,0,0,1,1.087-.8l.018,0a.953.953,0,0,1,.78,1.084c-.156,1.016-.27,2.049-.338,3.071a.954.954,0,0,1-1.015.887C1905.594,501.942,1905.559,501.938,1905.527,501.933Zm1.476-8.175a.914.914,0,0,1-.111-.026.953.953,0,0,1-.642-1.186c.308-1.037.664-2.071,1.057-3.073a.953.953,0,1,1,1.775.7c-.373.952-.712,1.935-1,2.92A.953.953,0,0,1,1907,493.758Zm3.238-7.646a.97.97,0,0,1-.305-.109.954.954,0,0,1-.362-1.3c.53-.94,1.107-1.869,1.717-2.76a.953.953,0,1,1,1.574,1.076c-.578.846-1.127,1.728-1.63,2.621A.954.954,0,0,1,1910.241,486.112Zm4.868-6.732a.954.954,0,0,1-.541-1.582c.728-.8,1.5-1.575,2.291-2.308a.954.954,0,1,1,1.295,1.4c-.752.7-1.484,1.433-2.176,2.193A.954.954,0,0,1,1915.109,479.38Zm6.247-5.477a.954.954,0,0,1-.382-1.722c.884-.616,1.807-1.2,2.744-1.743a.954.954,0,1,1,.954,1.652c-.891.513-1.768,1.071-2.609,1.656A.949.949,0,0,1,1921.357,473.9Zm7.3-3.958a.954.954,0,0,1-.2-1.824c1-.4,2.031-.773,3.062-1.092a.954.954,0,0,1,.564,1.822c-.98.3-1.958.652-2.909,1.038A.954.954,0,0,1,1928.659,469.945Zm34.816,3.714a.937.937,0,0,1-.373-.151c-.847-.577-1.731-1.124-2.626-1.626a.954.954,0,0,1,.933-1.663c.943.53,1.874,1.106,2.765,1.713a.953.953,0,0,1-.7,1.727Zm-26.823-5.954a.954.954,0,0,1,.01-1.882c1.066-.172,2.151-.3,3.227-.382a.953.953,0,1,1,.143,1.9c-1.023.077-2.053.2-3.065.363A.961.961,0,0,1,1936.652,467.705Zm19.473,2.084a.946.946,0,0,1-.185-.051c-.955-.372-1.939-.708-2.923-1a.954.954,0,0,1,.539-1.83c1.037.306,2.072.661,3.077,1.052a.953.953,0,0,1-.508,1.828Zm-11.18-2.483a.954.954,0,0,1,.226-1.891c1.076.07,2.163.188,3.232.35l.02,0a.953.953,0,0,1-.305,1.882c-1.015-.153-2.048-.265-3.071-.331C1945.013,467.316,1944.979,467.312,1944.945,467.307Z" transform="translate(-1904.737 -465.413)" fill="#91b3fa"/>
              <path id="Trazado_192856" data-name="Trazado 192856" d="M1985.035,480.439a.951.951,0,0,1-.506-.26c-.35-.346-.713-.689-1.078-1.022a.953.953,0,1,1,1.283-1.41c.385.35.766.711,1.135,1.075a.953.953,0,0,1-.833,1.617Z" transform="translate(-1921.126 -467.939)" fill="#91b3fa"/>
            </g>
            <g id="Grupo_132293" data-name="Grupo 132293" transform="translate(9.797 35.96)" opacity="0.3">
              <path id="Trazado_192857" data-name="Trazado 192857" d="M1999.324,514.295a.954.954,0,0,1-.79-.951c.006-.492,0-.992-.012-1.486a.954.954,0,1,1,1.906-.055c.015.52.019,1.046.013,1.565a.953.953,0,0,1-.965.941A.968.968,0,0,1,1999.324,514.295Z" transform="translate(-1934.139 -510.876)" fill="#91b3fa"/>
              <path id="Trazado_192858" data-name="Trazado 192858" d="M1940.18,552.2q-.648-.112-1.3-.247a.954.954,0,0,1,.389-1.868c1,.207,2,.374,3,.5a.954.954,0,1,1-.233,1.893C1941.422,552.4,1940.8,552.31,1940.18,552.2Zm-6.145-1.606a.9.9,0,0,1-.157-.041c-1-.355-2-.757-2.969-1.194a.954.954,0,0,1,.786-1.738c.918.415,1.868.8,2.82,1.134a.953.953,0,0,1-.48,1.838Zm13.013,2.145a.954.954,0,0,1,.149-1.893c1.008-.015,2.027-.074,3.033-.174a.953.953,0,1,1,.189,1.9c-1.058.106-2.133.168-3.194.183A1.017,1.017,0,0,1,1947.048,552.743Zm-20.372-5.707a.965.965,0,0,1-.346-.134c-.9-.566-1.785-1.178-2.633-1.818a.953.953,0,0,1,1.149-1.522c.805.607,1.647,1.188,2.5,1.726a.954.954,0,0,1-.671,1.747Zm28.477,4.681a.954.954,0,0,1-.062-1.867c.979-.236,1.962-.517,2.92-.836a.953.953,0,0,1,.6,1.809c-1.01.336-2.044.632-3.074.881A.951.951,0,0,1,1955.154,551.717Zm7.683-2.779a.954.954,0,0,1-.258-1.8c.905-.446,1.8-.935,2.669-1.454a.953.953,0,1,1,.981,1.635c-.91.546-1.855,1.061-2.808,1.53A.955.955,0,0,1,1962.837,548.938Zm6.895-4.388a.954.954,0,0,1-.434-1.683c.789-.633,1.558-1.306,2.289-2a.953.953,0,0,1,1.314,1.382c-.769.731-1.579,1.44-2.408,2.106A.953.953,0,0,1,1969.732,544.55Zm5.773-5.787a.937.937,0,0,1-.431-.195.952.952,0,0,1-.15-1.339c.63-.79,1.234-1.615,1.794-2.454a.954.954,0,0,1,1.586,1.06c-.59.883-1.226,1.752-1.89,2.583A.952.952,0,0,1,1975.5,538.762Zm4.365-6.915a.989.989,0,0,1-.255-.082.953.953,0,0,1-.441-1.274c.44-.906.846-1.844,1.209-2.787a.954.954,0,0,1,1.78.685c-.382.992-.81,1.979-1.273,2.934A.954.954,0,0,1,1979.869,531.847Zm2.736-7.7-.059-.012a.953.953,0,0,1-.708-1.147c.171-.724.321-1.461.448-2.192q.069-.4.129-.793a.953.953,0,0,1,1.085-.8.943.943,0,0,1,.8,1.084q-.062.418-.135.835c-.133.77-.292,1.545-.471,2.306A.953.953,0,0,1,1982.605,524.146Z" transform="translate(-1918.419 -512.614)" fill="#91b3fa"/>
              <path id="Trazado_192859" data-name="Trazado 192859" d="M1918.971,547.141a.949.949,0,0,1-.51-.263c-.365-.365-.731-.744-1.084-1.127a.953.953,0,0,1,1.4-1.294c.336.364.682.725,1.03,1.07a.953.953,0,0,1-.836,1.614Z" transform="translate(-1917.124 -517.832)" fill="#91b3fa"/>
            </g>
            <g id="Grupo_132295" data-name="Grupo 132295" transform="translate(9.679 9.324)">
              <path id="Trazado_192860" data-name="Trazado 192860" d="M1922.092,522.468a.446.446,0,0,0,.469.219l5.335-.978a23.609,23.609,0,0,0,6.023,4.724l.324,5.411a.445.445,0,0,0,.325.4l6.267,1.749a.445.445,0,0,0,.487-.176l3.079-4.46a23.632,23.632,0,0,0,7.6-.924l4.059,3.6a.445.445,0,0,0,.514.055l5.668-3.195a.445.445,0,0,0,.219-.469l-.978-5.335a23.624,23.624,0,0,0,4.725-6.022l5.41-.325a.445.445,0,0,0,.4-.325l1.748-6.266a.446.446,0,0,0-.175-.487l-4.461-3.079a23.627,23.627,0,0,0-.923-7.6l3.6-4.058a.446.446,0,0,0,.055-.514l-3.195-5.667a.445.445,0,0,0-.468-.22l-5.336.978a23.622,23.622,0,0,0-6.023-4.724l-.325-5.411a.445.445,0,0,0-.324-.4l-6.267-1.749a.445.445,0,0,0-.486.176l-3.079,4.46a23.64,23.64,0,0,0-7.6.924l-4.057-3.6a.446.446,0,0,0-.515-.055l-5.667,3.195a.446.446,0,0,0-.22.469l.978,5.335a23.619,23.619,0,0,0-4.724,6.022l-5.411.325a.445.445,0,0,0-.4.325l-1.749,6.266a.448.448,0,0,0,.176.487l4.461,3.079a23.6,23.6,0,0,0,.923,7.6l-3.6,4.058a.445.445,0,0,0-.055.514Z" transform="translate(-1916.974 -477.202)" fill="#91b3fa"/>
              <g id="Grupo_132294" data-name="Grupo 132294" transform="translate(21.865 21.866)">
                <path id="Trazado_192861" data-name="Trazado 192861" d="M1950.04,517.83a6.54,6.54,0,1,1,.956.094A6.549,6.549,0,0,1,1950.04,517.83Zm1.983-11.383a5.112,5.112,0,0,0-.741-.073,5,5,0,1,0,.741.073Z" transform="translate(-1944.618 -504.846)" fill="#bdd0fb"/>
              </g>
              <path id="Trazado_192862" data-name="Trazado 192862" d="M1946.071,524.618q-.809-.14-1.612-.363h0q-.253-.07-.5-.149a16.249,16.249,0,0,1-2.388-.964l-.032-.016-.089-.045-.172-.089a.382.382,0,0,1-.2-.4.4.4,0,0,1,.039-.113.382.382,0,0,1,.515-.16,15.335,15.335,0,0,0,17.393-2.167,15.228,15.228,0,0,0,4.51-7.267,15.392,15.392,0,0,0,.346-1.538A15.318,15.318,0,1,0,1934,512.809a.381.381,0,0,1-.736.2,16.082,16.082,0,1,1,31.365-1.536,16.228,16.228,0,0,1-.364,1.614,16.081,16.081,0,0,1-18.2,11.53Z" transform="translate(-1920.261 -480.439)" fill="#bdd0fb"/>
            </g>
          </g>
          <g id="Grupo_132301" data-name="Grupo 132301" transform="translate(0 26.882)">
            <g id="Grupo_132297" data-name="Grupo 132297" opacity="0.3">
              <path id="Trazado_192863" data-name="Trazado 192863" d="M1859.626,535.183a.588.588,0,0,1-.484-.513c-.057-.5-.1-1-.127-1.5a.589.589,0,0,1,1.176-.064c.026.476.067.957.121,1.432a.588.588,0,0,1-.518.652A.566.566,0,0,1,1859.626,535.183Z" transform="translate(-1859.014 -506.329)" fill="#91b3fa"/>
              <path id="Trazado_192864" data-name="Trazado 192864" d="M1859.531,523.725a.588.588,0,0,1-.486-.621,25.45,25.45,0,0,1,.311-2.572q.047-.268.1-.536a.609.609,0,0,1,.69-.466.59.59,0,0,1,.466.691q-.05.256-.095.513a24.276,24.276,0,0,0-.3,2.453.588.588,0,0,1-.628.547Zm1.169-6a.6.6,0,0,1-.082-.021.589.589,0,0,1-.379-.742,25.787,25.787,0,0,1,1.149-2.916.589.589,0,0,1,1.068.5,24.294,24.294,0,0,0-1.1,2.782A.588.588,0,0,1,1860.7,517.723Zm2.589-5.54a.589.589,0,0,1-.4-.894,25.378,25.378,0,0,1,1.833-2.546.589.589,0,1,1,.911.746,24.261,24.261,0,0,0-1.746,2.428A.591.591,0,0,1,1863.289,512.184Zm3.873-4.733a.588.588,0,0,1-.305-1.006,25.475,25.475,0,0,1,2.4-2.02.589.589,0,1,1,.7.947,24.222,24.222,0,0,0-2.287,1.926A.587.587,0,0,1,1867.161,507.45Zm4.91-3.644a.589.589,0,0,1-.19-1.092,25.81,25.81,0,0,1,2.816-1.376.589.589,0,0,1,.451,1.088,24.546,24.546,0,0,0-2.687,1.312A.579.579,0,0,1,1872.072,503.806Zm5.646-2.341a.589.589,0,0,1-.057-1.148,25.4,25.4,0,0,1,3.066-.648.589.589,0,0,1,.171,1.166,24.162,24.162,0,0,0-2.923.617A.591.591,0,0,1,1877.717,501.465Zm6.045-.89a.589.589,0,0,1,.088-1.169,25.461,25.461,0,0,1,3.132.125.589.589,0,1,1-.119,1.172,24.215,24.215,0,0,0-2.987-.119A.589.589,0,0,1,1883.763,500.575Zm9.023,1.484a.508.508,0,0,1-.1-.027,24.61,24.61,0,0,0-2.49-.751c-.128-.032-.254-.062-.379-.09a.588.588,0,0,1-.444-.7.582.582,0,0,1,.7-.444c.134.031.268.062.4.1a25.654,25.654,0,0,1,2.607.787.589.589,0,0,1-.3,1.134Z" transform="translate(-1859.02 -499.4)" fill="#91b3fa"/>
            </g>
            <g id="Grupo_132298" data-name="Grupo 132298" transform="translate(6.574 39.62)" opacity="0.3">
              <path id="Trazado_192865" data-name="Trazado 192865" d="M1883.048,560.433a.589.589,0,0,1,.193-1.162,24.459,24.459,0,0,0,2.926.287.589.589,0,1,1-.044,1.177,25.614,25.614,0,0,1-3.068-.3Zm-2.942-.653-.063-.014a25.808,25.808,0,0,1-2.909-1.023.589.589,0,0,1,.457-1.086,24.56,24.56,0,0,0,2.776.977.589.589,0,0,1-.262,1.147Zm8.951.874a.589.589,0,0,1,.05-1.167,24.475,24.475,0,0,0,2.911-.43.589.589,0,0,1,.241,1.153,25.432,25.432,0,0,1-3.051.449A.557.557,0,0,1,1889.057,560.655Zm-14.495-3.211a.571.571,0,0,1-.193-.07,25.2,25.2,0,0,1-2.577-1.7.589.589,0,1,1,.705-.943,24.312,24.312,0,0,0,2.458,1.617.589.589,0,0,1-.393,1.091Zm20.378,1.974a.589.589,0,0,1-.09-1.138,24.163,24.163,0,0,0,2.72-1.116.589.589,0,1,1,.513,1.061,25.528,25.528,0,0,1-2.852,1.171A.592.592,0,0,1,1894.941,559.418Zm5.416-2.613a.589.589,0,0,1-.219-1.076,24.567,24.567,0,0,0,2.376-1.735.589.589,0,1,1,.751.907,25.837,25.837,0,0,1-2.49,1.818A.584.584,0,0,1,1900.357,556.8Zm4.634-3.835a.589.589,0,0,1-.327-.986,24.254,24.254,0,0,0,1.891-2.253.589.589,0,1,1,.947.7,25.369,25.369,0,0,1-1.982,2.364A.588.588,0,0,1,1904.991,552.969Z" transform="translate(-1868.21 -549.491)" fill="#91b3fa"/>
              <path id="Trazado_192866" data-name="Trazado 192866" d="M1868.843,554.374a.585.585,0,0,1-.307-.157c-.364-.349-.718-.711-1.054-1.075a.589.589,0,0,1,.865-.8c.32.347.659.692,1.005,1.026a.589.589,0,0,1-.509,1Z" transform="translate(-1867.325 -550.048)" fill="#91b3fa"/>
            </g>
            <g id="Grupo_132300" data-name="Grupo 132300" transform="translate(6.446 6.243)">
              <path id="Trazado_192867" data-name="Trazado 192867" d="M1870.588,537.583a.3.3,0,0,0,.313.147l3.57-.654a15.825,15.825,0,0,0,4.03,3.161l.217,3.62a.3.3,0,0,0,.218.27l4.193,1.17a.3.3,0,0,0,.326-.118l2.06-2.984a15.828,15.828,0,0,0,5.085-.619l2.715,2.408a.3.3,0,0,0,.344.036l3.793-2.137a.3.3,0,0,0,.146-.314l-.653-3.57a15.826,15.826,0,0,0,3.162-4.031l3.62-.217a.3.3,0,0,0,.27-.218l1.17-4.194a.3.3,0,0,0-.118-.325l-2.985-2.06a15.8,15.8,0,0,0-.617-5.085l2.408-2.715a.3.3,0,0,0,.036-.344l-2.138-3.793a.3.3,0,0,0-.313-.147l-3.57.654a15.825,15.825,0,0,0-4.031-3.161l-.217-3.621a.3.3,0,0,0-.218-.269l-4.194-1.171a.3.3,0,0,0-.326.118l-2.06,2.985a15.817,15.817,0,0,0-5.084.618l-2.715-2.408a.3.3,0,0,0-.345-.037l-3.793,2.138a.3.3,0,0,0-.146.313l.654,3.57a15.787,15.787,0,0,0-3.161,4.03l-3.621.217a.3.3,0,0,0-.269.218l-1.171,4.193a.3.3,0,0,0,.118.326l2.985,2.06a15.8,15.8,0,0,0,.618,5.085l-2.408,2.716a.3.3,0,0,0-.036.344Z" transform="translate(-1867.163 -507.293)" fill="#91b3fa"/>
              <g id="Grupo_132299" data-name="Grupo 132299" transform="translate(14.553 14.553)">
                <path id="Trazado_192868" data-name="Trazado 192868" d="M1889.249,534.536a4.472,4.472,0,1,1,.657.064A4.508,4.508,0,0,1,1889.249,534.536Zm1.328-7.618a3.277,3.277,0,1,0-.641,6.5h0a3.277,3.277,0,0,0,.641-6.5Z" transform="translate(-1885.562 -525.692)" fill="#bdd0fb"/>
              </g>
              <path id="Trazado_192869" data-name="Trazado 192869" d="M1886.477,539.259q-.55-.1-1.1-.248a11.135,11.135,0,0,1-2.1-.824l-.09-.047a.589.589,0,0,1-.306-.621.6.6,0,0,1,.059-.174.59.59,0,0,1,.8-.247,9.922,9.922,0,0,0,1.963.778h0l.112.03a9.825,9.825,0,0,0,4.855.069,9.958,9.958,0,0,0,2.489-.968l.019-.01.059-.033a9.915,9.915,0,1,0-14.435-6.022.583.583,0,0,1,.012.255.589.589,0,0,1-1.148.055,11.06,11.06,0,0,1-.231-4.81q.1-.554.248-1.1a11.095,11.095,0,0,1,21.623,4.85c-.065.372-.148.744-.251,1.113A11.11,11.11,0,0,1,1886.477,539.259Z" transform="translate(-1869.274 -509.369)" fill="#bdd0fb"/>
            </g>
          </g>
        </g>
        <g id="Grupo_132306" data-name="Grupo 132306" transform="translate(0.238 92.589)">
          <path id="Trazado_192870" data-name="Trazado 192870" d="M1724.776,681.09a3.181,3.181,0,0,0,3.173,3.17h171.575a3.182,3.182,0,0,0,3.173-3.17l1.427-98.6a5.526,5.526,0,0,0-5.818-4.891l-167.683-4.338a8,8,0,0,0-8.2,8.178Z" transform="translate(-1710.856 -573.258)" fill="#084a93"/>
          <path id="Trazado_192871" data-name="Trazado 192871" d="M1728.727,679.042a3.01,3.01,0,0,0,3,3H1896.2a3.01,3.01,0,0,0,3-3l1.347-89.509a7.387,7.387,0,0,0-7.744-7.208L1732.1,578.013a5.62,5.62,0,0,0-5.765,5.75Z" transform="translate(-1711.676 -574.251)" fill="#00defc"/>
          <g id="Grupo_132303" data-name="Grupo 132303" transform="translate(127.838 8.403)">
            <path id="Trazado_192872" data-name="Trazado 192872" d="M1942.531,649.831h-.006a.44.44,0,0,1-.434-.447l.106-7.259a.44.44,0,0,1,.44-.433h0a.439.439,0,0,1,.435.446l-.106,7.259A.44.44,0,0,1,1942.531,649.831Z" transform="translate(-1884.615 -595.966)" fill="#7d97f4"/>
            <path id="Trazado_192873" data-name="Trazado 192873" d="M1927.6,619.958h-.006a.44.44,0,0,1-.433-.446l.408-27.8a5.221,5.221,0,0,0-1.49-3.91,7.344,7.344,0,0,0-4.861-1.659l-51.366-1.378a.438.438,0,0,1-.428-.451.421.421,0,0,1,.452-.428l51.335,1.378a8.076,8.076,0,0,1,5.477,1.9,6.072,6.072,0,0,1,1.76,4.55l-.408,27.811A.44.44,0,0,1,1927.6,619.958Z" transform="translate(-1869.425 -583.881)" fill="#7d97f4"/>
          </g>
          <rect id="Rectángulo_293913" data-name="Rectángulo 293913" width="202.28" height="8.663" rx="0.597" transform="translate(202.28 119.187) rotate(180)" fill="#063263"/>
          <g id="Grupo_132304" data-name="Grupo 132304" transform="translate(30.395 10.332)">
            <rect id="Rectángulo_293914" data-name="Rectángulo 293914" width="3.638" height="53.112" transform="translate(0.252 27.953) rotate(-89.998)" fill="#7d97f4"/>
            <rect id="Rectángulo_293915" data-name="Rectángulo 293915" width="3.638" height="53.112" transform="translate(0.001 3.638) rotate(-89.998)" fill="#7d97f4"/>
            <rect id="Rectángulo_293916" data-name="Rectángulo 293916" width="3.638" height="38.298" transform="translate(14.976 9.863) rotate(-89.998)" fill="#7d97f4"/>
            <rect id="Rectángulo_293917" data-name="Rectángulo 293917" width="3.638" height="5.512" transform="translate(6.869 9.572) rotate(-89.998)" fill="#7d97f4"/>
            <rect id="Rectángulo_293918" data-name="Rectángulo 293918" width="3.638" height="38.298" transform="translate(14.937 15.944) rotate(-89.998)" fill="#7d97f4"/>
            <rect id="Rectángulo_293919" data-name="Rectángulo 293919" width="3.638" height="5.512" transform="translate(6.842 15.653) rotate(-89.998)" fill="#7d97f4"/>
            <rect id="Rectángulo_293920" data-name="Rectángulo 293920" width="3.638" height="38.298" transform="translate(14.797 22.015) rotate(-89.998)" fill="#7d97f4"/>
            <rect id="Rectángulo_293921" data-name="Rectángulo 293921" width="3.638" height="5.512" transform="translate(6.514 21.725) rotate(-89.998)" fill="#7d97f4"/>
            <rect id="Rectángulo_293922" data-name="Rectángulo 293922" width="3.638" height="53.112" transform="translate(0 53.268) rotate(-89.998)" fill="#7d97f4"/>
            <rect id="Rectángulo_293923" data-name="Rectángulo 293923" width="3.638" height="38.298" transform="translate(14.724 35.178) rotate(-89.998)" fill="#7d97f4"/>
            <rect id="Rectángulo_293924" data-name="Rectángulo 293924" width="3.638" height="5.512" transform="translate(6.618 34.888) rotate(-89.998)" fill="#7d97f4"/>
            <rect id="Rectángulo_293925" data-name="Rectángulo 293925" width="3.638" height="38.298" transform="translate(14.685 41.26) rotate(-89.998)" fill="#7d97f4"/>
            <rect id="Rectángulo_293926" data-name="Rectángulo 293926" width="3.638" height="5.512" transform="translate(6.59 40.969) rotate(-89.998)" fill="#7d97f4"/>
            <rect id="Rectángulo_293927" data-name="Rectángulo 293927" width="3.638" height="38.298" transform="translate(14.545 47.331) rotate(-89.998)" fill="#7d97f4"/>
            <rect id="Rectángulo_293928" data-name="Rectángulo 293928" width="3.638" height="5.512" transform="translate(6.263 47.04) rotate(-89.998)" fill="#7d97f4"/>
            <rect id="Rectángulo_293929" data-name="Rectángulo 293929" width="3.638" height="53.112" transform="translate(0 78.551) rotate(-89.998)" fill="#7d97f4"/>
            <rect id="Rectángulo_293930" data-name="Rectángulo 293930" width="3.638" height="38.298" transform="translate(14.724 60.461) rotate(-89.998)" fill="#7d97f4"/>
            <rect id="Rectángulo_293931" data-name="Rectángulo 293931" width="3.638" height="5.512" transform="translate(6.618 60.171) rotate(-89.998)" fill="#7d97f4"/>
            <rect id="Rectángulo_293932" data-name="Rectángulo 293932" width="3.638" height="38.298" transform="translate(14.685 66.542) rotate(-89.998)" fill="#7d97f4"/>
            <rect id="Rectángulo_293933" data-name="Rectángulo 293933" width="3.638" height="5.512" transform="translate(6.59 66.252) rotate(-89.998)" fill="#7d97f4"/>
            <rect id="Rectángulo_293934" data-name="Rectángulo 293934" width="3.638" height="38.298" transform="translate(14.545 72.614) rotate(-89.998)" fill="#7d97f4"/>
            <rect id="Rectángulo_293935" data-name="Rectángulo 293935" width="3.638" height="5.512" transform="translate(6.263 72.323) rotate(-89.998)" fill="#7d97f4"/>
            <rect id="Rectángulo_293936" data-name="Rectángulo 293936" width="3.638" height="38.298" transform="translate(14.976 85.147) rotate(-89.998)" fill="#7d97f4"/>
            <rect id="Rectángulo_293937" data-name="Rectángulo 293937" width="3.638" height="5.512" transform="translate(6.869 84.856) rotate(-89.998)" fill="#7d97f4"/>
            <rect id="Rectángulo_293938" data-name="Rectángulo 293938" width="3.638" height="38.298" transform="translate(14.673 91.228) rotate(-89.998)" fill="#7d97f4"/>
            <rect id="Rectángulo_293939" data-name="Rectángulo 293939" width="3.638" height="5.512" transform="translate(6.577 90.937) rotate(-89.998)" fill="#7d97f4"/>
          </g>
          <g id="Grupo_132305" data-name="Grupo 132305" transform="translate(93.631 12.153)">
            <rect id="Rectángulo_293940" data-name="Rectángulo 293940" width="3.688" height="38.23" transform="translate(30.489 71.465) rotate(-89.997)" fill="#7d97f4"/>
            <rect id="Rectángulo_293941" data-name="Rectángulo 293941" width="3.688" height="62.027" transform="translate(14.937 65.303) rotate(-89.997)" fill="#7d97f4"/>
            <rect id="Rectángulo_293942" data-name="Rectángulo 293942" width="3.688" height="49.72" transform="translate(34.774 59.147) rotate(-89.997)" fill="#7d97f4"/>
            <rect id="Rectángulo_293943" data-name="Rectángulo 293943" width="3.688" height="28.352" transform="translate(34.774 52.988) rotate(-89.997)" fill="#7d97f4"/>
            <rect id="Rectángulo_293944" data-name="Rectángulo 293944" width="3.688" height="49.659" transform="translate(35.433 46.819) rotate(-89.997)" fill="#7d97f4"/>
            <rect id="Rectángulo_293945" data-name="Rectángulo 293945" width="3.688" height="41.962" transform="translate(30.988 40.664) rotate(-89.998)" fill="#7d97f4"/>
            <rect id="Rectángulo_293946" data-name="Rectángulo 293946" width="3.688" height="44.803" transform="translate(14.938 34.493) rotate(-89.997)" fill="#7d97f4"/>
            <rect id="Rectángulo_293947" data-name="Rectángulo 293947" width="3.688" height="51.116" transform="translate(34.938 28.335) rotate(-89.997)" fill="#7d97f4"/>
            <rect id="Rectángulo_293948" data-name="Rectángulo 293948" width="3.688" height="51.75" transform="translate(34.938 22.173) rotate(-89.997)" fill="#7d97f4"/>
            <rect id="Rectángulo_293949" data-name="Rectángulo 293949" width="3.688" height="50.98" transform="translate(35.433 16.011) rotate(-89.997)" fill="#7d97f4"/>
            <rect id="Rectángulo_293950" data-name="Rectángulo 293950" width="3.688" height="41.764" transform="translate(26.204 9.85) rotate(-89.997)" fill="#7d97f4"/>
            <rect id="Rectángulo_293951" data-name="Rectángulo 293951" width="3.688" height="10.83" transform="translate(0 28.18) rotate(-89.997)" fill="#7d97f4"/>
            <rect id="Rectángulo_293952" data-name="Rectángulo 293952" width="3.688" height="10.83" transform="translate(0 34.518) rotate(-89.997)" fill="#7d97f4"/>
            <rect id="Rectángulo_293953" data-name="Rectángulo 293953" width="3.688" height="10.83" transform="translate(0 40.597) rotate(-89.997)" fill="#7d97f4"/>
            <rect id="Rectángulo_293954" data-name="Rectángulo 293954" width="3.688" height="10.83" transform="translate(0 46.78) rotate(-89.997)" fill="#7d97f4"/>
            <rect id="Rectángulo_293955" data-name="Rectángulo 293955" width="3.688" height="10.83" transform="translate(0 53.118) rotate(-89.997)" fill="#7d97f4"/>
            <rect id="Rectángulo_293956" data-name="Rectángulo 293956" width="3.688" height="10.83" transform="translate(0 59.197) rotate(-89.997)" fill="#7d97f4"/>
            <rect id="Rectángulo_293957" data-name="Rectángulo 293957" width="3.688" height="10.83" transform="translate(0.549 65.256) rotate(-89.997)" fill="#7d97f4"/>
            <rect id="Rectángulo_293958" data-name="Rectángulo 293958" width="3.688" height="10.83" transform="translate(0.549 71.594) rotate(-89.997)" fill="#7d97f4"/>
            <rect id="Rectángulo_293959" data-name="Rectángulo 293959" width="3.688" height="10.83" transform="translate(0.549 77.673) rotate(-89.997)" fill="#7d97f4"/>
            <rect id="Rectángulo_293960" data-name="Rectángulo 293960" width="3.688" height="10.83" transform="translate(0.549 83.874) rotate(-89.997)" fill="#7d97f4"/>
            <rect id="Rectángulo_293961" data-name="Rectángulo 293961" width="3.688" height="10.83" transform="translate(0.549 90.211) rotate(-89.997)" fill="#7d97f4"/>
            <rect id="Rectángulo_293962" data-name="Rectángulo 293962" width="3.688" height="10.83" transform="translate(0 22.172) rotate(-89.997)" fill="#7d97f4"/>
            <rect id="Rectángulo_293963" data-name="Rectángulo 293963" width="3.688" height="10.83" transform="translate(0 16.015) rotate(-89.997)" fill="#7d97f4"/>
            <rect id="Rectángulo_293964" data-name="Rectángulo 293964" width="3.688" height="10.83" transform="translate(0 9.849) rotate(-89.997)" fill="#7d97f4"/>
            <rect id="Rectángulo_293965" data-name="Rectángulo 293965" width="3.688" height="10.83" transform="translate(0 3.688) rotate(-89.997)" fill="#7d97f4"/>
            <path id="Trazado_192874" data-name="Trazado 192874" d="M1845.067,588.622v3.687l51.934,0a3.713,3.713,0,0,0-3.737-3.687Z" transform="translate(-1830.126 -588.622)" fill="#7d97f4"/>
            <rect id="Rectángulo_293966" data-name="Rectángulo 293966" width="3.688" height="52.371" transform="translate(35.268 90.453) rotate(-89.997)" fill="#7d97f4"/>
            <rect id="Rectángulo_293967" data-name="Rectángulo 293967" width="3.688" height="51.419" transform="translate(35.268 84.104) rotate(-89.997)" fill="#7d97f4"/>
            <path id="Trazado_192875" data-name="Trazado 192875" d="M1870.768,682.627v3.687l32.7,0c0-2.037-1.053-3.688-2.353-3.688Z" transform="translate(-1835.499 -608.273)" fill="#7d97f4"/>
          </g>
          <rect id="Rectángulo_293968" data-name="Rectángulo 293968" width="1.059" height="95.457" rx="0.529" transform="translate(88.166 9.626)" fill="#7d97f4"/>
        </g>
        <g id="Grupo_132308" data-name="Grupo 132308" transform="translate(77.127 57.316)">
          <path id="Trazado_192876" data-name="Trazado 192876" d="M1913.528,648.286l65.054,69.411a6.845,6.845,0,0,1-.716,10.023l-.512.41a6.363,6.363,0,0,1-8.969-1.021l-59.3-75.037Z" transform="translate(-1826.767 -553.668)" fill="#063263"/>
          <ellipse id="Elipse_4923" data-name="Elipse 4923" cx="43.333" cy="44.129" rx="43.333" ry="44.129" transform="translate(0 77.318) rotate(-63.142)" fill="#fff" opacity="0.5"/>
          <path id="Trazado_192877" data-name="Trazado 192877" d="M1822.795,567.766c-12.031,23.758-2.169,52.949,22.025,65.2s53.56,2.924,65.59-20.834,2.17-52.949-22.024-65.2S1834.825,544.007,1822.795,567.766Zm6.435,3.259c10.263-20.268,35.316-28.225,55.956-17.774s29.053,35.355,18.789,55.623-35.315,28.225-55.955,17.774S1818.966,591.292,1829.229,571.024Z" transform="translate(-1807.656 -531.353)" fill="#084a93"/>
          <g id="Grupo_132307" data-name="Grupo 132307" transform="translate(54.028 13.388)">
            <path id="Trazado_192878" data-name="Trazado 192878" d="M1916.092,616.43a.126.126,0,0,1-.034-.175c.639-.943,1.25-1.924,1.816-2.916a.126.126,0,1,1,.218.125c-.569,1-1.183,1.985-1.826,2.933a.126.126,0,0,1-.121.054A.118.118,0,0,1,1916.092,616.43Zm5.825-12.164a.125.125,0,0,1-.084-.157,43.972,43.972,0,0,0,1.714-9.189,44.915,44.915,0,0,0-5.621-25.43,46.335,46.335,0,0,0-44.471-23.462.126.126,0,0,1-.023-.251,46.587,46.587,0,0,1,44.714,23.59,45.17,45.17,0,0,1,5.653,25.572,44.183,44.183,0,0,1-1.725,9.242.126.126,0,0,1-.136.089Z" transform="translate(-1873.317 -545.588)" fill="#bdd0fb"/>
          </g>
          <path id="Trazado_192879" data-name="Trazado 192879" d="M1987.762,743.668c2.8.362,4.741-.38,5.768-2.208a5.112,5.112,0,0,0-.753-5.9l-7.685-8.584a.126.126,0,0,0-.187.168l7.685,8.583a4.864,4.864,0,0,1,.721,5.611c-.983,1.747-2.858,2.446-5.6,2.069h0a.126.126,0,0,0-.033.25Z" transform="translate(-1842.609 -570.108)" fill="#bdd0fb"/>
          <path id="Trazado_192880" data-name="Trazado 192880" d="M1981.725,723.546a.125.125,0,0,0,.11-.208l-1-1.113a.126.126,0,0,0-.187.168l1,1.113A.126.126,0,0,0,1981.725,723.546Z" transform="translate(-1841.719 -569.115)" fill="#bdd0fb"/>
        </g>
        <g id="Grupo_132309" data-name="Grupo 132309" transform="translate(3.821 22.335)">
          <path id="Trazado_192881" data-name="Trazado 192881" d="M1792.1,510.489a.641.641,0,0,1-.622-.632c-.063-3.542-1.155-21.127-16.451-24.8-17.029-4.092-24.823,13.442-24.823,13.442s-21.07-8.183-25.111,13.734c-13.212,3.211-16.644,20.679-8.051,29.214a7.339,7.339,0,0,0,5.108,2.14l82.739.755a5.455,5.455,0,0,0,5.272-3.945C1812.748,531.565,1816.136,511.059,1792.1,510.489Z" transform="translate(-1712.331 -484.436)" fill="#91b3fa"/>
          <path id="Trazado_192882" data-name="Trazado 192882" d="M1790.851,511.419a.64.64,0,0,1-.622-.631c-.068-3.4-1.149-19.7-15.555-23.121-16.1-3.82-23.472,12.553-23.472,12.553s-19.924-7.641-23.745,12.825c-12.373,2.969-15.675,19-7.844,27.05a7.344,7.344,0,0,0,5.2,2.231l77.888.7a5.457,5.457,0,0,0,5.276-3.959C1810.406,530.683,1813.288,511.963,1790.851,511.419Z" transform="translate(-1712.97 -484.991)" fill="#bdd0fb"/>
        </g>
        <g id="Grupo_132319" data-name="Grupo 132319" transform="translate(0 121.923)">
          <g id="Grupo_132310" data-name="Grupo 132310" transform="translate(0 70.374)">
            <path id="Trazado_192883" data-name="Trazado 192883" d="M1711.829,705.9c-.707,1.046-3.516,24.722-3.955,33.466a1.034,1.034,0,0,0,1.035,1.084h0a1.036,1.036,0,0,0,1.024-.876l5.137-32.921Z" transform="translate(-1707.578 -700.692)" fill="#7d97f4"/>
            <path id="Trazado_192884" data-name="Trazado 192884" d="M1740.568,705.9c.707,1.046,3.516,24.722,3.955,33.466a1.035,1.035,0,0,1-1.035,1.084h0a1.037,1.037,0,0,1-1.024-.876l-5.137-32.921Z" transform="translate(-1713.735 -700.692)" fill="#7d97f4"/>
            <path id="Trazado_192885" data-name="Trazado 192885" d="M1707.5,702.674l0,.259a3.521,3.521,0,0,0,3.587,3.416l23.746.4a3.55,3.55,0,0,0,3.717-3.222l.012-.236a3.507,3.507,0,0,0-3.579-3.551l-23.756-.425A3.537,3.537,0,0,0,1707.5,702.674Z" transform="translate(-1707.5 -699.316)" fill="#7d97f4"/>
          </g>
          <g id="Grupo_132314" data-name="Grupo 132314" transform="translate(3.226 0)">
            <g id="Grupo_132311" data-name="Grupo 132311" transform="translate(36.006 103.875)">
              <path id="Trazado_192886" data-name="Trazado 192886" d="M1764.078,746.94c-4.222,0-6.089-.362-6.924-.692a1.6,1.6,0,0,0,1.56,1.24h14.933a.726.726,0,0,0,.7-.917C1772.645,746.708,1769.029,746.94,1764.078,746.94Z" transform="translate(-1757.112 -742.627)" fill="url(#linear-gradient-2)"/>
              <path id="Trazado_192887" data-name="Trazado 192887" d="M1774.336,745.615a.7.7,0,0,0-.122-.255c-1.137-1.452-3.422-3.733-6.531-3.689-4.553.064-6.142.558-9.681.028l-.834,2.767a1.6,1.6,0,0,0-.025.826c.835.33,2.7.692,6.924.692C1769.018,745.983,1772.634,745.751,1774.336,745.615Z" transform="translate(-1757.1 -741.67)" fill="url(#linear-gradient-3)"/>
            </g>
            <path id="Trazado_192888" data-name="Trazado 192888" d="M1759.266,737.936l-1.025,3.485a6.026,6.026,0,0,0,4.267.2l.392-3.02Z" transform="translate(-1721.333 -637.015)" fill="url(#linear-gradient-4)"/>
            <g id="Grupo_132312" data-name="Grupo 132312" transform="translate(61.486 98.837)">
              <path id="Trazado_192889" data-name="Trazado 192889" d="M1797.127,742.572c-3.29,2.644-4.973,3.533-5.829,3.8a1.6,1.6,0,0,0,1.989-.014L1804.929,737a.724.724,0,0,0-.026-1.15C1803.661,737.026,1800.987,739.471,1797.127,742.572Z" transform="translate(-1789.729 -735.416)" fill="url(#linear-gradient-2)"/>
              <path id="Trazado_192890" data-name="Trazado 192890" d="M1804.488,735.738a.686.686,0,0,0-.254-.12c-1.792-.414-4.995-.753-7.391,1.228-3.51,2.9-4.44,4.279-7.528,6.084l1.074,2.67a1.575,1.575,0,0,0,.495.656c.856-.266,2.539-1.156,5.829-3.8C1800.573,739.355,1803.246,736.911,1804.488,735.738Z" transform="translate(-1789.315 -735.301)" fill="url(#linear-gradient-6)"/>
            </g>
            <path id="Trazado_192891" data-name="Trazado 192891" d="M1730.537,687.735s25.273,2.064,30.457,4.5-4.231,36.646-4.231,36.646-1.411.679-4.552-.3c0,0,3.221-25.243.824-30.716l-27.363-4.476Z" transform="translate(-1714.525 -626.521)" fill="url(#linear-gradient-7)"/>
            <path id="Trazado_192892" data-name="Trazado 192892" d="M1786.14,738.478c.235.214,2.511,4.805,2.511,4.805s2.534-.548,3.051-2.152l-2.28-4.143Z" transform="translate(-1727.165 -636.817)" fill="url(#linear-gradient-8)"/>
            <path id="Trazado_192893" data-name="Trazado 192893" d="M1712.37,687.468a12.8,12.8,0,0,0-.79,4.615,6.93,6.93,0,0,0,6.612,6.779l29.876,1.362a1.433,1.433,0,0,1,1.323,1.077c.7,2.715,4.134,11.054,20.908,27.694a1.353,1.353,0,0,0,1.673.183l2.388-1.508a.55.55,0,0,0,.181-.743l-17.4-29.705a6.732,6.732,0,0,0-4.091-3.033l-25.463-6.51Z" transform="translate(-1711.578 -626.465)" fill="url(#linear-gradient-9)"/>
            <path id="Trazado_192894" data-name="Trazado 192894" d="M1748.095,628.8s-3.2,5.659-6.464,8.4l6.745,3.763s1.52-5.99,4.992-7.744Z" transform="translate(-1717.861 -614.202)" fill="url(#linear-gradient-10)"/>
            <path id="Trazado_192895" data-name="Trazado 192895" d="M1711.893,677.385s8.065,1.966,15.764,0c0,0,10.772-14.481,14.94-18.422a29.643,29.643,0,0,0,21.444,11.977l.825-1.844s-11.779-5.43-15.405-13.774-5.083-11.9-8.383-14.078c-2.054-1.356-3.285-2.282-3.92-2.788a1.056,1.056,0,0,0-1.208-.077C1732.448,640.512,1715.973,651.8,1711.893,677.385Z" transform="translate(-1711.644 -616.171)" fill="url(#linear-gradient-11)"/>
            <path id="Trazado_192896" data-name="Trazado 192896" d="M1745.119,654.6a32.008,32.008,0,0,0,3.986,7.066Z" transform="translate(-1718.59 -619.594)" fill="url(#linear-gradient-12)"/>
            <path id="Trazado_192897" data-name="Trazado 192897" d="M1776.7,675.594l1.666-.444,5.057-1.171a2.343,2.343,0,0,1,1.777.3l4.348,2.735-12.007-.02Z" transform="translate(-1725.191 -623.633)" fill="url(#linear-gradient-13)"/>
            <g id="Grupo_132313" data-name="Grupo 132313" transform="translate(21.912)">
              <path id="Trazado_192898" data-name="Trazado 192898" d="M1753.834,618.075s3.11,5.17,3.65,8.028,1.406,4.644-1.846,5.662a7.138,7.138,0,0,1-8.172-2.938s-2.962-4.1-2.667-5.985S1753.834,618.075,1753.834,618.075Z" transform="translate(-1740.431 -611.959)" fill="url(#linear-gradient-14)"/>
              <path id="Trazado_192899" data-name="Trazado 192899" d="M1747.183,625l.421-.055s-2.2-3.328-.762-4.153,7.314-2.851,8.335-5.164a4.018,4.018,0,0,0-2.261-5.275.227.227,0,0,0-.271.143l-.1.281a.228.228,0,0,1-.423.012h0a.227.227,0,0,0-.413-.009c-.315.694-1.257,1.877-4.08,2.792-4.008,1.3-6.5,3.32-6.2,6.166a.228.228,0,0,1-.326.232c-.328-.145-.824-.168-1.4.463-1,1.1-.218,3.5,2.521,5.193a.226.226,0,0,1,.037.364c-.41.35-.986,1.133.867,1.83a4.653,4.653,0,0,0,3.312.319.227.227,0,0,0,.141-.256l-.487-2.5a.229.229,0,0,1,.195-.27Z" transform="translate(-1739.282 -610.343)" fill="url(#linear-gradient-15)"/>
              <path id="Trazado_192900" data-name="Trazado 192900" d="M1748.638,628.874s-1.372-3.384-2.813-2.194,1.332,3.818,2.612,3.783Z" transform="translate(-1740.565 -613.705)" fill="url(#linear-gradient-16)"/>
            </g>
          </g>
          <g id="Grupo_132317" data-name="Grupo 132317" transform="translate(49.004 30.003)">
            <g id="Grupo_132315" data-name="Grupo 132315" transform="translate(0 23.417)">
              <path id="Trazado_192901" data-name="Trazado 192901" d="M1770.545,680.2c.02,0,.039,0,.059,0l25.652-.025a1.146,1.146,0,1,0,0-2.292l-25.651.025a1.146,1.146,0,0,0-.057,2.291Z" transform="translate(-1769.455 -677.882)" fill="url(#linear-gradient-17)"/>
            </g>
            <g id="Grupo_132316" data-name="Grupo 132316" transform="translate(25.808)">
              <path id="Trazado_192902" data-name="Trazado 192902" d="M1813.01,648.888l-.026.053-10.793,23.271a1.146,1.146,0,1,0,2.079.963l10.793-23.27a1.146,1.146,0,0,0-2.053-1.017Z" transform="translate(-1802.084 -648.275)" fill="url(#linear-gradient-18)"/>
            </g>
          </g>
          <g id="Grupo_132318" data-name="Grupo 132318" transform="translate(43.174 55.067)">
            <path id="Trazado_192903" data-name="Trazado 192903" d="M1781.681,683.248c-.113.464-10.816,40.606-13.529,50.783a1.84,1.84,0,0,0,1.761,2.325h0a1.829,1.829,0,0,0,1.77-1.4l11.881-48.173Z" transform="translate(-1763.339 -680.65)" fill="#bdd0fb"/>
            <path id="Trazado_192904" data-name="Trazado 192904" d="M1792.186,683.248c.113.464,10.815,40.606,13.529,50.783a1.84,1.84,0,0,1-1.761,2.325h0a1.828,1.828,0,0,1-1.77-1.4L1790.3,686.784Z" transform="translate(-1767.982 -680.65)" fill="#bdd0fb"/>
            <path id="Trazado_192905" data-name="Trazado 192905" d="M1791.486,681.588h-6.667v5.353a1.385,1.385,0,0,0,1.376,1.394h.914v12.024a1.049,1.049,0,0,0,1.043,1.054h0a1.048,1.048,0,0,0,1.042-1.054V688.335h.464a1.838,1.838,0,0,0,1.827-1.849Z" transform="translate(-1766.836 -680.303)" fill="#bdd0fb"/>
            <path id="Trazado_192906" data-name="Trazado 192906" d="M1763.677,679.963H1800.9a1.142,1.142,0,0,1,1.1.865l.52,2.038a1.151,1.151,0,0,1-1.11,1.443l-38.193-.222a1.151,1.151,0,0,1-1.1-1.436l.451-1.815A1.144,1.144,0,0,1,1763.677,679.963Z" transform="translate(-1762.083 -679.963)" fill="#bdd0fb"/>
          </g>
        </g>
      </g>
      <rect id="Rectángulo_293969" data-name="Rectángulo 293969" width="295" height="233" transform="translate(390 1427)" fill="none"/>
    </g>
  </g>
</svg>
