<svg xmlns="http://www.w3.org/2000/svg" width="132.001" height="169.979" viewBox="0 0 132.001 169.979">
  <g id="Grupo_146474" data-name="Grupo 146474" transform="translate(-1268 -5301.011)">
    <g id="Grupo_132231" data-name="Grupo 132231" transform="translate(1162.373 3483.339)">
      <path id="Trazado_192719" data-name="Trazado 192719" d="M111.528,1987.651c-.6-.268-1.2-.529-1.8-.807a6.326,6.326,0,0,1-4.1-6.193q.048-76.676.047-153.352a17.039,17.039,0,0,1,.565-4.416,6.806,6.806,0,0,1,6.857-5.2q42.329-.028,84.657-.014a5.875,5.875,0,0,1,4.307,1.817c11.192,11.186,22.406,22.35,33.523,33.61a9.437,9.437,0,0,1,1.845,3.928,11.876,11.876,0,0,1,.174,3.3q.009,59.581.005,119.162c0,4.673-.969,6.1-5.311,7.845a5.04,5.04,0,0,0-.567.317Zm120.065-55.785v-73.042H197.3c1.969,2.481,2.265,5.066,2.207,7.773-.064,2.986-.024,5.975-.013,8.962.014,3.956,1.765,5.955,5.724,6.563,1.944.3,2.974,1.321,2.974,2.954s-1.053,2.682-2.971,2.956c-3.914.558-5.713,2.61-5.727,6.559-.012,3.541.041,7.083-.015,10.623-.078,4.938-3.47,8.778-7.928,9.076-2.168.145-3.474-.709-3.694-2.416-.232-1.788.666-2.843,2.841-3.34s2.864-1.327,2.879-3.571c.022-3.43-.006-6.86.011-10.29a12.516,12.516,0,0,1,2.309-7.637c.514-.693,1.112-1.325,1.722-2.043-3.329-2.979-4.162-6.753-4.049-10.9.072-2.654.014-5.311.013-7.967,0-3.47-.172-3.69-3.593-4.639a2.784,2.784,0,0,1-2.149-3.1,2.593,2.593,0,0,1,2.763-2.512,21.592,21.592,0,0,1,4.286,1.049,8.081,8.081,0,0,1,1.578.912v-34.276H114.741c-2.865,0-3.159.3-3.206,3.221,0,.221,0,.442,0,.664v104.417Zm-120.06,6.05v1.677q0,19.747,0,39.491c0,2.459.209,2.675,2.63,2.675q57.5,0,115.01,0c2.322,0,2.547-.233,2.547-2.591q0-19.828,0-39.657v-1.6Zm91.04-109.264V1852.7H226.6Z" fill="#084a93"/>
      <path id="Trazado_192720" data-name="Trazado 192720" d="M232.289,1932.56H112.229V1828.142c0-.222,0-.443,0-.664.047-2.925.342-3.22,3.206-3.22h81.732v34.276a8.086,8.086,0,0,0-1.578-.912,21.6,21.6,0,0,0-4.286-1.05,2.593,2.593,0,0,0-2.763,2.512,2.784,2.784,0,0,0,2.149,3.1c3.421.948,3.591,1.168,3.593,4.639,0,2.655.058,5.312-.013,7.967-.113,4.144.72,7.917,4.049,10.9-.61.718-1.209,1.35-1.722,2.043a12.517,12.517,0,0,0-2.309,7.637c-.017,3.43.012,6.86-.011,10.29-.015,2.245-.714,3.078-2.879,3.571s-3.073,1.551-2.841,3.34c.22,1.706,1.526,2.561,3.694,2.416,4.458-.3,7.85-4.138,7.928-9.076.056-3.54,0-7.082.015-10.623.013-3.95,1.813-6,5.727-6.559,1.918-.274,2.971-1.322,2.971-2.956s-1.03-2.656-2.974-2.954c-3.959-.608-5.71-2.607-5.724-6.563-.012-2.987-.052-5.976.013-8.962.058-2.707-.238-5.293-2.207-7.773h34.288ZM143.3,1885.771c3.572-3.159,4.279-7.128,4.13-11.431-.092-2.651-.021-5.309-.016-7.963,0-2.8.568-3.52,3.225-4.134,1.85-.428,2.763-1.61,2.522-3.261a2.844,2.844,0,0,0-3.193-2.458c-4.022.059-7.849,3.232-8.192,7.291-.34,4.01-.217,8.061-.255,12.1-.042,4.38-1.54,6.174-5.879,6.932-1.79.313-2.835,1.384-2.843,2.914-.009,1.6,1.091,2.7,2.974,2.968,3.931.57,5.714,2.587,5.737,6.546.02,3.484-.039,6.97.016,10.454.081,5.107,3.4,8.947,7.91,9.261,2.182.152,3.448-.662,3.718-2.391.273-1.744-.668-2.868-2.809-3.352-2.22-.5-2.916-1.365-2.929-3.712-.015-2.931-.074-5.864.013-8.793C147.557,1892.584,146.715,1888.821,143.3,1885.771Zm24.657,13.1h.008c0,1.488-.053,2.978.014,4.463a2.888,2.888,0,0,0,2.788,2.926,2.848,2.848,0,0,0,2.945-2.917q.121-4.378,0-8.761a2.745,2.745,0,0,0-2.937-2.888,2.853,2.853,0,0,0-2.808,3.043C167.919,1896.116,167.961,1897.5,167.961,1898.873Zm2.851-19.011a4.358,4.358,0,1,0-4.345-4.314A4.488,4.488,0,0,0,170.812,1879.863Z" transform="translate(-0.696 -0.694)" fill="#fff"/>
      <path id="Trazado_192721" data-name="Trazado 192721" d="M112.229,1952.079H232.418v1.6q0,19.828,0,39.657c0,2.358-.225,2.591-2.547,2.591q-57.5,0-115.01,0c-2.421,0-2.629-.216-2.63-2.675q0-19.745,0-39.491Zm104.124,28.047-.386.124c-.272-.47-.547-.937-.815-1.408-3.222-5.666-6.43-11.339-9.684-16.984-.293-.508-.845-1.143-1.34-1.2a33.958,33.958,0,0,0-4.136-.057v29.381h4.827v-19.424a3.462,3.462,0,0,1,1.108,1.265c3.227,5.662,6.438,11.334,9.691,16.981.3.518.83,1.189,1.323,1.253a32.4,32.4,0,0,0,4.112.06V1960.7h-4.7Zm-23.119-4.994c-.338-2.065-.516-4.172-1.045-6.187a11.682,11.682,0,0,0-11.108-8.857,11.436,11.436,0,0,0-11.132,7.374,20.862,20.862,0,0,0-.538,14.132,11.756,11.756,0,0,0,19.731,5.206C192.294,1983.6,192.982,1979.456,193.234,1975.133Zm-45.583,10.192a4.128,4.128,0,0,1-.285.978c-.785,1.661.042,2.479,1.514,2.928a20.328,20.328,0,0,0,3.359.856,11.792,11.792,0,0,0,8.01-1.369c4.675-2.933,5.826-10.445-.905-14.047-1.8-.963-3.685-1.784-5.422-2.848-1.833-1.124-2.485-2.7-2.092-4.312a4.405,4.405,0,0,1,4.121-3.286,48.067,48.067,0,0,1,5.267.438l1.631-3.193c-3.641-1.524-7.181-2.015-10.749-.561a7.634,7.634,0,0,0-2.151,13.1,38.176,38.176,0,0,0,4.611,2.9,39.4,39.4,0,0,1,3.743,2.416c1.44,1.147,1.5,2.786.969,4.4a3.228,3.228,0,0,1-3.205,2.454C153.356,1986.06,150.659,1985.647,147.651,1985.325Zm-25.569,2.287a18.078,18.078,0,0,0,10.512,2.592c5.007-.348,7.525-2.978,7.535-7.969q.023-10.361,0-20.722c0-.478-.06-.955-.092-1.425h-4.8v2.4c0,6.465.013,12.931-.007,19.4-.009,2.772-.9,3.778-3.637,4.157a6.182,6.182,0,0,1-2.133-.021c-1.812-.4-3.6-.916-5.489-1.411Z" transform="translate(-0.696 -14.163)" fill="#084a93"/>
      <path id="Trazado_192722" data-name="Trazado 192722" d="M213.992,1829.945,238.023,1854H213.992Z" transform="translate(-11.419 -1.293)" fill="#fff"/>
      <path id="Trazado_192723" data-name="Trazado 192723" d="M145.727,1889.572c3.411,3.049,4.253,6.813,4.129,10.964-.087,2.929-.028,5.863-.013,8.793.013,2.347.709,3.208,2.929,3.712,2.141.484,3.082,1.609,2.809,3.352-.27,1.729-1.536,2.542-3.718,2.391-4.515-.314-7.83-4.154-7.91-9.261-.055-3.484,0-6.969-.016-10.454-.023-3.959-1.806-5.976-5.737-6.546-1.882-.273-2.983-1.371-2.974-2.968.008-1.53,1.053-2.6,2.843-2.914,4.339-.758,5.837-2.552,5.879-6.932.038-4.034-.085-8.086.255-12.1.344-4.058,4.17-7.231,8.192-7.29a2.844,2.844,0,0,1,3.193,2.458c.242,1.651-.672,2.832-2.522,3.261-2.657.615-3.221,1.332-3.225,4.134,0,2.654-.076,5.312.016,7.963C150.006,1882.443,149.3,1886.413,145.727,1889.572Z" transform="translate(-3.119 -4.494)" fill="#084a93"/>
      <path id="Trazado_192724" data-name="Trazado 192724" d="M174.523,1906.817c0-1.378-.041-2.757.01-4.133a2.853,2.853,0,0,1,2.808-3.043,2.745,2.745,0,0,1,2.937,2.888q.125,4.377,0,8.761a2.848,2.848,0,0,1-2.945,2.917,2.888,2.888,0,0,1-2.788-2.926c-.067-1.485-.014-2.976-.014-4.463Z" transform="translate(-7.258 -8.637)" fill="#084a93"/>
      <path id="Trazado_192725" data-name="Trazado 192725" d="M177.2,1885.385a4.358,4.358,0,1,1,.095-8.714,4.358,4.358,0,1,1-.095,8.714Z" transform="translate(-7.084 -6.217)" fill="#084a93"/>
      <path id="Trazado_192726" data-name="Trazado 192726" d="M226.69,1981.125V1961.7h4.7v29.416a32.4,32.4,0,0,1-4.112-.06c-.493-.064-1.024-.734-1.323-1.253-3.254-5.647-6.465-11.319-9.691-16.981a3.462,3.462,0,0,0-1.108-1.265v19.424h-4.827V1961.6a33.958,33.958,0,0,1,4.136.057c.5.061,1.048.7,1.34,1.2,3.255,5.646,6.463,11.319,9.684,16.984.268.471.543.938.815,1.408Z" transform="translate(-11.033 -15.162)" fill="#fff"/>
      <path id="Trazado_192727" data-name="Trazado 192727" d="M199.854,1976.074c-.251,4.323-.94,8.471-4.091,11.669a11.756,11.756,0,0,1-19.731-5.206,20.862,20.862,0,0,1,.538-14.132,11.436,11.436,0,0,1,11.132-7.374,11.682,11.682,0,0,1,11.108,8.857C199.338,1971.9,199.516,1974.009,199.854,1976.074Zm-4.751.58a63.581,63.581,0,0,0-1.622-7.392,6.1,6.1,0,0,0-6.093-4.266,6.385,6.385,0,0,0-6.122,4.288,18.193,18.193,0,0,0,.024,13.732,6.147,6.147,0,0,0,6.117,4.236,6.261,6.261,0,0,0,6.159-4.428A58.827,58.827,0,0,0,195.1,1976.653Z" transform="translate(-7.316 -15.104)" fill="#fff"/>
      <path id="Trazado_192728" data-name="Trazado 192728" d="M151.754,1986.263c3.009.322,5.705.734,8.414.855a3.228,3.228,0,0,0,3.205-2.454c.531-1.612.471-3.251-.969-4.4a39.4,39.4,0,0,0-3.743-2.416,38.176,38.176,0,0,1-4.611-2.9,7.634,7.634,0,0,1,2.151-13.1c3.568-1.454,7.108-.963,10.749.561l-1.631,3.193a48.067,48.067,0,0,0-5.267-.438,4.405,4.405,0,0,0-4.121,3.286c-.394,1.613.259,3.188,2.092,4.312,1.737,1.064,3.621,1.885,5.422,2.848,6.731,3.6,5.581,11.114.905,14.047a11.792,11.792,0,0,1-8.01,1.369,20.328,20.328,0,0,1-3.359-.856c-1.472-.449-2.3-1.267-1.514-2.928A4.128,4.128,0,0,0,151.754,1986.263Z" transform="translate(-4.799 -15.101)" fill="#fff"/>
      <path id="Trazado_192729" data-name="Trazado 192729" d="M123.242,1988.555l1.887-3c1.89.495,3.677,1.01,5.489,1.411a6.185,6.185,0,0,0,2.133.021c2.741-.379,3.628-1.386,3.637-4.157.02-6.465.007-12.931.007-19.4v-2.4h4.8c.032.47.091.947.092,1.425q.008,10.361,0,20.722c-.011,4.991-2.528,7.622-7.535,7.969A18.078,18.078,0,0,1,123.242,1988.555Z" transform="translate(-1.856 -15.106)" fill="#fff"/>
      <path id="Trazado_192730" data-name="Trazado 192730" d="M195.677,1977.122a58.834,58.834,0,0,1-1.537,6.169,6.261,6.261,0,0,1-6.159,4.428,6.147,6.147,0,0,1-6.117-4.236,18.193,18.193,0,0,1-.024-13.732,6.385,6.385,0,0,1,6.122-4.288,6.1,6.1,0,0,1,6.093,4.266A63.588,63.588,0,0,1,195.677,1977.122Z" transform="translate(-7.89 -15.573)" fill="#084a93"/>
    </g>
  </g>
</svg>
