<svg xmlns="http://www.w3.org/2000/svg" width="345" height="402" viewBox="0 0 345 402">
  <g id="Grupo_146479" data-name="Grupo 146479" transform="translate(-1020 -913)">
    <g id="Grupo_132021" data-name="Grupo 132021" transform="translate(0 20)">
      <rect id="Rectángulo_293604" data-name="Rectángulo 293604" width="345" height="402" rx="20" transform="translate(1020 893)" fill="#fff"/>
      <g id="Grupo_132020" data-name="Grupo 132020" transform="translate(2802.553 1477.964)">
        <circle id="Elipse_4900" data-name="Elipse 4900" cx="142.725" cy="142.725" r="142.725" transform="translate(-1753.002 -526.413)" fill="#e8e8e8" stroke="#084a93" stroke-linecap="round" stroke-linejoin="round" stroke-width="5" stroke-dasharray="5 10"/>
        <g id="Grupo_132011" data-name="Grupo 132011" transform="translate(-1718.338 -474.37)">
          <path id="Trazado_192323" data-name="Trazado 192323" d="M-1543.669-430.011h-80.765a21.437,21.437,0,0,1-21.412-21.413,21.436,21.436,0,0,1,21.412-21.412h80.765a21.436,21.436,0,0,1,21.413,21.412A21.437,21.437,0,0,1-1543.669-430.011Z" transform="translate(1734.246 482.323)"/>
          <path id="Trazado_192324" data-name="Trazado 192324" d="M-1624.88-469.836a17.987,17.987,0,0,0-17.966,17.966A17.987,17.987,0,0,0-1624.88-433.9h80.765a17.987,17.987,0,0,0,17.968-17.968,17.987,17.987,0,0,0-17.968-17.966Z" transform="translate(1734.691 482.769)" fill="#ffb30b" style="isolation: isolate"/>
          <g id="Grupo_132008" data-name="Grupo 132008" style="isolation: isolate">
            <path id="Trazado_192325" data-name="Trazado 192325" d="M-1691.92-419.3a30.933,30.933,0,0,1-30.9-30.9,30.934,30.934,0,0,1,30.9-30.9,30.935,30.935,0,0,1,30.9,30.9A30.934,30.934,0,0,1-1691.92-419.3Zm0-56.056a25.185,25.185,0,0,0-25.157,25.157,25.185,25.185,0,0,0,25.157,25.157,25.185,25.185,0,0,0,25.158-25.157A25.186,25.186,0,0,0-1691.92-475.355Z" transform="translate(1722.819 481.097)" fill="#b9ddfc"/>
          </g>
          <g id="Grupo_132009" data-name="Grupo 132009" transform="translate(109.846 28.028)">
            <path id="Trazado_192326" data-name="Trazado 192326" d="M-1616.95-450.95h-7.351a2.871,2.871,0,0,1-2.871-2.871,2.871,2.871,0,0,1,2.871-2.871h7.351a2.871,2.871,0,0,1,2.871,2.871A2.871,2.871,0,0,1-1616.95-450.95Z" transform="translate(1627.172 456.692)"/>
          </g>
          <path id="Trazado_192327" data-name="Trazado 192327" d="M-1641.851-453.3l-13.781-6.891v5.168h-18.152a1.722,1.722,0,0,0-1.723,1.723,1.722,1.722,0,0,0,1.723,1.723h18.152v5.168Z" transform="translate(1729.842 484.2)" fill="#445963" style="isolation: isolate"/>
          <g id="Grupo_132010" data-name="Grupo 132010" transform="translate(128.005 28.028)">
            <path id="Trazado_192328" data-name="Trazado 192328" d="M-1550.818-450.95h-57.671a2.871,2.871,0,0,1-2.871-2.871,2.871,2.871,0,0,1,2.871-2.871h57.671a2.871,2.871,0,0,1,2.871,2.871A2.871,2.871,0,0,1-1550.818-450.95Z" transform="translate(1611.36 456.692)"/>
          </g>
          <path id="Trazado_192329" data-name="Trazado 192329" d="M-1692.539-424.7a26.142,26.142,0,0,1-26.112-26.112,26.142,26.142,0,0,1,26.112-26.112,26.142,26.142,0,0,1,26.112,26.112A26.141,26.141,0,0,1-1692.539-424.7Z" transform="translate(1723.438 481.716)"/>
          <path id="Trazado_192330" data-name="Trazado 192330" d="M-1693.281-471.929a20.394,20.394,0,0,0-20.37,20.37,20.394,20.394,0,0,0,20.37,20.37,20.393,20.393,0,0,0,20.37-20.37A20.393,20.393,0,0,0-1693.281-471.929Z" transform="translate(1724.18 482.458)" fill="#084a93" style="isolation: isolate"/>
          <circle id="Elipse_4901" data-name="Elipse 4901" cx="6.718" cy="6.718" r="6.718" transform="translate(24.182 24.182)" fill="#fff" style="isolation: isolate"/>
        </g>
        <g id="Grupo_132015" data-name="Grupo 132015" transform="translate(-1718.338 -414.588)">
          <path id="Trazado_192331" data-name="Trazado 192331" d="M-1543.669-377.957h-80.765a21.436,21.436,0,0,1-21.412-21.412,21.437,21.437,0,0,1,21.412-21.413h80.765a21.437,21.437,0,0,1,21.413,21.413A21.437,21.437,0,0,1-1543.669-377.957Z" transform="translate(1734.246 430.269)"/>
          <path id="Trazado_192332" data-name="Trazado 192332" d="M-1624.88-417.782a17.987,17.987,0,0,0-17.966,17.968,17.987,17.987,0,0,0,17.966,17.966h80.765a17.987,17.987,0,0,0,17.968-17.966,17.987,17.987,0,0,0-17.968-17.968Z" transform="translate(1734.691 430.715)" fill="#ffb30b" style="isolation: isolate"/>
          <g id="Grupo_132012" data-name="Grupo 132012" style="isolation: isolate">
            <path id="Trazado_192333" data-name="Trazado 192333" d="M-1691.92-367.244a30.934,30.934,0,0,1-30.9-30.9,30.934,30.934,0,0,1,30.9-30.9,30.935,30.935,0,0,1,30.9,30.9A30.935,30.935,0,0,1-1691.92-367.244Zm0-56.057a25.186,25.186,0,0,0-25.157,25.158,25.185,25.185,0,0,0,25.157,25.157,25.186,25.186,0,0,0,25.158-25.157A25.186,25.186,0,0,0-1691.92-423.3Z" transform="translate(1722.819 429.043)" fill="#b9ddfc"/>
          </g>
          <g id="Grupo_132013" data-name="Grupo 132013" transform="translate(109.846 28.029)">
            <path id="Trazado_192334" data-name="Trazado 192334" d="M-1616.95-398.895h-7.351a2.871,2.871,0,0,1-2.871-2.871,2.871,2.871,0,0,1,2.871-2.871h7.351a2.871,2.871,0,0,1,2.871,2.871A2.871,2.871,0,0,1-1616.95-398.895Z" transform="translate(1627.172 404.637)"/>
          </g>
          <path id="Trazado_192335" data-name="Trazado 192335" d="M-1641.851-401.246l-13.781-6.891v5.168h-18.152a1.722,1.722,0,0,0-1.723,1.723,1.723,1.723,0,0,0,1.723,1.723h18.152v5.168Z" transform="translate(1729.842 432.147)" fill="#445963" style="isolation: isolate"/>
          <g id="Grupo_132014" data-name="Grupo 132014" transform="translate(128.005 28.029)">
            <path id="Trazado_192336" data-name="Trazado 192336" d="M-1550.818-398.895h-57.671a2.871,2.871,0,0,1-2.871-2.871,2.871,2.871,0,0,1,2.871-2.871h57.671a2.871,2.871,0,0,1,2.871,2.871A2.871,2.871,0,0,1-1550.818-398.895Z" transform="translate(1611.36 404.637)"/>
          </g>
          <path id="Trazado_192337" data-name="Trazado 192337" d="M-1692.539-372.65a26.141,26.141,0,0,1-26.112-26.111,26.142,26.142,0,0,1,26.112-26.112,26.141,26.141,0,0,1,26.112,26.112A26.141,26.141,0,0,1-1692.539-372.65Z" transform="translate(1723.438 429.662)"/>
          <path id="Trazado_192338" data-name="Trazado 192338" d="M-1693.281-419.874a20.393,20.393,0,0,0-20.37,20.37,20.393,20.393,0,0,0,20.37,20.369,20.392,20.392,0,0,0,20.37-20.369A20.392,20.392,0,0,0-1693.281-419.874Z" transform="translate(1724.18 430.404)" fill="#084a93" style="isolation: isolate"/>
          <circle id="Elipse_4902" data-name="Elipse 4902" cx="6.718" cy="6.718" r="6.718" transform="translate(24.182 24.182)" fill="#fff" style="isolation: isolate"/>
        </g>
        <g id="Grupo_132019" data-name="Grupo 132019" transform="translate(-1718.338 -354.805)">
          <path id="Trazado_192339" data-name="Trazado 192339" d="M-1543.669-325.9h-80.765a21.437,21.437,0,0,1-21.412-21.413,21.436,21.436,0,0,1,21.412-21.412h80.765a21.436,21.436,0,0,1,21.413,21.412A21.437,21.437,0,0,1-1543.669-325.9Z" transform="translate(1734.246 378.214)"/>
          <path id="Trazado_192340" data-name="Trazado 192340" d="M-1624.88-365.727a17.987,17.987,0,0,0-17.966,17.966,17.987,17.987,0,0,0,17.966,17.968h80.765a17.987,17.987,0,0,0,17.968-17.968,17.987,17.987,0,0,0-17.968-17.966Z" transform="translate(1734.691 378.66)" fill="#ffb30b" style="isolation: isolate"/>
          <g id="Grupo_132016" data-name="Grupo 132016" style="isolation: isolate">
            <path id="Trazado_192341" data-name="Trazado 192341" d="M-1691.92-315.19a30.933,30.933,0,0,1-30.9-30.9,30.934,30.934,0,0,1,30.9-30.9,30.935,30.935,0,0,1,30.9,30.9A30.934,30.934,0,0,1-1691.92-315.19Zm0-56.056a25.185,25.185,0,0,0-25.157,25.157,25.185,25.185,0,0,0,25.157,25.157,25.185,25.185,0,0,0,25.158-25.157A25.186,25.186,0,0,0-1691.92-371.246Z" transform="translate(1722.819 376.988)" fill="#b9ddfc"/>
          </g>
          <g id="Grupo_132017" data-name="Grupo 132017" transform="translate(109.846 28.028)">
            <path id="Trazado_192342" data-name="Trazado 192342" d="M-1616.95-346.841h-7.351a2.871,2.871,0,0,1-2.871-2.871,2.871,2.871,0,0,1,2.871-2.871h7.351a2.871,2.871,0,0,1,2.871,2.871A2.871,2.871,0,0,1-1616.95-346.841Z" transform="translate(1627.172 352.583)"/>
          </g>
          <path id="Trazado_192343" data-name="Trazado 192343" d="M-1641.851-349.192l-13.781-6.891v5.168h-18.152a1.723,1.723,0,0,0-1.723,1.723,1.722,1.722,0,0,0,1.723,1.723h18.152v5.168Z" transform="translate(1729.842 380.091)" fill="#445963" style="isolation: isolate"/>
          <g id="Grupo_132018" data-name="Grupo 132018" transform="translate(128.005 28.028)">
            <path id="Trazado_192344" data-name="Trazado 192344" d="M-1550.818-346.841h-57.671a2.871,2.871,0,0,1-2.871-2.871,2.871,2.871,0,0,1,2.871-2.871h57.671a2.871,2.871,0,0,1,2.871,2.871A2.871,2.871,0,0,1-1550.818-346.841Z" transform="translate(1611.36 352.583)"/>
          </g>
          <path id="Trazado_192345" data-name="Trazado 192345" d="M-1692.539-320.6a26.142,26.142,0,0,1-26.112-26.112,26.142,26.142,0,0,1,26.112-26.112,26.141,26.141,0,0,1,26.112,26.112A26.141,26.141,0,0,1-1692.539-320.6Z" transform="translate(1723.438 377.607)"/>
          <path id="Trazado_192346" data-name="Trazado 192346" d="M-1693.281-367.82a20.394,20.394,0,0,0-20.37,20.37,20.394,20.394,0,0,0,20.37,20.37,20.393,20.393,0,0,0,20.37-20.37A20.393,20.393,0,0,0-1693.281-367.82Z" transform="translate(1724.18 378.349)" fill="#084a93" style="isolation: isolate"/>
          <circle id="Elipse_4903" data-name="Elipse 4903" cx="6.718" cy="6.718" r="6.718" transform="translate(24.182 24.182)" fill="#fff" style="isolation: isolate"/>
        </g>
      </g>
    </g>
  </g>
</svg>
