<svg xmlns="http://www.w3.org/2000/svg" width="85" height="85" viewBox="0 0 85 85">
  <g id="Grupo_146475" data-name="Grupo 146475" transform="translate(-180 -6061)">
    <g id="programador" transform="translate(180 6060.999)">
      <rect id="Rect치ngulo_293981" data-name="Rect치ngulo 293981" width="14.776" height="8.828" transform="translate(46.387 46.787)" fill="#ccc"/>
      <rect id="Rect치ngulo_293982" data-name="Rect치ngulo 293982" width="4.981" height="8.828" transform="translate(46.387 46.787)" fill="#bcbbb8"/>
      <path id="Trazado_193458" data-name="Trazado 193458" d="M199.659,7.5H147.129a3.7,3.7,0,0,0-3.7,3.7V47.029h59.93c0-39.076.191-36.416-.447-37.591A3.7,3.7,0,0,0,199.659,7.5Z" transform="translate(-119.617 -6.255)" fill="#ccc"/>
      <path id="Trazado_193459" data-name="Trazado 193459" d="M147.973,11.2a3.7,3.7,0,0,1,3.7-3.7h-4.545a3.7,3.7,0,0,0-3.7,3.7V47.029h4.545Z" transform="translate(-119.617 -6.255)" fill="#bcbbb8"/>
      <path id="Trazado_193460" data-name="Trazado 193460" d="M143.377,240.872c.132,3.1-.375,4.345.675,5.835,1.6,2.264,2.659,1.391,14,1.571h30.575c11.325-.18,12.4.694,14-1.571,1.049-1.488.544-2.726.675-5.835Z" transform="translate(-119.565 -200.883)" fill="#efefef"/>
      <path id="Trazado_193461" data-name="Trazado 193461" d="M221.493,36.539a1.263,1.263,0,0,0-1.109-.661H172.067a1.262,1.262,0,0,0-1.261,1.262V64.1a1.263,1.263,0,0,0,1.261,1.262h48.317a1.263,1.263,0,0,0,1.261-1.262C221.646,35.246,221.712,36.941,221.493,36.539Z" transform="translate(-142.449 -29.921)" fill="#00defc"/>
      <path id="Trazado_193462" data-name="Trazado 193462" d="M175.787,64.1c.057-28.463-.138-27.031.153-27.565a1.263,1.263,0,0,1,1.109-.661h-4.981a1.262,1.262,0,0,0-1.261,1.262V64.1a1.263,1.263,0,0,0,1.261,1.262h4.981A1.263,1.263,0,0,1,175.787,64.1Z" transform="translate(-142.449 -29.921)" fill="#52a5d8"/>
      <path id="Trazado_193463" data-name="Trazado 193463" d="M279.542,335.527H263.157a2.273,2.273,0,0,1-2.273-2.273h0a2.273,2.273,0,0,1,2.273-2.273h16.386a2.273,2.273,0,0,1,2.273,2.273h0A2.273,2.273,0,0,1,279.542,335.527Z" transform="translate(-217.573 -276.033)" fill="#efefef"/>
      <path id="Trazado_193464" data-name="Trazado 193464" d="M267.083,333.255a2.273,2.273,0,0,1,2.273-2.273h-6.2a2.273,2.273,0,0,0,0,4.545h6.2A2.273,2.273,0,0,1,267.083,333.255Z" transform="translate(-217.574 -276.033)" fill="#ddd"/>
      <path id="Trazado_193465" data-name="Trazado 193465" d="M170.806,36.14v7.829h50.84V36.14a1.263,1.263,0,0,0-1.261-1.261H172.067A1.263,1.263,0,0,0,170.806,36.14Z" transform="translate(-142.449 -29.088)" fill="#b9ddfc"/>
      <path id="Trazado_193466" data-name="Trazado 193466" d="M177.048,34.878h-4.981a1.263,1.263,0,0,0-1.261,1.261v7.829h4.981V36.14A1.263,1.263,0,0,1,177.048,34.878Z" transform="translate(-142.449 -29.087)" fill="#a1d2fc"/>
      <path id="Trazado_193467" data-name="Trazado 193467" d="M121.89,321.389V331.5l11.355.357v0l.013-.008v-10.5A13.609,13.609,0,0,1,121.89,321.389Z" transform="translate(-101.654 -267.993)" fill="#eab883"/>
      <path id="Trazado_193468" data-name="Trazado 193468" d="M128.476,331.94c-.625-1.954-1.535-3.424-1.535-5.929v-3.173a13.128,13.128,0,0,1-5.051-1.211v10.107Z" transform="translate(-101.654 -268.23)" fill="#dda36f"/>
      <path id="Trazado_193469" data-name="Trazado 193469" d="M136.855,368.938l-.154.11a8.127,8.127,0,0,1-9.535-.056l-.073-.054v11.091h9.762V368.938Z" transform="translate(-105.993 -307.688)" fill="#efefef"/>
      <path id="Trazado_193470" data-name="Trazado 193470" d="M132.5,370.546a8.485,8.485,0,0,1-5.412-1.609v11.091h8.865Z" transform="translate(-105.993 -307.687)" fill="#ddd"/>
      <path id="Trazado_193471" data-name="Trazado 193471" d="M56.751,383.137,54.8,371.024a6.236,6.236,0,0,0-4.06-4.723l-.825-.244-5.165-1.282-.545-.331-10.583,9.193a1.593,1.593,0,0,1-2.969-.007l0,.007-10.323-9.5-.8.475L14.3,366.058h0a6.4,6.4,0,0,0-4.886,4.966L7.468,383.112a3.733,3.733,0,0,0,3.685,4.326H53.086A3.711,3.711,0,0,0,56.751,383.137Z" transform="translate(-6.187 -303.682)" fill="#ffb30b"/>
      <path id="Trazado_193472" data-name="Trazado 193472" d="M12.409,388.785l1.945-13.749a6.037,6.037,0,0,1,2.812-4.1l-2.867.793h0A6.4,6.4,0,0,0,9.414,376.7L7.469,388.785a3.733,3.733,0,0,0,3.685,4.326h4.94A3.733,3.733,0,0,1,12.409,388.785Z" transform="translate(-6.188 -309.355)" fill="#eba200"/>
      <path id="Trazado_193473" data-name="Trazado 193473" d="M80.9,94.375a2.074,2.074,0,0,1-1.18-.722C75.1,87.9,62.812,88.373,56.424,94.761c-5.886,5.886-2.63,15.278-2.63,15.278H86.343C89.188,98.1,83.081,94.853,80.9,94.375Z" transform="translate(-44.114 -74.752)" fill="#727997"/>
      <path id="Trazado_193474" data-name="Trazado 193474" d="M64.123,94.765a18.12,18.12,0,0,1,9.235-4.732c-5.531-1.219-12.594.391-16.934,4.732-5.886,5.886-2.63,15.278-2.63,15.278h7.7S58.237,100.652,64.123,94.765Z" transform="translate(-44.114 -74.756)" fill="#5e6897"/>
      <g id="Grupo_132620" data-name="Grupo 132620" transform="translate(8.12 33.682)">
        <path id="Trazado_193475" data-name="Trazado 193475" d="M50.5,203.662l0-.005a3.216,3.216,0,0,0,0,5.542l0-.005a4.755,4.755,0,0,0,2.649.779v-7.091h0A4.759,4.759,0,0,0,50.5,203.662Z" transform="translate(-48.911 -202.882)" fill="#eab883"/>
        <path id="Trazado_193476" data-name="Trazado 193476" d="M240.922,203.662l0-.005a3.216,3.216,0,0,1,0,5.542l0-.005a4.755,4.755,0,0,1-2.649.779v-7.091A4.816,4.816,0,0,1,240.922,203.662Z" transform="translate(-206.836 -202.882)" fill="#eab883"/>
      </g>
      <g id="Grupo_132621" data-name="Grupo 132621" transform="translate(8.119 35.734)">
        <path id="Trazado_193477" data-name="Trazado 193477" d="M50.49,216.517A3.731,3.731,0,0,1,49.3,215.24a3.2,3.2,0,0,0,1.193,4.266l0-.005a4.756,4.756,0,0,0,2.649.779v-2.988a4.756,4.756,0,0,1-2.649-.779Z" transform="translate(-48.905 -215.24)" fill="#dda36f"/>
        <path id="Trazado_193478" data-name="Trazado 193478" d="M242.12,215.24a3.733,3.733,0,0,1-1.193,1.277l0-.005a4.756,4.756,0,0,1-2.649.779v2.988a4.756,4.756,0,0,0,2.649-.779l0,.005A3.2,3.2,0,0,0,242.12,215.24Z" transform="translate(-206.835 -215.24)" fill="#dda36f"/>
      </g>
      <path id="Trazado_193479" data-name="Trazado 193479" d="M101.414,194.471V189.9a5.861,5.861,0,0,1-5.41-2.11,1.208,1.208,0,0,0-1.661-.247c-3.22,2.333-12.292,5.944-20.17,2.357v2.609h-.015a55.7,55.7,0,0,0,.382,8.847,13.545,13.545,0,0,0,2.916,5.718c8.27,9.614,23.957,3.646,23.957-8.868,0-1.542,0-2.762,0-3.739Z" transform="translate(-61.839 -156.222)" fill="#f7cf9c"/>
      <path id="Trazado_193480" data-name="Trazado 193480" d="M79.52,214.341a55.718,55.718,0,0,1-.382-8.847h.015v-1.232a16.83,16.83,0,0,1-4.981-1.376v2.609h-.015a55.715,55.715,0,0,0,.382,8.847,13.518,13.518,0,0,0,15.6,10.245A13.688,13.688,0,0,1,79.52,214.341Z" transform="translate(-61.839 -169.202)" fill="#eab883"/>
      <g id="Grupo_132622" data-name="Grupo 132622" transform="translate(13.342 56.861)">
        <path id="Trazado_193481" data-name="Trazado 193481" d="M165.263,355.591l11.127-8.862-6.96-4.232V345Z" transform="translate(-151.169 -342.497)" fill="#eba200"/>
        <path id="Trazado_193482" data-name="Trazado 193482" d="M91.5,355.591l-11.127-9.027,6.893-4.067v2.159Z" transform="translate(-80.368 -342.497)" fill="#eba200"/>
      </g>
      <path id="Trazado_193483" data-name="Trazado 193483" d="M280.634,129.113l2.459-2.458a1.245,1.245,0,1,0-1.761-1.761l-3.339,3.339a1.245,1.245,0,0,0,0,1.761l3.339,3.339a1.245,1.245,0,0,0,1.761-1.761Z" transform="translate(-231.537 -103.854)"/>
      <path id="Trazado_193484" data-name="Trazado 193484" d="M367.069,124.893a1.245,1.245,0,0,0-1.761,1.761l2.459,2.458-2.459,2.459a1.245,1.245,0,0,0,1.761,1.761l3.339-3.339a1.245,1.245,0,0,0,0-1.761Z" transform="translate(-304.357 -103.854)"/>
      <path id="Trazado_193485" data-name="Trazado 193485" d="M324.586,115.48a1.245,1.245,0,0,0-1.6.744l-3.75,10.3a1.245,1.245,0,1,0,2.34.852l3.75-10.3A1.245,1.245,0,0,0,324.586,115.48Z" transform="translate(-266.178 -96.245)"/>
      <path id="Trazado_193486" data-name="Trazado 193486" d="M318.9,256.446a1.276,1.276,0,0,0-.114-.216,1.217,1.217,0,0,0-.344-.344,1.276,1.276,0,0,0-.216-.115,1.23,1.23,0,0,0-.951,0,1.277,1.277,0,0,0-.216.115,1.316,1.316,0,0,0-.189.155,1.183,1.183,0,0,0-.154.189,1.284,1.284,0,0,0-.186.448,1.275,1.275,0,0,0,0,.486,1.242,1.242,0,0,0,.071.232,1.278,1.278,0,0,0,.115.216,1.191,1.191,0,0,0,.154.189,1.306,1.306,0,0,0,.189.155,1.294,1.294,0,0,0,.448.186,1.188,1.188,0,0,0,.242.023,1.2,1.2,0,0,0,.244-.023,1.257,1.257,0,0,0,.232-.072,1.276,1.276,0,0,0,.216-.114,1.312,1.312,0,0,0,.189-.155,1.257,1.257,0,0,0,.364-.88,1.2,1.2,0,0,0-.023-.244A1.243,1.243,0,0,0,318.9,256.446Z" transform="translate(-263.963 -213.229)"/>
      <path id="Trazado_193487" data-name="Trazado 193487" d="M190.4,56.477a1.276,1.276,0,0,0,.115.216,1.313,1.313,0,0,0,.156.189,1.069,1.069,0,0,0,.189.154,1.255,1.255,0,0,0,.214.115,1.293,1.293,0,0,0,.232.071,1.217,1.217,0,0,0,.244.025,1.192,1.192,0,0,0,.243-.025,1.309,1.309,0,0,0,.234-.071,1.256,1.256,0,0,0,.214-.115,1.133,1.133,0,0,0,.189-.154,1.2,1.2,0,0,0,.154-.189,1.168,1.168,0,0,0,.115-.216,1.281,1.281,0,0,0,.071-.232,1.2,1.2,0,0,0,.025-.242,1.218,1.218,0,0,0-.025-.244,1.269,1.269,0,0,0-.071-.232,1.246,1.246,0,0,0-.115-.216,1.208,1.208,0,0,0-.344-.344,1.261,1.261,0,0,0-.214-.115,1.313,1.313,0,0,0-.234-.071,1.263,1.263,0,0,0-.487,0,1.289,1.289,0,0,0-.232.071,1.255,1.255,0,0,0-.214.115,1.147,1.147,0,0,0-.189.154,1.3,1.3,0,0,0-.156.189,1.343,1.343,0,0,0-.115.216,1.249,1.249,0,0,0-.07.232,1.2,1.2,0,0,0,0,.486A1.236,1.236,0,0,0,190.4,56.477Z" transform="translate(-158.709 -45.665)"/>
      <path id="Trazado_193488" data-name="Trazado 193488" d="M215.82,56.478a1.118,1.118,0,0,0,.115.214,1.208,1.208,0,0,0,.344.344,1.261,1.261,0,0,0,.214.115,1.31,1.31,0,0,0,.234.071,1.189,1.189,0,0,0,.242.025,1.22,1.22,0,0,0,.244-.025,1.261,1.261,0,0,0,.446-.186,1.135,1.135,0,0,0,.191-.154,1.42,1.42,0,0,0,.154-.189,1.328,1.328,0,0,0,.115-.214,1.463,1.463,0,0,0,.071-.234,1.317,1.317,0,0,0,.023-.242,1.349,1.349,0,0,0-.023-.244,1.4,1.4,0,0,0-.071-.232A1.344,1.344,0,0,0,218,55.31a1.406,1.406,0,0,0-.154-.189,1.232,1.232,0,0,0-.191-.154,1.237,1.237,0,0,0-.933-.186,1.31,1.31,0,0,0-.234.071,1.254,1.254,0,0,0-.214.115,1.229,1.229,0,0,0-.189.154,1.211,1.211,0,0,0-.154.189,1.123,1.123,0,0,0-.115.216,1.152,1.152,0,0,0-.071.232,1.241,1.241,0,0,0,.071.721Z" transform="translate(-179.91 -45.665)"/>
      <path id="Trazado_193489" data-name="Trazado 193489" d="M241.241,56.477a1.276,1.276,0,0,0,.114.216,1.312,1.312,0,0,0,.154.189,1.2,1.2,0,0,0,.189.154,1.277,1.277,0,0,0,.216.115,1.254,1.254,0,0,0,.232.071,1.2,1.2,0,0,0,.486,0,1.258,1.258,0,0,0,.232-.071,1.277,1.277,0,0,0,.216-.115,1.2,1.2,0,0,0,.189-.154,1.244,1.244,0,0,0,0-1.761,1.293,1.293,0,0,0-.189-.154,1.277,1.277,0,0,0-.216-.115,1.23,1.23,0,0,0-.951,0,1.277,1.277,0,0,0-.216.115,1.208,1.208,0,0,0-.344.344,1.343,1.343,0,0,0-.114.216,1.268,1.268,0,0,0-.072.232,1.217,1.217,0,0,0-.025.244,1.2,1.2,0,0,0,.025.242A1.268,1.268,0,0,0,241.241,56.477Z" transform="translate(-201.111 -45.665)"/>
      <path id="Trazado_193490" data-name="Trazado 193490" d="M273.625,57.246h19.214a1.245,1.245,0,0,0,0-2.49H273.625a1.245,1.245,0,0,0,0,2.49Z" transform="translate(-227.161 -45.665)"/>
      <path id="Trazado_193491" data-name="Trazado 193491" d="M421.73,57.246H425.4a1.245,1.245,0,0,0,0-2.49H421.73a1.245,1.245,0,0,0,0,2.49Z" transform="translate(-350.678 -45.665)"/>
      <path id="Trazado_193492" data-name="Trazado 193492" d="M274.562,0h-40.09a1.245,1.245,0,1,0,0,2.49h40.09a2.458,2.458,0,0,1,2.455,2.455v7.029a1.245,1.245,0,0,0,2.49,0V4.946A4.951,4.951,0,0,0,274.562,0Z" transform="translate(-194.508)"/>
      <path id="Trazado_193493" data-name="Trazado 193493" d="M83.755,16.541a1.245,1.245,0,0,0-1.245,1.245V38.744H44.793a4.259,4.259,0,0,0,.245-2.055H77.948a2.509,2.509,0,0,0,2.507-2.507V7.052a2.51,2.51,0,0,0-2.507-2.507c-50.536,0-48.33-.012-48.573.013a2.51,2.51,0,0,0-2.251,2.494V13.7a19.917,19.917,0,0,0-2.055-.06V4.946a2.458,2.458,0,0,1,2.455-2.455h6.628a1.245,1.245,0,1,0,0-2.49H27.525A4.951,4.951,0,0,0,22.58,4.947V13.84a19.756,19.756,0,0,0-11.137,5.289c-5.313,5.313-3.9,12.444-3.194,14.9-2.765,2.71-1.194,7.08,2.9,7.87a21.743,21.743,0,0,0,.35,3.523A15.071,15.071,0,0,0,19,55.158v.992l-6.139,3.622c-.048.013-5.263,1.456-5.171,1.433A7.515,7.515,0,0,0,2.01,67.143L.065,79.232A4.979,4.979,0,0,0,4.979,85H29.933a1.245,1.245,0,0,0,0-2.49H12.217l.364-7.578a1.245,1.245,0,0,0-2.487-.12l-.37,7.7H4.979a2.488,2.488,0,0,1-2.456-2.883L4.464,67.563a5.023,5.023,0,0,1,3.877-3.955c.053-.014.1-.028.153-.044L13.07,62.3l4.6,3.735v8.595a1.245,1.245,0,1,0,2.49,0V68.054l3.317,2.691a2.84,2.84,0,0,0,4.967.006l3.32-2.644v6.522a1.245,1.245,0,0,0,2.49,0v-8.5l4.614-3.675,4.543,1.128A5.172,5.172,0,0,1,47.4,67.563l1.945,12.089a2.466,2.466,0,0,1-2.435,2.858H42.264l-.37-7.7a1.245,1.245,0,1,0-2.487.12l.364,7.578H35.744a1.245,1.245,0,1,0,0,2.49H46.913a4.957,4.957,0,0,0,4.893-5.744L49.857,67.144a7.482,7.482,0,0,0-5.817-5.97l0-.007L39.062,59.93l-6.2-3.769V55.122a14.719,14.719,0,0,0,6.432-6.481h5.862v5.095a3.516,3.516,0,0,0,.44,7H61.983a3.516,3.516,0,0,0,.44-7V48.641c18.94,0,18.847.32,20.591-.983A4.959,4.959,0,0,0,85,43.7V17.787A1.245,1.245,0,0,0,83.755,16.541ZM7.613,61.24a.956.956,0,0,1,.1-.04C7.679,61.212,7.645,61.225,7.613,61.24ZM40.834,39.314V35.141C43.172,35.978,43.129,38.494,40.834,39.314ZM77.948,34.2h-34.1c-.078-.084-.2-.207-.22-.223,1.481-6.92.256-14.077-6.565-15.569-.614-.134-.728-.958-2.626-2.281H77.965V34.182A.019.019,0,0,1,77.948,34.2Zm.016-27.147v6.583H29.615V7.053a.018.018,0,0,1,.016-.016C80.109,7.045,77.964,7.018,77.964,7.053Zm-44.718,11.3c1.537,1.143,1.63,2.129,3.285,2.491a6.192,6.192,0,0,1,3.943,2.754c1.612,2.567,1.427,6.126.871,9.094a5.634,5.634,0,0,0-2.081-.216A4.574,4.574,0,0,1,35.157,30.8a2.452,2.452,0,0,0-3.37-.484c-2.973,2.155-11.421,5.518-18.73,2.317a1.275,1.275,0,0,0-.8-.194,6.184,6.184,0,0,0-1.775.282C6.869,17.45,25.88,12.892,33.246,18.349ZM11.1,35.14c-.017,1.569-.03,2.688-.014,4.17C8.732,38.455,8.828,35.955,11.1,35.14Zm19.27,21.014v2.974l-.518,1.318a6.866,6.866,0,0,1-7.714.006l-.645-1.665V56.206A14.84,14.84,0,0,0,30.372,56.154ZM19,59.041c.008.5.208.579,2.627,7l-6.1-4.948ZM25.642,69.5l-2.22-5.731a9.325,9.325,0,0,0,5.123,0L26.291,69.5h0a.326.326,0,0,1-.324.221C25.817,69.7,25.713,69.68,25.642,69.5ZM36.406,61.23l-6.095,4.854c2.186-5.557,2.681-6.6,2.551-7.009Zm-5.368-7.991a12.288,12.288,0,0,1-17.112-8.386c-.452-1.912-.309-7.827-.333-9.351,6.67,2.194,15.026.16,19.621-3.143a6.884,6.884,0,0,0,5.13,2.617c0,.44,0,.853,0,5.8C38.284,40.969,39.361,49.487,31.038,53.238ZM63.01,57.222a1.028,1.028,0,0,1-1.027,1.027H45.6a1.027,1.027,0,1,1,0-2.055H61.983A1.029,1.029,0,0,1,63.01,57.222ZM59.933,53.7H47.647V48.64H59.933ZM40.263,46.15a15.424,15.424,0,0,0,.57-4.253,5.948,5.948,0,0,0,1.768-.662H82.51c-.007,2.605.045,2.7-.119,3.211a2.464,2.464,0,0,1-1.627,1.6C80.3,46.185,41.226,46.15,40.263,46.15Z" transform="translate(0 0)"/>
    </g>
  </g>
</svg>
