<svg xmlns="http://www.w3.org/2000/svg" xmlns:xlink="http://www.w3.org/1999/xlink" width="275" height="174.744" viewBox="0 0 275 174.744">
  <defs>
    <clipPath id="clip-path">
      <rect id="Rectángulo_296766" data-name="Rectángulo 296766" width="47.208" height="62.104" fill="none"/>
    </clipPath>
    <clipPath id="clip-path-2">
      <rect id="Rectángulo_296767" data-name="Rectángulo 296767" width="8.257" height="36.297" fill="none"/>
    </clipPath>
  </defs>
  <g id="Grupo_146483" data-name="Grupo 146483" transform="translate(-305.001 -4292)">
    <g id="Grupo_146391" data-name="Grupo 146391" transform="translate(305.001 4292)">
      <path id="Trazado_203375" data-name="Trazado 203375" d="M311.782,796.127a1.6,1.6,0,0,0-.035.343c-.011.255-.026.583-.044.987-.017.429-.042.954-.013,1.563s.005,1.306.095,2.069c.073.765.124,1.606.282,2.5.072.445.129.911.221,1.383s.205.956.311,1.452a35.78,35.78,0,0,0,2.092,6.265,36.851,36.851,0,0,0,3.255,5.75c.6.817,1.163,1.607,1.761,2.286.294.343.561.689.848.995l.828.877c.515.571,1.043,1.025,1.484,1.446s.842.76,1.178,1.028l.769.619a1.554,1.554,0,0,0,.28.2,1.613,1.613,0,0,0-.244-.245l-.734-.659c-.323-.28-.716-.626-1.141-1.06s-.945-.891-1.447-1.469l-.81-.884c-.281-.308-.542-.655-.83-1-.587-.681-1.133-1.47-1.728-2.285a38.086,38.086,0,0,1-3.21-5.716,36.867,36.867,0,0,1-2.1-6.21l-.321-1.439c-.1-.468-.157-.929-.234-1.371-.167-.883-.229-1.718-.314-2.477-.1-.759-.09-1.452-.136-2.058s-.035-1.129-.035-1.557c0-.4-.007-.73-.01-.986a1.569,1.569,0,0,0-.022-.345" transform="translate(-219.821 -692.651)" fill="#e1e1e1"/>
      <path id="Trazado_203377" data-name="Trazado 203377" d="M190.313,892.842l-31.274-21.118L7.507,871,.571,893.159Z" transform="translate(84.376 -726.751)" fill="#084a93"/>
      <path id="Trazado_203378" data-name="Trazado 203378" d="M.083,919.418l189.658-.138v-8.928L0,910.945Z" transform="translate(85.259 -744.674)" fill="#084a93"/>
      <path id="Trazado_203379" data-name="Trazado 203379" d="M3.806,911.177c0,.085,40.954.135,91.462.111,50.525-.024,91.471-.112,91.471-.2s-40.946-.134-91.471-.111c-50.508.024-91.462.113-91.462.2" transform="translate(86.188 -744.957)" fill="#042c58"/>
      <path id="Trazado_203387" data-name="Trazado 203387" d="M171.968,774.781s3.383.729,3.97,3.13-4.711,59.84-4.924,61.239c-.334,2.2-2.188,4.99-6.364,4.84-3.639-.131-53.237-.015-65.726.014-1.66,0-2.657-1.409-2.876-3.09l61.409-3.625Z" transform="translate(46.713 -682.929)" fill="#e1e1e1"/>
      <path id="Trazado_203388" data-name="Trazado 203388" d="M178.038,776.7l-5.319,61.943a2.005,2.005,0,0,1-1.962,1.8l-70.179.315,13.482-13.378,45.59-.321,4.875-48.53a1.522,1.522,0,0,1,1.169-1.323l10.213-2.38a1.746,1.746,0,0,1,2.132,1.87" transform="translate(42.182 -682.929)" fill="#e1e1e1"/>
      <path id="Trazado_203389" data-name="Trazado 203389" d="M178.4,776.67a1.383,1.383,0,0,0,.011-.3,1.672,1.672,0,0,0-.273-.838,1.765,1.765,0,0,0-1.193-.786,2.122,2.122,0,0,0-.933.076l-1.039.237-5.421,1.244-3.437.792a1.608,1.608,0,0,0-1.3,1.382q-.1.995-.211,2.047c-1.141,11.225-2.77,27.253-4.727,46.495l.131-.119-45.59.3h-.062l-.044.044-13.483,13.376-.267.266.377,0,3.108-.014,51.446-.243,11.552-.058,2.789-.014c.464,0,.914,0,1.385-.013a2.128,2.128,0,0,0,1.975-1.817c.052-.461.08-.9.121-1.347q.114-1.336.225-2.649c.595-7.005,1.149-13.531,1.654-19.488,1-11.912,1.813-21.551,2.374-28.221.273-3.328.486-5.913.63-7.674.068-.873.12-1.54.156-2s.042-.681.042-.681-.031.229-.074.678-.105,1.122-.187,1.994c-.157,1.76-.389,4.343-.687,7.669-.584,6.667-1.429,16.3-2.472,28.211-.517,5.957-1.084,12.481-1.692,19.485q-.114,1.314-.229,2.649c-.041.442-.072.9-.121,1.334a1.865,1.865,0,0,1-1.732,1.59c-.444.012-.913.007-1.371.01l-2.789.011-11.552.045-51.445.219-3.109.014.109.264,13.48-13.379-.106.044,45.59-.341h.119l.011-.119c1.911-19.246,3.5-35.278,4.617-46.5q.1-1.052.2-2.046a1.465,1.465,0,0,1,1.184-1.265l3.433-.809L175,775.14l1.037-.247a2.063,2.063,0,0,1,.907-.085,1.724,1.724,0,0,1,1.169.748,1.69,1.69,0,0,1,.287.817c.016.2,0,.3.009.3" transform="translate(41.816 -682.902)" fill="#042c58"/>
      <path id="Trazado_203390" data-name="Trazado 203390" d="M191.174,884.039h-6.523l8.247-10.7h3.872Z" transform="translate(-22.322 -727.818)" fill="#042c58"/>
      <path id="Trazado_203391" data-name="Trazado 203391" d="M119.278,782.715l-4.982,53.82-9.282-7.382,4-45.345a.787.787,0,0,1,.673-.709l8.7-1.245a.787.787,0,0,1,.894.86" transform="translate(98.532 -686.146)" fill="#042c58"/>
      <path id="Trazado_203392" data-name="Trazado 203392" d="M136.9,884.039H130.17l-6.842-10.7H127.2Z" transform="translate(70.939 -727.818)" fill="#042c58"/>
      <path id="Trazado_203393" data-name="Trazado 203393" d="M148.6,884.039h-6.523l-3.575-10.7h3.872Z" transform="translate(50.977 -727.818)" fill="#042c58"/>
      <path id="Trazado_203394" data-name="Trazado 203394" d="M160.04,884.039h-6.523l-.351-10.7h3.872Z" transform="translate(31.553 -727.818)" fill="#042c58"/>
      <path id="Trazado_203395" data-name="Trazado 203395" d="M173.284,884.039h-6.523l2.408-10.7h3.872Z" transform="translate(10.906 -727.818)" fill="#042c58"/>
      <path id="Trazado_203396" data-name="Trazado 203396" d="M182.565,884.039h-6.523l5.314-10.7h3.872Z" transform="translate(-6.093 -727.818)" fill="#042c58"/>
      <path id="Trazado_203397" data-name="Trazado 203397" d="M124.706,889.08c0,.051,9.947.093,22.215.093s22.218-.041,22.218-.093-9.945-.093-22.218-.093-22.215.041-22.215.093" transform="translate(37.952 -734.943)" fill="#e1e1e1"/>
      <path id="Trazado_203398" data-name="Trazado 203398" d="M126.64,885.478c0,.051,9.447.093,21.1.093s21.1-.041,21.1-.093-9.445-.093-21.1-.093-21.1.042-21.1.093" transform="translate(37.2 -733.303)" fill="#e1e1e1"/>
      <path id="Trazado_203399" data-name="Trazado 203399" d="M131.215,882.131c0,.1,8.889.185,19.852.185s19.854-.083,19.854-.185-8.887-.185-19.854-.185-19.852.083-19.852.185" transform="translate(32.625 -731.737)" fill="#e1e1e1"/>
      <path id="Trazado_203400" data-name="Trazado 203400" d="M133.286,879.148c0,.1,8.7.185,19.425.185s19.427-.083,19.427-.185-8.7-.185-19.427-.185-19.425.083-19.425.185" transform="translate(30.281 -730.378)" fill="#e1e1e1"/>
      <path id="Trazado_203401" data-name="Trazado 203401" d="M134.49,876.97c0,.1,8.755.185,19.552.185s19.553-.083,19.553-.185-8.753-.185-19.553-.185-19.552.083-19.552.185" transform="translate(28.168 -729.386)" fill="#e1e1e1"/>
      <path id="Trazado_203402" data-name="Trazado 203402" d="M134.912,874.7c0,.1,8.919.185,19.918.185s19.92-.083,19.92-.185-8.917-.185-19.92-.185-19.918.083-19.918.185" transform="translate(26.782 -728.35)" fill="#e1e1e1"/>
      <path id="Trazado_203403" data-name="Trazado 203403" d="M124.322,882.538l-12.158-11.375" transform="translate(89.599 -726.826)" fill="#e1e1e1"/>
      <path id="Trazado_203404" data-name="Trazado 203404" d="M112.163,871.161c-.058.062,2.617,2.659,5.973,5.8s6.126,5.637,6.185,5.575-2.616-2.658-5.974-5.8-6.126-5.637-6.184-5.575" transform="translate(89.6 -726.824)" fill="#042c58"/>
      <path id="Trazado_203405" data-name="Trazado 203405" d="M406.727,783.75s.6-6.289,16.269-10.313c7.567-1.943,25.631-2.877,27.678,8.864.066.38,8.991,74.224,8.991,74.224h-33.4Z" transform="translate(-406.15 -681.782)" fill="#084a93"/>
      <path id="Trazado_203406" data-name="Trazado 203406" d="M471.8,861.716h15.407l-5.146-72.348c-.377-3.521-4.02-6.059-8.138-5.669l-1.379.131c-4.118.389-6.726,4.356-6.608,8.875Z" transform="translate(-465.933 -686.972)" fill="#084a93"/>
      <path id="Trazado_203407" data-name="Trazado 203407" d="M473.219,869c.085-.007-1-14.258-2.43-31.827s-2.653-31.812-2.738-31.805,1,14.255,2.43,31.83S473.135,869,473.219,869" transform="translate(-453.101 -696.858)" fill="#042c58"/>
      <path id="Trazado_203408" data-name="Trazado 203408" d="M477.525,786.387a15.964,15.964,0,0,1,2.166-.509,8.111,8.111,0,0,1,8.6,4.932,16.148,16.148,0,0,1,.654,2.127,1.981,1.981,0,0,0-.031-.606,7.105,7.105,0,0,0-.421-1.6,8,8,0,0,0-8.829-5.065,7.119,7.119,0,0,0-1.6.445,1.951,1.951,0,0,0-.539.28" transform="translate(-473.989 -687.836)" fill="#042c58"/>
      <path id="Trazado_203409" data-name="Trazado 203409" d="M351.1,616.241c-.155-4.236,2.716-4.807,4.926-4.32a7.493,7.493,0,0,1,9.215.5,6.665,6.665,0,0,1,9.856,5.8,5.569,5.569,0,0,1,4.528,9.552A5.353,5.353,0,0,1,377,638.1L351.015,620.8c-1.559-1.641.17-2.293.087-4.555" transform="translate(-298.921 -608.141)" fill="#042c58"/>
      <path id="Trazado_203410" data-name="Trazado 203410" d="M400.936,644.391a22.711,22.711,0,0,0-21.884-21.677l-1.175-.042c-12.7.29-19.55,11.237-18.909,23.925l.335,42.27.083,8.026,29.038,6.9.3-16.731s12.251-1.461,12.835-13.638c.282-5.881-.124-18.037-.618-29.036" transform="translate(-322.102 -613.651)" fill="#c17560"/>
      <path id="Trazado_203411" data-name="Trazado 203411" d="M398.277,736.512a29.569,29.569,0,0,1-15.8-5.24s3.443,8.9,15.637,8.236Z" transform="translate(-331.559 -663.113)" fill="#7c4236"/>
      <path id="Trazado_203412" data-name="Trazado 203412" d="M370.22,683.751a1.741,1.741,0,0,1-1.74,1.7,1.665,1.665,0,0,1-1.737-1.633,1.742,1.742,0,0,1,1.738-1.7,1.667,1.667,0,0,1,1.739,1.634" transform="translate(-294.932 -640.725)" fill="#042c58"/>
      <path id="Trazado_203413" data-name="Trazado 203413" d="M372.035,672.842c-.223.219-1.506-.8-3.379-.865-1.869-.088-3.277.826-3.472.59-.1-.106.138-.507.751-.921a4.776,4.776,0,0,1,2.79-.753,4.592,4.592,0,0,1,2.679.971c.56.462.741.88.63.977" transform="translate(-295.917 -635.611)" fill="#042c58"/>
      <path id="Trazado_203414" data-name="Trazado 203414" d="M397.854,683.043a1.74,1.74,0,0,1-1.74,1.7,1.665,1.665,0,0,1-1.738-1.633,1.742,1.742,0,0,1,1.738-1.7,1.666,1.666,0,0,1,1.739,1.634" transform="translate(-337.613 -640.403)" fill="#042c58"/>
      <path id="Trazado_203415" data-name="Trazado 203415" d="M404.908,671.194c-.224.219-1.509-.8-3.38-.864-1.868-.088-3.277.826-3.472.589-.1-.105.136-.507.753-.921a4.772,4.772,0,0,1,2.789-.753,4.588,4.588,0,0,1,2.68.971c.558.462.739.879.631.977" transform="translate(-346.689 -634.862)" fill="#042c58"/>
      <path id="Trazado_203416" data-name="Trazado 203416" d="M379.149,685.637a12.359,12.359,0,0,1,3.06-.441c.48-.032.936-.111,1.028-.435a2.438,2.438,0,0,0-.268-1.428q-.613-1.759-1.285-3.69c-1.779-5.252-3.048-9.564-2.836-9.634s1.826,4.13,3.6,9.383q.64,1.942,1.224,3.71a2.77,2.77,0,0,1,.182,1.885,1.2,1.2,0,0,1-.811.671,3.273,3.273,0,0,1-.816.084,12.238,12.238,0,0,1-3.082-.105" transform="translate(-315.258 -635.21)" fill="#042c58"/>
      <path id="Trazado_203417" data-name="Trazado 203417" d="M387.585,700.725c.3-.007.237,2.025,1.924,3.529s3.859,1.358,3.865,1.642c.024.129-.5.378-1.412.37a5.065,5.065,0,0,1-3.23-1.256,4.412,4.412,0,0,1-1.483-2.955c-.047-.853.2-1.348.336-1.331" transform="translate(-329.249 -649.2)" fill="#042c58"/>
      <path id="Trazado_203418" data-name="Trazado 203418" d="M405.256,661.377c-.24.478-1.837-.015-3.8-.053-1.959-.082-3.606.312-3.79-.179-.08-.234.264-.665.966-1.055a5.854,5.854,0,0,1,2.934-.663,5.619,5.619,0,0,1,2.846.84c.655.431.948.882.841,1.109" transform="translate(-346.824 -630.39)" fill="#042c58"/>
      <path id="Trazado_203419" data-name="Trazado 203419" d="M371.977,663.522c-.309.44-1.618.059-3.17.111-1.553,0-2.849.419-3.172-.011-.142-.21.044-.645.6-1.074a4.594,4.594,0,0,1,5.111-.08c.567.411.768.841.632,1.055" transform="translate(-296.101 -631.44)" fill="#042c58"/>
      <path id="Trazado_203420" data-name="Trazado 203420" d="M405.868,637.562s-2.942-7.743-6.557-9.654c-4.377-2.314-6.468,2.507-10.669,1.169s-8.38-3.557-12.833-.43c-4.875,3.422-2.74,6.02-3.225,11.415-1.969,21.872-6.191,27.926-6.962,17.563-.084-1.135-3.191-2.146-3.486-6.94-.382-6.217-.353-13.748,1.186-18.1,1.3-3.664,3.5-6.149,7.391-8.838,6.14-4.243,14.359-4.047,19.918-3.287s16.087,7.562,15.239,17.1" transform="translate(-328.006 -612.451)" fill="#042c58"/>
      <path id="Trazado_203421" data-name="Trazado 203421" d="M442.739,685.731a3.308,3.308,0,0,0-3.457-3.314c-2.28.136-4.854,1.335-4.871,6.036-.03,8.337,8.347,6.648,8.362,6.409.01-.163-.016-5.642-.035-9.131" transform="translate(-404.337 -640.859)" fill="#c17560"/>
      <path id="Trazado_203422" data-name="Trazado 203422" d="M441.423,693.981c-.036-.027-.146.1-.392.213a1.453,1.453,0,0,1-1.086.018c-.88-.326-1.616-1.727-1.652-3.23a4.8,4.8,0,0,1,.414-2.078,1.677,1.677,0,0,1,1.1-1.11.739.739,0,0,1,.855.4c.111.234.058.4.1.414.023.021.18-.139.114-.484a.924.924,0,0,0-.326-.523,1.1,1.1,0,0,0-.8-.215,2.04,2.04,0,0,0-1.522,1.287,4.931,4.931,0,0,0-.512,2.322c.047,1.68.9,3.255,2.105,3.608a1.557,1.557,0,0,0,1.329-.216c.259-.205.3-.391.275-.407" transform="translate(-404.789 -643.122)" fill="#7c4236"/>
      <path id="Trazado_203423" data-name="Trazado 203423" d="M379.439,638.874a7.918,7.918,0,0,0,3.469,1.754,2.718,2.718,0,0,0,3.082-1.8c.119-.576,0-1.254.4-1.688.474-.518,1.307-.321,2-.222a5.32,5.32,0,0,0,5.653-3.615,2.233,2.233,0,0,0,2.983.388,11.954,11.954,0,0,0,2.354-2.345,3.427,3.427,0,0,1,2.91-1.329,8.235,8.235,0,0,0,1.8.463c1.1-.058,1.677-1.32,1.881-2.4s.378-2.341,1.325-2.9c.878-.516,1.979-.161,2.981.024s2.31-.006,2.6-.982a1.98,1.98,0,0,0-.319-1.524,5.4,5.4,0,0,0-6.294-2.268,7.315,7.315,0,0,0-13.382-1.894,7.424,7.424,0,0,0-11.957,2.283,5.381,5.381,0,0,0-6.341,7.607,5.111,5.111,0,0,0-2.954,3.967c-.093,1.723,1.526,3.5,3.205,3.106a2.98,2.98,0,0,0,5.046,3.154" transform="translate(-340.3 -610.132)" fill="#042c58"/>
      <path id="Trazado_203424" data-name="Trazado 203424" d="M420.378,652.612a2,2,0,0,0,.462,1.619,2.678,2.678,0,0,0,1.634,1.055,2.887,2.887,0,0,0,2.4-.606l-.35-.065a8.338,8.338,0,0,0,1.589,2.136,4.786,4.786,0,0,0,1.484,1,3.7,3.7,0,0,0,4.123-1.078,4.805,4.805,0,0,0,.736-1.709,1.645,1.645,0,0,0,.088-.67c-.036-.009-.114.217-.267.615a5.6,5.6,0,0,1-.826,1.557,3.4,3.4,0,0,1-5.009-.06,8.384,8.384,0,0,1-1.516-2l-.138-.251-.213.186a2.529,2.529,0,0,1-2.031.568,2.452,2.452,0,0,1-1.479-.848,4.052,4.052,0,0,1-.686-1.443" transform="translate(-386.453 -627.287)" fill="#084a93"/>
      <path id="Trazado_203425" data-name="Trazado 203425" d="M181.122,852.049s15.717-.471,16.66-.765a9.874,9.874,0,0,1,4.356,0c1.118.353,5.592,1.942,5.592,1.942l9.5,2.531s9.542,6.242,9.342,7.491-1.236,2.1-2.943,1.457-10.323-5.122-10.323-5.122l-9.456-1S190.914,863.229,188.3,863s-9.3-1.362-9.3-1.362-.942-6.7-.471-7.762,2.59-1.825,2.59-1.825" transform="translate(-48.72 -717.661)" fill="#c17560"/>
      <path id="Trazado_203426" data-name="Trazado 203426" d="M226.977,871.911s-7.965-8.541-10.172-9.692-14.491-3.167-14.491-3.167-3.935-1.631-5.374-1.055-16.7,2.879-17.37,2.975,3.263,13.435,3.263,13.435a31.109,31.109,0,0,0,11.42-.48c6.142-1.44,8.253-3.359,8.253-3.359l6.131-1.61,3.751,1.431s.674,5.553,3.361,5.265L217,874.79l-.96-6.142,3.934,1.632s3.071,4.606,5.374,3.935,1.632-2.3,1.632-2.3" transform="translate(-49.812 -720.772)" fill="#c17560"/>
      <path id="Trazado_203427" data-name="Trazado 203427" d="M227.1,871.8a1.875,1.875,0,0,1,.061.667,1.484,1.484,0,0,1-.3.75,2.192,2.192,0,0,1-.9.657,2.273,2.273,0,0,1-1.383.2,4.228,4.228,0,0,1-1.524-.774,13.893,13.893,0,0,1-2.892-3.175l-.015-.021-.023-.01-3.929-1.645-.161-.067.027.173c.284,1.848.6,3.922.944,6.144l.048-.111-1.25.861.054-.02a1.8,1.8,0,0,1-1.384-.508,4.1,4.1,0,0,1-.916-1.333,12.069,12.069,0,0,1-.92-3.324l-.011-.078-.071-.027L208.8,868.72l-.041-.016-.042.011-6.133,1.6-.027.007-.033.026a15.962,15.962,0,0,1-4.242,2.162,35.626,35.626,0,0,1-4.832,1.343,30.672,30.672,0,0,1-5.155.581,29.239,29.239,0,0,1-5.321-.294l.12.108-.856-2.972c-.842-3.018-1.69-5.988-2.306-8.925a10.3,10.3,0,0,1-.168-1.094,1.351,1.351,0,0,1,0-.248c-.006-.039.036-.061-.025-.011a.07.07,0,0,1-.034.009l.015,0,.035-.005.07-.01.553-.083,2.193-.336,4.293-.676c2.819-.455,5.55-.9,8.17-1.4.656-.137,1.3-.246,1.947-.446a3.6,3.6,0,0,1,1.843-.055,18.706,18.706,0,0,1,3.552,1.066l.015.006.014,0c4.294.722,8.222,1.428,11.647,2.25a21.243,21.243,0,0,1,2.441.715,7.45,7.45,0,0,1,1.936,1.31c1.159.984,2.167,1.957,3.075,2.833,1.811,1.76,3.189,3.185,4.134,4.149l1.075,1.1c.245.25.376.371.376.371s-.113-.141-.347-.4L225.7,870.27c-.927-.982-2.288-2.424-4.086-4.2-.9-.886-1.9-1.867-3.061-2.865-.291-.248-.591-.5-.914-.736a4.293,4.293,0,0,0-1.066-.616,21.031,21.031,0,0,0-2.464-.737c-3.435-.843-7.359-1.565-11.657-2.3l.029.008a18.924,18.924,0,0,0-3.607-1.093,3.856,3.856,0,0,0-1.981.063c-.6.182-1.261.3-1.908.43-2.613.493-5.345.934-8.163,1.384l-4.292.671-2.192.334-.552.082-.069.01-.034.005-.019,0a.28.28,0,0,0-.065.025.293.293,0,0,0-.131.236,1.569,1.569,0,0,0,0,.311,10.228,10.228,0,0,0,.172,1.132c.619,2.962,1.464,5.927,2.308,8.95l.857,2.974.027.094.093.014a29.382,29.382,0,0,0,5.386.3,30.884,30.884,0,0,0,5.2-.592,35.749,35.749,0,0,0,4.873-1.362,22.981,22.981,0,0,0,2.265-.959,10.848,10.848,0,0,0,2.068-1.268l-.06.033,6.129-1.617-.083,0,3.754,1.425-.082-.106a12.259,12.259,0,0,0,.953,3.4,4.321,4.321,0,0,0,.978,1.407,2.036,2.036,0,0,0,1.571.562l.029,0,.025-.017,1.245-.866.059-.041-.011-.07c-.353-2.221-.682-4.293-.976-6.139l-.134.105,3.94,1.618-.038-.031a13.9,13.9,0,0,0,2.954,3.187,4.317,4.317,0,0,0,1.579.777,2.363,2.363,0,0,0,1.44-.224,2.237,2.237,0,0,0,.92-.7,1.5,1.5,0,0,0,.288-.786,1.266,1.266,0,0,0-.106-.67" transform="translate(-49.932 -720.661)" fill="#7c4236"/>
      <path id="Trazado_203428" data-name="Trazado 203428" d="M199.722,869.677a2.29,2.29,0,0,0,.6-.015c.387-.029.946-.083,1.635-.155l2.419-.269.7-.082a2.316,2.316,0,0,1,.7.014,14.171,14.171,0,0,1,1.493.31c2,.581,4,.966,4.767,2.151a4.465,4.465,0,0,1,.711,1.432,5.879,5.879,0,0,0,.158.579,1.432,1.432,0,0,0-.041-.608,4.084,4.084,0,0,0-.651-1.532,3.732,3.732,0,0,0-.815-.835,4.72,4.72,0,0,0-1.189-.6c-.867-.316-1.832-.617-2.863-.882a13.3,13.3,0,0,0-1.53-.311,2.585,2.585,0,0,0-.767-.008l-.7.093-2.414.335c-.686.1-1.241.186-1.624.252a2.278,2.278,0,0,0-.59.134" transform="translate(-46.679 -725.766)" fill="#7c4236"/>
      <path id="Trazado_203429" data-name="Trazado 203429" d="M206.066,871.2a4.918,4.918,0,0,0-.659-.664c-.442-.407-1.093-.984-1.92-1.673s-1.825-1.49-2.978-2.327c-.579-.416-1.195-.84-1.863-1.243a9.8,9.8,0,0,0-1.061-.555,9.427,9.427,0,0,0-1.174-.377,63,63,0,0,0-8.28-1.424l-2.525-.314a5.369,5.369,0,0,0-.931-.074,5.363,5.363,0,0,0,.915.192l2.509.41a76.862,76.862,0,0,1,8.231,1.506,9.313,9.313,0,0,1,1.135.362,9.767,9.767,0,0,1,1.028.533c.657.391,1.272.808,1.851,1.214,1.154.818,2.163,1.6,3,2.266l1.978,1.594a6.01,6.01,0,0,0,.738.573" transform="translate(-31.632 -722.898)" fill="#7c4236"/>
      <path id="Trazado_203430" data-name="Trazado 203430" d="M270.577,770.09a91.679,91.679,0,0,1,7.51,12.667c2.846,5.925,12.056,26.1,12.056,26.1l37.52,1.97-.554,14.5s-36.24,12.91-44.352,10.42S266,823.9,266,823.9l-3.88-61.146s3.219-.607,8.453,7.34" transform="translate(-195.405 -677.445)" fill="#b9ddfc"/>
      <path id="Trazado_203431" data-name="Trazado 203431" d="M395.531,753.868s9.621,21.821,11.026,31.065c2.791,18.35,3.728,29.837,3.728,29.837l3.271,28.4H349.478s-2.122-52.633-.759-70.28c1.021-13.222,11.148-21.457,15.29-25.98a40.485,40.485,0,0,0,1.39-3.974l29.86,7.648Z" transform="translate(-328.204 -668.424)" fill="#b9ddfc"/>
      <path id="Trazado_203432" data-name="Trazado 203432" d="M349,769.1a1.133,1.133,0,0,0,.074.207l.245.6.959,2.28c.824,1.982,2.012,4.857,3.207,8.5a101.459,101.459,0,0,1,3.313,13.054c.953,4.984,1.725,10.514,2.369,16.337,1.181,11.658,2.25,22.21,3.026,29.868l.942,9.049c.117,1.054.207,1.879.272,2.459.033.268.059.479.078.638a1.248,1.248,0,0,0,.037.217,1.153,1.153,0,0,0-.005-.22l-.048-.642-.215-2.465c-.2-2.157-.489-5.247-.845-9.059-.741-7.648-1.72-18.214-2.936-29.88-.645-5.828-1.426-11.365-2.4-16.356a98.7,98.7,0,0,0-3.385-13.068c-1.225-3.647-2.446-6.513-3.3-8.482-.424-.988-.778-1.744-1.012-2.258l-.273-.583a1.154,1.154,0,0,0-.1-.194" transform="translate(-278.576 -680.342)" fill="#042c58"/>
      <g id="Grupo_138100" data-name="Grupo 138100" transform="translate(36.983 108.107)" opacity="0.3">
        <g id="Grupo_138099" data-name="Grupo 138099">
          <g id="Grupo_138098" data-name="Grupo 138098" clip-path="url(#clip-path)">
            <path id="Trazado_203433" data-name="Trazado 203433" d="M350.546,819.634c.59-5.814,3.2-11.646,7.985-15L397.6,860.424c-6.9,3.719-14.556,7.56-22.219,5.921a22.05,22.05,0,0,1-10.76-6.3c-6.178-6.214-9.531-14.68-11.887-23.12-1.572-5.629-2.78-11.475-2.19-17.289" transform="translate(-350.394 -804.631)"/>
          </g>
        </g>
      </g>
      <path id="Trazado_203434" data-name="Trazado 203434" d="M259.249,792.782c4.868,17.226,15.824,38.244,19.188,42.467a26.12,26.12,0,0,0,20.442,10.03c4.408,0,41.665-7.256,52.706-9.425a4.729,4.729,0,0,0,3.716-3.67l.1-.457,4.971-1.338-2.647-13.337-.528-.739-53.285,1.676-15.5-43.173c-.292-.493-4.77-14.982-16.908-14.323" transform="translate(-226.543 -676.411)" fill="#b9ddfc"/>
      <path id="Trazado_203435" data-name="Trazado 203435" d="M271.168,760.483s.136.006.4.005a11.774,11.774,0,0,1,1.187.029,13.4,13.4,0,0,1,4.477,1.064,16.258,16.258,0,0,1,5.848,4.511A29.288,29.288,0,0,1,288,774.85l-.007-.015,15.456,43.189.033.092.1,0,53.286-1.657-.13-.064.528.739-.026-.059c.766,3.857,1.58,7.96,2.4,12.108.083.421.167.841.244,1.229l.111-.179-4.97,1.339-.1.026-.014.091a4.8,4.8,0,0,1-1.464,2.871,4.468,4.468,0,0,1-1.362.873,7.944,7.944,0,0,1-1.591.406l-6.522,1.274-12.739,2.451c-8.349,1.582-16.392,3.086-24.064,4.385-1.919.318-3.815.622-5.688.887-.938.117-1.87.249-2.789.291a21.847,21.847,0,0,1-2.76-.138,26.168,26.168,0,0,1-10.07-3.23,26.764,26.764,0,0,1-7.515-6.41,35.359,35.359,0,0,1-2.586-3.9q-1.164-1.979-2.2-3.914a210.788,210.788,0,0,1-11.425-25.175c-1.128-3.058-1.93-5.456-2.44-7.091l-.574-1.862c-.131-.419-.205-.631-.205-.631s.054.218.176.64l.546,1.871c.492,1.641,1.276,4.047,2.388,7.114a206.328,206.328,0,0,0,11.347,25.236q1.037,1.937,2.2,3.927a35.51,35.51,0,0,0,2.6,3.933,26.988,26.988,0,0,0,7.572,6.481,26.406,26.406,0,0,0,10.166,3.278,22.088,22.088,0,0,0,2.792.143c.949-.042,1.88-.174,2.823-.29,1.879-.263,3.776-.566,5.7-.882,7.678-1.291,15.723-2.789,24.074-4.367l12.742-2.446,6.522-1.271a8.238,8.238,0,0,0,1.649-.424,4.779,4.779,0,0,0,1.454-.932,5.119,5.119,0,0,0,1.557-3.033l-.111.117,4.97-1.338.139-.038-.028-.142-.243-1.229-2.4-12.108-.007-.033-.019-.027-.528-.739-.048-.067-.082,0-53.285,1.7.131.089-15.546-43.157-.007-.015A29.227,29.227,0,0,0,283.186,766a16.271,16.271,0,0,0-5.913-4.508,13.2,13.2,0,0,0-4.512-1.026,10.343,10.343,0,0,0-1.191-.006c-.267.008-.4.019-.4.019" transform="translate(-226.213 -676.401)" fill="#042c58"/>
      <path id="Trazado_203436" data-name="Trazado 203436" d="M330.082,854.294a15.085,15.085,0,0,1,6.149-6.6,4.186,4.186,0,0,0-1.24.561,11.407,11.407,0,0,0-4.437,4.763,4.173,4.173,0,0,0-.472,1.276" transform="translate(-240.976 -716.135)" fill="#042c58"/>
      <path id="Trazado_203437" data-name="Trazado 203437" d="M363.191,876.635c.053.008.156-.683.466-1.758a16.226,16.226,0,0,1,4.491-7.356c.815-.766,1.382-1.174,1.35-1.218a1.522,1.522,0,0,0-.43.242,10.023,10.023,0,0,0-1.067.813,14.36,14.36,0,0,0-4.555,7.462,9.945,9.945,0,0,0-.236,1.321,1.509,1.509,0,0,0-.019.493" transform="translate(-292.27 -724.612)" fill="#042c58"/>
      <g id="Grupo_138103" data-name="Grupo 138103" transform="translate(76.879 105.06)" opacity="0.3">
        <g id="Grupo_138102" data-name="Grupo 138102">
          <g id="Grupo_138101" data-name="Grupo 138101" clip-path="url(#clip-path-2)">
            <path id="Trazado_203438" data-name="Trazado 203438" d="M356.918,835.216l-3.1.115c-.5-12.17-3.008-24.307-5.155-36.3,5.469,11.17,6.9,23.819,8.257,36.182" transform="translate(-348.661 -799.035)"/>
          </g>
        </g>
      </g>
      <path id="Trazado_203439" data-name="Trazado 203439" d="M383.049,750.229a1.19,1.19,0,0,0,.292.1l.853.234,3.142.835c2.652.7,6.308,1.715,10.371,2.74s7.781,1.818,10.494,2.264c1.356.224,2.457.382,3.222.46l.881.089a1.2,1.2,0,0,0,.309.01,1.176,1.176,0,0,0-.3-.072l-.872-.146c-.758-.115-1.852-.306-3.2-.557-2.7-.5-6.4-1.322-10.457-2.348s-7.724-2-10.392-2.652c-1.333-.33-2.416-.58-3.167-.741l-.867-.178a1.183,1.183,0,0,0-.307-.041" transform="translate(-346.203 -671.745)" fill="#042c58"/>
      <rect id="Rectángulo_296784" data-name="Rectángulo 296784" width="106.858" height="67.973" transform="translate(113.577 9.424)" fill="#fff"/>
      <rect id="Rectángulo_296785" data-name="Rectángulo 296785" width="19.246" height="67.973" transform="translate(113.577 9.424)" fill="#ececec"/>
      <path id="Trazado_203512" data-name="Trazado 203512" d="M116.213,663.017h-8.389a.862.862,0,1,1,0-1.725h8.389a.862.862,0,0,1,0,1.725" transform="translate(10.269 -631.241)" fill="#e1e1e1"/>
      <path id="Trazado_203513" data-name="Trazado 203513" d="M116.213,654.951h-8.389a.862.862,0,1,1,0-1.725h8.389a.862.862,0,0,1,0,1.725" transform="translate(10.269 -627.567)" fill="#e1e1e1"/>
      <path id="Trazado_203514" data-name="Trazado 203514" d="M116.213,647.573h-8.389a.862.862,0,1,1,0-1.725h8.389a.862.862,0,0,1,0,1.725" transform="translate(10.269 -624.207)" fill="#e1e1e1"/>
      <path id="Trazado_203515" data-name="Trazado 203515" d="M116.213,640.573h-8.389a.862.862,0,1,1,0-1.725h8.389a.862.862,0,0,1,0,1.725" transform="translate(10.269 -621.018)" fill="#e1e1e1"/>
      <path id="Trazado_203516" data-name="Trazado 203516" d="M157.978,638.411h-7.947a.862.862,0,0,1,0-1.725h7.947a.862.862,0,0,1,0,1.725" transform="translate(-8.955 -620.034)" fill="#042c58"/>
      <path id="Trazado_203517" data-name="Trazado 203517" d="M157.978,646.7h-7.947a.862.862,0,0,1,0-1.724h7.947a.862.862,0,1,1,0,1.724" transform="translate(-8.955 -623.809)" fill="#e1e1e1"/>
      <path id="Trazado_203518" data-name="Trazado 203518" d="M157.978,655.264h-7.947a.862.862,0,0,1,0-1.724h7.947a.862.862,0,0,1,0,1.724" transform="translate(-8.955 -627.71)" fill="#ffb30b"/>
      <path id="Trazado_203519" data-name="Trazado 203519" d="M154.588,667.823h-4.557a.862.862,0,0,1,0-1.725h4.557a.862.862,0,0,1,0,1.725" transform="translate(-8.955 -633.429)" fill="#e1e1e1"/>
      <path id="Trazado_203520" data-name="Trazado 203520" d="M154.588,719.406h-4.557a.862.862,0,1,1,0-1.724h4.557a.862.862,0,1,1,0,1.724" transform="translate(-8.955 -656.923)" fill="#042c58"/>
      <path id="Trazado_203521" data-name="Trazado 203521" d="M176.28,719.406h-8.356a.862.862,0,1,1,0-1.724h8.356a.862.862,0,1,1,0,1.724" transform="translate(-17.104 -656.923)" fill="#e1e1e1"/>
      <path id="Trazado_203522" data-name="Trazado 203522" d="M158.387,727.039h-8.356a.862.862,0,0,1,0-1.725h8.356a.862.862,0,0,1,0,1.725" transform="translate(-8.955 -660.399)" fill="#ffb30b"/>
      <path id="Trazado_203523" data-name="Trazado 203523" d="M174.211,727.039H172.35a.862.862,0,1,1,0-1.725h1.861a.862.862,0,0,1,0,1.725" transform="translate(-19.119 -660.399)" fill="#042c58"/>
      <path id="Trazado_203524" data-name="Trazado 203524" d="M194.819,727.039H182.965a.862.862,0,1,1,0-1.725h11.854a.862.862,0,0,1,0,1.725" transform="translate(-23.954 -660.399)" fill="#e1e1e1"/>
      <path id="Trazado_203525" data-name="Trazado 203525" d="M181.357,638.411H173.41a.862.862,0,0,1,0-1.725h7.947a.862.862,0,0,1,0,1.725" transform="translate(-19.603 -620.034)" fill="#084a93"/>
      <path id="Trazado_203526" data-name="Trazado 203526" d="M191.595,646.7H173.41a.862.862,0,1,1,0-1.724h18.185a.862.862,0,0,1,0,1.724" transform="translate(-19.602 -623.809)" fill="#042c58"/>
      <path id="Trazado_203527" data-name="Trazado 203527" d="M211.175,655.264H173.41a.862.862,0,0,1,0-1.724h37.765a.862.862,0,0,1,0,1.724" transform="translate(-19.603 -627.71)" fill="#e1e1e1"/>
      <path id="Trazado_203528" data-name="Trazado 203528" d="M184.527,667.823H166.72a.862.862,0,0,1,0-1.725h17.807a.862.862,0,0,1,0,1.725" transform="translate(-16.556 -633.429)" fill="#e1e1e1"/>
      <path id="Trazado_203529" data-name="Trazado 203529" d="M212.734,667.823h-5.969a.862.862,0,0,1,0-1.725h5.969a.862.862,0,0,1,0,1.725" transform="translate(-34.794 -633.429)" fill="#e1e1e1"/>
      <path id="Trazado_203530" data-name="Trazado 203530" d="M236.319,667.771H225.045a.862.862,0,0,1,0-1.724h11.274a.862.862,0,0,1,0,1.724" transform="translate(-43.12 -633.406)" fill="#e1e1e1"/>
      <path id="Trazado_203531" data-name="Trazado 203531" d="M264.5,667.771H253.221a.862.862,0,1,1,0-1.724H264.5a.862.862,0,1,1,0,1.724" transform="translate(-55.952 -633.406)" fill="#e1e1e1"/>
      <path id="Trazado_203532" data-name="Trazado 203532" d="M154.588,676.823h-4.557a.862.862,0,0,1,0-1.725h4.557a.862.862,0,0,1,0,1.725" transform="translate(-8.955 -637.528)" fill="#e1e1e1"/>
      <path id="Trazado_203533" data-name="Trazado 203533" d="M184.527,676.823H166.72a.862.862,0,0,1,0-1.725h17.807a.862.862,0,0,1,0,1.725" transform="translate(-16.556 -637.528)" fill="#e1e1e1"/>
      <path id="Trazado_203534" data-name="Trazado 203534" d="M212.734,676.823h-5.969a.862.862,0,0,1,0-1.725h5.969a.862.862,0,0,1,0,1.725" transform="translate(-34.794 -637.528)" fill="#e1e1e1"/>
      <path id="Trazado_203535" data-name="Trazado 203535" d="M236.319,676.771H225.045a.862.862,0,1,1,0-1.724h11.274a.862.862,0,1,1,0,1.724" transform="translate(-43.12 -637.505)" fill="#e1e1e1"/>
      <path id="Trazado_203536" data-name="Trazado 203536" d="M264.5,676.771H253.221a.862.862,0,1,1,0-1.724H264.5a.862.862,0,1,1,0,1.724" transform="translate(-55.952 -637.505)" fill="#e1e1e1"/>
      <path id="Trazado_203537" data-name="Trazado 203537" d="M154.588,684.823h-4.557a.862.862,0,0,1,0-1.725h4.557a.862.862,0,0,1,0,1.725" transform="translate(-8.955 -641.172)" fill="#e1e1e1"/>
      <path id="Trazado_203538" data-name="Trazado 203538" d="M184.527,684.823H166.72a.862.862,0,0,1,0-1.725h17.807a.862.862,0,0,1,0,1.725" transform="translate(-16.556 -641.172)" fill="#e1e1e1"/>
      <path id="Trazado_203539" data-name="Trazado 203539" d="M212.734,684.823h-5.969a.862.862,0,0,1,0-1.725h5.969a.862.862,0,0,1,0,1.725" transform="translate(-34.794 -641.172)" fill="#e1e1e1"/>
      <path id="Trazado_203540" data-name="Trazado 203540" d="M236.319,684.771H225.045a.862.862,0,0,1,0-1.724h11.274a.862.862,0,0,1,0,1.724" transform="translate(-43.12 -641.149)" fill="#e1e1e1"/>
      <path id="Trazado_203541" data-name="Trazado 203541" d="M264.5,684.771H253.221a.862.862,0,0,1,0-1.724H264.5a.862.862,0,0,1,0,1.724" transform="translate(-55.952 -641.149)" fill="#e1e1e1"/>
      <path id="Trazado_203542" data-name="Trazado 203542" d="M154.588,692.823h-4.557a.862.862,0,0,1,0-1.725h4.557a.862.862,0,0,1,0,1.725" transform="translate(-8.955 -644.815)" fill="#e1e1e1"/>
      <path id="Trazado_203543" data-name="Trazado 203543" d="M184.527,692.823H166.72a.862.862,0,0,1,0-1.725h17.807a.862.862,0,0,1,0,1.725" transform="translate(-16.556 -644.815)" fill="#e1e1e1"/>
      <path id="Trazado_203544" data-name="Trazado 203544" d="M212.734,692.823h-5.969a.862.862,0,0,1,0-1.725h5.969a.862.862,0,0,1,0,1.725" transform="translate(-34.794 -644.815)" fill="#e1e1e1"/>
      <path id="Trazado_203545" data-name="Trazado 203545" d="M236.319,692.771H225.045a.862.862,0,0,1,0-1.724h11.274a.862.862,0,0,1,0,1.724" transform="translate(-43.12 -644.792)" fill="#e1e1e1"/>
      <path id="Trazado_203546" data-name="Trazado 203546" d="M264.5,692.771H253.221a.862.862,0,1,1,0-1.724H264.5a.862.862,0,1,1,0,1.724" transform="translate(-55.952 -644.792)" fill="#e1e1e1"/>
      <path id="Trazado_203547" data-name="Trazado 203547" d="M154.588,701.823h-4.557a.862.862,0,0,1,0-1.725h4.557a.862.862,0,0,1,0,1.725" transform="translate(-8.955 -648.914)" fill="#e1e1e1"/>
      <path id="Trazado_203548" data-name="Trazado 203548" d="M184.527,701.823H166.72a.862.862,0,0,1,0-1.725h17.807a.862.862,0,0,1,0,1.725" transform="translate(-16.556 -648.914)" fill="#e1e1e1"/>
      <path id="Trazado_203549" data-name="Trazado 203549" d="M212.734,701.823h-5.969a.862.862,0,0,1,0-1.725h5.969a.862.862,0,0,1,0,1.725" transform="translate(-34.794 -648.914)" fill="#e1e1e1"/>
      <path id="Trazado_203550" data-name="Trazado 203550" d="M236.319,701.771H225.045a.862.862,0,1,1,0-1.724h11.274a.862.862,0,0,1,0,1.724" transform="translate(-43.12 -648.891)" fill="#e1e1e1"/>
      <path id="Trazado_203551" data-name="Trazado 203551" d="M264.5,701.771H253.221a.862.862,0,1,1,0-1.724H264.5a.862.862,0,1,1,0,1.724" transform="translate(-55.952 -648.891)" fill="#e1e1e1"/>
      <path id="Trazado_203552" data-name="Trazado 203552" d="M154.588,709.823h-4.557a.862.862,0,0,1,0-1.725h4.557a.862.862,0,0,1,0,1.725" transform="translate(-8.955 -652.558)" fill="#e1e1e1"/>
      <path id="Trazado_203553" data-name="Trazado 203553" d="M184.527,709.823H166.72a.862.862,0,0,1,0-1.725h17.807a.862.862,0,0,1,0,1.725" transform="translate(-16.556 -652.558)" fill="#e1e1e1"/>
      <path id="Trazado_203554" data-name="Trazado 203554" d="M212.734,709.823h-5.969a.862.862,0,0,1,0-1.725h5.969a.862.862,0,0,1,0,1.725" transform="translate(-34.794 -652.558)" fill="#e1e1e1"/>
      <path id="Trazado_203555" data-name="Trazado 203555" d="M236.319,709.771H225.045a.862.862,0,0,1,0-1.724h11.274a.862.862,0,0,1,0,1.724" transform="translate(-43.12 -652.535)" fill="#e1e1e1"/>
      <path id="Trazado_203556" data-name="Trazado 203556" d="M264.5,709.771H253.221a.862.862,0,0,1,0-1.724H264.5a.862.862,0,1,1,0,1.724" transform="translate(-55.952 -652.535)" fill="#e1e1e1"/>
      <path id="Trazado_203557" data-name="Trazado 203557" d="M112.58,671.555h-4.756a.862.862,0,0,1,0-1.724h4.756a.862.862,0,0,1,0,1.724" transform="translate(10.268 -635.13)" fill="#e1e1e1"/>
      <path id="Trazado_203558" data-name="Trazado 203558" d="M111.157,697.171h-3.333a.862.862,0,0,1,0-1.725h3.333a.862.862,0,0,1,0,1.725" transform="translate(10.268 -646.796)" fill="#e1e1e1"/>
      <path id="Trazado_203559" data-name="Trazado 203559" d="M117.075,680.094h-9.252a.862.862,0,0,1,0-1.725h9.252a.862.862,0,0,1,0,1.725" transform="translate(10.269 -639.018)" fill="#e1e1e1"/>
      <path id="Trazado_203560" data-name="Trazado 203560" d="M115.452,688.632h-7.629a.862.862,0,0,1,0-1.725h7.629a.862.862,0,0,1,0,1.725" transform="translate(10.269 -642.907)" fill="#e1e1e1"/>
      <path id="Trazado_203561" data-name="Trazado 203561" d="M205.023,606.393H103.2a2.942,2.942,0,0,0-2.942,2.942v6.326H207.112v-7.179a2.088,2.088,0,0,0-2.088-2.088" transform="translate(13.323 -606.237)" fill="#e1e1e1"/>
      <path id="Trazado_203562" data-name="Trazado 203562" d="M110.6,614.352a1.273,1.273,0,1,1-1.273-1.273,1.273,1.273,0,0,1,1.273,1.273" transform="translate(9.769 -609.282)" fill="#fff"/>
      <path id="Trazado_203563" data-name="Trazado 203563" d="M117.8,614.352a1.273,1.273,0,1,1-1.273-1.273,1.273,1.273,0,0,1,1.273,1.273" transform="translate(6.493 -609.282)" fill="#fff"/>
      <path id="Trazado_203564" data-name="Trazado 203564" d="M124.989,614.352a1.273,1.273,0,1,1-1.273-1.273,1.273,1.273,0,0,1,1.273,1.273" transform="translate(3.217 -609.282)" fill="#fff"/>
      <path id="Trazado_203565" data-name="Trazado 203565" d="M141.991,746.288l9.032,9.764,8.2-9.764Z" transform="translate(-5.686 -669.952)" fill="#fff"/>
      <path id="Trazado_203566" data-name="Trazado 203566" d="M204.084,683.5a3.4,3.4,0,0,0,.935-.174,2.89,2.89,0,0,0,1.826-1.96,3.158,3.158,0,0,0,.1-.963q0-.519,0-1.09,0-1.144-.007-2.5c0-1.807-.009-3.892-.014-6.238-.012-9.392-.029-22.974-.05-39.756q0-6.295-.01-13.173,0-3.436,0-7.007c-.008-.589.016-1.207-.018-1.78a2.784,2.784,0,0,0-2.185-2.412,12.465,12.465,0,0,0-1.812-.058l-31.509.014-34.818.009-18.417,0H103.923c-.391.006-.812-.014-1.178.014a2.709,2.709,0,0,0-1.071.341,2.761,2.761,0,0,0-1.322,1.765,8.348,8.348,0,0,0-.074,1.632v5q0,3.321,0,6.612,0,6.58,0,13.027c0,8.592,0,16.989,0,25.146q0,6.117,0,12.049,0,2.964,0,5.878c0,.968-.009,1.947.008,2.892a2.748,2.748,0,0,0,2.678,2.586l1.416,0h2.82l5.556,0,10.757.005h.057l.039.041,8.272,8.708-.185.005,7.314-8.7.035-.042h.054l47.5.052,12.966.032,3.378.016c.761.006,1.152.017,1.152.017s-.39.011-1.152.017l-3.378.016-12.966.032-47.5.052.089-.042-7.3,8.709-.09.107-.1-.1-8.282-8.7.095.041-10.757.005-5.556,0h-2.82l-1.423,0a3.033,3.033,0,0,1-2.954-2.85c-.019-.979-.006-1.934-.01-2.909q0-2.914,0-5.878,0-5.929,0-12.049c0-8.157,0-16.555,0-25.146q0-6.444,0-13.027V609.333a3.518,3.518,0,0,1,.082-.866,3.068,3.068,0,0,1,1.47-1.963,3.023,3.023,0,0,1,1.191-.38c.429-.031.8-.009,1.209-.016H118.1l18.417,0,34.818.009,31.509.014a12.373,12.373,0,0,1,1.865.066,3.037,3.037,0,0,1,2.381,2.634c.035.626.009,1.206.017,1.807q0,3.57,0,7.007,0,6.871-.01,13.173c-.021,16.782-.038,30.364-.049,39.756-.005,2.346-.01,4.431-.014,6.238q0,1.355-.007,2.5,0,.572,0,1.09a3.209,3.209,0,0,1-.112.98,2.893,2.893,0,0,1-.858,1.379,2.861,2.861,0,0,1-1.721.734c-.161.005-.242,0-.242,0" transform="translate(13.453 -606.107)" fill="#042c58"/>
    </g>
  </g>
</svg>
