<svg xmlns="http://www.w3.org/2000/svg" width="85" height="65.434" viewBox="0 0 85 65.434">
  <g id="Grupo_146482" data-name="Grupo 146482" transform="translate(-180 -9576)">
    <g id="Grupo_131469" data-name="Grupo 131469" transform="translate(180 9576)">
      <g id="Grupo_131467" data-name="Grupo 131467" transform="translate(0 0)">
        <path id="Trazado_190986" data-name="Trazado 190986" d="M-911.092,438.9q-18.587,0-37.176,0c-3.912,0-5.326-1.4-5.326-5.254q0-27.384,0-54.768c0-3.722,1.637-5.4,5.32-5.405q37.176-.011,74.352,0c3.682,0,5.326,1.685,5.326,5.4q0,27.466,0,54.934c0,3.64-1.463,5.09-5.155,5.093Q-892.421,438.9-911.092,438.9Zm.1-50.572c-12.944,0-25.889.016-38.833-.027-1.16,0-1.464.288-1.46,1.454.041,14.77.024,29.539.031,44.309,0,1.937.516,2.472,2.461,2.473q37.673.013,75.344,0c2.025,0,2.509-.522,2.509-2.593.005-14.715-.018-29.429.037-44.144,0-1.313-.416-1.5-1.587-1.5C-885.321,388.343-898.155,388.327-910.989,388.327Zm-.19-2.347h19.416c6.528,0,13.055-.025,19.582.026,1.028.007,1.327-.253,1.274-1.282-.09-1.765-.025-3.538-.025-5.309,0-3.206-.4-3.6-3.655-3.6H-947.6c-.443,0-.887-.015-1.328.008a2.177,2.177,0,0,0-2.327,2.426c0,2.046.083,4.1-.031,6.138-.073,1.294.3,1.626,1.61,1.622C-936.846,385.959-924.012,385.98-911.178,385.98Z" transform="translate(953.595 -373.466)" fill="#0d0d0d" fill-rule="evenodd"/>
        <path id="Trazado_190987" data-name="Trazado 190987" d="M-910.135,393.805c12.834,0,25.668.015,38.5-.026,1.172,0,1.591.186,1.587,1.5-.055,14.715-.032,29.429-.037,44.144,0,2.071-.485,2.593-2.509,2.593q-37.672.012-75.344,0c-1.946,0-2.461-.536-2.461-2.473-.007-14.77.01-29.539-.031-44.309,0-1.166.3-1.458,1.46-1.454C-936.024,393.821-923.079,393.805-910.135,393.805Zm-12.372,37.829a1.633,1.633,0,0,1,.133-1.22c.669-2.056.381-2.47-1.75-2.476-2.544-.007-5.09-.028-7.633.012-.77.012-1.082-.177-1.044-1.006.064-1.435.01-2.876.019-4.314.015-2.522,1-3.538,3.5-3.558,2.711-.023,5.424.064,8.131-.037,1.285-.047,1.718.284,1.642,1.618-.11,1.963.186,2.184,2.15,2.187q6.888.014,13.775,0c2.552,0,2.557-.019,2.65-2.566.018-.475-.309-1.22.644-1.208,5.141.07,10.745-1.373,14.185,4.305.056.091.162.15.233.235.847,1.019,1.636.857,2.49-.038,1.3-1.361,2.652-2.667,3.979-4,1.553-1.561,1.667-1.889-.036-3.289-2.943-2.418-4.873-5.16-4.039-9.185a1.156,1.156,0,0,0-.017-.331,5.143,5.143,0,0,0-5.094-4.912,15.074,15.074,0,0,0-2.157,0c-1.131.091-1.476-.159-1-1.365.732-1.846.294-2.383-1.71-2.387q-8.049-.014-16.1,0c-2.694,0-2.755-.019-3.6,2.524a1.528,1.528,0,0,1-1.766,1.242c-3.207-.059-6.417-.035-9.625-.012a1.363,1.363,0,0,1-1.526-.879,4.73,4.73,0,0,0-4.646-2.866c-3.429-.026-6.86-.048-10.289.007a4.9,4.9,0,0,0-5.088,4.814,4.89,4.89,0,0,0,5.078,4.989c3.429.066,6.859.037,10.289.008a4.893,4.893,0,0,0,4.681-2.847c.213-.432.326-.909,1-.9,3.47.025,6.939.012,10.536.012-.207.671-.347,1.141-.494,1.607-.485,1.529-.134,2.122,1.424,2.13,5.974.028,11.949,0,17.924.017a1.649,1.649,0,0,0,1.721-1.223c1-2.55,1.035-2.536,3.81-2.535.387,0,.775-.012,1.161,0,2.036.085,2.961,1.063,3.178,3.055.348,3.186-.058,6.03-3.013,7.943a2.461,2.461,0,0,0-.583.586,2.547,2.547,0,0,1-2.3.984c-2.6-.061-5.2-.11-7.8.017-1.332.065-1.534-.418-1.488-1.582.079-2-.146-2.165-2.168-2.168q-6.97-.007-13.941,0c-2.365,0-2.5.064-2.431,2.4.033,1.13-.342,1.363-1.389,1.338-2.875-.068-5.753-.056-8.629-.013-3.483.051-5.552,2.155-5.588,5.613-.015,1.493-.05,2.989.015,4.48.038.854-.188,1.16-1.09,1.122-1.711-.072-3.431.034-5.143-.04a1.824,1.824,0,0,0-2.081,1.428c-.6,1.834-1.286,3.639-1.937,5.456-.912,2.547-.656,2.926,2,2.927,5.311,0,10.623-.079,15.931.045,1.86.042,2.93-.477,3.273-2.349a1.531,1.531,0,0,1,1.748-1.479c8.8.064,17.591.045,26.387.02a1.462,1.462,0,0,1,1.628.979,4.315,4.315,0,0,0,4.028,2.73c3.814.072,7.636.123,11.447-.019a4.718,4.718,0,0,0,4.518-4.974,4.841,4.841,0,0,0-4.827-4.719c-3.595-.063-7.191-.042-10.787-.007a4.449,4.449,0,0,0-4.28,2.613,1.681,1.681,0,0,1-1.892,1.082c-4.315-.028-8.63-.013-12.945-.013Z" transform="translate(952.741 -378.944)" fill="#fff1d1" fill-rule="evenodd"/>
        <path id="Trazado_190988" data-name="Trazado 190988" d="M-910.33,386.847c-12.833,0-25.667-.021-38.5.032-1.305,0-1.683-.328-1.61-1.622.114-2.041.029-4.092.031-6.138a2.177,2.177,0,0,1,2.327-2.426c.441-.023.885-.008,1.328-.008h73.017c3.259,0,3.654.391,3.655,3.6,0,1.77-.065,3.544.025,5.309.053,1.028-.247,1.289-1.274,1.282-6.528-.05-13.055-.025-19.582-.025Zm13.2-3.928q10.785,0,21.572,0c.5,0,1,0,1.491-.04a1.017,1.017,0,0,0,.979-.954,1.046,1.046,0,0,0-.86-1.232,6.6,6.6,0,0,0-1.479-.1q-21.572-.007-43.143,0a6.134,6.134,0,0,0-1.629.178.98.98,0,0,0-.666,1.19.946.946,0,0,0,.842.887,11.891,11.891,0,0,0,1.488.069Q-907.837,382.922-897.134,382.918Zm-47.651.039c.932-.326,2.672.652,2.642-1.225-.025-1.616-1.6-1.114-2.6-1.12s-2.562-.47-2.607,1.129C-947.394,383.462-945.77,382.72-944.785,382.957Zm17.831.011c.827-.325,2.464.57,2.493-1.166.028-1.678-1.537-1.2-2.53-1.19-1.043.007-2.7-.525-2.682,1.208C-929.651,383.453-928.025,382.734-926.954,382.968Zm-9.183-.054c.643,0,1.136.005,1.629,0,.765-.01,1.309-.358,1.3-1.153s-.6-1.119-1.327-1.165a9.69,9.69,0,0,0-1.478,0c-.958.09-2.418-.427-2.466,1.118C-938.536,383.494-936.925,382.7-936.137,382.914Z" transform="translate(952.746 -374.333)" fill="#0ddcf1" fill-rule="evenodd"/>
        <path id="Trazado_190989" data-name="Trazado 190989" d="M-886.217,384.36q-10.7,0-21.406,0a11.9,11.9,0,0,1-1.488-.069.946.946,0,0,1-.842-.887.98.98,0,0,1,.666-1.19,6.134,6.134,0,0,1,1.629-.178q21.571-.013,43.143,0a6.6,6.6,0,0,1,1.479.1,1.046,1.046,0,0,1,.86,1.232,1.017,1.017,0,0,1-.979.955c-.494.043-.994.04-1.49.04Q-875.432,384.362-886.217,384.36Z" transform="translate(941.83 -375.775)" fill="#0d0d0d" fill-rule="evenodd"/>
        <path id="Trazado_190990" data-name="Trazado 190990" d="M-943.64,384.383c-.984-.237-2.609.5-2.561-1.217.044-1.6,1.6-1.136,2.607-1.129s2.572-.5,2.6,1.12C-940.969,385.036-942.708,384.058-943.64,384.383Z" transform="translate(951.601 -375.759)" fill="#0e0e0e" fill-rule="evenodd"/>
        <path id="Trazado_190991" data-name="Trazado 190991" d="M-919.283,384.393c-1.071-.234-2.7.485-2.718-1.148-.023-1.733,1.639-1.2,2.682-1.208.993-.006,2.558-.488,2.53,1.19C-916.819,384.963-918.455,384.068-919.283,384.393Z" transform="translate(945.075 -375.758)" fill="#0f0f0f" fill-rule="evenodd"/>
        <path id="Trazado_190992" data-name="Trazado 190992" d="M-931.719,384.348c-.788-.215-2.4.581-2.343-1.205.048-1.545,1.508-1.028,2.466-1.118a9.694,9.694,0,0,1,1.478,0c.73.046,1.318.368,1.327,1.165s-.535,1.143-1.3,1.153C-930.583,384.353-931.076,384.348-931.719,384.348Z" transform="translate(948.327 -375.767)" fill="#0e0e0e" fill-rule="evenodd"/>
        <path id="Trazado_190993" data-name="Trazado 190993" d="M-880.187,402.877a6.414,6.414,0,0,1-.123.716c-1.483,4.465-1.483,4.464-6.21,4.464-3.473,0-6.946-.046-10.417.025-1.241.025-1.347-.284-.954-1.394,1.348-3.8,1.305-3.812,5.368-3.812Z" transform="translate(938.627 -381.398)" fill="#ffb30c" fill-rule="evenodd"/>
        <path id="Trazado_190994" data-name="Trazado 190994" d="M-922.016,443.742c-.546,1.554-1.061,2.942-1.514,4.348-.209.651-.6.8-1.23.8-4.811-.02-9.623-.028-14.434,0-.911.005-1.042-.342-.728-1.076.043-.1.1-.2.133-.3,1.281-3.766,1.28-3.766,5.231-3.766Z" transform="translate(949.949 -392.418)" fill="#ffb30c" fill-rule="evenodd"/>
        <path id="Trazado_190995" data-name="Trazado 190995" d="M-863.217,443.74c1.71,0,3.42-.036,5.128.01a2.569,2.569,0,0,1,2.726,2.512,2.514,2.514,0,0,1-2.643,2.581q-5.291.09-10.585,0a2.556,2.556,0,0,1-2.658-2.581,2.6,2.6,0,0,1,2.74-2.512C-866.746,443.7-864.982,443.74-863.217,443.74Z" transform="translate(931.388 -392.414)" fill="#ffb30c" fill-rule="evenodd"/>
        <path id="Trazado_190996" data-name="Trazado 190996" d="M-933.444,408.052c-1.6,0-3.2.021-4.8-.007-1.891-.032-3.024-.992-3.056-2.535s1.111-2.607,2.964-2.627q4.964-.055,9.927,0c1.829.019,3.017,1.106,2.993,2.616s-1.212,2.514-3.064,2.547C-930.134,408.073-931.789,408.052-933.444,408.052Z" transform="translate(950.279 -381.392)" fill="#cc8f08" fill-rule="evenodd"/>
        <path id="Trazado_190997" data-name="Trazado 190997" d="M-857.917,425.559c-.2.244-.33.421-.481.574-.814.826-1.655,1.626-2.444,2.477-.438.471-.715.432-1.211.018-3.152-2.633-3.145-3.593.073-6.134.429-.339.677-.424,1.076,0,.834.884,1.71,1.725,2.566,2.587C-858.2,425.223-858.07,425.383-857.917,425.559Z" transform="translate(929.542 -386.61)" fill="#154f8d" fill-rule="evenodd"/>
      </g>
      <rect id="Rectángulo_293842" data-name="Rectángulo 293842" width="74.954" height="41.345" transform="translate(6.736 19.133)" fill="#fff1d1"/>
      <g id="Grupo_131468" data-name="Grupo 131468" transform="translate(16.579 21.984)">
        <path id="Trazado_190998" data-name="Trazado 190998" d="M-876.789,420.773c-2.053-1.589-3.99-3.059-5.893-4.57-1.879-1.493-2.321-3.438-1.246-5.236a3.624,3.624,0,0,1,5.563-1.106q5.266,3.883,10.354,8.009a3.609,3.609,0,0,1,.111,5.673q-5.177,4.272-10.609,8.232a3.506,3.506,0,0,1-5.231-.9c-1.375-1.878-1.186-3.63.724-5.221C-881.061,424.02-879.009,422.5-876.789,420.773Zm-3.6,9.067a3.7,3.7,0,0,0,.748-.38c3.242-2.493,6.486-4.982,9.7-7.511,1.093-.86.831-1.729-.175-2.507q-3.643-2.81-7.275-5.632c-.808-.625-1.6-1.28-2.448-1.846a1.221,1.221,0,0,0-1.808.26,1.166,1.166,0,0,0,.244,1.67,10.635,10.635,0,0,0,1.051.867c2.019,1.566,4.036,3.137,6.064,4.691,1.128.864,1.2,1.713.039,2.6-1.08.831-2.152,1.672-3.227,2.512-1.3,1.012-2.607,2.012-3.886,3.049a1.134,1.134,0,0,0-.414,1.5A1.22,1.22,0,0,0-880.388,429.84Z" transform="translate(918.419 -405.035)" fill="#040504" fill-rule="evenodd"/>
        <path id="Trazado_190999" data-name="Trazado 190999" d="M-891.365,407.724c-.547,2.59-1.122,5.36-1.72,8.126q-1.684,7.8-3.388,15.6c-.514,2.358-1.905,3.643-3.865,3.6a4.027,4.027,0,0,1-3.8-3.11,3.718,3.718,0,0,1,.014-1.683q2.521-11.617,5.033-23.237a4.029,4.029,0,0,1,4.2-3.435A4.063,4.063,0,0,1-891.365,407.724Zm-2.669.208c.065-.93-.126-1.561-.974-1.7a1.206,1.206,0,0,0-1.474,1.062c-.079.33-.183.654-.256.986q-1.692,7.8-3.378,15.595c-.467,2.157-.949,4.31-1.393,6.472-.18.878-.194,1.8.927,2.037,1.041.217,1.354-.567,1.535-1.4.072-.332.162-.659.235-.99q1.492-6.8,2.977-13.6C-895.21,413.52-894.609,410.64-894.034,407.932Z" transform="translate(923.702 -403.567)" fill="#020503" fill-rule="evenodd"/>
        <path id="Trazado_191000" data-name="Trazado 191000" d="M-926.118,426.436c-1.1-.884-2.221-1.735-3.279-2.662a3.782,3.782,0,0,1,.138-6.127q1.91-1.534,3.82-3.064c.119-.136.239-.273.359-.408v.056a47.6,47.6,0,0,0,5.311-3.914c2.37-1.747,4.481-1.664,5.953.313,1.451,1.949.968,4.074-1.331,5.854-1.824,1.412-3.645,2.826-5.553,4.305,2.187,1.71,4.291,3.25,6.271,4.935,2.171,1.846,2.029,4.342-.207,6.083a3.324,3.324,0,0,1-3.98.181c-1.151-.679-2.73-1.173-2.341-3.081,1.091-.9,1.97-.354,2.853.386.692.582,1.477,1.024,2.2.1.745-.947.053-1.558-.648-2.106-2.19-1.708-4.4-3.391-6.57-5.119-1.364-1.086-1.35-1.7.039-2.791,2.181-1.72,4.389-3.4,6.575-5.114.648-.508,1.287-1.1.651-1.985-.67-.928-1.475-.6-2.21-.031q-4.707,3.638-9.4,7.291c-1.055.821-1.07,1.667-.016,2.5,1.291,1.016,2.583,2.032,3.9,3.015a1.715,1.715,0,0,1,.79,2.042C-924.228,428.536-925.065,426.937-926.118,426.436Z" transform="translate(930.894 -405.052)" fill="#040504" fill-rule="evenodd"/>
        <path id="Trazado_191001" data-name="Trazado 191001" d="M-921.821,428.06a1.715,1.715,0,0,0-.79-2.042c-1.317-.984-2.609-2-3.9-3.016-1.054-.83-1.039-1.675.016-2.5q4.7-3.65,9.4-7.291c.735-.569,1.54-.9,2.21.031.635.881,0,1.477-.651,1.985-2.186,1.711-4.394,3.395-6.575,5.114-1.388,1.094-1.4,1.705-.039,2.791,2.172,1.728,4.38,3.411,6.57,5.119.7.548,1.393,1.159.648,2.106-.727.924-1.512.482-2.2-.1-.883-.741-1.761-1.288-2.853-.386Q-920.9,428.968-921.821,428.06Z" transform="translate(929.923 -406.021)" fill="#ffb30c" fill-rule="evenodd"/>
        <path id="Trazado_191002" data-name="Trazado 191002" d="M-923.066,416.059c-.12.135-.24.272-.359.408Z" transform="translate(928.88 -406.936)" fill="#757577" fill-rule="evenodd"/>
        <path id="Trazado_191003" data-name="Trazado 191003" d="M-879.385,430.827a1.22,1.22,0,0,1-1.388-.719,1.134,1.134,0,0,1,.414-1.5c1.279-1.037,2.588-2.038,3.886-3.049,1.076-.84,2.147-1.681,3.227-2.512,1.159-.892,1.089-1.74-.039-2.6-2.028-1.553-4.045-3.125-6.064-4.691a10.63,10.63,0,0,1-1.051-.867,1.166,1.166,0,0,1-.244-1.67,1.221,1.221,0,0,1,1.808-.26c.849.566,1.64,1.22,2.448,1.846q3.639,2.813,7.275,5.632c1.006.777,1.268,1.647.175,2.506-3.213,2.529-6.458,5.018-9.7,7.511A3.7,3.7,0,0,1-879.385,430.827Z" transform="translate(917.416 -406.021)" fill="#ffb30c" fill-rule="evenodd"/>
        <path id="Trazado_191004" data-name="Trazado 191004" d="M-893.065,408.908c-.576,2.708-1.176,5.588-1.8,8.463q-1.478,6.8-2.977,13.6c-.073.332-.164.659-.235.99-.181.836-.494,1.62-1.535,1.4-1.122-.234-1.108-1.159-.927-2.037.443-2.163.926-4.315,1.393-6.472q1.688-7.8,3.378-15.595c.072-.332.177-.656.256-.986a1.206,1.206,0,0,1,1.474-1.062C-893.19,407.347-893,407.978-893.065,408.908Z" transform="translate(922.733 -404.543)" fill="#ffb30c" fill-rule="evenodd"/>
      </g>
    </g>
  </g>
</svg>
