<svg xmlns="http://www.w3.org/2000/svg" width="132" height="169.978" viewBox="0 0 132 169.978">
  <g id="Grupo_146484" data-name="Grupo 146484" transform="translate(-1268 -4645.022)">
    <g id="Grupo_132232" data-name="Grupo 132232" transform="translate(966.695 2827.35)">
      <path id="Trazado_192731" data-name="Trazado 192731" d="M307.206,1987.65c-.6-.268-1.2-.529-1.8-.807a6.326,6.326,0,0,1-4.1-6.193q.048-76.675.047-153.352a17.04,17.04,0,0,1,.565-4.416,6.806,6.806,0,0,1,6.857-5.2q42.329-.028,84.656-.014a5.874,5.874,0,0,1,4.307,1.817c11.192,11.186,22.406,22.35,33.522,33.61a9.436,9.436,0,0,1,1.844,3.928,11.875,11.875,0,0,1,.174,3.3q.009,59.581.005,119.162c0,4.673-.969,6.1-5.311,7.845a5.041,5.041,0,0,0-.567.317Zm85.014-164.02c-.631-.028-1.068-.063-1.506-.064q-40.509,0-81.018-.035c-1.65,0-2.339.625-2.427,2.152-.032.552-.055,1.1-.055,1.658q0,51.374,0,102.749v1.754h120.1v-73.263H392.22ZM427.4,1937.96H307.211v1.591q0,19.828,0,39.657c0,2.312.241,2.55,2.588,2.55q57.5,0,115.009,0c2.347,0,2.587-.238,2.588-2.55q0-19.828,0-39.657ZM398.188,1852.7H421.85l-23.662-23.657Z" transform="translate(0 0)" fill="#084a93"/>
      <path id="Trazado_192732" data-name="Trazado 192732" d="M392.916,1824.32v34.951H428v73.263h-120.1v-1.754q0-51.375,0-102.749c0-.553.023-1.106.055-1.658.088-1.527.777-2.155,2.427-2.152q40.509.07,81.018.035C391.848,1824.257,392.285,1824.293,392.916,1824.32ZM378.3,1862.352l.293-.364c-.792-.806-1.451-1.881-2.408-2.348a2.426,2.426,0,0,0-3.18,1.032,10.283,10.283,0,0,0-.949,2.1q-7.479,21.139-14.93,42.288c-.751,2.132-1.525,4.261-2.141,6.432a2.761,2.761,0,0,0,1.726,3.352,2.884,2.884,0,0,0,3.641-1.459,8.707,8.707,0,0,0,.492-1.227q8.457-23.953,16.9-47.91C377.966,1863.631,378.116,1862.986,378.3,1862.352Zm19.292,26.328c-4.931,4.928-9.7,9.689-14.462,14.457a11.86,11.86,0,0,0-1.321,1.478,2.851,2.851,0,0,0,3.841,4.077,7.785,7.785,0,0,0,1.376-1.185q7.983-7.965,15.951-15.944c2.227-2.23,2.228-3.511,0-5.739q-7.908-7.922-15.831-15.829c-2.037-2.035-3.568-2.329-5-.972s-1.145,3.1.873,5.119C387.825,1878.943,392.639,1883.741,397.59,1888.679Zm-62.323-.242a12.617,12.617,0,0,0,1.636-1.154q6.589-6.541,13.138-13.121a9.911,9.911,0,0,0,1.215-1.353,2.857,2.857,0,0,0-3.945-4.032,8.732,8.732,0,0,0-1.246,1.083q-7.979,7.964-15.947,15.941c-2.252,2.254-2.264,3.518-.055,5.73q8.025,8.037,16.065,16.058a7.354,7.354,0,0,0,1.252,1.075,2.855,2.855,0,0,0,3.916-4.015,9.377,9.377,0,0,0-1.313-1.482C345.224,1898.4,340.46,1893.634,335.267,1888.438Z" transform="translate(-0.696 -0.69)" fill="#fff"/>
      <path id="Trazado_192733" data-name="Trazado 192733" d="M428.095,1952.129v1.591q0,19.828,0,39.657c0,2.312-.241,2.55-2.588,2.55q-57.5,0-115.009,0c-2.348,0-2.588-.238-2.588-2.55q0-19.828,0-39.657v-1.591Zm-65.807,37.917v-19.124a3.927,3.927,0,0,1,1.023,1.557c1.681,4.146,3.339,8.3,5.051,12.435.2.49.627,1.142,1.059,1.243,2.717.636,3.664.09,4.7-2.476.082-.2.157-.412.24-.617l5-12.362.382.059v19.231H384.5v-29.4a26.644,26.644,0,0,1-3.062-.022,2.069,2.069,0,0,0-2.451,1.563c-2.313,5.558-4.734,11.072-7.124,16.6-.23.533-.505,1.046-.876,1.807-.349-.715-.6-1.18-.808-1.663-2.475-5.669-4.934-11.346-7.436-17-.215-.487-.676-1.168-1.082-1.212a39.372,39.372,0,0,0-4.212-.057v29.441ZM328.565,1960.6c.347.716.569,1.206.818,1.682,2.149,4.112,4.281,8.233,6.474,12.322a2.1,2.1,0,0,1,.01,2.265c-2.064,3.844-4.057,7.727-6.068,11.6-.242.465-.437.955-.753,1.652a41.172,41.172,0,0,0,4.341-.048,2.275,2.275,0,0,0,1.561-1.033c1.27-2.573,2.4-5.216,3.591-7.829.35-.767.741-1.514,1.276-2.6,1.554,3.691,2.925,7,4.345,10.276.2.458.612,1.132.968,1.16,1.608.125,3.231.055,5.093.055-2.4-4.614-4.62-8.929-6.9-13.212a2.1,2.1,0,0,1-.013-2.264c2.254-4.181,4.439-8.4,6.64-12.61.209-.4.359-.834.607-1.421-1.522,0-2.793.06-4.055-.02a1.67,1.67,0,0,0-1.863,1.188c-1.234,2.775-2.561,5.508-3.859,8.255-.411.872-.84,1.737-1.4,2.9-.417-.9-.679-1.439-.917-1.986-1.342-3.089-2.659-6.189-4.04-9.261-.191-.427-.669-.99-1.051-1.02C331.844,1960.536,330.313,1960.6,328.565,1960.6Zm63.491,29.412h18.363v-3.553H396.843v-25.727h-4.787Z" transform="translate(-0.696 -14.169)" fill="#084a93"/>
      <path id="Trazado_192734" data-name="Trazado 192734" d="M409.6,1854.042v-23.657l23.662,23.657Z" transform="translate(-11.412 -1.34)" fill="#fff"/>
      <path id="Trazado_192735" data-name="Trazado 192735" d="M383.831,1866.494c-.183.634-.333,1.279-.552,1.9q-8.445,23.958-16.9,47.91a8.71,8.71,0,0,1-.492,1.227,2.884,2.884,0,0,1-3.641,1.459,2.761,2.761,0,0,1-1.726-3.352c.616-2.171,1.39-4.3,2.141-6.432q7.452-21.149,14.93-42.288a10.281,10.281,0,0,1,.949-2.1,2.426,2.426,0,0,1,3.18-1.032c.957.468,1.617,1.542,2.408,2.348Z" transform="translate(-6.228 -4.833)" fill="#084a93"/>
      <path id="Trazado_192736" data-name="Trazado 192736" d="M406.224,1893.859c-4.951-4.938-9.765-9.736-14.573-14.539-2.018-2.016-2.311-3.762-.873-5.119s2.967-1.063,5,.972q7.919,7.912,15.831,15.829c2.225,2.228,2.223,3.509,0,5.739q-7.968,7.979-15.951,15.944a7.785,7.785,0,0,1-1.376,1.185,2.851,2.851,0,0,1-3.841-4.077,11.86,11.86,0,0,1,1.321-1.478C396.524,1903.547,401.292,1898.786,406.224,1893.859Z" transform="translate(-9.329 -5.87)" fill="#084a93"/>
      <path id="Trazado_192737" data-name="Trazado 192737" d="M337.683,1893.62c5.193,5.2,9.957,9.959,14.715,14.73a9.377,9.377,0,0,1,1.313,1.482,2.855,2.855,0,0,1-3.916,4.015,7.348,7.348,0,0,1-1.252-1.075q-8.039-8.022-16.065-16.058c-2.209-2.212-2.2-3.476.055-5.73q7.967-7.978,15.947-15.941a8.747,8.747,0,0,1,1.246-1.083,2.857,2.857,0,0,1,3.945,4.032,9.91,9.91,0,0,1-1.215,1.353q-6.559,6.57-13.138,13.122A12.629,12.629,0,0,1,337.683,1893.62Z" transform="translate(-3.112 -5.872)" fill="#084a93"/>
      <path id="Trazado_192738" data-name="Trazado 192738" d="M368.124,1991.038h-4.835V1961.6a39.4,39.4,0,0,1,4.212.057c.405.044.867.726,1.082,1.212,2.5,5.658,4.961,11.335,7.436,17,.211.483.459.948.808,1.663.37-.761.646-1.274.876-1.807,2.39-5.526,4.81-11.04,7.124-16.6a2.069,2.069,0,0,1,2.451-1.563,26.673,26.673,0,0,0,3.062.022v29.4h-4.762v-19.232l-.382-.059-5,12.362c-.082.2-.157.412-.24.617-1.035,2.567-1.982,3.112-4.7,2.476-.432-.1-.856-.753-1.059-1.244-1.712-4.133-3.37-8.289-5.051-12.434a3.926,3.926,0,0,0-1.023-1.557Z" transform="translate(-6.532 -15.16)" fill="#fff"/>
      <path id="Trazado_192739" data-name="Trazado 192739" d="M331,1961.6c1.748,0,3.28-.069,4.8.048.382.029.86.593,1.051,1.02,1.381,3.072,2.7,6.172,4.04,9.261.238.547.5,1.085.917,1.986.564-1.163.992-2.027,1.4-2.9,1.3-2.746,2.625-5.479,3.859-8.255a1.671,1.671,0,0,1,1.863-1.188c1.262.08,2.534.02,4.055.02-.248.587-.4,1.02-.607,1.421-2.2,4.21-4.386,8.428-6.64,12.61a2.1,2.1,0,0,0,.013,2.264c2.282,4.282,4.5,8.6,6.9,13.212-1.863,0-3.485.071-5.093-.055-.356-.029-.769-.7-.968-1.16-1.42-3.281-2.791-6.585-4.345-10.276-.535,1.088-.926,1.835-1.276,2.6-1.191,2.613-2.321,5.256-3.591,7.829a2.275,2.275,0,0,1-1.561,1.033,41.173,41.173,0,0,1-4.341.048c.317-.7.512-1.187.753-1.652,2.011-3.872,4-7.755,6.068-11.6a2.1,2.1,0,0,0-.01-2.265c-2.194-4.088-4.326-8.21-6.474-12.322C331.567,1962.805,331.345,1962.315,331,1961.6Z" transform="translate(-3.129 -15.163)" fill="#fff"/>
      <path id="Trazado_192740" data-name="Trazado 192740" d="M401.968,1991.031v-29.28h4.787v25.727h13.576v3.553Z" transform="translate(-10.608 -15.183)" fill="#fff"/>
    </g>
  </g>
</svg>
