<svg xmlns="http://www.w3.org/2000/svg" width="345.709" height="277.369" viewBox="0 0 345.709 277.369">
  <g id="Grupo_146476" data-name="Grupo 146476" transform="translate(-431 -7023)">
    <g id="Grupo_132238" data-name="Grupo 132238" transform="translate(762.243 5194.912)">
      <g id="Grupo_132233" data-name="Grupo 132233" transform="translate(-257.509 1830.247)">
        <path id="Trazado_192741" data-name="Trazado 192741" d="M-69.882,1872.9c-.929,2.886-1.965,5.709-4.341,7.792-4.266,3.74-9.134,4.768-14.352,2.608s-8.219-6.3-8.341-11.964c-.2-9.406-.076-18.819-.025-28.228a12.067,12.067,0,0,1,.632-3.4,13.375,13.375,0,0,1,12.88-9.522,13.438,13.438,0,0,1,12.867,9.563q.339,1.089.679,2.177Zm-19.369-15.691c0,4.38-.019,8.76.005,13.139.021,3.766,2.42,6.331,5.836,6.3,3.347-.03,5.754-2.552,5.767-6.186q.047-13.236,0-26.473c-.015-3.636-2.436-6.08-5.844-6.06s-5.728,2.467-5.753,6.139C-89.274,1848.45-89.25,1852.831-89.251,1857.211Z" transform="translate(268.123 -1830.151)"/>
        <path id="Trazado_192742" data-name="Trazado 192742" d="M-69.878,1939.564c-1.067,4.136-3.02,7.646-6.9,9.813-8.645,4.836-19.6-.715-20.052-10.59-.451-9.785-.314-19.614-.022-29.412.193-6.506,5.612-11.665,12.074-12.33a13.515,13.515,0,0,1,14.227,9.544c.21.671.446,1.335.67,2Zm-7.749-15.439c0-4.318.016-8.635-.005-12.953-.019-3.973-2.314-6.477-5.865-6.451-3.47.025-5.735,2.495-5.743,6.36q-.03,12.953,0,25.9c.007,3.977,2.3,6.473,5.848,6.448,3.53-.026,5.749-2.532,5.764-6.55C-77.614,1932.63-77.627,1928.377-77.627,1924.125Z" transform="translate(268.119 -1827.125)"/>
        <path id="Trazado_192743" data-name="Trazado 192743" d="M-69.878,2006.224c-1.024,4.293-3.048,7.87-7.078,10.064-8.575,4.667-19.41-.9-19.865-10.661-.458-9.839-.338-19.723-.009-29.571.225-6.7,5.679-11.555,12.737-12.234,5.749-.553,11.654,3.585,13.512,9.461.21.664.468,1.313.7,1.969Zm-19.368-15.491c0,4.445-.023,8.889.006,13.333.025,3.69,2.324,6.126,5.734,6.155,3.488.03,5.858-2.437,5.869-6.227q.039-13.139,0-26.28c-.013-3.651-2.386-6.155-5.747-6.2-3.433-.043-5.834,2.5-5.856,6.27C-89.265,1982.1-89.247,1986.418-89.246,1990.734Z" transform="translate(268.119 -1824.098)"/>
        <path id="Trazado_192744" data-name="Trazado 192744" d="M-110.965,1857.276c0,5.028.228,10.069-.057,15.08-.379,6.657-6.576,12.068-13.346,12.06s-13.12-5.438-13.307-12.077q-.423-15.073,0-30.166c.191-6.677,6.473-12,13.325-11.991s12.938,5.294,13.326,12.014C-110.732,1847.208-110.965,1852.249-110.965,1857.276Zm-7.575.227c0-4.507.079-9.017-.023-13.521-.1-4.171-3.1-6.637-7-5.941-2.893.516-4.58,2.814-4.591,6.438-.028,8.5-.014,17,0,25.5a10.485,10.485,0,0,0,.17,2.113,5.312,5.312,0,0,0,3.977,4.286c3.93,1.109,7.319-1.441,7.438-5.739C-118.45,1866.263-118.544,1861.882-118.54,1857.5Z" transform="translate(266.271 -1830.152)"/>
        <path id="Trazado_192745" data-name="Trazado 192745" d="M-233.607,1857.418c0,4.9.18,9.81-.045,14.7-.277,6.026-5.511,11.358-11.448,12.06-7.921.937-14.858-4.033-15.262-11.984-.513-10.092-.416-20.246.055-30.343.32-6.839,6.777-11.887,13.586-11.649a13.34,13.34,0,0,1,13.106,12.706c.191,4.829.037,9.672.037,14.509Zm-7.671-.074c0-4.379.023-8.759-.007-13.138-.027-3.83-2.331-6.288-5.8-6.276s-5.793,2.49-5.808,6.318q-.05,13.041,0,26.083c.016,3.76,2.463,6.336,5.851,6.323,3.423-.014,5.736-2.537,5.761-6.365C-241.256,1865.974-241.278,1861.659-241.278,1857.344Z" transform="translate(260.706 -1830.151)"/>
        <path id="Trazado_192746" data-name="Trazado 192746" d="M-192.792,1924.25c0,5.025.282,10.07-.069,15.07-.472,6.746-6.643,11.953-13.468,11.862-6.917-.092-13.034-5.546-13.2-12.38q-.365-14.788.009-29.59c.167-6.679,6.314-12.12,13.144-12.24a13.564,13.564,0,0,1,13.582,11.813,18.477,18.477,0,0,1,.218,1.92c.019,4.514.009,9.028.009,13.542Zm-7.526-.174c0-4.381.061-8.762-.019-13.141-.07-3.827-2.476-6.269-5.926-6.216-3.377.051-5.613,2.467-5.668,6.223-.046,3.221-.015,6.441-.012,9.662.005,5.733-.033,11.466.044,17.2a5.409,5.409,0,0,0,4.123,5.414c3.9,1.125,7.346-1.589,7.437-6C-200.248,1932.837-200.318,1928.456-200.318,1924.076Z" transform="translate(262.564 -1827.125)"/>
        <path id="Trazado_192747" data-name="Trazado 192747" d="M-118.526,1943.444c1.47,0,2.626-.056,3.775.013a3.9,3.9,0,0,1,3.977,3.9,3.851,3.851,0,0,1-4.07,3.8q-9.483.091-18.966.005a3.879,3.879,0,0,1-4.131-3.943,3.918,3.918,0,0,1,4.123-3.764c2.435-.073,4.873-.016,7.413-.016v-33.147c-1.282,1.27-2.281,2.287-3.312,3.272a18.867,18.867,0,0,1-2.306,2.045,3.637,3.637,0,0,1-4.768-.457,3.707,3.707,0,0,1-.326-4.936,50.043,50.043,0,0,1,3.595-3.781c2.544-2.565,5.118-5.1,7.656-7.672,1.353-1.37,2.831-2.3,4.822-1.519,2.075.816,2.518,2.577,2.518,4.568q0,19.451,0,38.9Z" transform="translate(266.269 -1827.126)"/>
        <path id="Trazado_192748" data-name="Trazado 192748" d="M-126.431,1977.039c-1.7,1.719-3.017,3.1-4.389,4.436-2.007,1.948-4.368,2.117-5.988.48s-1.449-3.961.548-5.986c3.441-3.489,6.936-6.926,10.385-10.406,1.413-1.426,2.979-2.327,5-1.451,1.939.841,2.351,2.571,2.351,4.483q0,19.442,0,38.883v2.754c1.253,0,2.326-.045,3.393.009,2.683.136,4.4,1.7,4.373,3.927s-1.724,3.779-4.46,3.8q-9.188.075-18.378,0c-2.61-.022-4.242-1.511-4.336-3.717-.1-2.235,1.579-3.881,4.266-3.993,2.366-.1,4.738-.021,7.238-.021Z" transform="translate(266.269 -1824.098)"/>
        <path id="Trazado_192749" data-name="Trazado 192749" d="M-200.313,1876.7c1.6,0,2.882-.088,4.152.02a3.8,3.8,0,0,1,3.592,3.635,3.787,3.787,0,0,1-3.321,3.862,19.376,19.376,0,0,1-3.077.174q-7.738.024-15.476,0a10.892,10.892,0,0,1-2.3-.226,3.644,3.644,0,0,1-2.965-3.926,3.557,3.557,0,0,1,3.28-3.464c2.245-.169,4.508-.148,6.763-.117,1.114.016,1.614-.263,1.609-1.505-.043-10.253-.027-20.505-.037-30.757a4.031,4.031,0,0,0-.221-.777c-1.715,1.678-3.25,3.291-4.907,4.765a3.764,3.764,0,0,1-4.8.4,3.53,3.53,0,0,1-1.485-4.226,6.331,6.331,0,0,1,1.587-2.361c3.384-3.453,6.844-6.833,10.238-10.279,1.429-1.45,3.024-2.28,5.011-1.421,1.924.832,2.348,2.584,2.348,4.494q0,19.537,0,39.075Z" transform="translate(262.564 -1830.153)"/>
        <path id="Trazado_192750" data-name="Trazado 192750" d="M-159.459,1943.441c1.376,0,2.525-.045,3.671.009,2.456.115,4.036,1.6,4.077,3.774a3.8,3.8,0,0,1-4.1,3.937q-9.482.084-18.966,0a3.84,3.84,0,0,1-4.058-3.806,3.9,3.9,0,0,1,3.983-3.893c1.221-.074,2.45-.022,3.676-.023s2.443,0,3.814,0v-32.862a13.891,13.891,0,0,0-1.141.9c-1.155,1.126-2.253,2.312-3.437,3.406-1.955,1.8-4.06,1.893-5.7.315-1.669-1.61-1.568-3.811.272-5.841.13-.143.271-.276.408-.413q5.063-5.064,10.123-10.131c1.4-1.412,2.934-2.408,4.989-1.519,2.028.877,2.4,2.63,2.4,4.639q-.039,19.547-.014,39.095Z" transform="translate(264.416 -1827.126)"/>
        <path id="Trazado_192751" data-name="Trazado 192751" d="M-200.312,2010.246c1.371,0,2.52-.072,3.658.015,2.52.193,4.185,1.864,4.089,4a3.876,3.876,0,0,1-4.169,3.693q-9.48.1-18.961,0a3.788,3.788,0,0,1-4.036-3.8c-.013-2.152,1.486-3.666,3.976-3.878,1.281-.109,2.577-.043,3.867-.049,1.2-.005,2.405,0,3.71,0v-33.108c-.74.711-1.215,1.175-1.7,1.63a51.4,51.4,0,0,1-3.964,3.67,3.649,3.649,0,0,1-4.768-.522,3.864,3.864,0,0,1-.489-4.64,9.8,9.8,0,0,1,1.353-1.628c3.274-3.294,6.579-6.556,9.843-9.858,1.436-1.453,2.978-2.573,5.116-1.7s2.475,2.761,2.474,4.8q-.008,19.445,0,38.889Z" transform="translate(262.563 -1824.098)"/>
        <path id="Trazado_192752" data-name="Trazado 192752" d="M-249.588,1910.438c-1.309,1.411-2.565,2.877-3.939,4.222-2.062,2.021-4.3,2.13-5.973.408-1.6-1.647-1.475-3.867.46-5.837,3.527-3.59,7.111-7.122,10.672-10.68,1.327-1.323,2.833-2.071,4.707-1.267,1.851.793,2.395,2.344,2.393,4.244q-.027,19.647-.009,39.294v2.615c1.228,0,2.358-.029,3.486.006,2.6.08,4.218,1.527,4.263,3.777.047,2.353-1.584,3.932-4.276,3.95q-9.29.064-18.582,0c-2.529-.018-4.248-1.631-4.271-3.813s1.685-3.8,4.191-3.907c1.223-.052,2.451-.012,3.676-.013h3.612v-32.667Z" transform="translate(260.708 -1827.126)"/>
        <path id="Trazado_192753" data-name="Trazado 192753" d="M-159.459,1876.692c1.55,0,2.835-.083,4.1.018a3.7,3.7,0,0,1,3.639,3.557,3.663,3.663,0,0,1-3.378,3.973,25.978,25.978,0,0,1-3.659.157q-7.349.024-14.7,0a11.431,11.431,0,0,1-2.3-.209,3.77,3.77,0,0,1-3.081-3.865,3.621,3.621,0,0,1,3.42-3.554c2.626-.138,5.264-.033,8.048-.033v-33.01c-.409.324-.793.579-1.12.895-1.343,1.3-2.6,2.7-4.019,3.906a3.771,3.771,0,0,1-5.245-.191,3.8,3.8,0,0,1-.189-5.111,8.037,8.037,0,0,1,.767-.868c3.508-3.512,7.036-7,10.522-10.537,1.39-1.411,2.965-2.13,4.861-1.319,1.836.784,2.338,2.4,2.335,4.289q-.027,19.629-.009,39.259Z" transform="translate(264.416 -1830.153)"/>
        <path id="Trazado_192754" data-name="Trazado 192754" d="M-167.318,1977.01c-1.665,1.694-3.02,3.126-4.433,4.5-1.986,1.928-4.393,2.074-5.988.421s-1.464-3.864.478-5.84c3.571-3.634,7.194-7.216,10.8-10.817,1.341-1.339,2.909-1.974,4.724-1.14,1.717.789,2.288,2.3,2.286,4.133q-.022,19.735-.007,39.468v2.508c1.34,0,2.487-.065,3.623.014,2.6.179,4.166,1.7,4.133,3.929s-1.625,3.752-4.255,3.779q-9.286.1-18.573.005c-2.621-.024-4.246-1.536-4.3-3.75-.056-2.175,1.551-3.819,4.117-3.944,2.427-.118,4.866-.025,7.4-.025Z" transform="translate(264.416 -1824.098)"/>
        <path id="Trazado_192755" data-name="Trazado 192755" d="M-241.278,2010.122c1.633.083,2.991.057,4.319.244a3.647,3.647,0,0,1,3.429,3.93,3.538,3.538,0,0,1-3.578,3.588q-9.958.152-19.921.009a3.659,3.659,0,0,1-3.624-3.591,3.677,3.677,0,0,1,3.473-3.9c2.617-.187,5.259-.044,8.019-.044v-32.82l-.4-.333c-1.477,1.574-2.853,3.262-4.454,4.7-2.5,2.235-6.137,1.054-6.437-2.129a4.957,4.957,0,0,1,1.227-3.443c3.622-3.85,7.42-7.536,11.178-11.257a3.784,3.784,0,0,1,4.421-.977c1.819.8,2.361,2.368,2.358,4.273q-.034,19.637-.012,39.276Z" transform="translate(260.708 -1824.099)"/>
      </g>
      <g id="Grupo_132236" data-name="Grupo 132236" transform="translate(-331.243 1828.088)">
        <g id="Grupo_132234" data-name="Grupo 132234">
          <path id="Trazado_192756" data-name="Trazado 192756" d="M-331.243,1920.928c17.672,0,20.155-9.708,20.155-18.665,0-6.729-.993-13.7-1.986-20.651a149.022,149.022,0,0,1-2-20.915c0-22.9,14.937-32.609,36.095-32.609h5.229v13.7h-4.479c-14.693.244-19.668,7.964-19.668,21.4a109.666,109.666,0,0,0,1.743,17.916,113.975,113.975,0,0,1,1.743,18.909c.254,15.93-6.718,23.894-17.925,26.894v.486c11.207,2.735,18.179,11.207,17.925,27.136a113.553,113.553,0,0,1-1.743,18.909,112.343,112.343,0,0,0-1.743,17.936c0,13.922,5.725,21.4,19.668,21.644h4.479v13.68h-5.229c-20.662,0-36.095-8.957-36.095-34.088a141.727,141.727,0,0,1,2-20.409,138.667,138.667,0,0,0,1.986-20.165c0-7.721-2.483-18.422-20.155-18.422Z" transform="translate(331.243 -1828.088)" fill="#ffb30b"/>
        </g>
        <g id="Grupo_132235" data-name="Grupo 132235" transform="translate(288.214)">
          <path id="Trazado_192757" data-name="Trazado 192757" d="M1.972,1920.928c-17.672,0-20.155-9.708-20.155-18.665,0-6.729.993-13.7,1.986-20.651a149.023,149.023,0,0,0,2-20.915c0-22.9-14.935-32.609-36.094-32.609h-5.229v13.7h4.478c14.693.244,19.669,7.964,19.669,21.4A109.669,109.669,0,0,1-33.12,1881.1a113.971,113.971,0,0,0-1.744,18.909c-.253,15.93,6.719,23.894,17.926,26.894v.486c-11.207,2.735-18.179,11.207-17.926,27.136a113.549,113.549,0,0,0,1.744,18.909,112.345,112.345,0,0,1,1.743,17.936c0,13.922-5.725,21.4-19.669,21.644h-4.478v13.68H-50.3c20.662,0,36.094-8.957,36.094-34.088a141.728,141.728,0,0,0-2-20.409,138.666,138.666,0,0,1-1.986-20.165c0-7.721,2.483-18.422,20.155-18.422Z" transform="translate(55.524 -1828.088)" fill="#ffb30b"/>
        </g>
      </g>
      <g id="Grupo_132237" data-name="Grupo 132237" transform="translate(-251.357 2047.417)">
        <path id="Trazado_192758" data-name="Trazado 192758" d="M-254.82,2039.556a70.232,70.232,0,0,1,13.259-1.168c7.256,0,11.925,1.251,15.428,4.086a11.783,11.783,0,0,1,4.668,9.923c0,5.42-3.585,10.173-9.505,12.341v.167c5.336,1.334,11.59,5.753,11.59,14.092a15.153,15.153,0,0,1-4.753,11.258c-3.919,3.585-10.257,5.252-19.429,5.252a85.2,85.2,0,0,1-11.258-.666Zm7.256,23.014h6.588c7.672,0,12.175-4,12.175-9.422,0-6.587-5-9.173-12.342-9.173a31.116,31.116,0,0,0-6.42.5Zm0,26.935a38.836,38.836,0,0,0,6.087.332c7.505,0,14.426-2.75,14.426-10.923,0-7.672-6.588-10.84-14.51-10.84h-6Z" transform="translate(254.82 -2037.888)" fill="#084a93"/>
        <path id="Trazado_192759" data-name="Trazado 192759" d="M-212.464,2086.191a25.7,25.7,0,0,0,13.008,3.668c7.422,0,11.758-3.919,11.758-9.588,0-5.254-3-8.256-10.59-11.175-9.173-3.252-14.844-8-14.844-15.926,0-8.756,7.256-15.26,18.179-15.26,5.753,0,9.923,1.335,12.425,2.752l-2,5.921a22.381,22.381,0,0,0-10.674-2.669c-7.673,0-10.591,4.586-10.591,8.422,0,5.253,3.419,7.839,11.174,10.84,9.506,3.67,14.343,8.256,14.343,16.512,0,8.672-6.421,16.261-19.68,16.261-5.42,0-11.341-1.668-14.342-3.67Z" transform="translate(256.656 -2037.909)" fill="#084a93"/>
        <path id="Trazado_192760" data-name="Trazado 192760" d="M-124.087,2066.344c0,19.345-11.758,29.6-26.1,29.6-14.842,0-25.266-11.508-25.266-28.52,0-17.845,11.091-29.519,26.1-29.519C-134.01,2037.909-124.087,2049.667-124.087,2066.344Zm-43.612.917c0,12.009,6.5,22.766,17.928,22.766,11.508,0,18.012-10.591,18.012-23.35,0-11.174-5.837-22.848-17.928-22.848C-161.7,2043.829-167.7,2054.92-167.7,2067.261Z" transform="translate(258.417 -2037.909)" fill="#084a93"/>
        <path id="Trazado_192761" data-name="Trazado 192761" d="M-117.3,2094.99v-56.2h7.921l18.012,28.435a159,159,0,0,1,10.09,18.263l.166-.084c-.667-7.5-.834-14.343-.834-23.1v-23.514h6.838v56.2h-7.338l-17.846-28.519a178.346,178.346,0,0,1-10.506-18.762l-.25.084c.417,7.088.583,13.843.583,23.182v24.016Z" transform="translate(261.052 -2037.869)" fill="#084a93"/>
      </g>
    </g>
  </g>
</svg>
