<svg xmlns="http://www.w3.org/2000/svg" width="136.969" height="137" viewBox="0 0 136.969 137">
  <g id="Grupo_146479" data-name="Grupo 146479" transform="translate(-1148 -3453)">
    <g id="Grupo_132224" data-name="Grupo 132224" transform="translate(1940.049 2901.185)">
      <g id="Grupo_132223" data-name="Grupo 132223" transform="translate(-792.048 551.815)">
        <path id="Trazado_192698" data-name="Trazado 192698" d="M-790.846,686.506V649.053c1.127-2.509,3.055-3.454,5.785-3.266,2.428.167,4.877.035,7.479.035V644.25c0-2.363-.031-4.726.012-7.088a4.421,4.421,0,0,1,4.62-4.642c.4-.014.8,0,1.2,0h51.495v-4.362h-1.512c-3.745,0-7.49.021-11.234-.008a4.5,4.5,0,0,1-4.843-4.852c-.018-2.362,0-4.726,0-7.088v-5.723c-1.372,0-2.608.012-3.843,0-4.945-.059-9.918.18-14.83-.26-7.94-.711-13.593-8.809-11.971-16.621,1.266-6.1,5.565-10.212,11.992-11.346.971-.171,1.265-.523,1.251-1.444a21.5,21.5,0,0,1,.213-2.663c1.245-11.256,7.118-19.067,17.591-23.318a54.305,54.305,0,0,1,6.788-1.813h5.618a4.041,4.041,0,0,0,.741.237,26.746,26.746,0,0,1,9.127,2.854,28.028,28.028,0,0,1,8.647,7.075c.395-.273.716-.5,1.044-.721,8.655-5.79,17.861-6.827,27.262-2.358,9.445,4.49,14.542,12.306,15.411,22.739a3.015,3.015,0,0,0,1.86,2.884,12.9,12.9,0,0,1,6.554,15.152c-1.615,5.827-6.761,9.558-13.253,9.6-1.272.009-2.544,0-3.9,0,0,4.247,0,8.3,0,12.348,0,3.645-1.667,5.319-5.308,5.322q-11.97.008-23.94,0h-1.6v8.756h17.421c1.163-3.654,2.189-4.393,6.021-4.394q9.83,0,19.66,0c3.767,0,5.409,1.627,5.41,5.347q0,16.784,0,33.569c0,3.659-1.625,5.284-5.308,5.289-6.375.006-12.755-.146-19.124.048-5.188.157-6.8-1.952-6.537-6.556.127-2.2.022-4.418.022-6.722-3.75,0-7.309-.02-10.867.034-.309,0-.708.435-.9.764a6.467,6.467,0,0,1-5.86,3.564,6.283,6.283,0,0,1-5.859-3.531,1.372,1.372,0,0,0-1.438-.849c-3.12.036-6.241.012-9.362.021a9.784,9.784,0,0,0-1.066.122v1.558q0,9.9,0,19.794c0,3.322-1.7,5.01-5.027,5.013q-10.231.008-20.462,0c-3.85,0-5.391-1.558-5.392-5.454,0-10.744.114-21.49-.053-32.231-.074-4.767,1.489-6.833,6.543-6.5,2.2.146,4.423.025,6.612.025v-8.762h-35.123v8.649a1.825,1.825,0,0,0,.349.094q3.879.013,7.757.019c3.327.007,5.067,1.687,5.071,4.985q.02,17.119,0,34.238c0,3.193-1.8,4.934-5.005,4.936-6.821.005-13.643-.061-20.462.032C-788.08,690.051-789.918,689.075-790.846,686.506Zm119.3-80.541c1.994,0,3.826.135,5.631-.028a8.6,8.6,0,0,0,7.521-7.54c.43-4.153-1.311-7.362-5.557-9.206-2.448-1.064-3.78-2.374-3.217-5.118a2.06,2.06,0,0,0-.015-.533c-.584-8.838-4.782-15.432-12.69-19.333-7.833-3.865-15.542-3.052-22.82,1.724-1.561,1.024-3.019,2.205-4.588,3.361-1.031-1.267-1.993-2.55-3.056-3.741-6.066-6.8-13.623-9.421-22.514-7.5a22.823,22.823,0,0,0-17.88,21.339c-.113,2.161-.346,4.315-.52,6.437-1.905.326-3.623.58-5.325.919a9.737,9.737,0,0,0-7.751,10.116c.3,4.752,4.157,8.931,8.784,9.072,5.788.177,11.585.043,17.379.037.072,0,.144-.086.318-.2v-1.383q0-12.1,0-24.2c0-3.335,1.694-5.057,4.992-5.058q28.148-.009,56.3,0c3.315,0,5.007,1.711,5.01,5.034q.008,12.1,0,24.2Zm-13.337,35.4h-1.595c-5.215,0-10.431.016-15.645-.007-3.011-.014-4.725-1.747-4.755-4.728-.009-.8,0-1.6,0-2.407v-5.953h-8.835c0,1.315.007,2.518,0,3.72-.022,3.183-1.8,4.98-4.972,4.991-3.744.013-7.488,0-11.233,0H-733.3v8.842c2.973,0,5.861-.026,8.747.008a4.293,4.293,0,0,1,4.363,4.3c.03.8.011,1.6.012,2.407,0,2.125,0,4.251,0,6.5,3.736,0,7.295.024,10.852-.038.339-.006.767-.489.989-.851a6.551,6.551,0,0,1,5.917-3.482,6.225,6.225,0,0,1,5.736,3.5,1.479,1.479,0,0,0,1.563.886c2.9-.027,5.794-.011,8.692-.011h1.545Zm8.825-48.468h-57.214V623.6h57.214Zm-48.592,92.569V659.141h-21.961v26.323Zm-39.794.031V659.124h-21.87V685.5Zm106.063-39.582h-21.9v26.335h21.9Zm-17.679-66.321H-733.28v8.665h4.312v-4.183h4.46v4.193h4.358v-4.2h4.46v4.214h4.357V584.05h4.459v4.2h30.816Zm-48.553,70.718H-746.6v4.251h21.988Zm-39.8-.036h-21.9v4.3h21.9Zm84.117-13.23v4.219h21.9v-4.219Zm-19.988,24.185a2.217,2.217,0,0,0-2.234-2.162,2.236,2.236,0,0,0-2.166,2.234,2.269,2.269,0,0,0,2.237,2.172A2.247,2.247,0,0,0-700.284,661.229Z" transform="translate(790.846 -553.015)"/>
        <path id="Trazado_192699" data-name="Trazado 192699" d="M-646.687,610.116v-1.6q0-12.1,0-24.2c0-3.324-1.7-5.033-5.01-5.034q-28.148-.009-56.3,0c-3.3,0-4.99,1.723-4.992,5.058q-.01,12.1,0,24.2v1.383c-.174.111-.247.2-.318.2-5.794.006-11.591.141-17.379-.037-4.626-.141-8.485-4.32-8.783-9.072a9.737,9.737,0,0,1,7.751-10.116c1.7-.339,3.42-.593,5.325-.919.174-2.121.407-4.276.52-6.437a22.823,22.823,0,0,1,17.88-21.339c8.892-1.924,16.449.7,22.514,7.5,1.064,1.191,2.025,2.474,3.056,3.741,1.57-1.156,3.027-2.337,4.588-3.361,7.279-4.776,14.987-5.589,22.82-1.724,7.907,3.9,12.106,10.5,12.69,19.333a2.06,2.06,0,0,1,.015.533c-.563,2.744.769,4.054,3.217,5.118,4.246,1.844,5.987,5.053,5.557,9.206a8.6,8.6,0,0,1-7.521,7.54C-642.861,610.25-644.693,610.116-646.687,610.116Z" transform="translate(765.989 -557.165)" fill="#ffb30b"/>
        <path id="Trazado_192700" data-name="Trazado 192700" d="M-622.051,630.3v30.709h-57.214V630.3Zm-28.549,4.281q-9.689,0-19.378,0c-3.264.006-5.018,1.782-5.025,5.065q-.014,6.081,0,12.162c.013,3.082,1.825,4.9,4.92,4.9q19.378.017,38.757,0c3.171,0,4.943-1.808,4.95-5q.013-5.947,0-11.894c0-3.542-1.695-5.232-5.25-5.235Q-641.112,634.575-650.6,634.581Z" transform="translate(736.842 -590.42)" fill="#fff"/>
        <path id="Trazado_192701" data-name="Trazado 192701" d="M-683.155,785.006h-21.961V758.683h21.961Zm-4.41-21.9h-13.086V767.3h13.086Zm-13.089,8.818v4.23h8.686v-4.23Z" transform="translate(749.353 -652.557)" fill="#fff"/>
        <path id="Trazado_192702" data-name="Trazado 192702" d="M-760.189,785.021h-21.87V758.65h21.87Zm-4.4-17.669v-4.237h-13.085v4.237Zm-13.131,8.779h8.708v-4.189h-8.708Z" transform="translate(786.593 -652.541)" fill="#fff"/>
        <path id="Trazado_192703" data-name="Trazado 192703" d="M-554.673,733.047v26.335h-21.9V733.047Zm-17.51,4.366v4.275h13.118v-4.275Zm8.667,8.76c-2.734,0-5.393-.019-8.05.032a1.006,1.006,0,0,0-.678.706c-.073,1.186-.032,2.379-.032,3.613h8.761Z" transform="translate(687.14 -640.149)" fill="#fff"/>
        <path id="Trazado_192704" data-name="Trazado 192704" d="M-622.064,604.519v8.662H-652.88v-4.2h-4.459V613.2H-661.7v-4.214h-4.46v4.2h-4.358V609h-4.46v4.183h-4.312v-8.665Z" transform="translate(736.852 -577.943)" fill="#fff"/>
        <path id="Trazado_192705" data-name="Trazado 192705" d="M-683.109,741.568v4.251H-705.1v-4.251Z" transform="translate(749.344 -644.273)" fill="#00defc"/>
        <path id="Trazado_192706" data-name="Trazado 192706" d="M-760.166,741.5v4.3h-21.905v-4.3Z" transform="translate(786.599 -644.239)" fill="#00defc"/>
        <path id="Trazado_192707" data-name="Trazado 192707" d="M-576.6,715.858h21.9v4.219h-21.9Z" transform="translate(687.155 -631.83)" fill="#00defc"/>
        <path id="Trazado_192708" data-name="Trazado 192708" d="M-646.611,638.594q9.489,0,18.977,0c3.556,0,5.247,1.693,5.25,5.235q0,5.947,0,11.894c-.007,3.192-1.779,5-4.95,5q-19.378.016-38.757,0c-3.095,0-4.907-1.817-4.92-4.9q-.026-6.081,0-12.162c.007-3.283,1.761-5.059,5.025-5.065Q-656.3,638.58-646.611,638.594Zm-2.2,4.506v4.225h21.866V643.1Zm21.911,8.893h-21.9v4.154h21.9Zm-26.507-8.846h-13.073v4.177H-653.4Zm0,8.841h-13.071v4.166H-653.4Z" transform="translate(732.853 -594.433)"/>
        <path id="Trazado_192709" data-name="Trazado 192709" d="M-683.378,767.259v4.191h-13.086v-4.191Z" transform="translate(745.166 -656.708)"/>
        <path id="Trazado_192710" data-name="Trazado 192710" d="M-696.47,784.348h8.686v4.23h-8.686Z" transform="translate(745.169 -664.979)"/>
        <path id="Trazado_192711" data-name="Trazado 192711" d="M-760.473,771.541h-13.085V767.3h13.085Z" transform="translate(782.479 -656.729)"/>
        <path id="Trazado_192712" data-name="Trazado 192712" d="M-773.647,788.6v-4.189h8.708V788.6Z" transform="translate(782.522 -665.008)"/>
        <path id="Trazado_192713" data-name="Trazado 192713" d="M-568.064,741.509h13.118v4.275h-13.118Z" transform="translate(683.021 -644.245)"/>
        <path id="Trazado_192714" data-name="Trazado 192714" d="M-559.495,758.483v4.35h-8.761c0-1.234-.041-2.427.032-3.613a1.006,1.006,0,0,1,.678-.706C-564.888,758.464-562.229,758.483-559.495,758.483Z" transform="translate(683.119 -652.458)"/>
        <path id="Trazado_192715" data-name="Trazado 192715" d="M-627.97,647.329H-606.1v4.225H-627.97Z" transform="translate(712.015 -598.662)" fill="#fff"/>
        <path id="Trazado_192716" data-name="Trazado 192716" d="M-606.052,664.564v4.154h-21.9v-4.154Z" transform="translate(712.008 -607.004)" fill="#fff"/>
        <path id="Trazado_192717" data-name="Trazado 192717" d="M-649.138,647.42V651.6h-13.073V647.42Z" transform="translate(728.588 -598.706)" fill="#fff"/>
        <path id="Trazado_192718" data-name="Trazado 192718" d="M-649.138,664.554v4.166h-13.071v-4.166Z" transform="translate(728.587 -606.999)" fill="#fff"/>
      </g>
    </g>
  </g>
</svg>
