<svg xmlns="http://www.w3.org/2000/svg" width="400" height="399.519" viewBox="0 0 400 399.519">
  <g id="Grupo_146489" data-name="Grupo 146489" transform="translate(-180 -7930)">
    <g id="Code_typing-amico" data-name="Code typing-amico" transform="translate(180 7930)">
      <g id="freepik--Floor--inject-11" transform="translate(0 168.58)">
        <ellipse id="Elipse_4926" data-name="Elipse 4926" cx="200" cy="115.47" rx="200" ry="115.47" fill="#f5f5f5"/>
      </g>
      <g id="freepik--Shadows--inject-11" transform="translate(39.056 223.762)">
        <ellipse id="Elipse_4927" data-name="Elipse 4927" cx="22.139" cy="12.782" rx="22.139" ry="12.782" transform="translate(0 57.636)" fill="#e6e6e6"/>
        <path id="Trazado_203570" data-name="Trazado 203570" d="M268.681,293.317l-145.51,84.018a3.6,3.6,0,0,0,0,6.292L208.69,433a14.139,14.139,0,0,0,14.139,0l145.51-84.009a3.6,3.6,0,0,0,0-6.292l-85.51-49.384a14.139,14.139,0,0,0-14.148,0Z" transform="translate(-76.043 -291.42)" fill="#e6e6e6"/>
        <path id="Trazado_203571" data-name="Trazado 203571" d="M229.664,294.247l-58.247,33.636a7.685,7.685,0,0,0,0,13.321l29.33,16.935a12.791,12.791,0,0,0,12.764,0L271.767,324.5a7.694,7.694,0,0,0,0-13.321l-29.339-16.935A12.746,12.746,0,0,0,229.664,294.247Z" transform="translate(-80.72 -291.532)" fill="#e6e6e6"/>
      </g>
      <g id="freepik--Plant--inject-11" transform="translate(27.694 202.773)">
        <path id="Trazado_203572" data-name="Trazado 203572" d="M95.947,326.434s-13.681-13.366-5.9-35.748c4.36-12.539,18.822-21.753,27.056-22.616a38.58,38.58,0,0,0-6.436,10.849L100.3,285.814l9.537-2.984-2.031,8.162s-8.863,5.393-10.175,6.526l9.555-2.544S106.446,318.092,95.947,326.434Z" transform="translate(-61.278 -268.07)" fill="#ffb30b"/>
        <path id="Trazado_203573" data-name="Trazado 203573" d="M95.947,326.434s-13.681-13.366-5.9-35.748c4.36-12.539,18.822-21.753,27.056-22.616a38.58,38.58,0,0,0-6.436,10.849L100.3,285.814l9.537-2.984-2.031,8.162s-8.863,5.393-10.175,6.526l9.555-2.544S106.446,318.092,95.947,326.434Z" transform="translate(-61.278 -268.07)" opacity="0.4"/>
        <path id="Trazado_203574" data-name="Trazado 203574" d="M96.517,328.02s-7.083-27.964,3.4-44.27C99.915,283.714,87.636,298.105,96.517,328.02Z" transform="translate(-61.848 -269.656)" fill="#fff"/>
        <path id="Trazado_203575" data-name="Trazado 203575" d="M110.514,337.146l-16.746-.216H93.6l-16.737.216s-.189,20.62,6.166,29.007h0c1.8,2.238,5.87,3.8,10.661,3.8s8.917-1.573,10.67-3.811C110.694,357.748,110.514,337.146,110.514,337.146Z" transform="translate(-60.186 -275.033)" fill="#37474f"/>
        <ellipse id="Elipse_4928" data-name="Elipse 4928" cx="16.827" cy="9.034" rx="16.827" ry="9.034" transform="translate(16.674 53.079)" fill="#455a64"/>
        <path id="Trazado_203576" data-name="Trazado 203576" d="M94.106,334.043c5.789,0,10.688,1.861,12.413,4.431a3.6,3.6,0,0,0,.674-2.031c0-3.6-5.861-6.463-13.088-6.463S81,332.874,81,336.443a3.667,3.667,0,0,0,.665,2.031C83.409,335.9,88.317,334.043,94.106,334.043Z" transform="translate(-60.604 -274.331)" fill="#263238"/>
        <ellipse id="Elipse_4929" data-name="Elipse 4929" cx="12.413" cy="4.431" rx="12.413" ry="4.431" transform="translate(21.088 59.712)" fill="#e0e0e0"/>
        <path id="Trazado_203577" data-name="Trazado 203577" d="M92.018,335.8s-6.49-.252-12.045-8.863c-2.3-3.551-3.407-5.393-3.407-5.393l8.989-.674-10.121-2.526-4.782-7.317,8.4-.629s-6.292-2.193-10.724-2.22c0,0-7.757-13.69-10.022-15.64a43.946,43.946,0,0,1,30.625,15.209C101.717,322.787,93.906,336.189,92.018,335.8Z" transform="translate(-58.31 -270.545)" fill="#ffb30b"/>
        <path id="Trazado_203578" data-name="Trazado 203578" d="M93.355,336.269s4.054-24.431-21.825-39.119C71.53,297.15,98.388,310.049,93.355,336.269Z" transform="translate(-59.647 -271.011)" fill="#fff"/>
        <path id="Trazado_203579" data-name="Trazado 203579" d="M95.494,336.627s5.87.378,11.685-6.867c2.4-2.984,3.6-4.566,3.6-4.566l-8.09-1.456,9.366-1.33,5.007-6.157-7.524-1.357s5.852-1.384,9.888-.989c0,0,8.288-11.631,10.517-13.178a39.874,39.874,0,0,0-29.061,10.849C87.962,323.971,93.75,336.8,95.494,336.627Z" transform="translate(-61.786 -271.369)" fill="#ffb30b"/>
        <path id="Trazado_203580" data-name="Trazado 203580" d="M95.494,336.627s5.87.378,11.685-6.867c2.4-2.984,3.6-4.566,3.6-4.566l-8.09-1.456,9.366-1.33,5.007-6.157-7.524-1.357s5.852-1.384,9.888-.989c0,0,8.288-11.631,10.517-13.178a39.874,39.874,0,0,0-29.061,10.849C87.962,323.971,93.75,336.8,95.494,336.627Z" transform="translate(-61.786 -271.369)" opacity="0.2"/>
        <path id="Trazado_203581" data-name="Trazado 203581" d="M95.8,336.928S94.43,314.51,119.167,303.67C119.167,303.688,93.72,312.8,95.8,336.928Z" transform="translate(-62.089 -271.67)" fill="#fff"/>
      </g>
      <g id="freepik--Pictures--inject-11" transform="translate(50.409 12.571)">
        <path id="Trazado_203582" data-name="Trazado 203582" d="M124.559,119.4v44.656L85.88,186.384V141.728L124.559,119.4Z" transform="translate(-83.813 -62.834)" fill="#fafafa"/>
        <path id="Trazado_203583" data-name="Trazado 203583" d="M120.137,121.681V161.5l-34.49,19.91v-39.82l34.49-19.91m2.094-3.6L83.58,140.414V185.07l2.094,1.213,38.652-22.328V119.263l-2.094-1.213Z" transform="translate(-83.58 -62.697)" fill="#e0e0e0"/>
        <path id="Trazado_203584" data-name="Trazado 203584" d="M122.467,123.022v39.82l-34.49,19.91v-39.82l34.49-19.91m2.094-3.6L85.91,141.755v44.656l38.652-22.328V119.4Z" transform="translate(-83.816 -62.834)" fill="#ebebeb"/>
        <path id="Trazado_203585" data-name="Trazado 203585" d="M119.3,156.9,90.04,173.79l8.647-22.481,5.987,7.1,6.121-8.71Z" transform="translate(-84.233 -65.898)" fill="#e0e0e0"/>
        <path id="Trazado_203586" data-name="Trazado 203586" d="M110.693,141.886a5.906,5.906,0,0,1-2.7,4.629c-1.474.845-2.7.162-2.7-1.546a5.906,5.906,0,0,1,2.7-4.62C109.525,139.495,110.693,140.187,110.693,141.886Z" transform="translate(-85.776 -64.915)" fill="#e0e0e0"/>
        <path id="Trazado_203587" data-name="Trazado 203587" d="M139.794,57.55V93.119l-30.8,17.789V75.33l30.8-17.78Z" transform="translate(-86.15 -56.579)" fill="#fafafa"/>
        <path id="Trazado_203588" data-name="Trazado 203588" d="M136.272,59.364V91.1l-27.461,15.847V75.221l27.47-15.856m1.672-2.894L107.13,74.259v35.578l1.672.962,30.8-17.789V57.432l-1.663-.962Z" transform="translate(-85.961 -56.47)" fill="#e0e0e0"/>
        <path id="Trazado_203589" data-name="Trazado 203589" d="M138.133,60.434V92.156l-27.479,15.865V76.291l27.479-15.856M139.8,57.54,109,75.329v35.578l30.8-17.789V57.54Z" transform="translate(-86.151 -56.578)" fill="#ebebeb"/>
        <path id="Trazado_203590" data-name="Trazado 203590" d="M135.608,87.424,112.3,100.88l6.885-17.915,4.773,5.663,4.872-6.948Z" transform="translate(-86.484 -59.019)" fill="#e0e0e0"/>
        <path id="Trazado_203591" data-name="Trazado 203591" d="M128.762,75.46a4.692,4.692,0,0,1-2.13,3.685c-1.178.683-2.121.126-2.121-1.222a4.683,4.683,0,0,1,2.121-3.685C127.809,73.554,128.762,74.111,128.762,75.46Z" transform="translate(-87.719 -58.237)" fill="#e0e0e0"/>
      </g>
      <g id="freepik--Character--inject-11" transform="translate(101.124 66.516)">
        <path id="Trazado_203592" data-name="Trazado 203592" d="M216.15,285.985l12.5,76.306a2.382,2.382,0,0,0,2.355,2h0a2.382,2.382,0,0,0,2.364-2.643L224.6,282.92Z" transform="translate(-147.701 -133.315)" fill="#263238"/>
        <path id="Trazado_203593" data-name="Trazado 203593" d="M264.17,257.435l12.512,76.306a2.373,2.373,0,0,0,2.346,2h0a2.382,2.382,0,0,0,2.364-2.652l-8.773-78.715Z" transform="translate(-152.557 -130.428)" fill="#263238"/>
        <path id="Trazado_203594" data-name="Trazado 203594" d="M192.964,266.48l-12.342,65.753a1.987,1.987,0,0,1-1.969,1.636,2.013,2.013,0,0,1-1.987-2.3l9.115-60.944Z" transform="translate(-143.706 -131.652)" fill="#263238"/>
        <path id="Trazado_203595" data-name="Trazado 203595" d="M241.533,239.19l-12.27,65.348a1.987,1.987,0,0,1-1.969,1.636,2.013,2.013,0,0,1-1.987-2.292l9.043-60.557Z" transform="translate(-148.625 -128.893)" fill="#263238"/>
        <path id="Trazado_203596" data-name="Trazado 203596" d="M232.278,226.387a17.492,17.492,0,0,1-10.328-14.265c-1.987-20.027-9.043-61.285-32.935-47.551-29.5,16.953-18.939,66.184-14.652,81.969a21.313,21.313,0,0,0,5.393,9.429c5.33,5.393,16.36,14.616,35.128,22.472a11.02,11.02,0,0,0,7.263.431c9.321-2.652,33.672-10.787,45.843-26.337a4.243,4.243,0,0,0-.7-5.933C262.372,242.7,251.253,234.854,232.278,226.387Z" transform="translate(-142.93 -121.069)" fill="#00defc"/>
        <path id="Trazado_203597" data-name="Trazado 203597" d="M232.278,226.387a17.492,17.492,0,0,1-10.328-14.265c-1.987-20.027-9.043-61.285-32.935-47.551-29.5,16.953-18.939,66.184-14.652,81.969a21.313,21.313,0,0,0,5.393,9.429c5.33,5.393,16.36,14.616,35.128,22.472a11.02,11.02,0,0,0,7.263.431c9.321-2.652,33.672-10.787,45.843-26.337a4.243,4.243,0,0,0-.7-5.933C262.372,242.7,251.253,234.854,232.278,226.387Z" transform="translate(-142.93 -121.069)" opacity="0.5"/>
        <path id="Trazado_203598" data-name="Trazado 203598" d="M268.433,249.6a4.207,4.207,0,0,1-.9,2.822c-.647.836-1.339,1.636-2.049,2.427h0c-.4.431-.791.854-1.2,1.267h0c-.4.413-.818.818-1.24,1.222h0l-1.276,1.187h0c-.44.387-.9.773-1.339,1.151h0c-6.894,5.78-15.281,10.184-22.715,13.357h0l-1.384.584-.144.054-1.276.521-.225.081-1.187.467-.27.108-1.106.413-.324.117-1.025.378-.369.135-.944.333-.387.135-.9.3-.422.144-.791.261-.449.153-.71.225-.485.153-.611.2-.521.153-.512.162-.638.189-.324.09c-.306.1-.611.18-.9.261a11.02,11.02,0,0,1-7.263-.431c-18.769-7.865-29.8-17.079-35.128-22.472a21.312,21.312,0,0,1-5.393-9.429c-4.288-15.784-14.849-65.016,14.652-81.969q.782-.44,1.537-.809l.333-.162c.5-.234.989-.449,1.474-.638l.144-.054c.458-.171.9-.324,1.366-.449l.207-.063c.485-.135.962-.243,1.429-.333h.126a13.249,13.249,0,0,1,2.822-.2h.054a11.9,11.9,0,0,1,2.7.413h0c-4.71-2.076-10.463-1.987-16.18,1.294-29.5,16.953-18.939,66.184-14.652,81.969l.728,2.7a25.654,25.654,0,0,0,9.2,13.762l7.658,5.852h0A120.332,120.332,0,0,0,214.4,283.051a11.038,11.038,0,0,0,7.29.449c9.312-2.652,33.681-10.787,45.843-26.337a4.2,4.2,0,0,0,.9-2.31h0v-5.258Z" transform="translate(-142.492 -120.951)" fill="#00defc"/>
        <path id="Trazado_203599" data-name="Trazado 203599" d="M268.433,249.6a4.207,4.207,0,0,1-.9,2.822c-.647.836-1.339,1.636-2.049,2.427h0c-.4.431-.791.854-1.2,1.267h0c-.4.413-.818.818-1.24,1.222h0l-1.276,1.187h0c-.44.387-.9.773-1.339,1.151h0c-6.894,5.78-15.281,10.184-22.715,13.357h0l-1.384.584-.144.054-1.276.521-.225.081-1.187.467-.27.108-1.106.413-.324.117-1.025.378-.369.135-.944.333-.387.135-.9.3-.422.144-.791.261-.449.153-.71.225-.485.153-.611.2-.521.153-.512.162-.638.189-.324.09c-.306.1-.611.18-.9.261a11.02,11.02,0,0,1-7.263-.431c-18.769-7.865-29.8-17.079-35.128-22.472a21.312,21.312,0,0,1-5.393-9.429c-4.288-15.784-14.849-65.016,14.652-81.969q.782-.44,1.537-.809l.333-.162c.5-.234.989-.449,1.474-.638l.144-.054c.458-.171.9-.324,1.366-.449l.207-.063c.485-.135.962-.243,1.429-.333h.126a13.249,13.249,0,0,1,2.822-.2h.054a11.9,11.9,0,0,1,2.7.413h0c-4.71-2.076-10.463-1.987-16.18,1.294-29.5,16.953-18.939,66.184-14.652,81.969l.728,2.7a25.654,25.654,0,0,0,9.2,13.762l7.658,5.852h0A120.332,120.332,0,0,0,214.4,283.051a11.038,11.038,0,0,0,7.29.449c9.312-2.652,33.681-10.787,45.843-26.337a4.2,4.2,0,0,0,.9-2.31h0v-5.258Z" transform="translate(-142.492 -120.951)" opacity="0.6"/>
        <path id="Trazado_203600" data-name="Trazado 203600" d="M290.186,311.848c-2.013-12.845-4.593-33.375-6.067-45.51q-.144-1.2-.4-2.373a25.168,25.168,0,0,0-11.874-16.081l-30.256-17.978L221.044,219.12s-5.465,15.838.9,25.528c5.285,8.09,28.62,18.049,35.56,21.42s7.083,4.279,6.939,8.782-.153,10.238,8.369,28.2c2.454,5.16,4.162,8.989,5.348,11.982a18.877,18.877,0,0,0,12.027-3.182Z" transform="translate(-147.975 -126.863)" fill="#00defc"/>
        <path id="Trazado_203601" data-name="Trazado 203601" d="M290.186,311.844c-2.013-12.845-4.593-33.375-6.067-45.51a25.556,25.556,0,0,0-.683-3.533,25.105,25.105,0,0,0-11.551-14.894l-30.3-18.04L221.044,219.08s-5.465,15.838.9,25.528c5.285,8.09,28.62,18.049,35.56,21.42s7.083,4.279,6.939,8.782-.153,10.238,8.369,28.2c2.454,5.16,4.162,8.989,5.348,11.982a18.876,18.876,0,0,0,12.027-3.146Z" transform="translate(-147.975 -126.859)" opacity="0.7"/>
        <path id="Trazado_203602" data-name="Trazado 203602" d="M287.5,335.879a3.047,3.047,0,0,0,.369,1.528,21.321,21.321,0,0,0,4.548,5.393c4.081,3.676,17.591,18.067,22.337,9.133,0,0-13.96-13.366-15.8-18.876a91.532,91.532,0,0,1-2.094-10.786A18.877,18.877,0,0,1,284.81,325.4C287.426,331.915,287.543,334.027,287.5,335.879Z" transform="translate(-154.644 -137.294)" fill="#ffa8a7"/>
        <path id="Trazado_203603" data-name="Trazado 203603" d="M302.14,336.167l-.387-1.16a1.8,1.8,0,0,0-2.175-1.115l-5.654,1.744A1.735,1.735,0,0,0,292.7,337.3v.566a1.016,1.016,0,0,1-1.016,1.007h0a5.15,5.15,0,0,1-3.281-1.177l-.791-.647V335.07h0a3.479,3.479,0,0,0-1.573,3.092c.072,1.339.135,2.975.081,3.6-.09,1.187-1.2,6.13.126,7.6s4.288,1.636,7.955,1.24,7.676,3.209,11.074,4.548,17.474,4.216,17.438-4.782c0-2.292-2.274-3.227-4.494-4.036s-10.256-3.64-12.315-5.339a18.877,18.877,0,0,1-2.292-2.265A7.505,7.505,0,0,1,302.14,336.167Z" transform="translate(-154.724 -138.463)" fill="#455a64"/>
        <path id="Trazado_203604" data-name="Trazado 203604" d="M305.237,356.685c-3.4-1.339-7.407-4.944-11.074-4.548s-6.634.225-7.955-1.24a3.514,3.514,0,0,1-.629-2.076,5.138,5.138,0,0,0,.629,3.362c1.321,1.465,4.288,1.636,7.955,1.24s7.676,3.218,11.074,4.548,17.474,4.216,17.438-4.782a2.869,2.869,0,0,0-.054-.387C321.74,360.667,308.518,357.971,305.237,356.685Z" transform="translate(-154.72 -139.979)" fill="#263238"/>
        <path id="Trazado_203605" data-name="Trazado 203605" d="M259.556,329.142c-2.022-12.836-4.593-33.366-6.076-45.51a25.546,25.546,0,0,0-8.827-16.4l-36.306-30.867L188.94,236s-4,16.18,2.346,25.861c5.294,8.09,28.62,18.058,35.56,21.42s7.083,4.288,6.939,8.782-.153,10.238,8.378,28.2c2.445,5.169,4.153,8.989,5.339,11.982a18.931,18.931,0,0,0,12.054-3.1Z" transform="translate(-144.823 -128.57)" fill="#00defc"/>
        <path id="Trazado_203606" data-name="Trazado 203606" d="M259.556,329.142c-2.022-12.836-4.593-33.366-6.076-45.51a25.546,25.546,0,0,0-8.827-16.4l-36.306-30.867L188.94,236s-4,16.18,2.346,25.861c5.294,8.09,28.62,18.058,35.56,21.42s7.083,4.288,6.939,8.782-.153,10.238,8.378,28.2c2.445,5.169,4.153,8.989,5.339,11.982a18.931,18.931,0,0,0,12.054-3.1Z" transform="translate(-144.823 -128.57)" opacity="0.7"/>
        <path id="Trazado_203607" data-name="Trazado 203607" d="M256.909,352.061c0,.539-.369,2.13.378,2.7.953.71,1.861,2.984,4.557,5.393,4.072,3.676,8.378-4.243,6.526-9.735a92.45,92.45,0,0,1-2.085-10.786,18.931,18.931,0,0,1-12.054,3.128C256.855,349.248,256.963,350.219,256.909,352.061Z" transform="translate(-151.551 -139.05)" fill="#ffa8a7"/>
        <path id="Trazado_203608" data-name="Trazado 203608" d="M230.52,161.5h0a11.883,11.883,0,0,1,13.133,7.964,51.643,51.643,0,0,1,2.454,11.883c1.052,12.449,1.339,18.67,1.339,18.67l12.5,5.672s-6.751.324-6.292,9.888l-15.578-3.928Z" transform="translate(-149.154 -121.022)" fill="#ffa8a7"/>
        <path id="Trazado_203609" data-name="Trazado 203609" d="M247.9,192.492c-1.843-13.483-2.571-20.539-4.153-23.883a12.126,12.126,0,0,0-13.231-7.11l4.71,37.034.6-.054a19.578,19.578,0,0,0,11.209-4.962Z" transform="translate(-149.154 -121.017)" fill="#00defc"/>
        <path id="Trazado_203610" data-name="Trazado 203610" d="M247.9,192.492c-1.843-13.483-2.571-20.539-4.153-23.883a12.126,12.126,0,0,0-13.231-7.11l4.71,37.034.6-.054a19.578,19.578,0,0,0,11.209-4.962Z" transform="translate(-149.154 -121.017)" opacity="0.2"/>
        <path id="Trazado_203611" data-name="Trazado 203611" d="M248.934,204.2a8.647,8.647,0,0,0-3.694,2.274s1.51-2.867,3.6-3.757Z" transform="translate(-150.642 -125.205)" fill="#f28f8f"/>
        <path id="Trazado_203612" data-name="Trazado 203612" d="M196.179,172.425l13.987-6.778,11.524-3.982s9.24-2.939,11.6,9.366c1.951,10.112,2.2,48.539,2.2,48.539l-.207,4.2s-5.33,14.939-24.378,16.18-22.76-6.8-22.76-6.8S186.2,182.3,196.179,172.425Z" transform="translate(-144.853 -121.022)" fill="#00defc"/>
        <path id="Trazado_203613" data-name="Trazado 203613" d="M245.47,128s4.324,11.083-1.645,15.964S239.96,129.2,239.96,129.2Z" transform="translate(-150.072 -117.649)" fill="#263238"/>
        <path id="Trazado_203614" data-name="Trazado 203614" d="M272.863,198.49,140,275.2v16.62h0v80.764h0a1.672,1.672,0,0,0,1.007,1.5,5.393,5.393,0,0,0,4.908,0,1.672,1.672,0,0,0,1-1.5h0V295.82l72.036,41.555V418.93h0a1.672,1.672,0,0,0,1.007,1.492,5.393,5.393,0,0,0,4.908,0,1.672,1.672,0,0,0,1.007-1.492h0V337.375l122.454-70.7v77.3h0a1.663,1.663,0,0,0,1.025,1.483,5.393,5.393,0,0,0,4.908,0,1.663,1.663,0,0,0,1.007-1.492h0v-97.9Z" transform="translate(-140 -124.777)" fill="#455a64"/>
        <path id="Trazado_203615" data-name="Trazado 203615" d="M233.743,445.025a5.393,5.393,0,0,1-4.908,0c-1.357-.782-1.357-2.049,0-2.831a5.393,5.393,0,0,1,4.908,0C235.1,442.976,235.1,444.243,233.743,445.025Z" transform="translate(-148.88 -149.362)" fill="#455a64"/>
        <rect id="Rectángulo_296795" data-name="Rectángulo 296795" width="6.939" height="83.56" transform="translate(78.948 210.612)" fill="#37474f"/>
        <ellipse id="Elipse_4930" data-name="Elipse 4930" cx="3.47" cy="2.004" rx="3.47" ry="2.004" transform="translate(0.009 245.893)" fill="#455a64"/>
        <rect id="Rectángulo_296796" data-name="Rectángulo 296796" width="6.939" height="83.56" transform="translate(0.009 164.266)" fill="#263238"/>
        <path id="Trazado_203616" data-name="Trazado 203616" d="M377.693,361.615a5.393,5.393,0,0,1-4.908,0c-1.357-.782-1.357-2.049,0-2.831a5.393,5.393,0,0,1,4.908,0C379.051,359.575,379.051,360.842,377.693,361.615Z" transform="translate(-163.437 -140.927)" fill="#455a64"/>
        <rect id="Rectángulo_296797" data-name="Rectángulo 296797" width="6.939" height="83.56" transform="translate(208.342 135.646)" fill="#37474f"/>
        <path id="Trazado_203617" data-name="Trazado 203617" d="M283.4,291.315a4.872,4.872,0,0,1-4.4,0c-1.214-.7-1.214-1.8,0-2.535a4.818,4.818,0,0,1,4.4,0A1.351,1.351,0,0,1,283.4,291.315Z" transform="translate(-153.964 -133.854)" fill="#455a64"/>
        <rect id="Rectángulo_296798" data-name="Rectángulo 296798" width="6.229" height="69.735" transform="translate(124.09 86.396)" fill="#455a64"/>
        <path id="Trazado_203618" data-name="Trazado 203618" d="M140,283.83v16.62l82.418,47.587V331.408Z" transform="translate(-140 -133.407)" fill="#263238"/>
        <path id="Trazado_203619" data-name="Trazado 203619" d="M364.553,251.43l-132.863,76.7V344.76l132.863-76.71Z" transform="translate(-149.272 -130.13)" fill="#37474f"/>
        <path id="Trazado_203620" data-name="Trazado 203620" d="M272.863,198.49,140,275.2l82.418,47.578,132.863-76.7Z" transform="translate(-140 -124.777)" fill="#455a64"/>
        <path id="Trazado_203621" data-name="Trazado 203621" d="M213.66,252.771l30.22,17.447,50.238-29.061-30.211-17.8Z" transform="translate(-147.449 -127.292)" fill="#ebebeb"/>
        <path id="Trazado_203622" data-name="Trazado 203622" d="M242.861,249.353l11.335-6.544-7.1-4.1-11.335,6.544Z" transform="translate(-149.684 -128.844)" fill="#e0e0e0"/>
        <path id="Trazado_203623" data-name="Trazado 203623" d="M246.992,267.6l-15.272-8.989,29.843-18.067Z" transform="translate(-149.275 -129.029)" fill="#e0e0e0"/>
        <path id="Trazado_203624" data-name="Trazado 203624" d="M257.171,208.28l12.09,5.672a105.953,105.953,0,0,1,10.67,3.3s8.413,3.434,8.8,5.69-6.292,7.694-12.2,5.052a18.615,18.615,0,0,0-4.908-1.8c-1.573-.171-6.292-.9-9.663-4.144l-14.1-3.667S247.158,209.682,257.171,208.28Z" transform="translate(-150.906 -125.767)" fill="#ffa8a7"/>
        <path id="Trazado_203625" data-name="Trazado 203625" d="M266.582,226.52c1.393,1.5,5.393,5.285,6.292,6.382s2.93-1.717-.674-5.915a33.825,33.825,0,0,1-8.71-4.737,34.408,34.408,0,0,0,3.092,4.27Z" transform="translate(-152.488 -127.18)" fill="#ffa8a7"/>
        <rect id="Rectángulo_296799" data-name="Rectángulo 296799" width="14.346" height="17.366" transform="translate(65.312 27.259)" fill="#ffa8a7"/>
        <path id="Trazado_203626" data-name="Trazado 203626" d="M227.151,164.176A23.092,23.092,0,0,1,214,151.637V146.81h13.187Z" transform="translate(-147.483 -119.551)" fill="#f28f8f"/>
        <path id="Trazado_203627" data-name="Trazado 203627" d="M231.553,121.232s13.052,1.573,10.058,23.874c-1.384,10.31-4.144,15.524-12.09,14.643-8.989-1.007-21.456-8-19.524-25.672S231.553,121.232,231.553,121.232Z" transform="translate(-147.058 -116.903)" fill="#ffa8a7"/>
        <path id="Trazado_203628" data-name="Trazado 203628" d="M234.757,143.42l-.467,7.7,4.593-1.106Z" transform="translate(-149.535 -119.208)" fill="#f28f8f"/>
        <path id="Trazado_203629" data-name="Trazado 203629" d="M227.21,142.484a1.573,1.573,0,1,0,1.663-1.474,1.573,1.573,0,0,0-1.663,1.474Z" transform="translate(-148.819 -118.964)" fill="#263238"/>
        <path id="Trazado_203630" data-name="Trazado 203630" d="M238.76,141.974a1.573,1.573,0,1,0,.53-1.084,1.573,1.573,0,0,0-.53,1.084Z" transform="translate(-149.987 -118.912)" fill="#263238"/>
        <path id="Trazado_203631" data-name="Trazado 203631" d="M242.527,138.443l-2.957-2.013s1.249-1.151,2.382-.342A2.148,2.148,0,0,1,242.527,138.443Z" transform="translate(-150.069 -118.437)" fill="#263238"/>
        <path id="Trazado_203632" data-name="Trazado 203632" d="M228.054,138.265l-3.191,1.6s-.4-1.654.854-2.238A2.139,2.139,0,0,1,228.054,138.265Z" transform="translate(-148.576 -118.61)" fill="#263238"/>
        <path id="Trazado_203633" data-name="Trazado 203633" d="M233.975,155.283A8.027,8.027,0,0,1,229,153.62s-.5,2.643,1.69,3.281S233.975,155.283,233.975,155.283Z" transform="translate(-148.995 -120.239)" fill="#f28f8f"/>
        <path id="Trazado_203634" data-name="Trazado 203634" d="M211.708,140.516s2,4.18,3.245,4.036,0-16.009,2.571-16.108,14.706,5.924,25.429-1.852c4.126-2.984,4.944-10.607,2.472-9.888s-5.807,2.885-10.31,2.58-20.27-7.622-24.18,2.7c0,0-8.719-.71-5.447,16.6.818,4.306,3.389,14.966,6.373,16.018Z" transform="translate(-146.548 -116.484)" fill="#263238"/>
        <path id="Trazado_203635" data-name="Trazado 203635" d="M212.3,146.728a8.8,8.8,0,0,0-.71-3.811,4.045,4.045,0,0,0-3.5-2.7c-4.027-.108-4.575,3.775-4.494,5.151.144,3.6,3.083,7.551,8.548,7.7Z" transform="translate(-146.431 -118.884)" fill="#ffa8a7"/>
        <path id="Trazado_203636" data-name="Trazado 203636" d="M213.779,233.906l10.283,8.171a34.531,34.531,0,0,1,5.213.9c1.969.584,7.128,2.481,8.494,2.778s-.4,2.7-3.973,1.8c0,0,7.5,5.133,7.4,7.416s-7.793,6.184-12.989,2.355a19.236,19.236,0,0,0-4.413-2.769c-1.51-.494-5.942-2.211-8.575-6.094l-8.989-4.683S203.693,233.16,213.779,233.906Z" transform="translate(-146.669 -128.355)" fill="#ffa8a7"/>
        <path id="Trazado_203637" data-name="Trazado 203637" d="M199.954,171.21s6,4.647,2.31,19.092S196.61,217.2,196.61,217.2l14.562,10.373a12.836,12.836,0,0,0-7.551,9.888s-22.957-8.989-23.425-14.822,4.791-30.876,5.591-35.488S190.669,173.394,199.954,171.21Z" transform="translate(-144.062 -122.018)" fill="#ffa8a7"/>
        <path id="Trazado_203638" data-name="Trazado 203638" d="M197.842,222.219a13.591,13.591,0,0,0-5.492.054,11.505,11.505,0,0,1,5.618-1.393Z" transform="translate(-145.294 -127.041)" fill="#f28f8f"/>
        <path id="Trazado_203639" data-name="Trazado 203639" d="M304.515,205.928l-5.258,34.382a.09.09,0,0,1,0,.063l-52.27,30.265a.081.081,0,0,1-.117-.081l5.1-33.348a4.944,4.944,0,0,1,2.3-3.47l47.874-29.357a1.546,1.546,0,0,1,2.373,1.546Z" transform="translate(-150.807 -125.347)" fill="#fafafa"/>
        <path id="Trazado_203640" data-name="Trazado 203640" d="M243.628,275.887l-27.865-16.18a4.243,4.243,0,0,1-2.112-3.667h0l30.22,17.447Z" transform="translate(-147.448 -130.597)" fill="#e0e0e0"/>
        <path id="Trazado_203641" data-name="Trazado 203641" d="M277.37,242.191c0,2.463,1.726,3.452,3.847,2.229a8.512,8.512,0,0,0,3.856-6.67c0-2.463-1.726-3.452-3.856-2.229A8.53,8.53,0,0,0,277.37,242.191Z" transform="translate(-153.891 -128.469)" fill="#e0e0e0"/>
        <path id="Trazado_203642" data-name="Trazado 203642" d="M213.015,127.664s-2.373-3.506-.9-4.638S214.66,125.5,213.015,127.664Z" transform="translate(-147.244 -117.124)" fill="#263238"/>
        <path id="Trazado_203643" data-name="Trazado 203643" d="M213.15,128.645s-4.189-.521-4.09-2.355S212.6,126,213.15,128.645Z" transform="translate(-146.983 -117.395)" fill="#263238"/>
        <path id="Trazado_203644" data-name="Trazado 203644" d="M212.66,166.13s3.083,8.09,10.184,7.083,4.171-7.083,4.171-7.083Z" transform="translate(-147.348 -121.505)" fill="#ffa8a7"/>
        <path id="Trazado_203645" data-name="Trazado 203645" d="M200.061,171.21s4.674,2.238,3.955,11.64-4.431,28.351-4.431,28.351-16.728,6.778-18.328-2.778c-.4-2.472,3.811-25.33,7.416-30.166a17.025,17.025,0,0,1,11.389-7.047Z" transform="translate(-144.169 -122.018)" fill="#00defc"/>
        <path id="Trazado_203646" data-name="Trazado 203646" d="M200.061,171.21s4.674,2.238,3.955,11.64-4.431,28.351-4.431,28.351-16.728,6.778-18.328-2.778c-.4-2.472,3.811-25.33,7.416-30.166a17.025,17.025,0,0,1,11.389-7.047Z" transform="translate(-144.169 -122.018)" opacity="0.2"/>
        <path id="Trazado_203647" data-name="Trazado 203647" d="M257.466,353.65a4.539,4.539,0,0,0,2.7,1.906c1.016.162-1.034-2.472,1.411-3.533s8.045-2.508,8.548-.4l.62,2.625a15.56,15.56,0,0,0,3.452,6.7,32.739,32.739,0,0,0,5.537,5.294c3.2,2.058,8.458,7.047,1.708,11.3s-15.038.656-16.665-4.171-3.344-6.229-4.207-7.029a9.214,9.214,0,0,1-3.649-5.321,50.693,50.693,0,0,1-.9-6.472,2.436,2.436,0,0,1,1.115-2.238h0Z" transform="translate(-151.732 -140.153)" fill="#455a64"/>
        <path id="Trazado_203648" data-name="Trazado 203648" d="M281.613,378.8c-6.751,4.243-15.038.656-16.665-4.171s-3.344-6.229-4.207-7.029a9.708,9.708,0,0,1-3.371-4.378v.4c.261,4.18,2.822,5.16,3.685,5.969s2.283,2.121,3.91,6.957,10.184,7.838,16.926,3.6c3.281-2.058,3.721-4.3,2.948-6.292C285,375.472,284.174,377.189,281.613,378.8Z" transform="translate(-151.869 -141.435)" fill="#263238"/>
        <path id="Trazado_203649" data-name="Trazado 203649" d="M242.787,307.369l-21.5,12.44L194.14,304.133l21.573-12.44a1.888,1.888,0,0,1,1.852,0l25.249,14.58a.638.638,0,0,1-.027,1.1Z" transform="translate(-145.475 -134.177)" fill="#00defc"/>
        <path id="Trazado_203650" data-name="Trazado 203650" d="M242.787,307.369l-21.5,12.44L194.14,304.133l21.573-12.44a1.888,1.888,0,0,1,1.852,0l25.249,14.58a.638.638,0,0,1-.027,1.1Z" transform="translate(-145.475 -134.177)" opacity="0.7"/>
        <path id="Trazado_203651" data-name="Trazado 203651" d="M241.506,306.99,221.5,318.541l-25.267-14.58,20.054-11.578a1.681,1.681,0,0,1,1.717,0l23.506,13.564a.6.6,0,0,1,0,1.043Z" transform="translate(-145.686 -134.248)" fill="#fff"/>
        <path id="Trazado_203652" data-name="Trazado 203652" d="M224.34,319.938v-2.256l20.315-11.721v1.915Z" transform="translate(-148.529 -135.645)" fill="#fff"/>
        <path id="Trazado_203653" data-name="Trazado 203653" d="M221.5,319.616V317.36L196.23,302.78v2.256Z" transform="translate(-145.686 -135.323)" fill="#e0e0e0"/>
        <path id="Trazado_203654" data-name="Trazado 203654" d="M242.787,303.4l-21.5,12.413L194.14,300.143l21.573-12.44a1.888,1.888,0,0,1,1.852,0l25.222,14.625a.638.638,0,0,1,0,1.07Z" transform="translate(-145.475 -133.774)" fill="#00defc"/>
        <path id="Trazado_203655" data-name="Trazado 203655" d="M242.787,303.4l-21.5,12.413L194.14,300.143l21.573-12.44a1.888,1.888,0,0,1,1.852,0l25.222,14.625a.638.638,0,0,1,0,1.07Z" transform="translate(-145.475 -133.774)" opacity="0.5"/>
        <path id="Trazado_203656" data-name="Trazado 203656" d="M221.041,320.528a.441.441,0,0,1-.4,0,.494.494,0,0,1-.261-.431v-2.058a2.7,2.7,0,0,1,1.3-2.283l.081-.054a.243.243,0,0,1,.36.216.422.422,0,1,0,.845,0,1.07,1.07,0,0,0-.548-.944,1.052,1.052,0,0,0-1.088,0l-.081.045a3.506,3.506,0,0,0-1.717,3.011v2.04a1.339,1.339,0,0,0,.7,1.178,1.3,1.3,0,0,0,.629.153,1.321,1.321,0,0,0,.746-.225.4.4,0,0,0,.162-.234Z" transform="translate(-148.043 -136.541)" fill="#fff"/>
        <path id="Trazado_203657" data-name="Trazado 203657" d="M216.571,317.959a.441.441,0,0,1-.4,0,.494.494,0,0,1-.261-.431v-2.04a2.7,2.7,0,0,1,1.3-2.292h.081a.252.252,0,0,1,.243,0,.243.243,0,0,1,.117.207.422.422,0,0,0,.845,0,1.07,1.07,0,0,0-.548-.9,1.052,1.052,0,0,0-1.088,0l-.081.045a3.505,3.505,0,0,0-1.717,3.011v2.04a1.339,1.339,0,0,0,.7,1.178,1.3,1.3,0,0,0,.629.153,1.322,1.322,0,0,0,.746-.225.4.4,0,0,0,.162-.234Z" transform="translate(-147.591 -136.291)" fill="#fff"/>
        <path id="Trazado_203658" data-name="Trazado 203658" d="M212.1,315.364a.467.467,0,0,1-.4,0,.494.494,0,0,1-.261-.431v-2.04a2.7,2.7,0,0,1,1.3-2.292l.081-.045a.252.252,0,0,1,.243,0,.243.243,0,0,1,.117.207.422.422,0,0,0,.845,0,1.07,1.07,0,0,0-.548-.9,1.052,1.052,0,0,0-1.088,0l-.081.045a3.505,3.505,0,0,0-1.717,3.011v2.04a1.339,1.339,0,0,0,.7,1.178,1.3,1.3,0,0,0,.629.153,1.322,1.322,0,0,0,.746-.225.4.4,0,0,0,.162-.234Z" transform="translate(-147.139 -136.024)" fill="#fff"/>
        <path id="Trazado_203659" data-name="Trazado 203659" d="M207.631,312.794a.467.467,0,0,1-.4,0,.494.494,0,0,1-.261-.431v-2.04a2.7,2.7,0,0,1,1.3-2.292l.081-.045a.252.252,0,0,1,.243,0,.243.243,0,0,1,.117.207.422.422,0,0,0,.845,0,1.07,1.07,0,0,0-.548-.9,1.052,1.052,0,0,0-1.088,0l-.081.045a3.506,3.506,0,0,0-1.717,3.011v2.04a1.339,1.339,0,0,0,.7,1.178,1.3,1.3,0,0,0,.629.153,1.321,1.321,0,0,0,.746-.225.4.4,0,0,0,.162-.234Z" transform="translate(-146.687 -135.764)" fill="#fff"/>
        <path id="Trazado_203660" data-name="Trazado 203660" d="M203.161,310.219a.467.467,0,0,1-.4,0,.494.494,0,0,1-.261-.431v-2.04a2.7,2.7,0,0,1,1.3-2.292h.081a.252.252,0,0,1,.243,0,.243.243,0,0,1,.117.207.422.422,0,1,0,.845,0,1.07,1.07,0,0,0-.548-.9,1.052,1.052,0,0,0-1.088,0l-.081.045a3.506,3.506,0,0,0-1.717,3.011v2.04a1.339,1.339,0,0,0,.7,1.178,1.411,1.411,0,0,0,.629.153,1.321,1.321,0,0,0,.746-.225.4.4,0,0,0,.162-.234Z" transform="translate(-146.235 -135.508)" fill="#fff"/>
        <path id="Trazado_203661" data-name="Trazado 203661" d="M198.691,307.633a.467.467,0,0,1-.4,0,.494.494,0,0,1-.261-.431v-2.058a2.7,2.7,0,0,1,1.3-2.292l.081-.045a.252.252,0,0,1,.243,0,.225.225,0,0,1,.117.207.422.422,0,1,0,.845,0,1.1,1.1,0,0,0-1.636-.9l-.081.054a3.506,3.506,0,0,0-1.717,3.011v2.04a1.339,1.339,0,0,0,.7,1.178,1.411,1.411,0,0,0,.629.153,1.321,1.321,0,0,0,.746-.225.4.4,0,0,0,.162-.234Z" transform="translate(-145.783 -135.241)" fill="#fff"/>
        <path id="Trazado_203662" data-name="Trazado 203662" d="M245.321,296.985l-23.245,13.42L191.82,292.94l23.254-13.42Z" transform="translate(-145.24 -132.971)" fill="#e6e6e6"/>
        <path id="Trazado_203663" data-name="Trazado 203663" d="M246.87,296.217l-24.288,11.434L193.89,287.7l24.3-11.425Z" transform="translate(-145.45 -132.643)" fill="#fafafa"/>
        <path id="Trazado_203664" data-name="Trazado 203664" d="M190.28,258.75H170.55l1.8,20.881h0a4.162,4.162,0,0,0,2.355,3.056,12.647,12.647,0,0,0,11.47,0,4.189,4.189,0,0,0,2.355-3.056h0Z" transform="translate(-143.089 -130.871)" fill="#ffb30b"/>
        <path id="Trazado_203665" data-name="Trazado 203665" d="M191.4,256.759V255.1h-.387a6.75,6.75,0,0,0-2.867-2.876,17.385,17.385,0,0,0-15.73,0,6.7,6.7,0,0,0-2.867,2.876h-.4v1.672c0,1.636,1.088,3.281,3.263,4.539a17.385,17.385,0,0,0,15.73,0C190.319,260.058,191.406,258.4,191.4,256.759Z" transform="translate(-142.948 -130.021)" fill="#e0e0e0"/>
        <path id="Trazado_203666" data-name="Trazado 203666" d="M188.144,259.567a17.385,17.385,0,0,1-15.73,0c-4.342-2.508-4.351-6.571,0-9.079s11.389-2.517,15.73,0S192.485,257.05,188.144,259.567Z" transform="translate(-142.948 -129.845)" fill="#ebebeb"/>
        <path id="Trazado_203667" data-name="Trazado 203667" d="M189.446,254.423V253.1h-.315a5.393,5.393,0,0,0-2.3-2.3,13.906,13.906,0,0,0-12.584,0,5.322,5.322,0,0,0-2.3,2.3h-.315v1.321c0,1.321.9,2.643,2.616,3.64a13.906,13.906,0,0,0,12.584,0C188.574,257.048,189.446,255.727,189.446,254.423Z" transform="translate(-143.199 -129.915)" fill="#e0e0e0"/>
        <path id="Trazado_203668" data-name="Trazado 203668" d="M186.83,256.653a13.906,13.906,0,0,1-12.584,0c-3.488-2-3.488-5.267,0-7.272a13.905,13.905,0,0,1,12.584,0C190.309,251.385,190.309,254.648,186.83,256.653Z" transform="translate(-143.199 -129.771)" fill="#f5f5f5"/>
        <path id="Trazado_203669" data-name="Trazado 203669" d="M185.6,255.7a10.724,10.724,0,0,1-9.7,0c-2.6-1.492-2.7-3.883-.27-5.393a2.24,2.24,0,0,1,.27-.171,8.09,8.09,0,0,1,1.87-.773,10.786,10.786,0,0,1,7.829.773C188.289,251.693,188.289,254.155,185.6,255.7Z" transform="translate(-143.426 -129.881)" fill="#f0f0f0"/>
        <path id="Trazado_203670" data-name="Trazado 203670" d="M175.9,250.9a10.688,10.688,0,0,1,9.708,0,3.6,3.6,0,0,1,1.969,2.4c.207-1.142-.458-2.328-1.969-3.2a10.787,10.787,0,0,0-9.708,0c-1.519.9-2.175,2.058-1.978,3.2a3.6,3.6,0,0,1,1.978-2.4Z" transform="translate(-143.427 -129.879)" fill="#e0e0e0"/>
        <path id="Trazado_203671" data-name="Trazado 203671" d="M179.768,251.2l-1.987,1.267-1.942-1.393v-.764a2.236,2.236,0,0,1,.27-.171,8.09,8.09,0,0,1,1.87-.773v.566Z" transform="translate(-143.624 -129.922)" fill="#e0e0e0"/>
      </g>
      <g id="freepik--Screen--inject-11" transform="translate(251.362 0)">
        <path id="Trazado_203672" data-name="Trazado 203672" d="M427.47,107.667,315.578,43.02a2.742,2.742,0,0,0-3.254,0l-3.874,2.7,2.643,3.272v90.2c0,3.308,2.013,7.191,4.494,8.575L426.374,211.73l.207,3.515,4.081-2.8a4.225,4.225,0,0,0,1.312-3.47V116.2C431.965,112.889,429.951,109.051,427.47,107.667Z" transform="translate(-307.272 -42.485)" fill="#084a93"/>
        <path id="Trazado_203673" data-name="Trazado 203673" d="M427.47,107.667,315.578,43.02a2.742,2.742,0,0,0-3.254,0l-3.874,2.7,2.643,3.272v90.2c0,3.308,2.013,7.191,4.494,8.575L426.374,211.73l.207,3.515,4.081-2.8a4.225,4.225,0,0,0,1.312-3.47V116.2C431.965,112.889,429.951,109.051,427.47,107.667Z" transform="translate(-307.272 -42.485)" opacity="0.3"/>
        <path id="Trazado_203674" data-name="Trazado 203674" d="M423.526,215.288l-111.892-64.6c-2.472-1.429-4.494-5.267-4.494-8.575V49.328c0-3.3,2.013-4.818,4.494-3.389l111.892,64.6c2.481,1.429,4.494,5.267,4.494,8.575V211.89C428.021,215.2,426.007,216.726,423.526,215.288Z" transform="translate(-307.14 -42.78)" fill="#00defc"/>
        <path id="Trazado_203675" data-name="Trazado 203675" d="M423.526,215.288l-111.892-64.6c-2.472-1.429-4.494-5.267-4.494-8.575V49.328c0-3.3,2.013-4.818,4.494-3.389l111.892,64.6c2.481,1.429,4.494,5.267,4.494,8.575V211.89C428.021,215.2,426.007,216.726,423.526,215.288Z" transform="translate(-307.14 -42.78)" fill="#ffb30b"/>
        <path id="Trazado_203676" data-name="Trazado 203676" d="M423.527,110.542,311.634,45.94c-2.472-1.429-4.494.09-4.494,3.389v4.494L428.012,123.6v-4.494C428.021,115.809,426.007,111.971,423.527,110.542Z" transform="translate(-307.14 -42.78)" fill="#455a64"/>
        <path id="Trazado_203677" data-name="Trazado 203677" d="M309.856,46.3h0a2.768,2.768,0,0,1,1.33.413l111.892,64.6c2.193,1.267,4.045,4.836,4.045,7.8V211.89c0,1.8-.71,3.038-1.8,3.038a2.75,2.75,0,0,1-1.339-.422l-111.9-64.6c-2.184-1.258-4.036-4.836-4.036-7.793V49.328c0-1.843.71-3.029,1.8-3.029m0-.9c-1.591,0-2.7,1.465-2.7,3.928v92.791c0,3.308,2.013,7.146,4.494,8.575l111.883,64.593a3.6,3.6,0,0,0,1.8.539c1.591,0,2.7-1.474,2.7-3.937V119.117c0-3.308-2.013-7.191-4.494-8.575l-111.892-64.6a3.542,3.542,0,0,0-1.8-.539Z" transform="translate(-307.141 -42.78)" fill="#00defc"/>
        <path id="Trazado_203678" data-name="Trazado 203678" d="M359.967,97.027a.9.9,0,0,1-.476-.126l-42.6-24.557a.953.953,0,0,1,.953-1.645l42.6,24.593a.953.953,0,0,1-.476,1.8Z" transform="translate(-308.084 -45.328)" fill="#084a93"/>
        <path id="Trazado_203679" data-name="Trazado 203679" d="M427.873,136.276a.9.9,0,0,1-.476-.135L395.846,117.93a.954.954,0,1,1,.953-1.654L428.35,134.5a.953.953,0,0,1-.476,1.8Z" transform="translate(-316.062 -49.934)" fill="#fff"/>
        <path id="Trazado_203680" data-name="Trazado 203680" d="M387.261,112.829a1.016,1.016,0,0,1-.476-.126L373.94,105.3a.953.953,0,1,1,.953-1.645l12.818,7.4a.953.953,0,0,1-.476,1.8Z" transform="translate(-313.841 -48.654)" fill="#084a93"/>
        <path id="Trazado_203681" data-name="Trazado 203681" d="M359.967,163.433a.989.989,0,0,1-.476-.126l-42.6-24.593a.953.953,0,0,1,.953-1.645l42.6,24.584a.953.953,0,0,1,.342,1.3.9.9,0,0,1-.818.476Z" transform="translate(-308.084 -52.04)" fill="#fff"/>
        <path id="Trazado_203682" data-name="Trazado 203682" d="M427.873,202.637a.9.9,0,0,1-.476-.126L395.846,184.3a.954.954,0,0,1,.953-1.654l31.551,18.22a.948.948,0,0,1-.476,1.771Z" transform="translate(-316.062 -56.646)" fill="#084a93"/>
        <path id="Trazado_203683" data-name="Trazado 203683" d="M387.261,179.19a.9.9,0,0,1-.476-.126l-12.845-7.4a.953.953,0,1,1,.953-1.645l12.818,7.4a.949.949,0,0,1-.449,1.771Z" transform="translate(-313.841 -55.365)" fill="#00defc"/>
        <path id="Trazado_203684" data-name="Trazado 203684" d="M359.96,179.02a.9.9,0,0,1-.476-.126l-42.6-24.584a.954.954,0,1,1,.953-1.654l42.6,24.566a.953.953,0,0,1-.476,1.8Z" transform="translate(-308.077 -53.613)" fill="#084a93"/>
        <path id="Trazado_203685" data-name="Trazado 203685" d="M414.438,210.485a.9.9,0,0,1-.476-.126L395.84,199.9a.953.953,0,1,1,.953-1.645l18.121,10.463a.944.944,0,0,1,.351,1.294.962.962,0,0,1-.827.476Z" transform="translate(-316.056 -58.22)" fill="#00defc"/>
        <path id="Trazado_203686" data-name="Trazado 203686" d="M387.268,194.8a1.016,1.016,0,0,1-.476-.126l-12.845-7.4a.954.954,0,1,1,.953-1.654l12.818,7.4a.953.953,0,0,1-.476,1.8Z" transform="translate(-313.847 -56.947)" fill="#084a93"/>
        <path id="Trazado_203687" data-name="Trazado 203687" d="M338.738,93.061a.9.9,0,0,1-.476-.135L316.9,80.6a.953.953,0,0,1,.953-1.609l21.357,12.324a.953.953,0,0,1,.342,1.3.9.9,0,0,1-.818.44Z" transform="translate(-308.095 -46.171)" fill="#00defc"/>
        <path id="Trazado_203688" data-name="Trazado 203688" d="M405.994,131.893a1.016,1.016,0,0,1-.476-.126l-31.577-18.22a.953.953,0,1,1,.953-1.645l31.551,18.211a.953.953,0,0,1-.476,1.8Z" transform="translate(-313.841 -49.488)" fill="#084a93"/>
        <path id="Trazado_203689" data-name="Trazado 203689" d="M363.641,107.433a.9.9,0,0,1-.476-.126l-12.818-7.4a.954.954,0,0,1,.953-1.654l12.818,7.4a.953.953,0,0,1,.342,1.3A.9.9,0,0,1,363.641,107.433Z" transform="translate(-311.461 -48.112)" fill="#084a93"/>
        <path id="Trazado_203690" data-name="Trazado 203690" d="M359.976,113.566a.9.9,0,0,1-.476-.135l-42.6-24.62a.953.953,0,0,1,.953-1.618l42.6,24.593a.953.953,0,0,1,.342,1.3A.9.9,0,0,1,359.976,113.566Z" transform="translate(-308.093 -47)" fill="#00defc"/>
        <path id="Trazado_203691" data-name="Trazado 203691" d="M404.721,139.4a.9.9,0,0,1-.476-.126l-8.4-4.854a.953.953,0,1,1,.953-1.645l8.4,4.854a.948.948,0,0,1-.476,1.771Z" transform="translate(-316.056 -51.598)" fill="#fff"/>
        <path id="Trazado_203692" data-name="Trazado 203692" d="M344.845,113.079a1.016,1.016,0,0,1-.476-.126l-8.423-4.854a.954.954,0,0,1,.953-1.654l8.4,4.854a.953.953,0,0,1-.476,1.8Z" transform="translate(-310.005 -48.94)" fill="#084a93"/>
        <path id="Trazado_203693" data-name="Trazado 203693" d="M387.268,129.323a1.016,1.016,0,0,1-.476-.126l-12.845-7.4a.954.954,0,1,1,.953-1.654l12.818,7.4a.953.953,0,0,1-.476,1.8Z" transform="translate(-313.847 -50.325)" fill="#00defc"/>
        <path id="Trazado_203694" data-name="Trazado 203694" d="M331.023,105.093a.9.9,0,0,1-.476-.126l-13.654-7.883a.953.953,0,0,1,.953-1.645l13.654,7.883a.944.944,0,0,1-.476,1.8Z" transform="translate(-308.084 -47.83)" fill="#084a93"/>
        <path id="Trazado_203695" data-name="Trazado 203695" d="M363.634,123.947a.9.9,0,0,1-.476-.126L350.34,116.4a.953.953,0,1,1,.953-1.645l12.818,7.4a.953.953,0,0,1-.476,1.8Z" transform="translate(-311.455 -49.776)" fill="#084a93"/>
        <path id="Trazado_203696" data-name="Trazado 203696" d="M359.967,130.653a.9.9,0,0,1-.476-.126l-42.6-24.593a.953.953,0,0,1,.953-1.645l42.6,24.584a.953.953,0,0,1,.342,1.3.9.9,0,0,1-.818.476Z" transform="translate(-308.084 -48.725)" fill="#084a93"/>
        <path id="Trazado_203697" data-name="Trazado 203697" d="M427.873,169.859a.9.9,0,0,1-.476-.108L395.846,151.54a.954.954,0,1,1,.953-1.654l31.551,18.22a.935.935,0,0,1-.476,1.753Z" transform="translate(-316.062 -53.333)" fill="#084a93"/>
        <path id="Trazado_203698" data-name="Trazado 203698" d="M387.261,146.41a.9.9,0,0,1-.476-.126l-12.845-7.4a.953.953,0,1,1,.953-1.645l12.818,7.4a.962.962,0,0,1,.351,1.3.98.98,0,0,1-.8.467Z" transform="translate(-313.841 -52.051)" fill="#fff"/>
        <path id="Trazado_203699" data-name="Trazado 203699" d="M338.72,126.629a.9.9,0,0,1-.476-.126L316.886,114.18a.954.954,0,1,1,.953-1.654L339.2,124.858a.953.953,0,0,1-.476,1.8Z" transform="translate(-308.077 -49.555)" fill="#fff"/>
        <path id="Trazado_203700" data-name="Trazado 203700" d="M406,165.486a.9.9,0,0,1-.476-.135L373.946,147.14a.954.954,0,0,1,.953-1.654l31.551,18.22a.953.953,0,0,1-.476,1.8Z" transform="translate(-313.847 -52.888)" fill="#084a93"/>
        <path id="Trazado_203701" data-name="Trazado 203701" d="M363.634,141.019a1.016,1.016,0,0,1-.476-.126l-12.818-7.407a.953.953,0,1,1,.953-1.645l12.818,7.4a.953.953,0,0,1,.342,1.3A.9.9,0,0,1,363.634,141.019Z" transform="translate(-311.455 -51.504)" fill="#00defc"/>
        <path id="Trazado_203702" data-name="Trazado 203702" d="M359.967,147.143a.9.9,0,0,1-.476-.126l-42.6-24.593a.953.953,0,0,1,.953-1.645l42.6,24.593a.953.953,0,0,1-.476,1.8Z" transform="translate(-308.084 -50.392)" fill="#084a93"/>
        <path id="Trazado_203703" data-name="Trazado 203703" d="M404.721,172.986a1.016,1.016,0,0,1-.476-.126l-8.4-4.854a.953.953,0,1,1,.953-1.645l8.4,4.845a.953.953,0,0,1-.476,1.8Z" transform="translate(-316.056 -54.995)" fill="#fff"/>
        <path id="Trazado_203704" data-name="Trazado 203704" d="M344.845,146.669a.9.9,0,0,1-.476-.135l-8.422-4.845a.954.954,0,1,1,.953-1.654l8.4,4.854a.953.953,0,0,1-.476,1.8Z" transform="translate(-310.005 -52.337)" fill="#00defc"/>
        <path id="Trazado_203705" data-name="Trazado 203705" d="M387.268,162.949a1.015,1.015,0,0,1-.476-.126l-12.845-7.434a.954.954,0,0,1,.953-1.654l12.845,7.416a.953.953,0,0,1-.476,1.8Z" transform="translate(-313.847 -53.722)" fill="#fff"/>
        <path id="Trazado_203706" data-name="Trazado 203706" d="M331.015,138.676a.9.9,0,0,1-.476-.126l-13.654-7.883a.966.966,0,1,1,.953-1.681l13.654,7.874a.953.953,0,0,1-.476,1.8Z" transform="translate(-308.076 -51.219)" fill="#084a93"/>
        <path id="Trazado_203707" data-name="Trazado 203707" d="M363.641,157.513a.9.9,0,0,1-.476-.126l-12.818-7.4a.954.954,0,1,1,.953-1.654l12.818,7.407a.953.953,0,0,1-.476,1.8Z" transform="translate(-311.461 -53.176)" fill="#084a93"/>
        <path id="Trazado_203708" data-name="Trazado 203708" d="M344.841,162.466a.9.9,0,0,1-.476-.126l-8.4-4.854a.953.953,0,1,1,.953-1.645l8.4,4.854a.944.944,0,0,1-.476,1.8Z" transform="translate(-310 -53.931)" fill="#00defc"/>
        <path id="Trazado_203709" data-name="Trazado 203709" d="M331.017,154.489a1.016,1.016,0,0,1-.476-.126l-13.654-7.883a.954.954,0,0,1,.953-1.654l13.654,7.883a.953.953,0,0,1-.476,1.8Z" transform="translate(-308.077 -52.821)" fill="#084a93"/>
        <path id="Trazado_203710" data-name="Trazado 203710" d="M363.641,173.323a1.016,1.016,0,0,1-.476-.126l-12.818-7.4a.954.954,0,0,1,.953-1.654l12.818,7.4a.953.953,0,0,1,.342,1.3A.9.9,0,0,1,363.641,173.323Z" transform="translate(-311.461 -54.775)" fill="#00defc"/>
        <path id="Trazado_203715" data-name="Trazado 203715" d="M319.114,55.3c0,.98-.692,1.375-1.537.9a3.371,3.371,0,0,1-1.537-2.7c0-.98.683-1.375,1.537-.9a3.425,3.425,0,0,1,1.537,2.7Z" transform="translate(-308.04 -43.488)" fill="#fff"/>
        <path id="Trazado_203716" data-name="Trazado 203716" d="M325.473,59.224c0,.98-.692,1.384-1.546.9a3.4,3.4,0,0,1-1.537-2.7c0-.98.692-1.384,1.537-.9A3.4,3.4,0,0,1,325.473,59.224Z" transform="translate(-308.682 -43.884)" fill="#fff"/>
        <path id="Trazado_203717" data-name="Trazado 203717" d="M331.824,63.154c0,.98-.683,1.375-1.537.9a3.425,3.425,0,0,1-1.537-2.7c0-.98.692-1.375,1.537-.9a3.371,3.371,0,0,1,1.537,2.7Z" transform="translate(-309.325 -44.282)" fill="#fff"/>
      </g>
    </g>
  </g>
</svg>
