<svg xmlns="http://www.w3.org/2000/svg" width="281.333" height="71.003" viewBox="0 0 281.333 71.003">
  <g id="Grupo_146478" data-name="Grupo 146478" transform="translate(-1020 -3166)">
    <g id="MongoDB_Logo_RGB_Logo_Forest-Green" transform="translate(898.688 3045.818)">
      <path id="Trazado_192907" data-name="Trazado 192907" d="M142.352,127.5c-2.759-3.256-5.137-6.586-5.619-7.269a.109.109,0,0,0-.179,0c-.483.683-2.859,4.013-5.619,7.269-23.649,30.128,3.733,50.454,3.733,50.454l.222.154c.208,3.145.723,7.665.723,7.665h2.061s.514-4.5.722-7.644l.223-.175S166,157.626,142.352,127.5Zm-5.708,50.013h0a11.684,11.684,0,0,1-1.559-1.572l0-.056,1.485-32.8a.077.077,0,0,1,.154,0l1.485,32.8,0,.056A11.68,11.68,0,0,1,136.644,177.511Z" transform="translate(0)" fill="#00684a"/>
      <path id="Trazado_192908" data-name="Trazado 192908" d="M321.889,237.468l-11.369-27.7-.032-.079h-8.866v1.855l1.423,0a1.616,1.616,0,0,1,1.613,1.632l-.262,27.9a1.609,1.609,0,0,1-1.582,1.6l-1.456.017v1.844h8.628V242.7l-.888-.018a1.625,1.625,0,0,1-1.583-1.616V214.781l12.4,29.74a1.144,1.144,0,0,0,2.112,0l12.119-29.083.181,25.62a1.62,1.62,0,0,1-1.6,1.628l-.911.011v1.844h10.1V242.7l-1.383-.011a1.623,1.623,0,0,1-1.6-1.611l-.087-27.894a1.622,1.622,0,0,1,1.591-1.622l1.475-.014v-1.854H333.3Z" transform="translate(-134.109 -66.672)" fill="#00684a"/>
      <path id="Trazado_192909" data-name="Trazado 192909" d="M622.334,269.955a1.5,1.5,0,0,1-.432-1.12V255.163a8.069,8.069,0,0,0-2.288-6.1,8.627,8.627,0,0,0-6.191-2.185,9.815,9.815,0,0,0-8.542,4.4.166.166,0,0,1-.3-.052l-.945-3.651h-1.579l-4.065,2.327v1.28h1.049a1.709,1.709,0,0,1,1.175.387,1.493,1.493,0,0,1,.427,1.165v16.1a1.482,1.482,0,0,1-1.553,1.553h-1.017v1.855h9.348v-1.855H606.4a1.482,1.482,0,0,1-1.553-1.553V258.178a9.867,9.867,0,0,1,.879-4.025,7.972,7.972,0,0,1,2.6-3.235,6.779,6.779,0,0,1,4.1-1.26,4.686,4.686,0,0,1,3.975,1.679,7,7,0,0,1,1.284,4.321v13.177a1.481,1.481,0,0,1-1.552,1.553h-1.017v1.855h9.349v-1.855h-1.017A1.5,1.5,0,0,1,622.334,269.955Z" transform="translate(-355.061 -94.374)" fill="#00684a"/>
      <path id="Trazado_192910" data-name="Trazado 192910" d="M968.062,211.779a18.237,18.237,0,0,0-8.659-2.09H947.145v1.855h1.188a2,2,0,0,1,1.849,1.849v27.44a1.774,1.774,0,0,1-.58,1.269,1.753,1.753,0,0,1-1.269.581h-1.187v1.855H959.4a18.238,18.238,0,0,0,8.659-2.09,15.764,15.764,0,0,0,6.252-6.028,19.858,19.858,0,0,0,0-18.612A15.769,15.769,0,0,0,968.062,211.779Zm3.667,15.334a17.753,17.753,0,0,1-1.74,8.244,11.783,11.783,0,0,1-4.571,4.94,12.4,12.4,0,0,1-6.213,1.614h-2.471a1.751,1.751,0,0,1-1.269-.581,1.772,1.772,0,0,1-.58-1.269v-25.9a1.752,1.752,0,0,1,.58-1.269,1.777,1.777,0,0,1,1.269-.58h2.47a12.4,12.4,0,0,1,6.213,1.614,11.787,11.787,0,0,1,4.571,4.939,17.754,17.754,0,0,1,1.739,8.243Z" transform="translate(-615.133 -66.67)" fill="#00684a"/>
      <path id="Trazado_192911" data-name="Trazado 192911" d="M1101.619,228.952a11.255,11.255,0,0,0-5.852-2.977c3.532-1.754,5.323-4.247,5.323-7.416a7.994,7.994,0,0,0-1.381-4.619,9.16,9.16,0,0,0-3.883-3.133,14.042,14.042,0,0,0-5.785-1.123h-13.75v1.855h1.089a2,2,0,0,1,1.849,1.849v27.44a1.774,1.774,0,0,1-.58,1.269,1.752,1.752,0,0,1-1.269.581h-1.188v1.855h14.927a16.885,16.885,0,0,0,6.3-1.146,10.407,10.407,0,0,0,4.552-3.377,8.743,8.743,0,0,0,1.681-5.389,8.43,8.43,0,0,0-2.032-5.668Zm-17.106,12.373a1.773,1.773,0,0,1-.581-1.269V227.73h7.088a7.99,7.99,0,0,1,5.743,1.917,6.626,6.626,0,0,1,1.987,4.974,7.552,7.552,0,0,1-.875,3.524,6.837,6.837,0,0,1-2.621,2.717,8.149,8.149,0,0,1-4.234,1.044h-5.239a1.75,1.75,0,0,1-1.267-.581Zm-.581-16.222V214.16a1.753,1.753,0,0,1,.581-1.269,1.777,1.777,0,0,1,1.269-.58h3.369c2.422,0,4.219.6,5.344,1.789a6.463,6.463,0,0,1,1.695,4.607,6.72,6.72,0,0,1-1.573,4.659,6.074,6.074,0,0,1-4.724,1.737Z" transform="translate(-711.256 -66.664)" fill="#00684a"/>
      <path id="Trazado_192912" data-name="Trazado 192912" d="M497.072,248.5a13.979,13.979,0,0,0-13.071,0,12.079,12.079,0,0,0-4.67,4.594,14.325,14.325,0,0,0,0,13.62,12.07,12.07,0,0,0,4.67,4.595,13.979,13.979,0,0,0,13.071,0,12.07,12.07,0,0,0,4.669-4.594,14.324,14.324,0,0,0,0-13.62A12.081,12.081,0,0,0,497.072,248.5Zm1.887,11.4a11.529,11.529,0,0,1-2.294,7.529,8.163,8.163,0,0,1-12.257,0,13.506,13.506,0,0,1,0-15.059,8.163,8.163,0,0,1,12.257,0,11.531,11.531,0,0,1,2.294,7.53Z" transform="translate(-265.393 -94.374)" fill="#00684a"/>
      <path id="Trazado_192913" data-name="Trazado 192913" d="M850,248.5a13.979,13.979,0,0,0-13.071,0,12.079,12.079,0,0,0-4.67,4.594,14.324,14.324,0,0,0,0,13.62,12.07,12.07,0,0,0,4.67,4.595,13.979,13.979,0,0,0,13.071,0,12.069,12.069,0,0,0,4.669-4.594,14.325,14.325,0,0,0,0-13.62A12.082,12.082,0,0,0,850,248.5Zm1.887,11.4a11.529,11.529,0,0,1-2.294,7.529,8.163,8.163,0,0,1-12.257,0,13.506,13.506,0,0,1,0-15.059,8.163,8.163,0,0,1,12.257,0,11.531,11.531,0,0,1,2.294,7.53Z" transform="translate(-528.279 -94.374)" fill="#00684a"/>
      <path id="Trazado_192914" data-name="Trazado 192914" d="M731.3,246.88a12.053,12.053,0,0,0-5.58,1.3,10.092,10.092,0,0,0-3.953,3.538,8.949,8.949,0,0,0-1.433,4.9,8.644,8.644,0,0,0,1.1,4.326,9.57,9.57,0,0,0,2.909,3.153l-3.636,4.943a2.013,2.013,0,0,0,1.621,3.205h1.044a7.865,7.865,0,0,0-2.4,2.465,6.578,6.578,0,0,0-.995,3.431,6.361,6.361,0,0,0,2.879,5.369c1.9,1.362,4.549,2.053,7.882,2.053a19.135,19.135,0,0,0,6.568-1.112,11.723,11.723,0,0,0,4.932-3.272,7.627,7.627,0,0,0,1.88-5.143,5.868,5.868,0,0,0-2.561-5c-1.536-1.208-3.927-1.846-6.915-1.846H724.435a.065.065,0,0,1-.054-.1l2.649-3.583a9.448,9.448,0,0,0,1.963.66,10.505,10.505,0,0,0,2.054.182,12.552,12.552,0,0,0,5.76-1.3,10.235,10.235,0,0,0,4-3.537,8.838,8.838,0,0,0,1.459-4.9c0-1.893-.908-5.339-3.415-7.1.007-.018.019-.017.023-.015l5.5.615V247.6h-8.787a13.009,13.009,0,0,0-4.285-.719Zm3.073,15.964h0a6.457,6.457,0,0,1-3.073.781,6.338,6.338,0,0,1-4.484-1.814,8.023,8.023,0,0,1,0-10.4A6.339,6.339,0,0,1,731.3,249.6a6.468,6.468,0,0,1,3.073.781,6.193,6.193,0,0,1,2.391,2.341,8.581,8.581,0,0,1,0,7.78,6.177,6.177,0,0,1-2.391,2.341Zm-6.93,9.4h6.917c1.922,0,3.144.372,3.963,1.208a4.394,4.394,0,0,1,1.222,3.2,5.527,5.527,0,0,1-2.211,4.548,9.392,9.392,0,0,1-5.931,1.745,8.918,8.918,0,0,1-5.243-1.415,4.734,4.734,0,0,1-1.975-4.108,5.427,5.427,0,0,1,.928-3.088A5.964,5.964,0,0,1,727.446,272.24Z" transform="translate(-445.924 -94.372)" fill="#00684a"/>
      <path id="Trazado_192915" data-name="Trazado 192915" d="M1199.474,327.286a3.15,3.15,0,0,1-1.192-1.183,3.361,3.361,0,0,1,0-3.29,3.15,3.15,0,0,1,1.192-1.183,3.588,3.588,0,0,1,3.424,0,3.148,3.148,0,0,1,1.192,1.183,3.359,3.359,0,0,1,0,3.29,3.147,3.147,0,0,1-1.192,1.183A3.589,3.589,0,0,1,1199.474,327.286Zm3.133-.376a2.6,2.6,0,0,0,.991-1,3.1,3.1,0,0,0,0-2.9,2.6,2.6,0,0,0-.991-1,2.961,2.961,0,0,0-2.841,0,2.6,2.6,0,0,0-.991,1,3.1,3.1,0,0,0,0,2.9,2.6,2.6,0,0,0,.991,1A2.961,2.961,0,0,0,1202.607,326.91Zm-2.8-.892v-.224l.045-.036H1200a.2.2,0,0,0,.188-.188V323.2a.2.2,0,0,0-.188-.188h-.152l-.045-.036v-.224l.045-.036h1.327a1.453,1.453,0,0,1,.9.251.846.846,0,0,1,.332.717.867.867,0,0,1-.256.623,1.075,1.075,0,0,1-.65.318l.3.09.592.932a.2.2,0,0,0,.17.108h.152l.036.036v.224l-.036.036h-.78l-.054-.036-.825-1.371h-.2v.923a.2.2,0,0,0,.188.188h.152l.045.036v.224l-.045.036h-1.354Zm1.282-1.667a.655.655,0,0,0,.484-.17.668.668,0,0,0,.17-.493.714.714,0,0,0-.161-.488.545.545,0,0,0-.43-.184h-.1a.2.2,0,0,0-.188.188v1.147Z" transform="translate(-801.875 -149.727)" fill="#00684a"/>
    </g>
  </g>
</svg>
