<svg xmlns="http://www.w3.org/2000/svg" width="85" height="69.726" viewBox="0 0 85 69.726">
  <g id="Grupo_146500" data-name="Grupo 146500" transform="translate(-180 -6977)">
    <g id="codificacion_1_" data-name="codificacion (1)" transform="translate(180 6930.998)">
      <g id="Grupo_146470" data-name="Grupo 146470" transform="translate(1.66 47.662)">
        <path id="Trazado_203786" data-name="Trazado 203786" d="M13.689,155.767h74.3a3.7,3.7,0,0,0,3.689-3.689V96H36.126l-3.32,3.32H10v52.756A3.7,3.7,0,0,0,13.689,155.767Z" transform="translate(-10 -89.361)" fill="#fff"/>
        <path id="Trazado_203787" data-name="Trazado 203787" d="M36.126,62.643H91.68V59.691A3.7,3.7,0,0,0,87.99,56h-74.3A3.7,3.7,0,0,0,10,59.691v6.272H32.806Z" transform="translate(-10 -56.002)" fill="#ffb30b"/>
        <g id="Grupo_146469" data-name="Grupo 146469" transform="translate(10.017 21.318)">
          <path id="Trazado_203788" data-name="Trazado 203788" d="M79.787,202.306v-4.347a1.989,1.989,0,0,1,1.977-1.977,2.49,2.49,0,1,0,0-4.98,6.971,6.971,0,0,0-6.957,6.957v4.347a1.989,1.989,0,0,1-1.977,1.977,2.49,2.49,0,1,0,0,4.98,1.989,1.989,0,0,1,1.977,1.977v4.347a6.971,6.971,0,0,0,6.957,6.957,2.49,2.49,0,1,0,0-4.98,1.989,1.989,0,0,1-1.977-1.977V211.24a6.926,6.926,0,0,0-1.631-4.467A6.925,6.925,0,0,0,79.787,202.306Z" transform="translate(-70.339 -189.908)" fill="#00defc"/>
          <path id="Trazado_203789" data-name="Trazado 203789" d="M192.256,217.811Zm19.092-33.068Zm-3.4.912-16.6,28.755a2.49,2.49,0,1,0,4.313,2.49l16.6-28.755a2.49,2.49,0,1,0-4.313-2.49Z" transform="translate(-170.979 -184.411)" fill="#00defc"/>
          <path id="Trazado_203790" data-name="Trazado 203790" d="M362.315,197.961v4.347a6.925,6.925,0,0,0,1.631,4.467,6.925,6.925,0,0,0-1.631,4.467v4.347a1.989,1.989,0,0,1-1.977,1.977,2.49,2.49,0,1,0,0,4.98,6.971,6.971,0,0,0,6.957-6.957v-4.347a1.989,1.989,0,0,1,1.977-1.977,2.49,2.49,0,0,0,0-4.98,1.989,1.989,0,0,1-1.977-1.977v-4.347A6.971,6.971,0,0,0,360.338,191a2.49,2.49,0,0,0,0,4.98,1.989,1.989,0,0,1,1.977,1.977Z" transform="translate(-310.117 -189.909)" fill="#00defc"/>
        </g>
      </g>
      <path id="Trazado_203791" data-name="Trazado 203791" d="M79.65,46H5.349A5.355,5.355,0,0,0,0,51.351v59.027a5.355,5.355,0,0,0,5.349,5.349h4.98a1.66,1.66,0,1,0,0-3.32H5.349a2.032,2.032,0,0,1-2.029-2.029v-51.1H24.466A1.66,1.66,0,0,0,25.64,58.8l2.834-2.834H66.91a1.66,1.66,0,0,0,0-3.32H27.786c-.055,0-.109,0-.164.008-.025,0-.05.007-.075.011s-.057.007-.086.013-.056.013-.084.02-.049.012-.074.019-.054.019-.081.028-.048.017-.072.027-.05.023-.074.035-.049.022-.073.035-.046.027-.069.041-.047.027-.07.043-.049.036-.073.054-.039.028-.057.043c-.042.035-.083.071-.121.109h0l-2.834,2.834H3.32V51.351a2.031,2.031,0,0,1,2.029-2.029h74.3a2.032,2.032,0,0,1,2.029,2.029v1.291h-3.32a1.66,1.66,0,0,0,0,3.32h3.32v54.416a2.031,2.031,0,0,1-2.029,2.029H21.779a1.66,1.66,0,0,0,0,3.32H79.651A5.355,5.355,0,0,0,85,110.379V51.351A5.356,5.356,0,0,0,79.65,46Z"/>
      <path id="Trazado_203792" data-name="Trazado 203792" d="M93.892,446h-.045a1.66,1.66,0,0,0,0,3.32h.045a1.66,1.66,0,0,0,0-3.32Z" transform="translate(-76.883 -333.594)"/>
      <path id="Trazado_203793" data-name="Trazado 203793" d="M36.16,76a1.66,1.66,0,0,0,0,3.32H36.2a1.66,1.66,0,0,0,0-3.32Z" transform="translate(-28.772 -25.02)"/>
      <path id="Trazado_203794" data-name="Trazado 203794" d="M76.16,76a1.66,1.66,0,0,0,0,3.32H76.2a1.66,1.66,0,0,0,0-3.32Z" transform="translate(-62.132 -25.02)"/>
      <path id="Trazado_203795" data-name="Trazado 203795" d="M116.161,76a1.66,1.66,0,0,0,0,3.32h.045a1.66,1.66,0,0,0,0-3.32Z" transform="translate(-95.492 -25.02)"/>
      <path id="Trazado_203796" data-name="Trazado 203796" d="M423.472,89.322a1.66,1.66,0,0,0,0-3.32h-.045a1.66,1.66,0,1,0,0,3.32Z" transform="translate(-351.748 -33.359)"/>
      <path id="Trazado_203797" data-name="Trazado 203797" d="M183.079,210.9a4.116,4.116,0,0,0,2.063.556,4.194,4.194,0,0,0,1.085-.144,4.121,4.121,0,0,0,2.521-1.931l16.6-28.755a4.15,4.15,0,0,0-7.189-4.15l-16.6,28.755a4.158,4.158,0,0,0,1.519,5.669Zm1.356-4.009,16.6-28.755a.84.84,0,0,1,.727-.412.812.812,0,0,1,.407.108h0a.837.837,0,0,1,.3,1.134l-16.6,28.755a.83.83,0,0,1-1.438-.83Z" transform="translate(-150.955 -107.086)"/>
      <path id="Trazado_203798" data-name="Trazado 203798" d="M67.335,213.337a8.558,8.558,0,0,0,6.089,2.528,4.15,4.15,0,1,0,0-8.3.33.33,0,0,1-.316-.317V202.9a8.612,8.612,0,0,0-1.254-4.467,8.612,8.612,0,0,0,1.254-4.467v-4.347a.33.33,0,0,1,.316-.317,4.15,4.15,0,1,0,0-8.3,8.631,8.631,0,0,0-8.617,8.617v4.347a.316.316,0,0,1-.1.22.311.311,0,0,1-.22.1,4.15,4.15,0,1,0,0,8.3.33.33,0,0,1,.317.317v4.347A8.558,8.558,0,0,0,67.335,213.337ZM64.49,199.264a.83.83,0,0,1,0-1.66,3.649,3.649,0,0,0,3.637-3.637v-4.347a5.311,5.311,0,0,1,5.3-5.3.83.83,0,1,1,0,1.66,3.649,3.649,0,0,0-3.637,3.637v4.347a5.293,5.293,0,0,1-1.242,3.4,1.66,1.66,0,0,0,0,2.136,5.294,5.294,0,0,1,1.242,3.4v4.347a3.649,3.649,0,0,0,3.637,3.637.83.83,0,0,1,0,1.66,5.31,5.31,0,0,1-5.3-5.3V202.9a3.649,3.649,0,0,0-3.637-3.637Z" transform="translate(-50.323 -112.588)"/>
      <path id="Trazado_203799" data-name="Trazado 203799" d="M352.316,207.247a.316.316,0,0,1-.1.22.311.311,0,0,1-.22.1,4.15,4.15,0,1,0,0,8.3,8.631,8.631,0,0,0,8.617-8.617V202.9a.33.33,0,0,1,.317-.317,4.15,4.15,0,1,0,0-8.3.33.33,0,0,1-.317-.317v-4.347A8.631,8.631,0,0,0,352,181a4.15,4.15,0,0,0,0,8.3.33.33,0,0,1,.316.317v4.347a8.612,8.612,0,0,0,1.254,4.467,8.612,8.612,0,0,0-1.254,4.467Zm4.562-9.882a5.294,5.294,0,0,1-1.242-3.4v-4.347A3.649,3.649,0,0,0,352,185.982a.83.83,0,0,1,0-1.66,5.311,5.311,0,0,1,5.3,5.3v4.347a3.649,3.649,0,0,0,3.637,3.637.83.83,0,1,1,0,1.66A3.649,3.649,0,0,0,357.3,202.9v4.347a5.311,5.311,0,0,1-5.3,5.3.83.83,0,1,1,0-1.66,3.649,3.649,0,0,0,3.637-3.637V202.9a5.294,5.294,0,0,1,1.242-3.4A1.66,1.66,0,0,0,356.878,197.365Z" transform="translate(-290.101 -112.587)"/>
    </g>
  </g>
</svg>
