<svg xmlns="http://www.w3.org/2000/svg" width="61.453" height="66.62" viewBox="0 0 61.453 66.62">
  <g id="Grupo_146507" data-name="Grupo 146507" transform="translate(-317.999 -12189)">
    <g id="Grupo_132280" data-name="Grupo 132280" transform="translate(2607.488 12116.949)">
      <path id="Trazado_192834" data-name="Trazado 192834" d="M-2272.158,123.88a1,1,0,0,0-.047-1.452c-.246-.274-.526-.517-.78-.784a1.05,1.05,0,0,1-.013-1.7c.525-.548,1.059-1.088,1.614-1.606a1.212,1.212,0,0,0,.241-1.579c-.562-1.239-1.1-2.494-1.573-3.768a1.228,1.228,0,0,0-1.285-.95c-.8.013-1.605.022-2.406-.011a.991.991,0,0,1-1.074-1.112q-.018-3.448,0-6.9c0-.778.383-1.14,1.172-1.153.759-.013,1.518-.019,2.277,0a1.216,1.216,0,0,0,1.3-.92c.487-1.293,1.031-2.567,1.6-3.826a1.222,1.222,0,0,0-.275-1.576c-.537-.5-1.055-1.03-1.568-1.56a1.058,1.058,0,0,1,.007-1.743q2.363-2.375,4.75-4.725a1.086,1.086,0,0,1,1.8-.01c.547.526,1.086,1.061,1.613,1.607a1.169,1.169,0,0,0,1.472.24c1.306-.572,2.622-1.126,3.954-1.633a1.176,1.176,0,0,0,.872-1.21c0-.759-.008-1.518,0-2.277.013-.867.365-1.224,1.232-1.228q3.383-.013,6.765,0c.855,0,1.23.377,1.248,1.23.016.737.026,1.475,0,2.211a1.2,1.2,0,0,0,.924,1.3c1.295.484,2.573,1.016,3.833,1.585a1.225,1.225,0,0,0,1.577-.264c.508-.534,1.038-1.047,1.569-1.559.638-.614,1.131-.63,1.745-.026q2.411,2.373,4.8,4.77a1.066,1.066,0,0,1,0,1.744q-.792.817-1.614,1.606a1.145,1.145,0,0,0-.253,1.461c.584,1.3,1.123,2.622,1.647,3.948a1.172,1.172,0,0,0,1.221.859c.759-.016,1.518-.01,2.277,0,.855.01,1.25.368,1.256,1.218q.026,3.35,0,6.7c-.006.871-.368,1.217-1.227,1.252-.3.012-.595,0-.874,0-.417-1.911-1.2-2.539-3.087-2.539h-3.254c0-1.194.085-2.306-.024-3.4a15.677,15.677,0,0,0-.642-3.241,15.211,15.211,0,0,0-22.015-8.642,14.872,14.872,0,0,0-5.662,5.606,1,1,0,0,0,.247,1.475c.489.292.985.147,1.389-.421.213-.3.393-.624.607-.923a12.926,12.926,0,0,1,11.2-5.75,12.743,12.743,0,0,1,10.558,5.6,13.068,13.068,0,0,1,2.385,8.974.893.893,0,0,1-.677.927,2.049,2.049,0,0,0-1.526,2.116c.1,1.258-.433,1.778-1.545,2.125-.627.2-1.043.279-1.364-.365a10.135,10.135,0,0,0-.394-12.685,10.124,10.124,0,0,0-11.705-2.731,10.063,10.063,0,0,0-6.06,10.431,9.6,9.6,0,0,0,2.393,5.445,10.236,10.236,0,0,0,7.657,3.54,2.711,2.711,0,0,0,.328,3.18c-.86-.075-1.551-.108-2.235-.2a13.157,13.157,0,0,1-11.262-11.944,30.245,30.245,0,0,1,.3-4.45c.058-.693-.237-1.177-.819-1.251-.556-.071-.953.288-1.116,1.022a14.747,14.747,0,0,0,.7,9.178,14.871,14.871,0,0,0,11.375,9.274c1.128.223,2.3.244,3.446.358-.263,1.1-.263,1.1-1.187,1.1-2.111,0-3.046.944-3.048,3.064q0,1.947,0,3.893c-.727,0-1.058-.274-1.082-.94-.03-.823-.016-1.648-.012-2.472a1.191,1.191,0,0,0-.867-1.221c-1.329-.515-2.655-1.043-3.957-1.624a1.162,1.162,0,0,0-1.467.23c-.549.555-1.1,1.108-1.665,1.647a1.065,1.065,0,0,1-1.7,0c-.347-.327-.665-.686-1.022-1a.962.962,0,0,0-1.4-.022" transform="translate(-10.044 -10.007)" fill="#b9ddfc"/>
      <path id="Trazado_192835" data-name="Trazado 192835" d="M-2259.672,72.051c.026.032.047.08.081.093a3.056,3.056,0,0,1,2.247,3.318c0,1.531,0,1.531,1.411,2.055.162.06.323.126.481.2,1.425.64,1.425.64,2.514-.438q2.427-2.4,4.867.017,2.24,2.222,4.478,4.446a3.023,3.023,0,0,1-.018,4.77c-.368.365-.76.705-1.1,1.018.439,1.084.821,2.071,1.248,3.039a.719.719,0,0,0,.514.328c.472.046.953.011,1.43.017a2.941,2.941,0,0,1,3.14,3.012c.056,2.362.069,4.729-.021,7.089a7.049,7.049,0,0,1-.6,1.961,10.517,10.517,0,0,1,1.8-.341,2.59,2.59,0,0,1,1.857,1.072c1.085,1.092,2.188,2.167,3.273,3.259a2.468,2.468,0,0,1-.028,3.916,1.275,1.275,0,0,0-.341,1.7,1.67,1.67,0,0,0,1.873,1.32,2.376,2.376,0,0,1,2.517,2.611c.012,1.67.008,3.339,0,5.009a2.459,2.459,0,0,1-2.712,2.758,1.431,1.431,0,0,0-1.582,1.062,1.544,1.544,0,0,0,.42,2.134,2.362,2.362,0,0,1,.029,3.536q-1.9,1.963-3.875,3.852a2.359,2.359,0,0,1-3.491-.028,1.575,1.575,0,0,0-2.25-.392c-.929.508-.981.415-.991,1.516a2.513,2.513,0,0,1-2.723,2.709q-2.5.012-5.009,0a2.526,2.526,0,0,1-2.759-2.684,2.842,2.842,0,0,1,0-.52c.076-.5-.193-.658-.611-.881a1.961,1.961,0,0,0-2.822.4,2.2,2.2,0,0,1-3.127,0c-1.428-1.328-2.82-2.7-4.154-4.122a2.336,2.336,0,0,1,.216-3.481c.691-.63.912-1.172.333-1.94a.138.138,0,0,1-.024-.06c-.148-.865-.605-1.2-1.522-1.106a2.449,2.449,0,0,1-2.342-1.131.976.976,0,0,0-.641-.312,2.816,2.816,0,0,1-2.785-3.052,2.2,2.2,0,0,0-1.716-2.581c-1.32-.524-2.042-.463-2.983.594a2.879,2.879,0,0,1-4.42.017c-.344-.331-.689-.661-1.01-1.013a.968.968,0,0,1-.036-1.4.962.962,0,0,1,1.4.022c.357.315.675.674,1.022,1a1.065,1.065,0,0,0,1.7,0c.565-.539,1.116-1.092,1.665-1.647a1.162,1.162,0,0,1,1.468-.23c1.3.581,2.627,1.109,3.957,1.624a1.191,1.191,0,0,1,.867,1.221c0,.824-.017,1.649.012,2.472.024.666.356.944,1.082.94q0-1.945,0-3.892c0-2.12.937-3.059,3.048-3.064.924,0,.924,0,1.187-1.1-1.149-.114-2.317-.135-3.446-.358a14.871,14.871,0,0,1-11.375-9.274,14.748,14.748,0,0,1-.7-9.178c.163-.734.56-1.093,1.116-1.022.582.074.877.559.819,1.251a30.212,30.212,0,0,0-.3,4.45,13.157,13.157,0,0,0,11.262,11.944c.684.091,1.375.124,2.235.2a2.712,2.712,0,0,1-.328-3.18,10.236,10.236,0,0,1-7.656-3.54,9.6,9.6,0,0,1-2.394-5.445,10.063,10.063,0,0,1,6.06-10.431,10.124,10.124,0,0,1,11.705,2.731,10.135,10.135,0,0,1,.394,12.685c.32.644.736.56,1.364.365,1.112-.347,1.647-.867,1.545-2.125a2.049,2.049,0,0,1,1.526-2.116.893.893,0,0,0,.678-.927,13.068,13.068,0,0,0-2.386-8.974,12.743,12.743,0,0,0-10.558-5.6,12.926,12.926,0,0,0-11.2,5.75c-.214.3-.394.623-.607.923-.4.568-.9.713-1.389.421a1,1,0,0,1-.247-1.475,14.875,14.875,0,0,1,5.661-5.606,15.21,15.21,0,0,1,22.015,8.642,15.677,15.677,0,0,1,.643,3.241c.108,1.093.024,2.2.024,3.4h3.254c1.888,0,2.67.628,3.087,2.539.279,0,.577.01.874,0,.86-.035,1.222-.381,1.228-1.252q.022-3.35,0-6.7c-.006-.851-.4-1.208-1.256-1.218-.759-.009-1.518-.015-2.277,0a1.173,1.173,0,0,1-1.221-.859c-.524-1.326-1.062-2.648-1.647-3.948a1.145,1.145,0,0,1,.253-1.461q.82-.79,1.614-1.606a1.067,1.067,0,0,0,0-1.744q-2.387-2.4-4.8-4.77c-.614-.6-1.106-.588-1.744.026-.531.511-1.062,1.024-1.569,1.559a1.225,1.225,0,0,1-1.578.264c-1.26-.569-2.539-1.1-3.833-1.585a1.2,1.2,0,0,1-.924-1.3c.028-.736.018-1.475,0-2.211-.019-.853-.393-1.227-1.248-1.23q-3.383-.013-6.766,0c-.867,0-1.218.36-1.232,1.228-.012.759,0,1.518,0,2.277a1.176,1.176,0,0,1-.872,1.21c-1.333.507-2.648,1.061-3.954,1.633a1.17,1.17,0,0,1-1.472-.24c-.527-.546-1.067-1.08-1.613-1.607a1.087,1.087,0,0,0-1.8.01q-2.387,2.351-4.75,4.725a1.058,1.058,0,0,0-.006,1.743c.513.53,1.031,1.055,1.568,1.56a1.221,1.221,0,0,1,.274,1.576c-.571,1.259-1.114,2.533-1.6,3.826a1.216,1.216,0,0,1-1.3.92c-.759-.021-1.518-.015-2.277,0-.789.014-1.168.375-1.171,1.153q-.017,3.448,0,6.9a.99.99,0,0,0,1.074,1.112c.8.033,1.6.025,2.406.011a1.228,1.228,0,0,1,1.285.95c.477,1.274,1.01,2.529,1.572,3.768a1.212,1.212,0,0,1-.241,1.579c-.554.518-1.089,1.058-1.614,1.606a1.05,1.05,0,0,0,.014,1.7c.254.267.534.51.78.784a1,1,0,0,1,.047,1.452.993.993,0,0,1-1.4-.057c-.2-.17-.375-.361-.559-.544-1.681-1.67-1.686-3.29-.014-4.953,1.036-1.031,1.028-1.028.435-2.348a12.96,12.96,0,0,1-.561-1.452.649.649,0,0,0-.747-.533,13.9,13.9,0,0,1-1.818-.041,2.829,2.829,0,0,1-2.588-2.713q-.06-3.772,0-7.545a2.883,2.883,0,0,1,2.767-2.761,16.669,16.669,0,0,1,1.691-.006.572.572,0,0,0,.661-.448c.3-.811.632-1.613,1-2.392a.613.613,0,0,0-.177-.838,14.035,14.035,0,0,1-1.18-1.209,2.794,2.794,0,0,1-.008-3.8q2.643-2.779,5.442-5.409a2.81,2.81,0,0,1,3.853.015c.443.381.818.842,1.272,1.207a.86.86,0,0,0,.708.119c.834-.3,1.637-.684,2.468-.992.34-.125.487-.281.464-.65-.029-.475-.016-.954,0-1.431a2.926,2.926,0,0,1,2.146-2.915,1.463,1.463,0,0,0,.222-.123Zm4.158,59.664a4.761,4.761,0,0,1,.54.138c1.1.446,2.221.857,3.287,1.377a1.431,1.431,0,0,1,.619.945,11.074,11.074,0,0,1,.037,1.816c0,.468.211.727.709.726,1.734-.005,3.468,0,5.2,0a.6.6,0,0,0,.675-.68c0-.585,0-1.171,0-1.756a1.106,1.106,0,0,1,.789-1.135q1.539-.6,3.057-1.26a1.111,1.111,0,0,1,1.358.258c.41.417.832.823,1.247,1.236a.606.606,0,0,0,.964.012q1.845-1.833,3.688-3.669a.6.6,0,0,0,0-.959c-.4-.4-.788-.806-1.2-1.19a1.155,1.155,0,0,1-.276-1.466c.428-.968.838-1.945,1.219-2.932a1.131,1.131,0,0,1,1.176-.822c.585.009,1.17,0,1.756,0a.6.6,0,0,0,.676-.682q-.011-2.569,0-5.137a.625.625,0,0,0-.71-.718c-.607-.005-1.214,0-1.821-.007a1.03,1.03,0,0,1-1.036-.726c-.416-1.044-.854-2.078-1.3-3.111a1.067,1.067,0,0,1,.245-1.3c.4-.393.791-.8,1.2-1.19a.661.661,0,0,0,0-1.1q-1.787-1.754-3.551-3.531a.67.67,0,0,0-1.109.013c-.391.405-.8.794-1.2,1.193a1.079,1.079,0,0,1-1.3.247q-1.549-.664-3.115-1.287a1.075,1.075,0,0,1-.757-1.088c0-.564-.015-1.128,0-1.691s-.23-.782-.779-.778c-1.669.013-3.338.017-5.007,0-.6-.007-.819.268-.808.828s0,1.127,0,1.691a1.032,1.032,0,0,1-.728,1.035c-1.045.412-2.083.844-3.116,1.286a1.074,1.074,0,0,1-1.305-.229c-.4-.4-.807-.787-1.2-1.2a.676.676,0,0,0-1.113-.035q-1.793,1.794-3.6,3.575a.637.637,0,0,0,.013,1.055c.408.388.8.8,1.2,1.191a1.1,1.1,0,0,1,.262,1.354c-.443,1.009-.862,2.028-1.276,3.049a1.069,1.069,0,0,1-1.087.757c-.585-.007-1.17,0-1.756,0a.665.665,0,0,0-.762.753q0,2.536,0,5.072a.639.639,0,0,0,.724.718c.585,0,1.171.009,1.756,0a1.107,1.107,0,0,1,1.134.789c.4,1,.807,2.005,1.249,2.99a1.121,1.121,0,0,1-.265,1.408c-.405.392-.8.8-1.2,1.189a.615.615,0,0,0-.017,1.006q1.826,1.807,3.645,3.62a.653.653,0,0,0,1.063-.028c.392-.4.783-.812,1.2-1.185A4.221,4.221,0,0,1-2255.515,131.715Zm-8.93-42.456a16.887,16.887,0,0,0-2.858.792,8.062,8.062,0,0,0-4.7,8.824,8.157,8.157,0,0,0,7.375,6.692c1.291.105,2.66.218,3.638-1a13.968,13.968,0,0,1,1.1-1.105,2.71,2.71,0,0,1,1.958-.878.882.882,0,0,0,.6-.366,7.793,7.793,0,0,0,.639-8.517C-2258.19,90.825-2260.687,89.423-2264.444,89.259Z"/>
      <path id="Trazado_192836" data-name="Trazado 192836" d="M-2132.3,282.7a4.232,4.232,0,0,0-.692.426c-.422.373-.812.781-1.205,1.185a.652.652,0,0,1-1.063.028q-1.819-1.814-3.645-3.62a.616.616,0,0,1,.017-1.006c.405-.392.8-.8,1.2-1.189a1.121,1.121,0,0,0,.265-1.408c-.442-.985-.851-1.986-1.249-2.99a1.106,1.106,0,0,0-1.134-.789c-.585.007-1.17,0-1.756,0a.639.639,0,0,1-.724-.718q0-2.536,0-5.072a.665.665,0,0,1,.762-.753c.585,0,1.171-.008,1.756,0a1.069,1.069,0,0,0,1.087-.757c.414-1.021.833-2.04,1.276-3.049a1.1,1.1,0,0,0-.261-1.354c-.4-.394-.792-.8-1.2-1.191a.637.637,0,0,1-.013-1.055q1.806-1.781,3.6-3.575a.676.676,0,0,1,1.113.035c.389.408.8.795,1.2,1.2a1.074,1.074,0,0,0,1.305.229c1.033-.442,2.071-.874,3.116-1.286a1.032,1.032,0,0,0,.728-1.035c.005-.564.014-1.127,0-1.691s.21-.835.809-.828c1.669.02,3.338.015,5.007,0,.55,0,.8.223.779.778s0,1.127,0,1.691a1.075,1.075,0,0,0,.757,1.088q1.567.621,3.115,1.287a1.079,1.079,0,0,0,1.3-.247c.4-.4.807-.787,1.2-1.193a.67.67,0,0,1,1.108-.013q1.762,1.779,3.551,3.531a.661.661,0,0,1,0,1.1c-.41.386-.8.8-1.2,1.19a1.067,1.067,0,0,0-.245,1.3c.441,1.033.88,2.068,1.3,3.111a1.029,1.029,0,0,0,1.036.726c.607,0,1.214,0,1.821.007a.625.625,0,0,1,.71.718q-.017,2.568,0,5.137a.6.6,0,0,1-.676.682c-.585.009-1.171.013-1.755,0a1.13,1.13,0,0,0-1.176.822c-.381.987-.791,1.964-1.219,2.932a1.155,1.155,0,0,0,.275,1.466c.413.383.8.792,1.2,1.19a.6.6,0,0,1,0,.959q-1.845,1.834-3.687,3.669a.605.605,0,0,1-.963-.012c-.415-.413-.836-.819-1.247-1.236a1.11,1.11,0,0,0-1.358-.258q-1.518.654-3.057,1.26a1.106,1.106,0,0,0-.789,1.135c0,.585,0,1.171,0,1.756a.6.6,0,0,1-.676.68c-1.734,0-3.468,0-5.2,0-.5,0-.706-.258-.709-.726a11.074,11.074,0,0,0-.037-1.816,1.431,1.431,0,0,0-.619-.945c-1.066-.52-2.185-.931-3.287-1.377A4.771,4.771,0,0,0-2132.3,282.7Zm7.8-24.46a11.829,11.829,0,0,0-11.843,11.8,11.82,11.82,0,0,0,11.8,11.843,11.87,11.87,0,0,0,11.865-11.8A11.876,11.876,0,0,0-2124.5,258.243Z" transform="translate(-123.217 -150.987)" fill="#ffb30b"/>
      <path id="Trazado_192837" data-name="Trazado 192837" d="M-2175.247,177.651c3.757.164,6.254,1.566,7.75,4.44a7.793,7.793,0,0,1-.639,8.517.883.883,0,0,1-.6.366,2.71,2.71,0,0,0-1.958.878,13.971,13.971,0,0,0-1.1,1.105c-.978,1.22-2.347,1.107-3.638,1a8.157,8.157,0,0,1-7.375-6.692,8.062,8.062,0,0,1,4.7-8.824A16.888,16.888,0,0,1-2175.247,177.651Z" transform="translate(-89.197 -88.392)" fill="#084a93"/>
      <path id="Trazado_192838" data-name="Trazado 192838" d="M-2093.962,288.092a11.876,11.876,0,0,1,11.821,11.847,11.87,11.87,0,0,1-11.865,11.8,11.82,11.82,0,0,1-11.8-11.844A11.829,11.829,0,0,1-2093.962,288.092Zm-.009,1.952a9.874,9.874,0,0,0-9.882,9.812,9.863,9.863,0,0,0,9.822,9.932,9.909,9.909,0,0,0,9.938-9.84A9.913,9.913,0,0,0-2093.971,290.043Z" transform="translate(-153.752 -180.836)"/>
      <path id="Trazado_192839" data-name="Trazado 192839" d="M-2083.944,300.069a9.913,9.913,0,0,1,9.878,9.9,9.908,9.908,0,0,1-9.938,9.84,9.863,9.863,0,0,1-9.823-9.932A9.875,9.875,0,0,1-2083.944,300.069Zm3.172,4.828a6.194,6.194,0,0,1,2.254,2.5c.344.65.872.829,1.389.546a.992.992,0,0,0,.319-1.462,8.074,8.074,0,0,0-3.086-3.339,7.976,7.976,0,0,0-8.909.518,7.92,7.92,0,0,0-2.692,8.791,7.938,7.938,0,0,0,12.738,3.47,7.537,7.537,0,0,0,2.638-4.649c.122-.773-.165-1.251-.759-1.359-.539-.1-.983.276-1.164.975a8.424,8.424,0,0,1-.323,1.186,5.749,5.749,0,0,1-5.459,3.809,5.7,5.7,0,0,1-5.563-3.454,5.6,5.6,0,0,1-.232-4.378,3.226,3.226,0,0,1,.3.272c1.359,1.673,3.516,1.907,5.25-.046C-2083.029,307.1-2081.875,306.018-2080.773,304.9Z" transform="translate(-163.779 -190.861)" fill="#00defc"/>
      <path id="Trazado_192840" data-name="Trazado 192840" d="M-2070.958,314.953c-1.1,1.122-2.256,2.2-3.3,3.382-1.734,1.953-3.891,1.719-5.25.046a3.2,3.2,0,0,0-.3-.272,5.6,5.6,0,0,0,.232,4.378,5.7,5.7,0,0,0,5.563,3.454,5.749,5.749,0,0,0,5.459-3.809,8.391,8.391,0,0,0,.323-1.186c.181-.7.625-1.072,1.164-.975.594.107.881.586.759,1.359a7.536,7.536,0,0,1-2.638,4.649,7.938,7.938,0,0,1-12.738-3.47,7.92,7.92,0,0,1,2.692-8.791,7.976,7.976,0,0,1,8.909-.518,8.076,8.076,0,0,1,3.086,3.339.992.992,0,0,1-.32,1.462c-.518.284-1.045.1-1.389-.546A6.2,6.2,0,0,0-2070.958,314.953Zm-7.83,1.358c.388.392.76.813,1.179,1.178a1,1,0,0,0,1.457-.061c.479-.437.928-.906,1.387-1.365.6-.6,1.206-1.212,1.832-1.843A5.63,5.63,0,0,0-2078.788,316.312Z" transform="translate(-173.594 -200.918)"/>
      <path id="Trazado_192841" data-name="Trazado 192841" d="M-2061.772,326.321a5.63,5.63,0,0,1,5.855-2.091c-.626.63-1.228,1.238-1.832,1.843-.459.459-.908.928-1.387,1.365a1,1,0,0,1-1.457.061C-2061.012,327.134-2061.383,326.713-2061.772,326.321Z" transform="translate(-190.61 -210.927)" fill="#fff"/>
    </g>
  </g>
</svg>
