<svg xmlns="http://www.w3.org/2000/svg" width="63.018" height="63.004" viewBox="0 0 63.018 63.004">
  <g id="Grupo_146495" data-name="Grupo 146495" transform="translate(-421 -3567.672)">
    <g id="Grupo_132273" data-name="Grupo 132273" transform="translate(6167.793 1397.153)">
      <g id="Grupo_132271" data-name="Grupo 132271" transform="translate(-5746.793 2170.519)">
        <path id="Trazado_192784" data-name="Trazado 192784" d="M-5746.793,2202.022q0-12.895,0-25.79c0-3.544,2.174-5.714,5.727-5.714h51.59c3.51,0,5.7,2.178,5.7,5.677q0,25.822,0,51.645a5.285,5.285,0,0,1-5.695,5.682h-51.656a5.278,5.278,0,0,1-5.666-5.645Q-5746.795,2214.95-5746.793,2202.022Zm2.1-18.876v.725q0,22.017,0,44.035a3.186,3.186,0,0,0,3.545,3.517h19.561c2.494,0,4.989.005,7.483-.01.205,0,.555-.1.591-.219.341-1.174,1.32-1.829,2.094-2.644.791-.834.786-.811.374-1.911a.62.62,0,0,0-.712-.475c-.809.027-1.619.017-2.428.006a3.14,3.14,0,0,1-3.2-3.205q-.02-2.034,0-4.069a3.139,3.139,0,0,1,3.245-3.222c.96-.009,1.92,0,2.885,0a8.664,8.664,0,0,1,.45-1.054c.226-.384.108-.621-.185-.9q-.907-.853-1.763-1.763a3.085,3.085,0,0,1-.067-4.28c1.012-1.089,2.065-2.145,3.157-3.153a3.157,3.157,0,0,1,4.348.055c.448.417.87.862,1.3,1.3.815.815.808.795,1.908.388a.619.619,0,0,0,.479-.711c-.028-.787-.014-1.575-.007-2.363a3.145,3.145,0,0,1,3.266-3.268q1.969-.013,3.938,0a3.146,3.146,0,0,1,3.3,3.3c.006.939,0,1.878,0,2.8,1.5.727,1.5.727,2.64-.414.326-.324.631-.674.983-.964a3.345,3.345,0,0,1,1.087-.7c.508-.147.547-.429.546-.859q-.013-9.647-.007-19.294c0-.211-.019-.421-.03-.646Zm33.353,48.277h.836q10.568,0,21.137,0a3.181,3.181,0,0,0,3.489-3.507q0-10.567,0-21.132v-.628l-.175-.108c-.812.843-1.627,1.68-2.432,2.529a1.213,1.213,0,0,1-1.542.271c-.752-.344-1.522-.658-2.3-.946a1.213,1.213,0,0,1-.909-1.273c.019-1.115.011-2.231,0-3.347-.007-.866-.382-1.251-1.232-1.258q-1.9-.015-3.807,0c-.887.006-1.254.387-1.259,1.3-.006,1.094-.019,2.188,0,3.281a1.238,1.238,0,0,1-.948,1.312c-.738.265-1.462.573-2.177.9a1.211,1.211,0,0,1-1.695-.3c-.776-.771-1.539-1.555-2.324-2.317a1.079,1.079,0,0,0-1.718.012q-1.358,1.333-2.694,2.69a1.081,1.081,0,0,0-.01,1.757c.781.8,1.566,1.589,2.368,2.366a1.247,1.247,0,0,1,.251,1.6c-.344.729-.652,1.477-.929,2.234a1.241,1.241,0,0,1-1.331.923c-1.116-.025-2.232-.015-3.348,0a1.068,1.068,0,0,0-1.2,1.219q-.015,1.9,0,3.806c.005.9.381,1.265,1.286,1.271,1.116.007,2.232.012,3.348,0a1.183,1.183,0,0,1,1.23.874c.284.755.588,1.5.922,2.238a1.209,1.209,0,0,1-.287,1.7C-5709.585,2229.684-5710.394,2230.482-5711.339,2231.423Zm25.462-50.432c0-1.781.014-3.486,0-5.19a3.119,3.119,0,0,0-3.218-3.177q-26.179-.009-52.358,0a3.129,3.129,0,0,0-3.232,3.232c-.011,1.552,0,3.1,0,4.657a4.547,4.547,0,0,0,.047.479Z" transform="translate(5746.793 -2170.519)"/>
        <path id="Trazado_192785" data-name="Trazado 192785" d="M-5734.811,2242.545h58.785c.011.224.03.435.03.646q0,9.647.007,19.294c0,.429-.039.711-.546.859a3.334,3.334,0,0,0-1.087.7c-.353.291-.658.639-.984.964-1.144,1.14-1.144,1.14-2.64.414,0-.92,0-1.86,0-2.8a3.145,3.145,0,0,0-3.3-3.3q-1.969-.011-3.938,0a3.145,3.145,0,0,0-3.266,3.268c-.006.787-.021,1.576.007,2.362a.619.619,0,0,1-.479.711c-1.1.407-1.092.427-1.908-.388-.433-.433-.854-.879-1.3-1.3a3.157,3.157,0,0,0-4.348-.055c-1.092,1.008-2.146,2.064-3.157,3.153a3.086,3.086,0,0,0,.067,4.281q.855.907,1.763,1.763c.293.275.412.512.185.9a8.555,8.555,0,0,0-.449,1.054c-.965,0-1.926-.007-2.886,0a3.139,3.139,0,0,0-3.245,3.222q-.018,2.034,0,4.069a3.14,3.14,0,0,0,3.2,3.205c.81.011,1.62.021,2.428-.006a.62.62,0,0,1,.712.475c.413,1.1.417,1.077-.374,1.911-.774.815-1.753,1.47-2.094,2.644-.036.123-.386.218-.591.219-2.494.014-4.989.009-7.483.009h-19.561a3.186,3.186,0,0,1-3.545-3.517q0-22.017,0-44.035Zm15.688,25.175h10.108a3.215,3.215,0,0,0,.589-.017.994.994,0,0,0,.908-1.034.992.992,0,0,0-.908-1.033,3.316,3.316,0,0,0-.59-.016H-5729.1a3.266,3.266,0,0,0-.589.016.99.99,0,0,0-.906,1.033.991.991,0,0,0,.906,1.033,3.2,3.2,0,0,0,.59.017Zm0,6.3h10.109a3.2,3.2,0,0,0,.589-.017.994.994,0,0,0,.908-1.034.992.992,0,0,0-.908-1.033,3.284,3.284,0,0,0-.589-.016H-5729.1a3.311,3.311,0,0,0-.589.016.99.99,0,0,0-.906,1.033.992.992,0,0,0,.906,1.033,3.2,3.2,0,0,0,.59.017Zm-1.449,4.2h-8.468a5.469,5.469,0,0,0-.59.01,1.041,1.041,0,0,0-.974,1.046,1.044,1.044,0,0,0,.986,1.035,5.66,5.66,0,0,0,.59.009q8.4,0,16.8,0a3.154,3.154,0,0,0,.719-.029.988.988,0,0,0,.839-1.026.991.991,0,0,0-.851-1.017,2.981,2.981,0,0,0-.653-.026Z" transform="translate(5736.912 -2229.917)" fill="#00defc"/>
        <path id="Trazado_192786" data-name="Trazado 192786" d="M-5563.144,2379.588c.945-.94,1.754-1.739,2.556-2.545a1.208,1.208,0,0,0,.287-1.7c-.333-.734-.638-1.483-.922-2.238a1.183,1.183,0,0,0-1.229-.874c-1.116.014-2.231.009-3.347,0-.906-.006-1.281-.375-1.287-1.271-.007-1.269-.009-2.538,0-3.806a1.068,1.068,0,0,1,1.2-1.219c1.116-.012,2.232-.021,3.348,0a1.242,1.242,0,0,0,1.331-.922c.276-.757.584-1.506.929-2.235a1.247,1.247,0,0,0-.251-1.6c-.8-.776-1.587-1.569-2.368-2.366a1.081,1.081,0,0,1,.01-1.758q1.339-1.354,2.694-2.69a1.079,1.079,0,0,1,1.717-.012c.785.762,1.548,1.547,2.324,2.317a1.211,1.211,0,0,0,1.7.3c.714-.324,1.438-.633,2.177-.9a1.239,1.239,0,0,0,.948-1.312c-.023-1.093-.011-2.187,0-3.281.005-.91.372-1.291,1.259-1.3q1.9-.012,3.807,0c.851.007,1.226.392,1.232,1.258.008,1.116.017,2.232,0,3.347a1.213,1.213,0,0,0,.909,1.273c.777.289,1.545.6,2.3.946a1.213,1.213,0,0,0,1.542-.271c.8-.848,1.621-1.686,2.432-2.529l.175.108v.628q0,10.566,0,21.132a3.181,3.181,0,0,1-3.49,3.507q-10.569,0-21.137,0Zm6.559-10.546a8.408,8.408,0,0,0,8.4,8.443,8.41,8.41,0,0,0,8.4-8.385,8.424,8.424,0,0,0-8.374-8.412A8.41,8.41,0,0,0-5556.585,2369.042Z" transform="translate(5598.597 -2318.684)" fill="#ffb30b"/>
        <path id="Trazado_192787" data-name="Trazado 192787" d="M-5676.011,2190.867h-58.766a4.674,4.674,0,0,1-.047-.479c0-1.552-.011-3.105,0-4.657a3.129,3.129,0,0,1,3.232-3.232q26.18-.008,52.358,0a3.119,3.119,0,0,1,3.218,3.177C-5676,2187.381-5676.011,2189.086-5676.011,2190.867Zm-53.557-7.317a3.159,3.159,0,0,0-3.155,3.172,3.157,3.157,0,0,0,3.138,3.121,3.162,3.162,0,0,0,3.155-3.107A3.156,3.156,0,0,0-5729.568,2183.55Zm7.357,0a3.16,3.16,0,0,0-3.161,3.167,3.157,3.157,0,0,0,3.133,3.126,3.162,3.162,0,0,0,3.161-3.1A3.156,3.156,0,0,0-5722.21,2183.55Zm7.351,0a3.159,3.159,0,0,0-3.16,3.167,3.156,3.156,0,0,0,3.133,3.126,3.163,3.163,0,0,0,3.161-3.1A3.156,3.156,0,0,0-5714.859,2183.55Z" transform="translate(5736.928 -2180.395)" fill="#ffb30b"/>
        <path id="Trazado_192788" data-name="Trazado 192788" d="M-5699.3,2376.241h-9.977a3.226,3.226,0,0,1-.59-.016.992.992,0,0,1-.906-1.034.99.99,0,0,1,.906-1.033,3.266,3.266,0,0,1,.589-.016h20.085a3.333,3.333,0,0,1,.589.016.992.992,0,0,1,.908,1.033,1,1,0,0,1-.908,1.034,3.213,3.213,0,0,1-.589.016Z" transform="translate(5717.084 -2338.438)"/>
        <path id="Trazado_192789" data-name="Trazado 192789" d="M-5699.3,2412.178h-9.977a3.226,3.226,0,0,1-.59-.017.992.992,0,0,1-.906-1.033.99.99,0,0,1,.906-1.033,3.311,3.311,0,0,1,.589-.016h20.085a3.261,3.261,0,0,1,.589.016.992.992,0,0,1,.908,1.033.994.994,0,0,1-.908,1.034,3.215,3.215,0,0,1-.589.017Z" transform="translate(5717.084 -2368.075)"/>
        <path id="Trazado_192790" data-name="Trazado 192790" d="M-5700.785,2446.018h8.4a2.992,2.992,0,0,1,.654.026.991.991,0,0,1,.85,1.017.989.989,0,0,1-.839,1.026,3.158,3.158,0,0,1-.719.029q-8.4,0-16.8,0a5.662,5.662,0,0,1-.59-.009,1.045,1.045,0,0,1-.986-1.036,1.042,1.042,0,0,1,.974-1.046,5.467,5.467,0,0,1,.59-.01Z" transform="translate(5717.124 -2397.715)"/>
        <path id="Trazado_192791" data-name="Trazado 192791" d="M-5507.155,2418.459a8.41,8.41,0,0,1,8.429-8.354,8.423,8.423,0,0,1,8.373,8.413,8.41,8.41,0,0,1-8.4,8.385A8.406,8.406,0,0,1-5507.155,2418.459Zm8.4-6.254a6.309,6.309,0,0,0-6.294,6.3,6.312,6.312,0,0,0,6.3,6.295,6.32,6.32,0,0,0,6.3-6.373A6.314,6.314,0,0,0-5498.76,2412.2Z" transform="translate(5549.167 -2368.101)"/>
        <path id="Trazado_192792" data-name="Trazado 192792" d="M-5719.659,2188.514a3.156,3.156,0,0,1,3.139,3.187,3.163,3.163,0,0,1-3.156,3.107,3.157,3.157,0,0,1-3.138-3.122A3.158,3.158,0,0,1-5719.659,2188.514Zm1.039,3.148a1.053,1.053,0,0,0-1.027-1.047,1.053,1.053,0,0,0-1.064,1.076,1.054,1.054,0,0,0,1.059,1.015A1.055,1.055,0,0,0-5718.62,2191.662Z" transform="translate(5727.018 -2185.359)"/>
        <path id="Trazado_192793" data-name="Trazado 192793" d="M-5677.719,2188.514a3.155,3.155,0,0,1,3.133,3.191,3.162,3.162,0,0,1-3.161,3.1,3.157,3.157,0,0,1-3.133-3.126A3.159,3.159,0,0,1-5677.719,2188.514Zm-.031,4.191a1.057,1.057,0,0,0,1.064-1.011,1.056,1.056,0,0,0-.994-1.08,1.053,1.053,0,0,0-1.1,1.043A1.052,1.052,0,0,0-5677.75,2192.7Z" transform="translate(5692.435 -2185.359)"/>
        <path id="Trazado_192794" data-name="Trazado 192794" d="M-5635.783,2188.514a3.155,3.155,0,0,1,3.134,3.191,3.162,3.162,0,0,1-3.16,3.1,3.156,3.156,0,0,1-3.133-3.126A3.158,3.158,0,0,1-5635.783,2188.514Zm1.034,3.167a1.054,1.054,0,0,0-1.007-1.067,1.054,1.054,0,0,0-1.084,1.056,1.052,1.052,0,0,0,1.04,1.035A1.056,1.056,0,0,0-5634.749,2191.681Z" transform="translate(5657.851 -2185.359)"/>
        <path id="Trazado_192795" data-name="Trazado 192795" d="M-5488.88,2422.083a6.313,6.313,0,0,1,6.306,6.226,6.319,6.319,0,0,1-6.3,6.373,6.313,6.313,0,0,1-6.3-6.295A6.308,6.308,0,0,1-5488.88,2422.083Z" transform="translate(5539.288 -2377.979)" fill="#00defc"/>
        <path id="Trazado_192796" data-name="Trazado 192796" d="M-5708.729,2201.541a1.055,1.055,0,0,1-1.032,1.043,1.054,1.054,0,0,1-1.059-1.015,1.053,1.053,0,0,1,1.064-1.076A1.053,1.053,0,0,1-5708.729,2201.541Z" transform="translate(5717.127 -2195.238)" fill="#00defc"/>
        <path id="Trazado_192797" data-name="Trazado 192797" d="M-5667.857,2202.579a1.053,1.053,0,0,1-1.026-1.048,1.055,1.055,0,0,1,1.1-1.043,1.057,1.057,0,0,1,.994,1.08A1.057,1.057,0,0,1-5667.857,2202.579Z" transform="translate(5682.543 -2195.233)" fill="#00defc"/>
        <path id="Trazado_192798" data-name="Trazado 192798" d="M-5624.858,2201.558a1.056,1.056,0,0,1-1.051,1.023,1.053,1.053,0,0,1-1.04-1.035,1.054,1.054,0,0,1,1.084-1.056A1.054,1.054,0,0,1-5624.858,2201.558Z" transform="translate(5647.96 -2195.235)" fill="#00defc"/>
      </g>
      <g id="Grupo_132272" data-name="Grupo 132272" transform="translate(-5740.587 2186.493)">
        <path id="Trazado_192799" data-name="Trazado 192799" d="M-5702.4,2271.974a6.348,6.348,0,0,1-1.314,3.859,3.883,3.883,0,0,1-3.125,1.408,3.75,3.75,0,0,1-3.337-1.966,10.232,10.232,0,0,1-1.216-5.4v-.928a12.111,12.111,0,0,1,.561-3.86,5.64,5.64,0,0,1,1.6-2.561,3.608,3.608,0,0,1,2.42-.892,3.8,3.8,0,0,1,3.076,1.408,6.833,6.833,0,0,1,1.348,3.953h-2.272a3.9,3.9,0,0,0-.595-2.133,1.844,1.844,0,0,0-1.557-.663,1.813,1.813,0,0,0-1.7,1.122,8.24,8.24,0,0,0-.58,3.479v1.148a8.871,8.871,0,0,0,.542,3.6,1.789,1.789,0,0,0,1.708,1.137,1.872,1.872,0,0,0,1.571-.662,3.645,3.645,0,0,0,.595-2.05Z" transform="translate(5711.393 -2261.637)"/>
        <path id="Trazado_192800" data-name="Trazado 192800" d="M-5647.505,2272.455h-1.811v5.56h-2.273v-15.188h4.1a3.812,3.812,0,0,1,3.015,1.2,4.951,4.951,0,0,1,1.061,3.39,6.071,6.071,0,0,1-.489,2.592,3.83,3.83,0,0,1-1.481,1.653l2.387,6.207v.146h-2.439Zm-1.811-2.535h1.833a1.587,1.587,0,0,0,1.326-.6,2.619,2.619,0,0,0,.469-1.653,2.845,2.845,0,0,0-.443-1.69,1.564,1.564,0,0,0-1.36-.615h-1.826Z" transform="translate(5662.074 -2262.618)"/>
        <path id="Trazado_192801" data-name="Trazado 192801" d="M-5587.265,2262.827v10a6.246,6.246,0,0,1-1.132,3.943,3.716,3.716,0,0,1-3.095,1.45,3.736,3.736,0,0,1-3.068-1.409,6.085,6.085,0,0,1-1.159-3.87v-10.118h2.272v10.024a3.621,3.621,0,0,0,.52,2.175,1.7,1.7,0,0,0,1.436.684q1.916,0,1.946-2.775v-10.108Z" transform="translate(5615.999 -2262.618)"/>
        <path id="Trazado_192802" data-name="Trazado 192802" d="M-5536.865,2278.015v-15.188h3.394a4.1,4.1,0,0,1,2.6.9,5.864,5.864,0,0,1,1.792,2.566,10.432,10.432,0,0,1,.644,3.782v.7a10.452,10.452,0,0,1-.633,3.766,5.813,5.813,0,0,1-1.784,2.556,4.139,4.139,0,0,1-2.6.918Zm2.273-12.653V2275.5h1.1a2.237,2.237,0,0,0,2.038-1.2,6.944,6.944,0,0,0,.72-3.432v-.8a7.089,7.089,0,0,0-.7-3.51,2.227,2.227,0,0,0-2.039-1.194Z" transform="translate(5567.462 -2262.618)"/>
      </g>
    </g>
  </g>
</svg>
