<svg xmlns="http://www.w3.org/2000/svg" width="190" height="190.054" viewBox="0 0 190 190.054">
  <g id="Grupo_146504" data-name="Grupo 146504" transform="translate(-285 -9160)">
    <g id="Grupo_132276" data-name="Grupo 132276" transform="translate(5521.086 8351.273)">
      <path id="Trazado_192803" data-name="Trazado 192803" d="M-5046.086,819.5V950.156c-3.168,8.429-6.4,10.64-15.531,10.64h-38.291c0,2.214.072,4.186-.027,6.148a2.2,2.2,0,0,0,1.38,2.291c5.66,3.168,11.258,6.445,16.919,9.61a7.049,7.049,0,0,1,3.92,6.816,46.328,46.328,0,0,0,.013,4.637c.3,3.912-.99,6.873-4.75,8.481h-117.266c-3.664-1.573-5.054-4.418-4.751-8.293a40.691,40.691,0,0,0,.01-4.637,7.175,7.175,0,0,1,4.085-7.085c5.626-3.1,11.177-6.335,16.738-9.551.533-.309,1.276-.861,1.3-1.336.136-2.32.062-4.651.062-7.081h-2.471q-18.828,0-37.655-.006c-8.4-.014-13.685-5.3-13.686-13.659q-.006-62.337,0-124.675a17.658,17.658,0,0,1,.156-2.957c1.12-6.592,6.256-10.757,13.26-10.758q76.05-.008,152.1,0c3.957,0,7.915-.035,11.872.013a12.671,12.671,0,0,1,12.128,9.184C-5046.407,818.459-5046.246,818.981-5046.086,819.5Zm-6.322,109.489v-1.86q0-52.419,0-104.838c0-4.791-2.5-7.23-7.386-7.23q-81.255,0-162.51,0c-5.068,0-7.456,2.415-7.456,7.531q0,52.141,0,104.282v2.051h44.238V865.776h-29.952c-3.237,0-4.688-.972-4.716-3.146-.029-2.2,1.418-3.2,4.629-3.2q74.482,0,148.967,0a11.976,11.976,0,0,1,2.034.1,2.845,2.845,0,0,1,2.572,2.923,2.834,2.834,0,0,1-2.322,3.127,11.045,11.045,0,0,1-2.576.189q-54.726.012-109.453.007h-2.558v63.216Zm-177.356,6.525v3.408q0,3.9,0,7.791c0,5.374,2.313,7.73,7.629,7.73q81.048.006,162.1,0a16.239,16.239,0,0,0,2.034-.1,5.953,5.953,0,0,0,5.484-5.413c.215-4.426.056-8.87.056-13.418Zm31.759,56.8h113.838v-6.09H-5198Zm104.347-12.587.107-.355c-2.722-1.563-5.388-3.239-8.19-4.641a10.579,10.579,0,0,0-4.5-1.212c-21.635-.077-43.271.067-64.9-.143-4.946-.048-9.356.687-13.368,3.616-1.292.943-2.758,1.647-4.144,2.46l.15.275Zm-12.683-18.835h-69.465v6.135h69.465Z"/>
      <path id="Trazado_192804" data-name="Trazado 192804" d="M-5052.408,928.992H-5178.9V865.776h2.558q54.726,0,109.453-.007a11.045,11.045,0,0,0,2.576-.189,2.834,2.834,0,0,0,2.322-3.127,2.845,2.845,0,0,0-2.572-2.923,11.976,11.976,0,0,0-2.034-.1q-74.484-.006-148.967,0c-3.211,0-4.658,1.006-4.629,3.2.028,2.174,1.479,3.145,4.716,3.146h29.952v63.151h-44.238v-2.051q0-52.141,0-104.282c0-5.116,2.388-7.531,7.456-7.531q81.255,0,162.51,0c4.887,0,7.386,2.439,7.386,7.23q.008,52.419,0,104.838Zm-64.971-34.76q15.849,0,31.7,0a14.213,14.213,0,0,0,2.035-.074,2.871,2.871,0,0,0,2.665-2.845,2.887,2.887,0,0,0-2.232-3.2,6.387,6.387,0,0,0-1.828-.209q-32.256-.015-64.512,0a6.508,6.508,0,0,0-2.007.24,2.883,2.883,0,0,0-2.13,3.271,2.858,2.858,0,0,0,2.576,2.731,12.745,12.745,0,0,0,2.034.085Q-5133.23,894.237-5117.379,894.232Zm26.987-53.78h.045c0,1.3-.082,2.6.015,3.893a9.317,9.317,0,0,0,8.814,8.676,9.128,9.128,0,0,0,9.83-7.679,40.08,40.08,0,0,0,.161-9.055,9.347,9.347,0,0,0-9.715-8.557,9.488,9.488,0,0,0-9.143,9.384C-5090.435,838.224-5090.392,839.339-5090.392,840.452Zm-101.4.022h-.046c0-1.359.091-2.726-.016-4.077a9.419,9.419,0,0,0-9.059-8.665,9.233,9.233,0,0,0-9.588,7.807,40.225,40.225,0,0,0-.14,9.055,9.249,9.249,0,0,0,9.774,8.441,9.382,9.382,0,0,0,9.066-9.222C-5191.741,842.7-5191.789,841.587-5191.789,840.474Zm41.157.01h-.023c0-1.3.067-2.6-.012-3.894a9.43,9.43,0,0,0-8.882-8.849,9.186,9.186,0,0,0-9.733,7.611,37.959,37.959,0,0,0-.072,9.776,9.1,9.1,0,0,0,10.017,7.879,9.341,9.341,0,0,0,8.7-9.184C-5150.591,842.712-5150.632,841.6-5150.632,840.484Zm49.2,72.815v-.011c-5.628,0-11.255-.016-16.883.008-2.362.01-3.791,1.247-3.775,3.153.016,1.888,1.477,3.108,3.811,3.175.432.012.865,0,1.3,0q15.585,0,31.17,0a15.451,15.451,0,0,0,1.853-.042,3.143,3.143,0,0,0,3-3.172,3.012,3.012,0,0,0-3.22-3.094C-5089.928,913.265-5095.68,913.3-5101.432,913.3Zm-27.137-31.743c5.131,0,10.263.014,15.394-.007,2.386-.009,3.72-1.187,3.7-3.175-.02-1.951-1.4-3.137-3.782-3.141q-15.116-.024-30.231,0c-2.473,0-3.93,1.241-3.905,3.227.025,2,1.4,3.088,3.988,3.094C-5138.46,881.564-5133.515,881.556-5128.569,881.556Zm6.4-34.948c-.38.143-.611.221-.834.316-1.715.73-2.479,1.972-2.131,3.619a2.91,2.91,0,0,0,3.018,2.484c2.22.052,4.444.059,6.662-.032a2.844,2.844,0,0,0,2.787-2.526,2.724,2.724,0,0,0-1.718-3.322c-1.329-.452-1.423-1.2-1.414-2.332.038-4.568.007-9.137.015-13.705a3.085,3.085,0,0,0-1.922-3.089,3.019,3.019,0,0,0-3.549.768c-.713.682-1.4,1.389-2.1,2.089-2.868,2.882-2.512,4.944,1.186,6.591Zm25.407-8.326h-.025a65.8,65.8,0,0,0-.089-7.394,3.907,3.907,0,0,0-1.923-2.756,4.237,4.237,0,0,0-3.317.618,16.855,16.855,0,0,0-3.292,3.223c-1.273,1.46-1.2,3.818.436,4.488,2.126.868,1.9,2.343,1.869,3.976-.028,1.6-.034,3.209,0,4.812.021.879-.115,1.441-1.124,1.782a2.83,2.83,0,0,0-1.947,3.375,2.858,2.858,0,0,0,2.906,2.6c2.217.081,4.441.074,6.659.008a2.892,2.892,0,0,0,2.943-2.576,2.807,2.807,0,0,0-1.916-3.39c-1.1-.365-1.213-.978-1.2-1.92C-5096.737,842.848-5096.764,840.565-5096.764,838.282Zm-79.178,8.158c0-5.05-.013-10.114.007-15.177a3.182,3.182,0,0,0-1.968-3.251,3.1,3.1,0,0,0-3.679.926c-.655.655-1.312,1.308-1.963,1.967-2.854,2.889-2.483,4.93,1.165,6.54V846.6c-2.38.933-3.207,1.99-2.945,3.766a2.754,2.754,0,0,0,2.681,2.608,41.73,41.73,0,0,0,7.2-.085,3.55,3.55,0,0,0,2.386-2.114c.271-.9-.287-2.194-.8-3.142C-5174.147,847.093-5175.08,846.9-5175.942,846.44Zm34.856-8.974c0,2.66-.033,5.254.017,7.847a1.467,1.467,0,0,1-1.169,1.724,2.821,2.821,0,0,0-1.909,3.4,2.762,2.762,0,0,0,2.739,2.552c2.341.1,4.694.1,7.035-.009a2.771,2.771,0,0,0,2.7-2.6,2.742,2.742,0,0,0-1.808-3.275c-1.171-.382-1.305-1-1.3-2.023.036-4.572,0-9.146.023-13.719a3.232,3.232,0,0,0-2.065-3.376,3.149,3.149,0,0,0-3.66,1.024c-.694.7-1.4,1.4-2.091,2.1C-5145.216,833.791-5144.76,835.971-5141.086,837.466Zm-1.474,75.822c-3.519,0-7.038-.02-10.557.007-2.367.017-3.788,1.217-3.8,3.119s1.437,3.191,3.759,3.2q10.465.043,20.93,0c2.368-.009,3.757-1.233,3.768-3.167.012-1.964-1.332-3.133-3.731-3.154C-5135.645,913.266-5139.1,913.288-5142.56,913.288Zm4.368-6.354c2.041,0,4.083.04,6.123-.011,2.283-.056,3.588-1.227,3.611-3.126s-1.284-3.164-3.535-3.2q-5.936-.082-11.874,0c-2.225.032-3.559,1.324-3.526,3.21s1.372,3.055,3.636,3.112C-5141.9,906.971-5140.047,906.934-5138.192,906.934Zm-25.111-.006c2.04,0,4.083.055,6.121-.016,2.087-.073,3.421-1.358,3.428-3.144a3.169,3.169,0,0,0-3.409-3.159q-6.027-.1-12.056-.007c-2.241.032-3.519,1.3-3.476,3.238.042,1.842,1.3,3.01,3.457,3.079C-5167.262,906.981-5165.282,906.932-5163.3,906.928Zm50.687,0c2.04,0,4.083.059,6.121-.016,2.131-.078,3.359-1.308,3.347-3.177s-1.25-3.091-3.4-3.125q-6.027-.094-12.056,0c-2.1.03-3.444,1.3-3.489,3.082-.045,1.835,1.355,3.162,3.539,3.229C-5116.575,906.978-5114.6,906.93-5112.616,906.926Zm-50.628-25.375c2.033,0,4.066.035,6.1-.01a3.167,3.167,0,0,0,3.394-3.131,3.225,3.225,0,0,0-3.405-3.163q-6.1-.084-12.2,0a3.091,3.091,0,0,0-3.343,3.173c0,1.868,1.259,3.075,3.354,3.122C-5167.311,881.588-5165.277,881.553-5163.244,881.551Zm-3.255,12.64c1.173,0,2.351.072,3.517-.017a2.969,2.969,0,0,0,2.873-2.87,2.859,2.859,0,0,0-2.444-3.208,46.087,46.087,0,0,0-7.74.007c-1.667.153-2.471,1.506-2.389,3.222a2.925,2.925,0,0,0,2.852,2.849C-5168.726,894.263-5167.61,894.191-5166.5,894.191Zm-30.175,12.78,0-.052c.554,0,1.112.039,1.663-.007,2-.165,3.184-1.331,3.2-3.127a3.051,3.051,0,0,0-3.147-3.165,19.343,19.343,0,0,0-3.5.059,2.953,2.953,0,0,0-2.744,3.144,2.949,2.949,0,0,0,2.692,3.017A17.576,17.576,0,0,0-5196.674,906.971Zm.13-25.425v.008c.431,0,.863.012,1.294,0,2.119-.072,3.4-1.212,3.439-3.057.043-1.912-1.281-3.179-3.46-3.26a22.1,22.1,0,0,0-2.957.029,3.13,3.13,0,0,0-2.984,3.349,3.071,3.071,0,0,0,3.188,2.929C-5197.532,881.57-5197.037,881.546-5196.544,881.546Zm-.064,12.654c.616,0,1.237.047,1.847-.009a3.015,3.015,0,0,0,2.948-2.963,3.052,3.052,0,0,0-2.664-3.238,11.988,11.988,0,0,0-2.026-.095c-3.211-.008-4.681.976-4.713,3.138C-5201.249,893.227-5199.807,894.228-5196.608,894.2Zm.254,19.124v-.011c-.616,0-1.236-.043-1.847.008a3.045,3.045,0,0,0-3.013,2.907,2.98,2.98,0,0,0,2.622,3.261,16.458,16.458,0,0,0,4.225-.01,2.943,2.943,0,0,0,2.547-3.308,3,3,0,0,0-2.873-2.838C-5195.241,913.278-5195.8,913.324-5196.354,913.324Zm28.332,0v-.015c-.554,0-1.112-.039-1.662.007a3.012,3.012,0,0,0-3.007,2.9,3,3,0,0,0,2.774,3.315,16.6,16.6,0,0,0,4.046-.052,2.957,2.957,0,0,0,2.556-3.3,3,3,0,0,0-2.861-2.844A18.342,18.342,0,0,0-5168.022,913.327Z" fill="#00defc"/>
      <path id="Trazado_192805" data-name="Trazado 192805" d="M-5229.764,935.517h177.3c0,4.548.159,8.992-.056,13.418a5.953,5.953,0,0,1-5.484,5.413,16.239,16.239,0,0,1-2.034.1q-81.048.006-162.1,0c-5.316,0-7.626-2.356-7.629-7.73q0-3.9,0-7.791Zm88.673,12.562c2.04,0,4.082.052,6.12-.015a3.14,3.14,0,0,0,3.362-3.177,3.108,3.108,0,0,0-3.261-3.106q-6.212-.118-12.426,0a3.122,3.122,0,0,0-3.27,3.1,3.136,3.136,0,0,0,3.355,3.185C-5145.173,948.131-5143.131,948.078-5141.091,948.079Z" fill="#b9ddfc"/>
      <path id="Trazado_192806" data-name="Trazado 192806" d="M-5198,992.32v-6.09h113.838v6.09Z" fill="#ffb30b"/>
      <path id="Trazado_192807" data-name="Trazado 192807" d="M-5093.658,979.733H-5188.5l-.15-.275c1.386-.813,2.852-1.517,4.144-2.46,4.012-2.929,8.422-3.664,13.368-3.616,21.632.21,43.268.066,64.9.143a10.579,10.579,0,0,1,4.5,1.212c2.8,1.4,5.468,3.078,8.19,4.641Z" fill="#084a93"/>
      <path id="Trazado_192808" data-name="Trazado 192808" d="M-5106.341,960.9v6.135h-69.465V960.9Z" fill="#084a93"/>
      <path id="Trazado_192809" data-name="Trazado 192809" d="M-5117.379,894.232q-15.85,0-31.7,0a12.745,12.745,0,0,1-2.034-.085,2.858,2.858,0,0,1-2.576-2.731,2.883,2.883,0,0,1,2.13-3.271,6.508,6.508,0,0,1,2.007-.24q32.256-.018,64.512,0a6.387,6.387,0,0,1,1.828.209,2.887,2.887,0,0,1,2.232,3.2,2.871,2.871,0,0,1-2.665,2.845,14.213,14.213,0,0,1-2.035.074Q-5101.529,894.234-5117.379,894.232Z"/>
      <path id="Trazado_192810" data-name="Trazado 192810" d="M-5090.392,840.452c0-1.113-.043-2.228.007-3.338a9.488,9.488,0,0,1,9.143-9.384,9.347,9.347,0,0,1,9.715,8.557,40.08,40.08,0,0,1-.161,9.055,9.128,9.128,0,0,1-9.83,7.679,9.317,9.317,0,0,1-8.814-8.676c-.1-1.291-.015-2.595-.015-3.893Zm6.368-.284h-.022q0,1.666,0,3.334a3.332,3.332,0,0,0,.029.369,2.98,2.98,0,0,0,2.909,2.807c1.716.056,3.035-.771,3.188-2.442a47.359,47.359,0,0,0,.033-7.564,2.961,2.961,0,0,0-3.118-2.595,3.092,3.092,0,0,0-3,2.945C-5084.091,838.064-5084.024,839.119-5084.024,840.168Z"/>
      <path id="Trazado_192811" data-name="Trazado 192811" d="M-5191.789,840.474c0,1.113.048,2.229-.009,3.339a9.382,9.382,0,0,1-9.066,9.222,9.249,9.249,0,0,1-9.774-8.441,40.225,40.225,0,0,1,.14-9.055,9.233,9.233,0,0,1,9.588-7.807,9.419,9.419,0,0,1,9.059,8.665c.107,1.351.016,2.718.016,4.077Zm-6.371-.047c0-1.173.08-2.352-.019-3.516a2.979,2.979,0,0,0-2.919-2.814c-1.576-.006-2.968.718-3.108,2.328a47.915,47.915,0,0,0-.018,7.919,2.756,2.756,0,0,0,3.266,2.322,2.828,2.828,0,0,0,2.771-2.724C-5198.075,842.781-5198.165,841.6-5198.16,840.427Z"/>
      <path id="Trazado_192812" data-name="Trazado 192812" d="M-5150.632,840.484c0,1.113.041,2.228-.007,3.339a9.341,9.341,0,0,1-8.7,9.184,9.1,9.1,0,0,1-10.017-7.879,37.959,37.959,0,0,1,.072-9.776,9.186,9.186,0,0,1,9.733-7.611,9.43,9.43,0,0,1,8.882,8.849c.079,1.294.012,2.6.012,3.894Zm-6.352-.16c0-1.111.064-2.227-.015-3.332a2.966,2.966,0,0,0-2.854-2.888,2.848,2.848,0,0,0-3.227,2.419,45.209,45.209,0,0,0-.006,7.743c.151,1.657,1.491,2.487,3.213,2.41a2.926,2.926,0,0,0,2.869-2.834C-5156.916,842.676-5156.987,841.5-5156.984,840.324Z"/>
      <path id="Trazado_192813" data-name="Trazado 192813" d="M-5101.432,913.3c5.752,0,11.5-.034,17.255.019a3.012,3.012,0,0,1,3.22,3.094,3.143,3.143,0,0,1-3,3.172,15.451,15.451,0,0,1-1.853.042q-15.585,0-31.17,0c-.433,0-.866.009-1.3,0-2.334-.067-3.8-1.287-3.811-3.175-.016-1.906,1.413-3.143,3.775-3.153,5.628-.024,11.255-.008,16.883-.008Z"/>
      <path id="Trazado_192814" data-name="Trazado 192814" d="M-5128.569,881.556c-4.946,0-9.891.008-14.837,0-2.585-.006-3.963-1.092-3.988-3.094-.025-1.986,1.432-3.223,3.905-3.227q15.115-.02,30.231,0c2.385,0,3.762,1.19,3.782,3.141.021,1.988-1.313,3.166-3.7,3.175C-5118.306,881.57-5123.438,881.556-5128.569,881.556Z"/>
      <path id="Trazado_192815" data-name="Trazado 192815" d="M-5122.171,846.608v-9.139c-3.7-1.647-4.054-3.709-1.186-6.591.7-.7,1.387-1.407,2.1-2.089a3.019,3.019,0,0,1,3.549-.768,3.085,3.085,0,0,1,1.922,3.089c-.008,4.568.023,9.137-.015,13.705-.009,1.127.085,1.88,1.414,2.332a2.724,2.724,0,0,1,1.718,3.322,2.844,2.844,0,0,1-2.787,2.526c-2.218.091-4.442.084-6.662.032a2.91,2.91,0,0,1-3.018-2.484c-.348-1.647.416-2.889,2.131-3.619C-5122.782,846.829-5122.551,846.751-5122.171,846.608Z"/>
      <path id="Trazado_192816" data-name="Trazado 192816" d="M-5096.764,838.282c0,2.283.027,4.566-.013,6.849-.016.942.1,1.555,1.2,1.92a2.807,2.807,0,0,1,1.916,3.39,2.892,2.892,0,0,1-2.943,2.576c-2.218.066-4.442.073-6.659-.008a2.858,2.858,0,0,1-2.906-2.6,2.83,2.83,0,0,1,1.947-3.375c1.009-.341,1.145-.9,1.124-1.782-.038-1.6-.032-3.209,0-4.812.029-1.633.257-3.108-1.869-3.976-1.639-.67-1.709-3.028-.436-4.488a16.855,16.855,0,0,1,3.292-3.223,4.237,4.237,0,0,1,3.317-.618,3.907,3.907,0,0,1,1.923,2.756,65.8,65.8,0,0,1,.089,7.394Z"/>
      <path id="Trazado_192817" data-name="Trazado 192817" d="M-5175.942,846.44c.862.463,1.795.653,2.086,1.19.515.948,1.073,2.239.8,3.142a3.55,3.55,0,0,1-2.386,2.114,41.73,41.73,0,0,1-7.2.085,2.754,2.754,0,0,1-2.681-2.608c-.262-1.776.565-2.833,2.945-3.766v-9.152c-3.648-1.61-4.019-3.651-1.165-6.54.651-.659,1.308-1.312,1.963-1.967a3.1,3.1,0,0,1,3.679-.926,3.182,3.182,0,0,1,1.968,3.251C-5175.955,836.326-5175.942,841.39-5175.942,846.44Z"/>
      <path id="Trazado_192818" data-name="Trazado 192818" d="M-5141.086,837.466c-3.674-1.495-4.13-3.675-1.487-6.359.693-.705,1.4-1.4,2.091-2.1a3.149,3.149,0,0,1,3.66-1.024,3.232,3.232,0,0,1,2.065,3.376c-.022,4.573.013,9.147-.023,13.719-.008,1.019.126,1.641,1.3,2.023a2.742,2.742,0,0,1,1.808,3.275,2.771,2.771,0,0,1-2.7,2.6c-2.341.11-4.694.109-7.035.009a2.762,2.762,0,0,1-2.739-2.552,2.821,2.821,0,0,1,1.909-3.4,1.467,1.467,0,0,0,1.169-1.724C-5141.119,842.72-5141.086,840.126-5141.086,837.466Z"/>
      <path id="Trazado_192819" data-name="Trazado 192819" d="M-5142.56,913.288c3.458,0,6.915-.022,10.372.007,2.4.021,3.743,1.19,3.731,3.154-.011,1.934-1.4,3.158-3.768,3.167q-10.464.04-20.93,0c-2.322-.01-3.767-1.3-3.759-3.2s1.43-3.1,3.8-3.119C-5149.6,913.268-5146.079,913.288-5142.56,913.288Z"/>
      <path id="Trazado_192820" data-name="Trazado 192820" d="M-5138.192,906.934c-1.855,0-3.711.037-5.565-.01-2.264-.057-3.6-1.239-3.636-3.112s1.3-3.178,3.526-3.21q5.937-.084,11.874,0c2.251.031,3.557,1.289,3.535,3.2s-1.328,3.07-3.611,3.126C-5134.109,906.974-5136.151,906.934-5138.192,906.934Z"/>
      <path id="Trazado_192821" data-name="Trazado 192821" d="M-5163.3,906.93c-1.979,0-3.959.051-5.935-.011-2.16-.069-3.415-1.237-3.457-3.079-.043-1.933,1.235-3.206,3.476-3.238q6.027-.086,12.056.007a3.169,3.169,0,0,1,3.409,3.159c-.007,1.786-1.341,3.071-3.428,3.144C-5159.22,906.983-5161.263,906.928-5163.3,906.93Z"/>
      <path id="Trazado_192822" data-name="Trazado 192822" d="M-5112.616,906.928c-1.979,0-3.959.05-5.935-.01-2.184-.067-3.584-1.394-3.539-3.229.045-1.781,1.385-3.052,3.489-3.082q6.027-.089,12.056,0c2.147.034,3.385,1.265,3.4,3.125s-1.216,3.1-3.347,3.177C-5108.533,906.985-5110.576,906.926-5112.616,906.928Z"/>
      <path id="Trazado_192823" data-name="Trazado 192823" d="M-5163.244,881.552c-2.033,0-4.067.036-6.1-.009-2.1-.047-3.351-1.254-3.354-3.122a3.091,3.091,0,0,1,3.343-3.173q6.1-.088,12.2,0a3.225,3.225,0,0,1,3.405,3.163,3.167,3.167,0,0,1-3.394,3.131C-5159.178,881.586-5161.211,881.551-5163.244,881.552Z"/>
      <path id="Trazado_192824" data-name="Trazado 192824" d="M-5166.5,894.191c-1.111,0-2.227.072-3.331-.017a2.925,2.925,0,0,1-2.852-2.849c-.082-1.716.722-3.069,2.389-3.222a46.087,46.087,0,0,1,7.74-.007,2.859,2.859,0,0,1,2.444,3.208,2.969,2.969,0,0,1-2.873,2.87C-5164.148,894.263-5165.326,894.191-5166.5,894.191Z"/>
      <path id="Trazado_192825" data-name="Trazado 192825" d="M-5196.674,906.971a17.576,17.576,0,0,1-1.84-.131,2.949,2.949,0,0,1-2.692-3.017,2.953,2.953,0,0,1,2.744-3.144,19.343,19.343,0,0,1,3.5-.059,3.051,3.051,0,0,1,3.147,3.165c-.014,1.8-1.193,2.962-3.2,3.127-.551.046-1.109.007-1.663.007Z"/>
      <path id="Trazado_192826" data-name="Trazado 192826" d="M-5196.544,881.546c-.493,0-.988.024-1.48,0a3.071,3.071,0,0,1-3.188-2.929,3.13,3.13,0,0,1,2.984-3.349,22.1,22.1,0,0,1,2.957-.029c2.179.081,3.5,1.348,3.46,3.26-.041,1.845-1.32,2.985-3.439,3.057-.431.014-.863,0-1.294,0Z"/>
      <path id="Trazado_192827" data-name="Trazado 192827" d="M-5196.608,894.2c-3.2.028-4.641-.973-4.608-3.167.032-2.162,1.5-3.146,4.713-3.138a11.988,11.988,0,0,1,2.026.095,3.052,3.052,0,0,1,2.664,3.238,3.015,3.015,0,0,1-2.948,2.963C-5195.371,894.247-5195.992,894.2-5196.608,894.2Z"/>
      <path id="Trazado_192828" data-name="Trazado 192828" d="M-5196.354,913.324c.554,0,1.113-.046,1.661.009a3,3,0,0,1,2.873,2.838,2.943,2.943,0,0,1-2.547,3.308,16.458,16.458,0,0,1-4.225.01,2.98,2.98,0,0,1-2.622-3.261,3.045,3.045,0,0,1,3.013-2.907c.611-.051,1.231-.008,1.847-.008Z"/>
      <path id="Trazado_192829" data-name="Trazado 192829" d="M-5168.022,913.327a18.342,18.342,0,0,1,1.846.01,3,3,0,0,1,2.861,2.844,2.957,2.957,0,0,1-2.556,3.3,16.6,16.6,0,0,1-4.046.052,3,3,0,0,1-2.774-3.315,3.012,3.012,0,0,1,3.007-2.9c.55-.046,1.108-.007,1.662-.007Z"/>
      <path id="Trazado_192830" data-name="Trazado 192830" d="M-5141.091,948.079c-2.04,0-4.082.052-6.12-.015a3.136,3.136,0,0,1-3.355-3.185,3.122,3.122,0,0,1,3.27-3.1q6.212-.117,12.426,0a3.108,3.108,0,0,1,3.261,3.106,3.14,3.14,0,0,1-3.362,3.177C-5137.009,948.131-5139.051,948.079-5141.091,948.079Z"/>
      <path id="Trazado_192831" data-name="Trazado 192831" d="M-5084.024,840.168c0-1.049-.067-2.1.015-3.146a3.092,3.092,0,0,1,3-2.945,2.961,2.961,0,0,1,3.118,2.595,47.359,47.359,0,0,1-.033,7.564c-.153,1.671-1.472,2.5-3.188,2.442a2.98,2.98,0,0,1-2.909-2.807,3.332,3.332,0,0,1-.029-.369q0-1.667,0-3.334Z" fill="#00defc"/>
      <path id="Trazado_192832" data-name="Trazado 192832" d="M-5198.163,840.427c0,1.172.088,2.354-.024,3.515a2.828,2.828,0,0,1-2.771,2.724,2.756,2.756,0,0,1-3.266-2.322,47.915,47.915,0,0,1,.018-7.919c.14-1.61,1.532-2.334,3.108-2.328a2.979,2.979,0,0,1,2.919,2.814C-5198.08,838.075-5198.16,839.254-5198.163,840.427Z" fill="#00defc"/>
      <path id="Trazado_192833" data-name="Trazado 192833" d="M-5156.985,840.324c0,1.173.069,2.352-.019,3.518a2.926,2.926,0,0,1-2.869,2.834c-1.722.077-3.062-.753-3.213-2.41a45.209,45.209,0,0,1,.006-7.743,2.848,2.848,0,0,1,3.227-2.419,2.966,2.966,0,0,1,2.854,2.888C-5156.92,838.1-5156.984,839.213-5156.985,840.324Z" fill="#00defc"/>
    </g>
  </g>
</svg>
