<svg xmlns="http://www.w3.org/2000/svg" width="820" height="480" viewBox="0 0 820 480">
  <g id="Grupo_146494" data-name="Grupo 146494" transform="translate(-390 -987)">
    <rect id="Rectángulo_296811" data-name="Rectángulo 296811" width="820" height="480" rx="12" transform="translate(390 987)" fill="#ecf2f9" opacity="0.5"/>
    <g id="Grupo_146422" data-name="Grupo 146422" transform="translate(-7 5)">
      <g id="Unión_1" data-name="Unión 1" transform="translate(15915 1011)" fill="#b9ddfc" stroke-linejoin="round">
        <path d="M -14962 74.36807250976562 L -14963.697265625 72.71664428710938 L -15000.6982421875 36.71669006347656 L -15001.4345703125 35.99995040893555 L -15000.6982421875 35.28321075439453 L -14963.697265625 -0.7167400717735291 L -14962 -2.368168592453003 L -14962 -1.972016889340011e-06 L -14962 11.00123596191406 L -14812.9990234375 11.00123596191406 L -14811.9990234375 11.00123596191406 L -14811.9990234375 12.00123596191406 L -14811.9990234375 59.99866485595703 L -14811.9990234375 60.99866485595703 L -14812.9990234375 60.99866485595703 L -14962 60.99866485595703 L -14962 71.99990081787109 L -14962 74.36807250976562 Z" stroke="none"/>
        <path d="M -14963 0 L -15000.0009765625 35.99995040893555 L -14963 71.99990081787109 L -14963 59.99867630004883 L -14812.9990234375 59.99867630004883 L -14812.9990234375 12.00125122070312 L -14963 12.00125122070312 L -14963 0 M -14963 -2.000053405761719 C -14962.7373046875 -2.000053405761719 -14962.47265625 -1.948501586914062 -14962.2216796875 -1.842475891113281 C -14961.4814453125 -1.52972412109375 -14961 -0.803924560546875 -14961 0 L -14961 10.00125122070312 L -14812.9990234375 10.00125122070312 C -14811.89453125 10.00125122070312 -14810.9990234375 10.89667510986328 -14810.9990234375 12.00125122070312 L -14810.9990234375 59.99867630004883 C -14810.9990234375 61.10324859619141 -14811.89453125 61.99867630004883 -14812.9990234375 61.99867630004883 L -14961 61.99867630004883 L -14961 71.99990081787109 C -14961 72.80382537841797 -14961.4814453125 73.52962493896484 -14962.2216796875 73.84237670898438 C -14962.9599609375 74.15449523925781 -14963.818359375 73.99456024169922 -14964.39453125 73.43337249755859 L -15001.3955078125 37.43342590332031 C -15001.7822265625 37.05690002441406 -15002.0009765625 36.53990173339844 -15002.0009765625 35.99995040893555 C -15002.0009765625 35.45999908447266 -15001.7822265625 34.94300079345703 -15001.3955078125 34.56647491455078 L -14964.39453125 -1.4334716796875 C -14964.013671875 -1.80401611328125 -14963.5107421875 -2.000053405761719 -14963 -2.000053405761719 Z" stroke="none" fill="#819ab0"/>
      </g>
      <g id="Unión_2" data-name="Unión 2" transform="translate(15915 1128)" fill="#b9ddfc" stroke-linejoin="round">
        <path d="M -14962 74.36807250976562 L -14963.697265625 72.71664428710938 L -15000.6982421875 36.71669006347656 L -15001.4345703125 35.99995040893555 L -15000.6982421875 35.28321075439453 L -14963.697265625 -0.7167400717735291 L -14962 -2.368168592453003 L -14962 -1.972016889340011e-06 L -14962 11.00123596191406 L -14812.9990234375 11.00123596191406 L -14811.9990234375 11.00123596191406 L -14811.9990234375 12.00123596191406 L -14811.9990234375 59.99866485595703 L -14811.9990234375 60.99866485595703 L -14812.9990234375 60.99866485595703 L -14962 60.99866485595703 L -14962 71.99990081787109 L -14962 74.36807250976562 Z" stroke="none"/>
        <path d="M -14963 0 L -15000.0009765625 35.99995040893555 L -14963 71.99990081787109 L -14963 59.99867630004883 L -14812.9990234375 59.99867630004883 L -14812.9990234375 12.00125122070312 L -14963 12.00125122070312 L -14963 0 M -14963 -2.000053405761719 C -14962.7373046875 -2.000053405761719 -14962.47265625 -1.948501586914062 -14962.2216796875 -1.842475891113281 C -14961.4814453125 -1.52972412109375 -14961 -0.803924560546875 -14961 0 L -14961 10.00125122070312 L -14812.9990234375 10.00125122070312 C -14811.89453125 10.00125122070312 -14810.9990234375 10.89667510986328 -14810.9990234375 12.00125122070312 L -14810.9990234375 59.99867630004883 C -14810.9990234375 61.10324859619141 -14811.89453125 61.99867630004883 -14812.9990234375 61.99867630004883 L -14961 61.99867630004883 L -14961 71.99990081787109 C -14961 72.80382537841797 -14961.4814453125 73.52962493896484 -14962.2216796875 73.84237670898438 C -14962.9599609375 74.15449523925781 -14963.818359375 73.99456024169922 -14964.39453125 73.43337249755859 L -15001.3955078125 37.43342590332031 C -15001.7822265625 37.05690002441406 -15002.0009765625 36.53990173339844 -15002.0009765625 35.99995040893555 C -15002.0009765625 35.45999908447266 -15001.7822265625 34.94300079345703 -15001.3955078125 34.56647491455078 L -14964.39453125 -1.4334716796875 C -14964.013671875 -1.80401611328125 -14963.5107421875 -2.000053405761719 -14963 -2.000053405761719 Z" stroke="none" fill="#819ab0"/>
      </g>
      <g id="Unión_3" data-name="Unión 3" transform="translate(15915 1245)" fill="#b9ddfc" stroke-linejoin="round">
        <path d="M -14962 74.36807250976562 L -14963.697265625 72.71664428710938 L -15000.6982421875 36.71669006347656 L -15001.4345703125 35.99995040893555 L -15000.6982421875 35.28321075439453 L -14963.697265625 -0.7167400717735291 L -14962 -2.368168592453003 L -14962 -1.972016889340011e-06 L -14962 11.00123596191406 L -14812.9990234375 11.00123596191406 L -14811.9990234375 11.00123596191406 L -14811.9990234375 12.00123596191406 L -14811.9990234375 59.99866485595703 L -14811.9990234375 60.99866485595703 L -14812.9990234375 60.99866485595703 L -14962 60.99866485595703 L -14962 71.99990081787109 L -14962 74.36807250976562 Z" stroke="none"/>
        <path d="M -14963 0 L -15000.0009765625 35.99995040893555 L -14963 71.99990081787109 L -14963 59.99867630004883 L -14812.9990234375 59.99867630004883 L -14812.9990234375 12.00125122070312 L -14963 12.00125122070312 L -14963 0 M -14963 -2.000053405761719 C -14962.7373046875 -2.000053405761719 -14962.47265625 -1.948501586914062 -14962.2216796875 -1.842475891113281 C -14961.4814453125 -1.52972412109375 -14961 -0.803924560546875 -14961 0 L -14961 10.00125122070312 L -14812.9990234375 10.00125122070312 C -14811.89453125 10.00125122070312 -14810.9990234375 10.89667510986328 -14810.9990234375 12.00125122070312 L -14810.9990234375 59.99867630004883 C -14810.9990234375 61.10324859619141 -14811.89453125 61.99867630004883 -14812.9990234375 61.99867630004883 L -14961 61.99867630004883 L -14961 71.99990081787109 C -14961 72.80382537841797 -14961.4814453125 73.52962493896484 -14962.2216796875 73.84237670898438 C -14962.9599609375 74.15449523925781 -14963.818359375 73.99456024169922 -14964.39453125 73.43337249755859 L -15001.3955078125 37.43342590332031 C -15001.7822265625 37.05690002441406 -15002.0009765625 36.53990173339844 -15002.0009765625 35.99995040893555 C -15002.0009765625 35.45999908447266 -15001.7822265625 34.94300079345703 -15001.3955078125 34.56647491455078 L -14964.39453125 -1.4334716796875 C -14964.013671875 -1.80401611328125 -14963.5107421875 -2.000053405761719 -14963 -2.000053405761719 Z" stroke="none" fill="#819ab0"/>
      </g>
      <g id="Unión_4" data-name="Unión 4" transform="translate(15915 1362)" fill="#b9ddfc" stroke-linejoin="round">
        <path d="M -14962 74.36807250976562 L -14963.697265625 72.71664428710938 L -15000.6982421875 36.71669006347656 L -15001.4345703125 35.99995040893555 L -15000.6982421875 35.28321075439453 L -14963.697265625 -0.7167400717735291 L -14962 -2.368168592453003 L -14962 -1.972016889340011e-06 L -14962 11.00123596191406 L -14812.9990234375 11.00123596191406 L -14811.9990234375 11.00123596191406 L -14811.9990234375 12.00123596191406 L -14811.9990234375 59.99866485595703 L -14811.9990234375 60.99866485595703 L -14812.9990234375 60.99866485595703 L -14962 60.99866485595703 L -14962 71.99990081787109 L -14962 74.36807250976562 Z" stroke="none"/>
        <path d="M -14963 0 L -15000.0009765625 35.99995040893555 L -14963 71.99990081787109 L -14963 59.99867630004883 L -14812.9990234375 59.99867630004883 L -14812.9990234375 12.00125122070312 L -14963 12.00125122070312 L -14963 0 M -14963 -2.000053405761719 C -14962.7373046875 -2.000053405761719 -14962.47265625 -1.948501586914062 -14962.2216796875 -1.842475891113281 C -14961.4814453125 -1.52972412109375 -14961 -0.803924560546875 -14961 0 L -14961 10.00125122070312 L -14812.9990234375 10.00125122070312 C -14811.89453125 10.00125122070312 -14810.9990234375 10.89667510986328 -14810.9990234375 12.00125122070312 L -14810.9990234375 59.99867630004883 C -14810.9990234375 61.10324859619141 -14811.89453125 61.99867630004883 -14812.9990234375 61.99867630004883 L -14961 61.99867630004883 L -14961 71.99990081787109 C -14961 72.80382537841797 -14961.4814453125 73.52962493896484 -14962.2216796875 73.84237670898438 C -14962.9599609375 74.15449523925781 -14963.818359375 73.99456024169922 -14964.39453125 73.43337249755859 L -15001.3955078125 37.43342590332031 C -15001.7822265625 37.05690002441406 -15002.0009765625 36.53990173339844 -15002.0009765625 35.99995040893555 C -15002.0009765625 35.45999908447266 -15001.7822265625 34.94300079345703 -15001.3955078125 34.56647491455078 L -14964.39453125 -1.4334716796875 C -14964.013671875 -1.80401611328125 -14963.5107421875 -2.000053405761719 -14963 -2.000053405761719 Z" stroke="none" fill="#819ab0"/>
      </g>
      <path id="Trazado_203744" data-name="Trazado 203744" d="M15856.5,1046.5H15758V1164h101.333" transform="translate(-15000 117)" fill="none" stroke="#12263f" stroke-width="4"/>
      <path id="Trazado_203745" data-name="Trazado 203745" d="M15856.5,1046.5H15758V1398h101.333" transform="translate(-15000 0)" fill="none" stroke="#12263f" stroke-width="4"/>
      <g id="Elipse_4932" data-name="Elipse 4932" transform="translate(818 1008)" fill="#ffbb24" stroke="#d49509" stroke-width="4">
        <circle cx="38.5" cy="38.5" r="38.5" stroke="none"/>
        <circle cx="38.5" cy="38.5" r="36.5" fill="none"/>
      </g>
      <g id="Elipse_4933" data-name="Elipse 4933" transform="translate(818 1125)" fill="#ffbb24" stroke="#d49509" stroke-width="4">
        <circle cx="38.5" cy="38.5" r="38.5" stroke="none"/>
        <circle cx="38.5" cy="38.5" r="36.5" fill="none"/>
      </g>
      <g id="Elipse_4934" data-name="Elipse 4934" transform="translate(818 1242)" fill="#ffbb24" stroke="#d49509" stroke-width="4">
        <circle cx="38.5" cy="38.5" r="38.5" stroke="none"/>
        <circle cx="38.5" cy="38.5" r="36.5" fill="none"/>
      </g>
      <g id="Elipse_4935" data-name="Elipse 4935" transform="translate(818 1359)" fill="#ffbb24" stroke="#d49509" stroke-width="4">
        <circle cx="38.5" cy="38.5" r="38.5" stroke="none"/>
        <circle cx="38.5" cy="38.5" r="36.5" fill="none"/>
      </g>
      <text id="Create" transform="translate(1027 1055)" fill="#12263f" font-size="28" font-family="Roboto-Black, Roboto" font-weight="800"><tspan x="-41.973" y="0">Create</tspan></text>
      <text id="Read" transform="translate(1027 1174)" fill="#12263f" font-size="28" font-family="Roboto-Black, Roboto" font-weight="800"><tspan x="-32.061" y="0">Read</tspan></text>
      <text id="Update" transform="translate(1027 1291)" fill="#12263f" font-size="28" font-family="Roboto-Black, Roboto" font-weight="800"><tspan x="-44.919" y="0">Update</tspan></text>
      <text id="Delete" transform="translate(1027 1408)" fill="#12263f" font-size="28" font-family="Roboto-Black, Roboto" font-weight="800"><tspan x="-40.571" y="0">Delete</tspan></text>
      <text id="C" transform="translate(846 1058)" fill="#12263f" font-size="32" font-family="Roboto-Black, Roboto" font-weight="800"><tspan x="0" y="0">C</tspan></text>
      <text id="R" transform="translate(846 1175)" fill="#12263f" font-size="32" font-family="Roboto-Black, Roboto" font-weight="800"><tspan x="0" y="0">R</tspan></text>
      <text id="U" transform="translate(846 1292)" fill="#12263f" font-size="32" font-family="Roboto-Black, Roboto" font-weight="800"><tspan x="0" y="0">U</tspan></text>
      <text id="D" transform="translate(846 1409)" fill="#12263f" font-size="32" font-family="Roboto-Black, Roboto" font-weight="800"><tspan x="0" y="0">D</tspan></text>
      <path id="Trazado_203746" data-name="Trazado 203746" d="M15662,1222h96" transform="translate(-15000)" fill="none" stroke="#12263f" stroke-width="4"/>
      <g id="Trazado_203750" data-name="Trazado 203750" transform="translate(495 1193)" fill="#084a93">
        <path d="M 200 56.5 L 10 56.5 C 5.313083171844482 56.5 1.5 52.68691635131836 1.5 48 L 1.5 10 C 1.5 5.313083171844482 5.313083171844482 1.5 10 1.5 L 200 1.5 C 204.6869201660156 1.5 208.5 5.313083171844482 208.5 10 L 208.5 48 C 208.5 52.68691635131836 204.6869201660156 56.5 200 56.5 Z" stroke="none"/>
        <path d="M 10 3 C 6.140182495117188 3 3 6.140174865722656 3 10 L 3 48 C 3 51.85982513427734 6.140182495117188 55 10 55 L 200 55 C 203.8598175048828 55 207 51.85982513427734 207 48 L 207 10 C 207 6.140174865722656 203.8598175048828 3 200 3 L 10 3 M 10 0 L 200 0 C 205.5228576660156 0 210 4.477146148681641 210 10 L 210 48 C 210 53.52285385131836 205.5228576660156 58 200 58 L 10 58 C 4.477142333984375 58 0 53.52285385131836 0 48 L 0 10 C 0 4.477146148681641 4.477142333984375 0 10 0 Z" stroke="none" fill="#052c57"/>
      </g>
      <text id="CRUD" transform="translate(564 1232)" fill="#fff" font-size="28" font-family="Roboto-Black, Roboto" font-weight="800"><tspan x="0" y="0">CRUD</tspan></text>
    </g>
  </g>
</svg>
