<svg xmlns="http://www.w3.org/2000/svg" width="1030" height="570" viewBox="0 0 1030 570">
  <g id="Grupo_146496" data-name="Grupo 146496" transform="translate(-285 -3873)">
    <rect id="Rectángulo_296822" data-name="Rectángulo 296822" width="1030" height="570" rx="12" transform="translate(285 3873)" fill="#ecf2f9" opacity="0.5"/>
    <text id="ÍNDICES" transform="translate(801 3893)" fill="#12263f" font-size="32" font-family="Roboto-Black, Roboto" font-weight="800"><tspan x="-52.469" y="34">Índices</tspan></text>
    <g id="Trazado_192311" data-name="Trazado 192311" transform="translate(1587.994 3380)" fill="#084a93" stroke-linejoin="round">
      <path d="M -487.39501953125 659 L -902.466064453125 659 L -942.657470703125 615.9999389648438 L -902.466064453125 573 L -487.39501953125 573 L -487.39501953125 659 Z" stroke="none"/>
      <path d="M -901.5978393554688 575 L -939.9198608398438 615.9999389648438 L -901.5978393554688 657 L -489.39501953125 657 L -489.39501953125 575 L -901.5978393554688 575 M -903.3343505859375 571 L -485.39501953125 571 L -485.39501953125 661 L -903.3343505859375 661 L -945.3950805664062 615.9999389648438 L -903.3343505859375 571 Z" stroke="none" fill="#052c57"/>
    </g>
    <g id="Trazado_203757" data-name="Trazado 203757" transform="translate(1587.994 3495)" fill="#084a93" stroke-linejoin="round">
      <path d="M -487.39501953125 659 L -902.466064453125 659 L -942.657470703125 615.9999389648438 L -902.466064453125 573 L -487.39501953125 573 L -487.39501953125 659 Z" stroke="none"/>
      <path d="M -901.5978393554688 575 L -939.9198608398438 615.9999389648438 L -901.5978393554688 657 L -489.39501953125 657 L -489.39501953125 575 L -901.5978393554688 575 M -903.3343505859375 571 L -485.39501953125 571 L -485.39501953125 661 L -903.3343505859375 661 L -945.3950805664062 615.9999389648438 L -903.3343505859375 571 Z" stroke="none" fill="#052c57"/>
    </g>
    <g id="Trazado_203759" data-name="Trazado 203759" transform="translate(1587.994 3610)" fill="#084a93" stroke-linejoin="round">
      <path d="M -487.39501953125 659 L -902.466064453125 659 L -942.657470703125 615.9999389648438 L -902.466064453125 573 L -487.39501953125 573 L -487.39501953125 659 Z" stroke="none"/>
      <path d="M -901.5978393554688 575 L -939.9198608398438 615.9999389648438 L -901.5978393554688 657 L -489.39501953125 657 L -489.39501953125 575 L -901.5978393554688 575 M -903.3343505859375 571 L -485.39501953125 571 L -485.39501953125 661 L -903.3343505859375 661 L -945.3950805664062 615.9999389648438 L -903.3343505859375 571 Z" stroke="none" fill="#052c57"/>
    </g>
    <g id="Trazado_203761" data-name="Trazado 203761" transform="translate(1587.994 3725)" fill="#084a93" stroke-linejoin="round">
      <path d="M -487.39501953125 659 L -902.466064453125 659 L -942.657470703125 615.9999389648438 L -902.466064453125 573 L -487.39501953125 573 L -487.39501953125 659 Z" stroke="none"/>
      <path d="M -901.5978393554688 575 L -939.9198608398438 615.9999389648438 L -901.5978393554688 657 L -489.39501953125 657 L -489.39501953125 575 L -901.5978393554688 575 M -903.3343505859375 571 L -485.39501953125 571 L -485.39501953125 661 L -903.3343505859375 661 L -945.3950805664062 615.9999389648438 L -903.3343505859375 571 Z" stroke="none" fill="#052c57"/>
    </g>
    <path id="Trazado_192316" data-name="Trazado 192316" d="M-996.844,645.276l26.465-34.2-26.465-34.2v23.816c-55.576,1.324-74.1-35.686-74.1-35.686s-3.911,64.834,74.1,60.827Z" transform="translate(1568.977 3386)" fill="#ccf9ff" stroke="#00defc" stroke-linejoin="round" stroke-width="4"/>
    <path id="Trazado_203756" data-name="Trazado 203756" d="M-996.844,645.276l26.465-34.2-26.465-34.2v23.816c-55.576,1.324-74.1-35.686-74.1-35.686s-3.911,64.834,74.1,60.827Z" transform="translate(1568.977 3501)" fill="#ccf9ff" stroke="#00defc" stroke-linejoin="round" stroke-width="4"/>
    <path id="Trazado_203758" data-name="Trazado 203758" d="M-996.844,645.276l26.465-34.2-26.465-34.2v23.816c-55.576,1.324-74.1-35.686-74.1-35.686s-3.911,64.834,74.1,60.827Z" transform="translate(1568.977 3616)" fill="#ccf9ff" stroke="#00defc" stroke-linejoin="round" stroke-width="4"/>
    <path id="Trazado_203760" data-name="Trazado 203760" d="M-996.844,645.276l26.465-34.2-26.465-34.2v23.816c-55.576,1.324-74.1-35.686-74.1-35.686s-3.911,64.834,74.1,60.827Z" transform="translate(1568.977 3731)" fill="#ccf9ff" stroke="#00defc" stroke-linejoin="round" stroke-width="4"/>
    <text id="Definición" transform="translate(808.598 3979)" fill="#fff" font-size="28" font-family="Roboto-Black, Roboto" font-weight="800"><tspan x="-64.196" y="29">Definición</tspan></text>
    <text id="Sintaxis" transform="translate(808.598 4094)" fill="#fff" font-size="28" font-family="Roboto-Black, Roboto" font-weight="800"><tspan x="-50.969" y="29">Sintaxis</tspan></text>
    <text id="Ejemplo_1" data-name="Ejemplo 1" transform="translate(808.598 4209)" fill="#fff" font-size="28" font-family="Roboto-Black, Roboto" font-weight="800"><tspan x="-62.48" y="29">Ejemplo 1</tspan></text>
    <text id="Ejemplo_2" data-name="Ejemplo 2" transform="translate(808.598 4324)" fill="#fff" font-size="28" font-family="Roboto-Black, Roboto" font-weight="800"><tspan x="-62.48" y="29">Ejemplo 2</tspan></text>
  </g>
</svg>
